<svg xmlns="http://www.w3.org/2000/svg" xmlns:xlink="http://www.w3.org/1999/xlink" viewBox="0 0 300 300"><defs><path id="a" d="M233 300H67c-36.85 0-67-30.15-67-67V67C0 30.15 30.15 0 67 0h166c36.85 0 67 30.15 67 67v166c0 36.85-30.15 67-67 67z"/></defs><clipPath id="b"><use xlink:href="#a" overflow="visible"/></clipPath><path clip-path="url(#b)" fill="#fff" d="M.024.026h299.952v299.948H.024z"/><g clip-path="url(#b)"><defs><path id="c" d="M226.867 70.319h-32.286c-.061-10.298-4.915-19.868-13.693-26.965-8.337-6.74-19.322-10.452-30.93-10.452s-22.593 3.712-30.93 10.452c-8.778 7.097-13.632 16.667-13.693 26.965H73.113c-7.7 0-14 6.3-14 14V234.07c0 7.7 6.3 14 14 14h153.754c7.7 0 14-6.3 14-14V84.319c0-7.7-6.3-14-14-14zm-76.909-29.417c20.149 0 36.492 13.153 36.623 29.417h-73.247c.131-16.264 16.475-29.417 36.624-29.417z"/></defs><clipPath id="d"><use xlink:href="#c" overflow="visible"/></clipPath><linearGradient id="e" gradientUnits="userSpaceOnUse" x1="149.99" y1="32.902" x2="149.99" y2="248.07"><stop offset="0" stop-color="#2de0e1"/><stop offset="1" stop-color="#0397d3"/></linearGradient><path clip-path="url(#d)" fill="url(#e)" d="M59.113 32.902h181.754V248.07H59.113z"/></g><path d="M184.028 172.067a63.746 63.746 0 0 1-1.475 3.879c-1.268 2.923-2.765 5.613-4.499 8.083-2.36 3.372-4.297 5.706-5.789 7-2.311 2.126-4.79 3.218-7.444 3.275-1.906 0-4.2-.541-6.877-1.638-2.681-1.096-5.146-1.638-7.4-1.638-2.364 0-4.9.541-7.612 1.638-2.716 1.096-4.904 1.673-6.577 1.726-2.545.11-5.08-1.008-7.612-3.363-1.616-1.409-3.636-3.826-6.058-7.246-2.597-3.654-4.733-7.893-6.405-12.727-1.792-5.217-2.69-10.271-2.69-15.162 0-5.604 1.211-10.438 3.636-14.488 1.906-3.253 4.442-5.82 7.616-7.704 3.174-1.884 6.604-2.844 10.297-2.906 2.021 0 4.671.625 7.964 1.853 3.284 1.233 5.393 1.858 6.317 1.858.691 0 3.033-.731 7.004-2.188 3.755-1.352 6.925-1.911 9.522-1.691 7.035.568 12.318 3.341 15.835 8.338-6.291 3.812-9.404 9.153-9.342 16.003.057 5.336 1.99 9.778 5.794 13.304a19.2 19.2 0 0 0 5.795 3.794zm-17.697-61.29c.057.559.084 1.118.084 1.673 0 4.182-1.528 8.087-4.57 11.702-3.676 4.297-8.122 6.78-12.943 6.388a12.913 12.913 0 0 1-.097-1.585c0-4.015 1.748-8.312 4.851-11.825 1.55-1.779 3.522-3.258 5.908-4.438 2.386-1.162 4.645-1.805 6.767-1.915z" clip-path="url(#b)" fill="#fff"/></svg>