<svg xmlns="http://www.w3.org/2000/svg" xmlns:xlink="http://www.w3.org/1999/xlink" viewBox="0 0 335.84 335.836"><defs><path id="a" d="M260.615 335.836H75.225c-41.25 0-75-33.75-75-75V75c0-41.25 33.75-75 75-75h185.39c41.25 0 75 33.75 75 75v185.836c0 41.25-33.75 75-75 75z"/></defs><clipPath id="b"><use xlink:href="#a" overflow="visible"/></clipPath><linearGradient id="c" gradientUnits="userSpaceOnUse" x1="167.92" x2="167.92" y2="335.836"><stop offset="0" stop-color="#19e6ff"/><stop offset="1" stop-color="#1e54ee"/></linearGradient><path clip-path="url(#b)" fill="url(#c)" d="M0 0h335.84v335.836H0z"/><path d="M167.92 35.911c72.739 0 131.706 58.967 131.706 131.706 0 72.739-58.967 131.706-131.706 131.706S36.214 240.357 36.214 167.618c0-72.74 58.967-131.707 131.706-131.707m0-14c-38.92 0-75.51 15.156-103.03 42.676-27.52 27.52-42.676 64.11-42.676 103.03s15.156 75.51 42.676 103.03c27.52 27.52 64.11 42.676 103.03 42.676s75.51-15.156 103.03-42.676c27.52-27.52 42.676-64.11 42.676-103.03s-15.156-75.51-42.676-103.03c-27.52-27.519-64.11-42.676-103.03-42.676z" clip-path="url(#b)" fill="#fff"/><g clip-path="url(#b)" fill="#fff"><path d="M203.932 137.103c-3.136-5.33-27.024-48.946-27.024-48.946s-6.244-8.474-14.083-4.062c-7.841 4.413-4.001 13.687-4.001 13.687l27.297 48.65c2.502 4.46 11.678 19.613 19.521 32.496l17.087-9.875-18.797-31.95zM224.623 172.271l-17.038 9.846a9313.215 9313.215 0 0 0 10.254 16.79l17.053-9.182-10.269-17.454zM235.035 193.9l-13.347 7.725c-.59 3.686-.513 6.053 1.345 9.769 3.357 6.713 7.595 6.79 15.739 14.448 3.617 3.401 4.969 12.903 6.038 11.294 3.401-5.121 4.151-10.338 4.151-18.189 0-12.546-6.199-21.713-13.926-25.047z"/></g><g clip-path="url(#b)" fill="#fff"><path d="M138.153 126.139c-7.362 12.48-18.566 31.41-21.85 36.602-2.734 4.322-13.624 22.322-21.229 35.348l18.074 11.866c8.071-13.359 18.922-32.893 20.678-35.798 2.167-3.587 14.431-24.289 22.114-37.265l-17.787-10.753zM93.277 203.7l-7.738 32.729 23.788-21.876zM158.811 111.748c-9.414-5.583-13.943 2.989-13.943 2.989s-1.872 3.186-4.674 7.939l17.794 10.757 4.227-7.141s5.773-9.101-3.404-14.544z"/></g><g clip-path="url(#b)" fill="#fff"><path d="M133.964 178.452H201l-11.799-18.646h-43.513zM221.987 159.806l10.091 18.646h25.252v-18.646zM114.627 159.806H78.83v18.646h24.727z"/></g></svg>