<svg xmlns="http://www.w3.org/2000/svg" xmlns:xlink="http://www.w3.org/1999/xlink" viewBox="0 0 300 300"><defs><path id="a" d="M233 300H67c-36.85 0-67-30.15-67-67V67C0 30.15 30.15 0 67 0h166c36.85 0 67 30.15 67 67v166c0 36.85-30.15 67-67 67z"/></defs><clipPath id="b"><use xlink:href="#a" overflow="visible"/></clipPath><linearGradient id="c" gradientUnits="userSpaceOnUse" x1="150" x2="150" y2="300"><stop offset="0" stop-color="#19e6ff"/><stop offset="1" stop-color="#1e54ee"/></linearGradient><path clip-path="url(#b)" fill="url(#c)" d="M-.002 0h300.004v300H-.002z"/><path d="M150 32.079c64.978 0 117.653 52.675 117.653 117.653 0 64.978-52.675 117.653-117.653 117.653S32.347 214.71 32.347 149.732C32.347 84.754 85.022 32.079 150 32.079m0-12.506c-34.767 0-67.452 13.539-92.036 38.123-24.584 24.584-38.123 57.269-38.123 92.036s13.539 67.452 38.123 92.036c24.584 24.584 57.269 38.123 92.036 38.123s67.452-13.539 92.036-38.123c24.584-24.584 38.123-57.269 38.123-92.036S266.62 82.28 242.036 57.696C217.452 33.112 184.767 19.573 150 19.573z" clip-path="url(#b)" fill="#fff"/><g clip-path="url(#b)" fill="#fff"><path d="M182.17 122.474c-2.801-4.762-24.141-43.723-24.141-43.723s-5.578-7.57-12.58-3.629c-7.004 3.943-3.574 12.227-3.574 12.227l24.384 43.459c2.235 3.984 10.432 17.52 17.438 29.029l15.264-8.821-16.791-28.542zM200.652 153.889l-15.22 8.796c5.088 8.349 9.16 14.999 9.16 14.999l15.233-8.202c.001-.001-4.108-6.985-9.173-15.593zM209.953 173.21l-11.922 6.901c-.527 3.292-.459 5.407 1.201 8.726 2.998 5.997 6.785 6.066 14.059 12.906 3.231 3.038 4.439 11.527 5.394 10.089 3.038-4.574 3.708-9.235 3.708-16.248 0-11.207-5.537-19.396-12.44-22.374z"/></g><g clip-path="url(#b)" fill="#fff"><path d="M123.409 112.679c-6.576 11.148-16.585 28.058-19.519 32.697-2.442 3.861-12.17 19.94-18.964 31.576l16.146 10.6c7.209-11.933 16.903-29.383 18.472-31.979 1.936-3.204 12.891-21.697 19.754-33.289l-15.889-9.605zM83.322 181.964l-6.913 29.237 21.25-19.542zM141.863 99.824c-8.409-4.988-12.455 2.67-12.455 2.67s-1.673 2.846-4.175 7.092l15.895 9.609 3.776-6.379s5.157-8.13-3.041-12.992z"/></g><g clip-path="url(#b)" fill="#fff"><path d="M119.667 159.41h59.883l-10.54-16.656h-38.87zM198.298 142.754l9.014 16.656h22.557v-16.656zM102.394 142.754H70.417v16.656h22.088z"/></g></svg>