<svg xmlns="http://www.w3.org/2000/svg" xmlns:xlink="http://www.w3.org/1999/xlink" viewBox="0 0 335.84 335.836"><defs><path id="a" d="M260.615 335.836H75.225c-41.25 0-75-33.75-75-75V75c0-41.25 33.75-75 75-75h185.39c41.25 0 75 33.75 75 75v185.836c0 41.25-33.75 75-75 75z"/></defs><clipPath id="b"><use xlink:href="#a" overflow="visible"/></clipPath><linearGradient id="c" gradientUnits="userSpaceOnUse" x1="167.92" x2="167.92" y2="335.836"><stop offset="0" stop-color="#19e6ff"/><stop offset="1" stop-color="#1e54ee"/></linearGradient><path clip-path="url(#b)" fill="url(#c)" d="M0 0h335.84v335.836H0z"/><path d="M167.92 35.911c72.739 0 131.706 58.967 131.706 131.706 0 72.739-58.967 131.706-131.706 131.706S36.214 240.357 36.214 167.618c0-72.74 58.967-131.707 131.706-131.707m0-14c-38.92 0-75.51 15.156-103.03 42.676-27.52 27.52-42.676 64.11-42.676 103.03s15.156 75.51 42.676 103.03c27.52 27.52 64.11 42.676 103.03 42.676s75.51-15.156 103.03-42.676c27.52-27.52 42.676-64.11 42.676-103.03s-15.156-75.51-42.676-103.03c-27.52-27.519-64.11-42.676-103.03-42.676z" clip-path="url(#b)" fill="#fff"/><g clip-path="url(#b)" fill="#fff"><path d="M203.932 137.103c-3.136-5.33-27.024-48.946-27.024-48.946s-6.244-8.474-14.083-4.062c-7.841 4.413-4.001 13.687-4.001 13.687l27.297 48.65c2.502 4.46 11.678 19.613 19.521 32.496l17.087-9.875-18.797-31.95zM224.623 172.271l-17.038 9.846a9313.215 9313.215 0 0 0 10.254 16.79l17.053-9.182-10.269-17.454zM236.118 192.421l-15.125 8.132c-.514 4.304-.335 8.336 1.273 12.167 2.966 7.066 8.643 7.024 16.443 13.453 3.831 3.158 4.2 13.9 5.269 12.291 3.401-5.121 5.518-11.732 5.518-19.583-.001-12.546-5.65-23.127-13.378-26.46z"/></g><g clip-path="url(#b)" fill="#fff"><path d="M158.811 111.748c-9.414-5.583-13.943 2.989-13.943 2.989s-23.544 40.064-28.565 48.004c-2.734 4.322-13.624 22.322-21.229 35.348l18.074 11.866c8.071-13.359 18.922-32.893 20.678-35.798 3.198-5.293 28.388-47.865 28.388-47.865s5.774-9.101-3.403-14.544zM83.992 237.72l26.6-23.507-17.543-11.111z"/></g><g clip-path="url(#b)" fill="#fff"><path d="M133.964 179.471H201l-11.799-19.665h-43.513zM221.987 159.806l10.091 19.665h25.252v-19.665zM114.627 159.806H78.83v19.665h24.727z"/></g></svg>