<svg xmlns="http://www.w3.org/2000/svg" xmlns:xlink="http://www.w3.org/1999/xlink" viewBox="0 0 335.84 335.836"><defs><path id="a" d="M260.615 335.836H75.225c-41.25 0-75-33.75-75-75V75c0-41.25 33.75-75 75-75h185.39c41.25 0 75 33.75 75 75v185.836c0 41.25-33.75 75-75 75z"/></defs><clipPath id="b"><use xlink:href="#a" overflow="visible"/></clipPath><path clip-path="url(#b)" fill="#ff9600" d="M0 0h335.615v335.836H0z"/><path clip-path="url(#b)" fill="#c6c7cb" d="M167.878 167.918H335.84v167.918H167.878z"/><path clip-path="url(#b)" fill="none" stroke="#000" stroke-width="6" stroke-miterlimit="10" d="M0 167.918h335.84M167.92 335.838V-.002"/><path d="M115.121 76.257h-28.4v-28.4c0-.935-.765-1.7-1.7-1.7H81.13c-.935 0-1.7.765-1.7 1.7v28.399H51.031c-.935 0-1.7.765-1.7 1.7v3.891c0 .935.765 1.7 1.7 1.7H79.43v28.399c0 .935.765 1.7 1.7 1.7h3.891c.935 0 1.7-.765 1.7-1.7V83.548h28.399c.935 0 1.7-.765 1.7-1.7v-3.891a1.703 1.703 0 0 0-1.699-1.7zM282.501 82.621h-64.09c-.935 0-1.7-.765-1.7-1.7V77.03c0-.935.765-1.7 1.7-1.7h64.09c.935 0 1.7.765 1.7 1.7v3.891c0 .935-.765 1.7-1.7 1.7zM86.409 247.419l18.809-18.809a3.51 3.51 0 0 0 0-4.95l-.206-.206a3.51 3.51 0 0 0-4.95 0l-18.809 18.809-18.809-18.809a3.51 3.51 0 0 0-4.95 0l-.206.206a3.51 3.51 0 0 0 0 4.95l18.809 18.809-18.809 18.809a3.51 3.51 0 0 0 0 4.95l.206.206a3.51 3.51 0 0 0 4.95 0l18.809-18.809 18.809 18.809a3.51 3.51 0 0 0 4.95 0l.206-.206a3.51 3.51 0 0 0 0-4.95l-18.809-18.809z" clip-path="url(#b)" fill="#fff"/><g clip-path="url(#b)"><path d="M282.672 261.135h-64.043c-.935 0-1.7.765-1.7 1.7v4.125c0 .935.765 1.7 1.7 1.7h64.043c.935 0 1.7-.765 1.7-1.7v-4.125a1.706 1.706 0 0 0-1.7-1.7zM282.672 224.493h-64.043c-.935 0-1.7.765-1.7 1.7v4.125c0 .935.765 1.7 1.7 1.7h64.043c.935 0 1.7-.765 1.7-1.7v-4.125a1.706 1.706 0 0 0-1.7-1.7z"/></g></svg>