<svg xmlns="http://www.w3.org/2000/svg" xmlns:xlink="http://www.w3.org/1999/xlink" viewBox="0 0 300 300"><defs><path id="a" d="M233 300H67c-36.85 0-67-30.15-67-67V67C0 30.15 30.15 0 67 0h166c36.85 0 67 30.15 67 67v166c0 36.85-30.15 67-67 67z"/></defs><clipPath id="b"><use xlink:href="#a" overflow="visible"/></clipPath><path clip-path="url(#b)" fill="#ff9600" d="M-.002 0h299.803v300H-.002z"/><path clip-path="url(#b)" fill="#c6c7cb" d="M149.962 150h150.04v150h-150.04z"/><path clip-path="url(#b)" fill="none" stroke="#000" stroke-width="6" stroke-miterlimit="10" d="M-.002 150h300.004M150 300.002V-.002"/><path d="M102.835 68.12H77.466V42.751c0-.835-.683-1.519-1.519-1.519h-3.476c-.835 0-1.519.683-1.519 1.519V68.12H45.584c-.835 0-1.519.683-1.519 1.519v3.476c0 .835.683 1.519 1.519 1.519h25.369v25.369c0 .835.683 1.519 1.519 1.519h3.476c.835 0 1.519-.683 1.519-1.519v-25.37h25.369c.835 0 1.519-.683 1.519-1.519v-3.476a1.525 1.525 0 0 0-1.52-1.518zM252.173 73.804h-56.888c-.935 0-1.7-.765-1.7-1.7v-3.113c0-.935.765-1.7 1.7-1.7h56.888c.935 0 1.7.765 1.7 1.7v3.113c0 .935-.765 1.7-1.7 1.7zM77.187 221.018l16.802-16.802a3.136 3.136 0 0 0 0-4.422l-.184-.184a3.136 3.136 0 0 0-4.422 0l-16.802 16.802-16.801-16.801a3.136 3.136 0 0 0-4.422 0l-.184.184a3.136 3.136 0 0 0 0 4.422l16.802 16.802-16.802 16.801a3.136 3.136 0 0 0 0 4.422l.184.184a3.136 3.136 0 0 0 4.422 0l16.802-16.802 16.802 16.802a3.136 3.136 0 0 0 4.422 0l.184-.184a3.136 3.136 0 0 0 0-4.422l-16.803-16.802z" clip-path="url(#b)" fill="#fff"/><g clip-path="url(#b)"><path d="M252.507 233.271h-57.21c-.835 0-1.519.683-1.519 1.519v3.685c0 .835.683 1.519 1.519 1.519h57.21c.835 0 1.519-.683 1.519-1.519v-3.685a1.524 1.524 0 0 0-1.519-1.519zM252.507 200.539h-57.21c-.835 0-1.519.683-1.519 1.519v3.685c0 .835.683 1.519 1.519 1.519h57.21c.835 0 1.519-.683 1.519-1.519v-3.685a1.524 1.524 0 0 0-1.519-1.519z"/></g></svg>