<svg xmlns="http://www.w3.org/2000/svg" xmlns:xlink="http://www.w3.org/1999/xlink" viewBox="0 0 335.84 335.836"><defs><path id="a" d="M260.615 335.836H75.225c-41.25 0-75-33.75-75-75V75c0-41.25 33.75-75 75-75h185.39c41.25 0 75 33.75 75 75v185.836c0 41.25-33.75 75-75 75z"/></defs><clipPath id="b"><use xlink:href="#a" overflow="visible"/></clipPath><linearGradient id="c" gradientUnits="userSpaceOnUse" x1="167.92" x2="167.92" y2="335.836"><stop offset="0" stop-color="#f7f6f8"/><stop offset=".289" stop-color="#dfdfe1"/><stop offset=".739" stop-color="#9fa0a5"/><stop offset="1" stop-color="#8a8c91"/></linearGradient><path clip-path="url(#b)" fill="url(#c)" d="M0 0h335.84v335.836H0z"/><g clip-path="url(#b)"><linearGradient id="d" gradientUnits="userSpaceOnUse" x1="167.809" y1="238.008" x2="167.809" y2="253.568"><stop offset="0" stop-color="#2b2b2b"/><stop offset="1" stop-color="#2b2b2b"/></linearGradient><path d="M64.037 253.568c-7.444 0-13.5-6.056-13.5-13.5v-2.061h234.544v2.061c0 7.444-6.056 13.5-13.5 13.5H64.037z" fill="url(#d)"/><path d="M284.58 238.507v1.561c0 7.168-5.832 13-13 13H64.036c-7.168 0-13-5.832-13-13v-1.561H284.58m1-1H50.036v2.561c0 7.7 6.3 14 14 14H271.58c7.7 0 14-6.3 14-14v-2.561z" fill="#131211"/></g><g clip-path="url(#b)"><linearGradient id="e" gradientUnits="userSpaceOnUse" x1="167.808" y1="130.943" x2="167.808" y2="214.944"><stop offset="0" stop-color="#3c3c3c"/><stop offset="1" stop-color="#2c2c2c"/></linearGradient><circle cx="167.808" cy="172.943" r="42" fill="url(#e)"/><linearGradient id="f" gradientUnits="userSpaceOnUse" x1="167.878" y1="112.181" x2="167.878" y2="233.869"><stop offset="0" stop-color="#3c3c3c"/><stop offset="1" stop-color="#2c2c2c"/></linearGradient><path d="M50.606 233.869V112.181H285.15v121.688H50.606zm117.202-111.426c-27.846 0-50.5 22.654-50.5 50.5s22.654 50.5 50.5 50.5 50.5-22.654 50.5-50.5-22.654-50.5-50.5-50.5z" fill="url(#f)"/><path d="M284.65 112.681v120.688H51.106V112.681H284.65M167.808 223.944c28.121 0 51-22.879 51-51s-22.879-51-51-51c-28.122 0-51 22.879-51 51s22.879 51 51 51M285.65 111.681H50.106v122.688H285.65V111.681zM167.808 222.944c-27.57 0-50-22.43-50-50s22.43-50 50-50 50 22.43 50 50-22.43 50-50 50z" fill="#131211"/></g><circle cx="220.853" cy="128.913" r="5.818" clip-path="url(#b)" fill="#ffc921"/><g clip-path="url(#b)"><linearGradient id="g" gradientUnits="userSpaceOnUse" x1="82.412" y1="81.452" x2="82.412" y2="88.751"><stop offset="0" stop-color="#404040"/><stop offset="1" stop-color="#454545"/></linearGradient><path d="M73.155 88.751v-2.8c0-2.481 2.019-4.5 4.5-4.5h9.514c2.481 0 4.5 2.019 4.5 4.5v2.8H73.155z" fill="url(#g)"/><path d="M87.169 81.952c2.206 0 4 1.794 4 4v2.3H73.655v-2.3c0-2.206 1.794-4 4-4h9.514m0-1h-9.514c-2.75 0-5 2.25-5 5v3.3h19.514v-3.3c0-2.75-2.25-5-5-5z" fill="#131211"/></g><g clip-path="url(#b)"><linearGradient id="h" gradientUnits="userSpaceOnUse" x1="167.878" y1="64.43" x2="167.878" y2="108.603"><stop offset="0" stop-color="#494949"/><stop offset="1" stop-color="#404040"/></linearGradient><path d="M50.606 108.603v-2.763c.002-7.442 6.058-13.497 13.5-13.497-.002 0 16.032.059 27.107.059 9.716 0 10.171-.046 10.321-.062 5.006-.512 9.084-3.016 11.623-5.026 5.379-4.258 10.038-12.11 10.234-12.442 2.987-6.262 9.266-10.443 15.645-10.443h57.685c6.378 0 12.657 4.181 15.624 10.404.216.371 4.876 8.223 10.254 12.48 2.539 2.01 6.616 4.514 11.623 5.026.149.015.604.062 10.32.062 11.076 0 27.11-.059 27.11-.059 7.44 0 13.496 6.055 13.498 13.497v2.763H50.606z" fill="url(#h)"/><path d="M196.72 64.93c6.189 0 12.287 4.067 15.173 10.119l.019.04.022.038c.198.335 4.903 8.265 10.354 12.581 2.591 2.051 6.756 4.607 11.882 5.131.172.018.63.064 10.372.064 10.95 0 26.951-.059 27.108-.059 7.166 0 12.998 5.83 13 12.996v2.263H51.106v-2.262c.002-7.166 5.833-12.997 12.996-12.997.16.001 16.161.059 27.111.059 9.742 0 10.199-.047 10.372-.064 5.126-.524 9.291-3.08 11.882-5.131 5.451-4.315 10.157-12.245 10.354-12.58l.022-.038.019-.04c2.886-6.053 8.983-10.119 15.173-10.119h57.685m0-1.001h-57.684c-6.974 0-13.241 4.745-16.075 10.689 0 0-4.746 8.055-10.114 12.304-5.367 4.249-10.06 4.787-11.363 4.92-.435.044-4.733.059-10.27.059a9207.9 9207.9 0 0 1-27.108-.059c-7.731 0-13.998 6.266-14 13.996v3.263H285.65v-3.263c-.002-7.73-6.269-13.996-14-13.996 0 0-16.033.059-27.108.059-5.538 0-9.835-.015-10.27-.059-1.304-.133-5.996-.671-11.363-4.92-5.368-4.249-10.114-12.304-10.114-12.304-2.834-5.944-9.101-10.689-16.075-10.689z" fill="#131211"/></g></svg>