<svg xmlns="http://www.w3.org/2000/svg" xmlns:xlink="http://www.w3.org/1999/xlink" viewBox="0 0 335.84 335.836"><defs><path id="a" d="M260.615 335.836H75.225c-41.25 0-75-33.75-75-75V75c0-41.25 33.75-75 75-75h185.39c41.25 0 75 33.75 75 75v185.836c0 41.25-33.75 75-75 75z"/></defs><clipPath id="b"><use xlink:href="#a" overflow="visible"/></clipPath><linearGradient id="c" gradientUnits="userSpaceOnUse" x1="167.92" x2="167.92" y2="335.836"><stop offset="0" stop-color="#f7f6f8"/><stop offset=".289" stop-color="#dfdfe1"/><stop offset=".739" stop-color="#9fa0a5"/><stop offset="1" stop-color="#8a8c91"/></linearGradient><path clip-path="url(#b)" fill="url(#c)" d="M0 0h335.84v335.836H0z"/><linearGradient id="d" gradientUnits="userSpaceOnUse" x1="167.808" y1="237.507" x2="167.808" y2="254.068"><stop offset="0" stop-color="#2b2b2b"/><stop offset="1" stop-color="#2b2b2b"/></linearGradient><path d="M50.036 237.507v2.561c0 7.7 6.3 14 14 14H271.58c7.7 0 14-6.3 14-14v-2.561H50.036z" clip-path="url(#b)" fill="url(#d)"/><g clip-path="url(#b)"><linearGradient id="e" gradientUnits="userSpaceOnUse" x1="167.808" y1="130.943" x2="167.808" y2="214.944"><stop offset="0" stop-color="#3c3c3c"/><stop offset="1" stop-color="#2c2c2c"/></linearGradient><circle cx="167.808" cy="172.943" r="42" fill="url(#e)"/><linearGradient id="f" gradientUnits="userSpaceOnUse" x1="167.878" y1="111.681" x2="167.878" y2="234.369"><stop offset="0" stop-color="#3c3c3c"/><stop offset="1" stop-color="#2c2c2c"/></linearGradient><path d="M50.106 111.681v122.688H285.65V111.681H50.106zm117.702 111.263c-27.57 0-50-22.43-50-50s22.43-50 50-50 50 22.43 50 50-22.43 50-50 50z" fill="url(#f)"/></g><circle cx="220.853" cy="128.913" r="5.818" clip-path="url(#b)" fill="#ffc921"/><linearGradient id="g" gradientUnits="userSpaceOnUse" x1="82.412" y1="80.952" x2="82.412" y2="89.251"><stop offset="0" stop-color="#404040"/><stop offset="1" stop-color="#454545"/></linearGradient><path d="M92.169 89.251v-3.3c0-2.75-2.25-5-5-5h-9.514c-2.75 0-5 2.25-5 5v3.3h19.514z" clip-path="url(#b)" fill="url(#g)"/><linearGradient id="h" gradientUnits="userSpaceOnUse" x1="167.878" y1="63.93" x2="167.878" y2="109.102"><stop offset="0" stop-color="#494949"/><stop offset="1" stop-color="#404040"/></linearGradient><path d="M271.65 91.843s-36.074.133-37.378 0-5.996-.671-11.363-4.92c-5.368-4.249-10.114-12.304-10.114-12.304-2.834-5.944-9.102-10.689-16.075-10.689h-57.684c-6.974 0-13.241 4.745-16.075 10.689 0 0-4.746 8.055-10.114 12.304-5.367 4.249-10.06 4.787-11.363 4.92s-37.378 0-37.378 0c-7.731 0-13.998 6.266-14 13.996v3.263H285.65v-3.263c-.002-7.73-6.27-13.996-14-13.996z" clip-path="url(#b)" fill="url(#h)"/></svg>