<svg xmlns="http://www.w3.org/2000/svg" xmlns:xlink="http://www.w3.org/1999/xlink" viewBox="0 0 300 300" enable-background="new 0 0 300 300"><filter xmlns="http://www.w3.org/2000/svg" id="d"><feOffset dy="3"/><feGaussianBlur result="offset-blur" stdDeviation="1"/><feComposite in2="offset-blur" operator="out" result="inverse" in="SourceGraphic"/><feFlood flood-color="#000" result="color" flood-opacity="1"/><feComposite in2="inverse" operator="in" result="shadow" in="color"/><feComposite in2="SourceGraphic" in="shadow"/></filter><defs><path id="a" d="M233 300H67c-36.85 0-67-30.15-67-67V67C0 30.15 30.15 0 67 0h166c36.85 0 67 30.15 67 67v166c0 36.85-30.15 67-67 67z"/></defs><clipPath id="b"><use xlink:href="#a" overflow="visible"/></clipPath><linearGradient id="c" gradientUnits="userSpaceOnUse" x1="150" x2="150" y2="300"><stop offset="0" stop-color="#f7f6f8"/><stop offset=".289" stop-color="#dfdfe1"/><stop offset=".739" stop-color="#9fa0a5"/><stop offset="1" stop-color="#8a8c91"/></linearGradient><path clip-path="url(#b)" fill="url(#c)" d="M-.002 0h300.004v300H-.002z"/><g clip-path="url(#b)" filter="url(#d)"><linearGradient id="e" gradientUnits="userSpaceOnUse" x1="149.9" y1="212.164" x2="149.9" y2="226.958"><stop offset="0" stop-color="#2b2b2b"/><stop offset="1" stop-color="#2b2b2b"/></linearGradient><path d="M44.695 212.164v2.288c0 6.878 5.628 12.506 12.506 12.506h185.398c6.878 0 12.506-5.628 12.506-12.506v-2.288H44.695z" fill="url(#e)"/></g><g clip-path="url(#b)" filter="url(#d)"><linearGradient id="f" gradientUnits="userSpaceOnUse" x1="149.9" y1="116.97" x2="149.9" y2="192.008"><stop offset="0" stop-color="#404040"/><stop offset="1" stop-color="#2b2b2b"/></linearGradient><circle cx="149.9" cy="154.489" r="37.519" fill="url(#f)"/><linearGradient id="g" gradientUnits="userSpaceOnUse" x1="149.962" y1="99.764" x2="149.962" y2="209.36"><stop offset="0" stop-color="#404040"/><stop offset="1" stop-color="#2b2b2b"/></linearGradient><path d="M44.757 99.764V209.36h210.41V99.764H44.757zm105.143 99.39c-24.628 0-44.665-20.037-44.665-44.665s20.036-44.665 44.665-44.665 44.665 20.037 44.665 44.665-20.036 44.665-44.665 44.665z" fill="url(#g)"/></g><circle cx="197.284" cy="115.158" r="5.197" clip-path="url(#b)" fill="#ffc921"/><g clip-path="url(#b)" filter="url(#d)"><linearGradient id="h" gradientUnits="userSpaceOnUse" x1="73.616" y1="72.314" x2="73.616" y2="79.728"><stop offset="0" stop-color="#404040"/><stop offset="1" stop-color="#454545"/></linearGradient><path d="M82.332 79.728V76.78a4.479 4.479 0 0 0-4.466-4.466h-8.499a4.479 4.479 0 0 0-4.466 4.466v2.948h17.431z" fill="url(#h)"/></g><g clip-path="url(#b)" filter="url(#d)"><linearGradient id="i" gradientUnits="userSpaceOnUse" x1="149.962" y1="57.108" x2="149.962" y2="97.46"><stop offset="0" stop-color="#4a4a4a"/><stop offset="1" stop-color="#434343"/></linearGradient><path d="M242.661 82.043s-32.225.119-33.389 0c-1.165-.119-5.356-.599-10.151-4.395-4.795-3.796-9.034-10.991-9.034-10.991-2.532-5.31-8.13-9.548-14.36-9.548h-51.528c-6.23 0-11.828 4.238-14.36 9.548 0 0-4.24 7.195-9.034 10.991-4.795 3.796-8.986 4.276-10.151 4.395-1.165.119-33.389 0-33.389 0-6.906 0-12.504 5.597-12.506 12.503v2.914h210.41v-2.914c-.004-6.905-5.602-12.503-12.508-12.503z" fill="url(#i)"/></g></svg>