<svg xmlns="http://www.w3.org/2000/svg" xmlns:xlink="http://www.w3.org/1999/xlink" viewBox="0 0 300 300"><defs><path id="a" d="M233 300H67c-36.85 0-67-30.15-67-67V67C0 30.15 30.15 0 67 0h166c36.85 0 67 30.15 67 67v166c0 36.85-30.15 67-67 67z"/></defs><clipPath id="b"><use xlink:href="#a" overflow="visible"/></clipPath><path clip-path="url(#b)" d="M.024.026h299.952v299.948H.024z"/><circle cx="150" cy="150" r="130.147" clip-path="url(#b)" fill="#fff"/><g clip-path="url(#b)"><text transform="translate(195.795 75.366)" font-family="SanFranciscoDisplay-Light" font-size="33.046" letter-spacing="2">1</text></g><g clip-path="url(#b)"><text transform="translate(228.008 112.204)" font-family="SanFranciscoDisplay-Light" font-size="33.046" letter-spacing="2">2</text></g><g clip-path="url(#b)"><text transform="translate(241.233 159.913)" font-family="SanFranciscoDisplay-Light" font-size="33.046" letter-spacing="2">3</text></g><g clip-path="url(#b)"><text transform="translate(226.556 212.152)" font-family="SanFranciscoDisplay-Light" font-size="33.046" letter-spacing="2">4</text></g><g clip-path="url(#b)"><text transform="translate(190.216 247.07)" font-family="SanFranciscoDisplay-Light" font-size="33.046" letter-spacing="2">5</text></g><g clip-path="url(#b)"><text transform="translate(140.038 262.275)" font-family="SanFranciscoDisplay-Light" font-size="33.046" letter-spacing="2">6</text></g><g clip-path="url(#b)"><text transform="translate(90.934 247.418)" font-family="SanFranciscoDisplay-Light" font-size="33.046" letter-spacing="2">7</text></g><g clip-path="url(#b)"><text transform="translate(51.299 212.495)" font-family="SanFranciscoDisplay-Light" font-size="33.046" letter-spacing="2">8</text></g><g clip-path="url(#b)"><text transform="translate(39.729 160.092)" font-family="SanFranciscoDisplay-Light" font-size="33.046" letter-spacing="2">9</text></g><g clip-path="url(#b)"><text transform="translate(48.687 112.504)" font-family="SanFranciscoDisplay-Light" font-size="33.046" letter-spacing="2">10</text></g><g clip-path="url(#b)"><text transform="translate(85.844 75.099)" font-family="SanFranciscoDisplay-Light" font-size="33.046" letter-spacing="2">11</text></g><g clip-path="url(#b)"><text transform="translate(133.613 60.044)" font-family="SanFranciscoDisplay-Light" font-size="33.046" letter-spacing="2">12</text></g><g clip-path="url(#b)"><path d="M149.962 155.869c-3.236 0-5.87-2.633-5.87-5.869s2.633-5.869 5.87-5.869 5.869 2.633 5.869 5.869-2.632 5.869-5.869 5.869z" fill="#f9a050"/><path d="M149.962 146.131a3.869 3.869 0 1 1 0 7.737 3.869 3.869 0 0 1 0-7.737m0-4c-4.339 0-7.869 3.53-7.869 7.869s3.53 7.869 7.869 7.869 7.869-3.53 7.869-7.869-3.53-7.869-7.869-7.869z"/></g><path d="M148.176 33.122v134.286a1.786 1.786 0 1 0 3.572 0V33.122a1.786 1.786 0 0 0-3.572 0z" clip-path="url(#b)" fill="#f9a050"/><path d="M46.553 197.972l98.934-44.048a1.785 1.785 0 1 0-1.453-3.263L45.1 194.709a1.785 1.785 0 0 0-.905 2.358 1.785 1.785 0 0 0 2.358.905zm32.591-71.652l63.619 23.786a1.792 1.792 0 0 0 2.299-1.048 1.792 1.792 0 0 0-1.048-2.299l-63.619-23.786a1.792 1.792 0 0 0-2.299 1.048 1.792 1.792 0 0 0 1.048 2.299z" clip-path="url(#b)"/></svg>