<svg xmlns="http://www.w3.org/2000/svg" xmlns:xlink="http://www.w3.org/1999/xlink" viewBox="0 0 335.84 335.836"><defs><path id="a" d="M260.615 335.836H75.225c-41.25 0-75-33.75-75-75V75c0-41.25 33.75-75 75-75h185.39c41.25 0 75 33.75 75 75v185.836c0 41.25-33.75 75-75 75z"/></defs><clipPath id="b"><use xlink:href="#a" overflow="visible"/></clipPath><path clip-path="url(#b)" d="M0 0h335.84v335.836H0z"/><circle cx="167.92" cy="167.918" r="145.719" clip-path="url(#b)" fill="#fff"/><g clip-path="url(#b)"><text transform="translate(219.194 84.354)" font-family="SanFranciscoDisplay-Regular" font-size="37" letter-spacing="2">1</text></g><g clip-path="url(#b)"><text transform="translate(255.261 125.599)" font-family="SanFranciscoDisplay-Regular" font-size="37" letter-spacing="2">2</text></g><g clip-path="url(#b)"><text transform="translate(270.068 179.017)" font-family="SanFranciscoDisplay-Regular" font-size="37" letter-spacing="2">3</text></g><g clip-path="url(#b)"><text transform="translate(253.635 237.505)" font-family="SanFranciscoDisplay-Regular" font-size="37" letter-spacing="2">4</text></g><g clip-path="url(#b)"><text transform="translate(212.947 276.6)" font-family="SanFranciscoDisplay-Regular" font-size="37" letter-spacing="2">5</text></g><g clip-path="url(#b)"><text transform="translate(156.766 293.625)" font-family="SanFranciscoDisplay-Regular" font-size="37" letter-spacing="2">6</text></g><g clip-path="url(#b)"><text transform="translate(101.787 276.991)" font-family="SanFranciscoDisplay-Regular" font-size="37" letter-spacing="2">7</text></g><g clip-path="url(#b)"><text transform="translate(57.41 237.89)" font-family="SanFranciscoDisplay-Regular" font-size="37" letter-spacing="2">8</text></g><g clip-path="url(#b)"><text transform="translate(44.455 179.217)" font-family="SanFranciscoDisplay-Regular" font-size="37" letter-spacing="2">9</text></g><g clip-path="url(#b)"><text transform="translate(54.485 125.935)" font-family="SanFranciscoDisplay-Regular" font-size="37" letter-spacing="2">10</text></g><g clip-path="url(#b)"><text transform="translate(96.087 84.054)" font-family="SanFranciscoDisplay-Regular" font-size="37" letter-spacing="2">11</text></g><g clip-path="url(#b)"><text transform="translate(149.572 67.198)" font-family="SanFranciscoDisplay-Light" font-size="37" letter-spacing="2">12</text></g><g clip-path="url(#b)"><path d="M167.878 174.25a6.34 6.34 0 0 1-6.333-6.332c0-3.492 2.841-6.333 6.333-6.333s6.333 2.841 6.333 6.333a6.34 6.34 0 0 1-6.333 6.332z" fill="#f9a050"/><path d="M167.878 163.585a4.332 4.332 0 1 1 0 8.664 4.332 4.332 0 0 1 0-8.664m0-4c-4.594 0-8.332 3.738-8.332 8.332s3.738 8.332 8.332 8.332 8.332-3.738 8.332-8.332-3.738-8.332-8.332-8.332z"/></g><path d="M165.878 37.056v150.353a2 2 0 1 0 4 0V37.056a2 2 0 0 0-4 0z" clip-path="url(#b)" fill="#f9a050"/><path d="M52.095 221.63l110.771-49.318a2 2 0 0 0-1.627-3.655L50.468 217.976a2 2 0 0 0-1.014 2.641 2.002 2.002 0 0 0 2.641 1.013zM88.586 141.405l71.231 26.632a2.007 2.007 0 0 0 2.574-1.173 2.007 2.007 0 0 0-1.173-2.574l-71.231-26.632a2.007 2.007 0 0 0-2.574 1.173 2.007 2.007 0 0 0 1.173 2.574z" clip-path="url(#b)"/></svg>