<svg xmlns="http://www.w3.org/2000/svg" xmlns:xlink="http://www.w3.org/1999/xlink" viewBox="0 0 335.84 335.836"><defs><path id="a" d="M260.615 335.836H75.225c-41.25 0-75-33.75-75-75V75c0-41.25 33.75-75 75-75h185.39c41.25 0 75 33.75 75 75v185.836c0 41.25-33.75 75-75 75z"/></defs><clipPath id="b"><use xlink:href="#a" overflow="visible"/></clipPath><path clip-path="url(#b)" fill="#141414" d="M0 0h335.84v335.836H0z"/><g clip-path="url(#b)" fill="#fff"><path d="M197.218 44.689l4.619-18.246 3.49.883-4.62 18.246zM254.88 75.805l13.118-13.497 2.582 2.509-13.12 13.497zM289.277 131.597l18.109-5.135.982 3.464-18.109 5.135zM290.302 200.583l.881-3.49 18.25 4.606-.881 3.49zM271.103 270.494l-13.509-13.106 2.506-2.583 13.509 13.106zM206.037 308.323l-5.152-18.103 3.463-.986 5.151 18.103zM134.259 309.457l-3.492-.877 4.585-18.255 3.492.877zM68.034 273.71l-2.587-2.505 13.094-13.522 2.586 2.504zM28.544 209.628l-.988-3.46 18.1-5.17.988 3.462zM27.218 130.905l18.26 4.569-.873 3.492-18.26-4.568zM64.544 65.544l13.533 13.081-2.502 2.589-13.533-13.082zM129.532 27.58l5.184 18.093-3.461.992-5.184-18.094z"/></g><g clip-path="url(#b)" fill="gray"><path d="M167.67 22.427l.258 18.82-3.6.05-.257-18.821zM183.076 23.221l3.576.421-2.2 18.693-3.577-.42zM220.001 32.077l3.346 1.331-6.958 17.49-3.346-1.332zM237.277 40.032l3.142 1.756-9.18 16.431-3.144-1.756zM253.36 50.169l2.886 2.151-11.248 15.092-2.887-2.152zM280.91 76.267l2.233 2.825-14.766 11.671-2.232-2.824zM293.737 94.884l-16.164 9.644-1.845-3.091 16.164-9.645zM302.189 111.925l-17.284 7.453-1.426-3.306 17.284-7.453zM312.124 148.573l-18.623 2.73-.522-3.561 18.623-2.73zM313.404 167.546l-18.82.277-.053-3.6 18.82-.276zM312.202 186.518l-18.697-2.181.418-3.577 18.697 2.181zM302.487 223.207l-17.496-6.944 1.328-3.346 17.496 6.943zM294.134 240.296l-16.44-9.166 1.755-3.146 16.439 9.167zM283.622 256.138l-15.102-11.233 2.148-2.889 15.103 11.233zM256.852 283.08l-11.683-14.756 2.823-2.234 11.683 14.756zM241.072 293.673l-9.66-16.155 3.09-1.847 9.66 16.155zM224.033 302.133l-7.47-17.277 3.304-1.428 7.47 17.276zM187.404 312.095l-2.746-18.621 3.56-.525 2.746 18.62zM168.435 313.4l-.294-18.821 3.6-.057.293 18.822zM153.012 312.635l-3.576-.414 2.164-18.699 3.577.414zM116.084 303.865l-3.348-1.324 6.923-17.503 3.348 1.324zM98.805 295.929l-3.146-1.75 9.151-16.45 3.147 1.751zM82.693 285.816l-2.89-2.146 11.221-15.112 2.89 2.146zM55.083 259.768l-2.237-2.82 14.745-11.698 2.238 2.82zM42.232 241.174l16.146-9.674 1.85 3.088-16.145 9.674zM33.73 224.149L51 216.665l1.431 3.303-17.27 7.484zM23.765 187.539l18.62-2.763.528 3.56-18.62 2.764zM22.434 168.567l18.82-.311.06 3.6-18.821.31zM23.59 149.58l18.702 2.148-.411 3.577-18.7-2.148zM33.247 112.873l17.51 6.911-1.323 3.349-17.509-6.912zM41.577 95.77l16.456 9.136-1.747 3.147-16.456-9.136zM52.07 79.905l15.123 11.204-2.144 2.893-15.123-11.205zM78.78 52.936l11.711 14.736-2.818 2.24-11.711-14.736zM94.538 42.291l9.688 16.138-3.087 1.853-9.687-16.138zM111.556 33.793l7.5 17.264-3.302 1.434-7.5-17.263zM148.171 23.77l2.78 18.617-3.56.531-2.78-18.616z"/></g><path clip-path="url(#b)" fill="#fb3d38" d="M268.493 42.252l34.523-9.407-9.115 34.602z"/><g clip-path="url(#b)"><text transform="translate(83.869 115.334)" fill="#fff" font-family="Helvetica" font-size="40">W</text></g><g clip-path="url(#b)"><text transform="matrix(1.0425 0 0 1 220.119 115.335)" fill="#fff" font-family="Helvetica" font-size="40">N</text></g><g clip-path="url(#b)"><text transform="matrix(.9951 0 0 1 89.437 249.88)" fill="#fff" font-family="Helvetica" font-size="39.805">S</text></g><g clip-path="url(#b)"><text transform="matrix(.886 0 0 1 222.956 250.647)" fill="#fff" font-family="Helvetica" font-size="40">E</text></g><circle cx="167.92" cy="167.919" r="58.825" clip-path="url(#b)" fill="#222"/><path d="M170.063 109.148c-.713-.026-1.424-.054-2.143-.054-.747 0-1.487.029-2.228.056v56.583H109.15c-.027.727-.055 1.453-.055 2.185 0 .733.029 1.459.055 2.186h56.542v56.583c.74.028 1.481.056 2.228.056.719 0 1.431-.029 2.143-.054v-56.585h56.626c.027-.727.055-1.453.055-2.186 0-.733-.029-1.459-.055-2.185h-56.626v-56.585z" clip-path="url(#b)" fill="#b2b2b2"/></svg>