<svg xmlns="http://www.w3.org/2000/svg" xmlns:xlink="http://www.w3.org/1999/xlink" viewBox="0 0 300 300"><defs><path id="a" d="M232.999 300H67.001C30.15 300 0 269.85 0 232.999V67.001C0 30.15 30.15 0 67.001 0H233c36.85 0 67 30.15 67 67v165.999C300 269.85 269.85 300 232.999 300z"/></defs><clipPath id="b"><use xlink:href="#a" overflow="visible"/></clipPath><path clip-path="url(#b)" fill="#141414" d="M0 .002h300v299.996H0z"/><g clip-path="url(#b)" fill="#fff"><path d="M176.171 39.922l4.126-16.298 3.118.789-4.126 16.298zM227.68 67.717l11.719-12.057 2.306 2.241-11.72 12.057zM258.407 117.555l16.177-4.587.877 3.095-16.177 4.586zM259.321 179.18l.787-3.119 16.302 4.114-.787 3.119zM242.171 241.629l-12.067-11.707 2.239-2.307 12.067 11.706zM184.049 275.421l-4.602-16.172 3.093-.88 4.602 16.172zM119.932 276.435l-3.12-.784 4.096-16.307 3.12.784zM60.773 244.502l-2.31-2.237 11.696-12.079 2.31 2.237zM25.499 187.259l-.883-3.092 16.168-4.617.883 3.092zM24.313 116.937l16.312 4.081-.78 3.12-16.312-4.08zM57.655 58.551l12.09 11.686-2.236 2.312-12.09-11.686zM115.709 24.638l4.63 16.163-3.091.886-4.63-16.163z"/></g><g clip-path="url(#b)" fill="gray"><path d="M149.777 20.036l.23 16.812-3.216.044-.23-16.812zM163.538 20.745l3.195.376-1.966 16.698-3.194-.376zM196.524 28.656l2.988 1.189-6.216 15.623-2.988-1.189zM211.955 35.762l2.808 1.568-8.202 14.678-2.807-1.569zM226.322 44.817l2.578 1.922-10.048 13.481-2.578-1.922zM250.933 68.13l1.994 2.523-13.19 10.426-1.995-2.523zM262.39 84.76l-14.439 8.615-1.648-2.761 14.44-8.615zM269.94 99.983l-15.44 6.658-1.273-2.953 15.44-6.658zM278.815 132.72l-16.635 2.438-.466-3.181 16.635-2.438zM279.958 149.668l-16.812.247-.047-3.216 16.812-.247zM278.885 166.615l-16.701-1.948.372-3.195 16.702 1.949zM270.206 199.389l-15.628-6.203 1.186-2.99 15.629 6.203zM262.745 214.654l-14.684-8.188 1.566-2.809 14.684 8.188zM253.355 228.805l-13.491-10.035 1.919-2.58 13.491 10.034zM229.441 252.872l-10.436-13.181 2.522-1.996 10.436 13.181zM215.345 262.335l-8.628-14.43 2.76-1.65 8.628 14.43zM200.125 269.892l-6.673-15.433 2.952-1.276 6.673 15.433zM167.404 278.791l-2.453-16.634 3.18-.469 2.454 16.634zM150.46 279.956l-.263-16.812 3.216-.05.262 16.812zM136.683 279.274l-3.195-.37 1.934-16.703 3.195.37zM103.696 271.44l-2.991-1.183 6.184-15.635 2.99 1.183zM88.26 264.35l-2.809-1.563 8.175-14.694 2.81 1.563zM73.868 255.317l-2.582-1.918L81.31 239.9l2.582 1.917zM49.205 232.05l-2-2.52 13.172-10.45 1.999 2.52zM37.725 215.439l14.423-8.643 1.653 2.759-14.423 8.642zM30.13 200.23l15.427-6.686 1.278 2.951-15.425 6.685zM21.229 167.528l16.632-2.469.472 3.18-16.632 2.47zM20.04 150.58l16.812-.278.053 3.216-16.812.277zM21.074 133.62l16.704 1.918-.367 3.195-16.704-1.918zM29.7 100.83l15.64 6.173-1.181 2.992-15.64-6.174zM37.14 85.552l14.7 8.161-1.561 2.812-14.7-8.161zM46.513 71.379l13.51 10.01-1.914 2.583-13.51-10.009zM70.373 47.29l10.462 13.163-2.518 2.001-10.462-13.163zM84.45 37.78l8.653 14.415-2.757 1.656-8.654-14.416zM99.65 30.189l6.7 15.422-2.949 1.281-6.7-15.421zM132.359 21.235l2.483 16.63-3.18.474-2.484-16.629z"/></g><path clip-path="url(#b)" fill="#fb3d38" d="M239.84 37.745l30.839-8.403-8.142 30.909z"/><g clip-path="url(#b)"><text transform="translate(74.919 103.028)" fill="#fff" font-family="Helvetica" font-size="35.731">W</text></g><g clip-path="url(#b)"><text transform="matrix(1.0425 0 0 1 196.628 103.028)" fill="#fff" font-family="Helvetica" font-size="35.731">N</text></g><g clip-path="url(#b)"><text transform="matrix(.9951 0 0 1 79.892 223.216)" fill="#fff" font-family="Helvetica" font-size="35.557">S</text></g><g clip-path="url(#b)"><text transform="matrix(.886 0 0 1 199.163 223.9)" fill="#fff" font-family="Helvetica" font-size="35.731">E</text></g><circle cx="150" cy="150.001" r="52.547" clip-path="url(#b)" fill="#222"/><path d="M151.915 97.502c-.637-.023-1.272-.048-1.915-.048-.667 0-1.329.026-1.99.05v50.545H97.502c-.024.649-.049 1.298-.049 1.952 0 .655.026 1.303.049 1.952h50.508v50.545c.661.025 1.323.05 1.99.05.642 0 1.278-.026 1.915-.048v-50.547h50.583c.024-.649.049-1.298.049-1.952 0-.655-.026-1.303-.049-1.952h-50.583V97.502z" clip-path="url(#b)" fill="#b2b2b2"/></svg>