<svg xmlns="http://www.w3.org/2000/svg" xmlns:xlink="http://www.w3.org/1999/xlink" viewBox="0 0 300 300" enable-background="new 0 0 300 300"><filter xmlns="http://www.w3.org/2000/svg" id="c"><feOffset dx="8" dy="6"/><feGaussianBlur result="offset-blur" stdDeviation="6"/><feComposite in2="offset-blur" operator="out" result="inverse" in="SourceGraphic"/><feFlood flood-color="#000" result="color" flood-opacity=".4"/><feComposite in2="inverse" operator="in" result="shadow" in="color"/><feComposite in2="SourceGraphic" in="shadow"/></filter><defs><path id="a" d="M233 300H67c-36.85 0-67-30.15-67-67V67C0 30.15 30.15 0 67 0h166c36.85 0 67 30.15 67 67v166c0 36.85-30.15 67-67 67z"/></defs><clipPath id="b"><use xlink:href="#a" overflow="visible"/></clipPath><path clip-path="url(#b)" fill="#ddd" d="M.024.026h299.952v299.948H.024z"/><path d="M208.972 247.281c17.647 2.502 32.971 11.802 32.971 11.802v40.891H6.222v-37.938c18.874-13.093 43.431-17.209 53.482-18.329 13.816-1.54 19.247-4.979 23.029-8.474 1.615-1.492 2.646-4.58 2.902-5.656 1.638-6.896 4.001-20.606 3.499-25.715-.608-1.185-4.486-2.143-8.263-10.924-4.388-11.686-3.372-24.066-6.744-31.318-.498-1.07-5.077-.763-7.483-6.698-1.386-3.418-.845-7.582-1.815-9.845-4.016-9.817-4.322-13.95-4.795-16.138-.471-2.184-2.335-13.716 5.536-11.185-.934-5.442-2.33-15.261-3.16-22.987-.83-7.726-1.341-16.985-1.213-23.37.128-6.385 4.725-25.413 19.061-27.4 0 0 3.475-4.325 10.438-9.635 8.095-5.397 17.066-6.676 22.898-9.253 5.832-2.578 13.839-4.526 24.599-1.583 10.278 2.811 14.358 5.156 19.334 6.884 4.976 1.728 11.718 3.064 15.249 5.379 1.349.884 5.912 2.896 7.462 5.819 2.896 5.46 7.477 11.847 8.521 14.689 1.043 2.843 2.917 15.068 2.555 26.566s-3.643 29.426-5.414 34.399c5.879-2.715 6.764 3.254 6.682 5.322-.073 1.814.068 5.692-.539 8.824-.885 4.564-4.713 13.174-4.87 16.051-.176 3.223-1.18 7.491-1.947 8.887-2.565 4.665-4.441 2.6-6.726 5.53-1.835 2.353-4.573 25.764-6.388 30.416-3.223 8.263-6.086 7.957-7.986 11.338-.922 4.251.763 23.701 3.942 29.569 4.352 8.035 25.653 11.92 40.904 14.082z" clip-path="url(#b)" fill="#9a9a9a"/><g clip-path="url(#b)" filter="url(#c)"><path fill="#fd9426" d="M241.953 225.121H300v74.853h-58.047z"/></g><g clip-path="url(#b)" filter="url(#c)"><path fill="#54d769" d="M241.953 149.99H300v75.131h-58.047z"/></g><g clip-path="url(#b)" filter="url(#c)"><path fill="#61c8f9" d="M241.953 74.858H300v75.131h-58.047z"/></g><g clip-path="url(#b)" filter="url(#c)"><path fill="#c9c8c4" d="M241.953.026H300v74.853h-58.047z"/></g><g clip-path="url(#b)"><text transform="translate(263.12 262.994)" fill="#646462" font-family="HelveticaNeue" font-size="21.435">D</text></g><g clip-path="url(#b)"><text transform="translate(262.926 195.462)" fill="#646462" font-family="HelveticaNeue" font-size="21.435">C</text></g><g clip-path="url(#b)"><text transform="translate(263.324 120.26)" fill="#646462" font-family="HelveticaNeue" font-size="21.435">B</text></g><g clip-path="url(#b)"><text transform="translate(263.697 54.21)" fill="#646462" font-family="HelveticaNeue" font-size="21.435">A</text></g></svg>