<svg xmlns="http://www.w3.org/2000/svg" xmlns:xlink="http://www.w3.org/1999/xlink" viewBox="0 0 335.84 335.836" enable-background="new 0 0 335.84 335.836"><filter xmlns="http://www.w3.org/2000/svg" id="c"><feOffset dy="6" dx="8"/><feGaussianBlur stdDeviation="6" result="offset-blur"/><feComposite in2="offset-blur" operator="out" in="SourceGraphic" result="inverse"/><feFlood flood-opacity=".4" result="color" flood-color="#000"/><feComposite in2="inverse" operator="in" in="color" result="shadow"/><feComposite in2="SourceGraphic" in="shadow"/></filter><defs><path id="a" d="M260.615 335.836H75.225c-41.25 0-75-33.75-75-75V75c0-41.25 33.75-75 75-75h185.39c41.25 0 75 33.75 75 75v185.836c0 41.25-33.75 75-75 75z"/></defs><clipPath id="b"><use xlink:href="#a" overflow="visible"/></clipPath><path clip-path="url(#b)" fill="#ddd" d="M0 0h335.84v335.836H0z"/><g clip-path="url(#b)" filter="url(#c)"><path fill="#fd9426" d="M270.863 252.027h64.992v83.809h-64.992z"/></g><g clip-path="url(#b)" filter="url(#c)"><path fill="#54d769" d="M270.863 167.906h64.992v84.12h-64.992z"/></g><g clip-path="url(#b)" filter="url(#c)"><path fill="#61c8f9" d="M270.863 83.786h64.992v84.12h-64.992z"/></g><g clip-path="url(#b)" filter="url(#c)"><path fill="#c9c8c4" d="M270.863 0h64.992v83.809h-64.992z"/></g><g clip-path="url(#b)"><text transform="translate(294.562 294.431)" fill="#646462" font-family="HelveticaNeue" font-size="24">D</text></g><g clip-path="url(#b)"><text transform="translate(294.345 218.819)" fill="#646462" font-family="HelveticaNeue" font-size="24">C</text></g><g clip-path="url(#b)"><text transform="translate(294.79 134.62)" fill="#646462" font-family="HelveticaNeue" font-size="24">B</text></g><g clip-path="url(#b)"><text transform="translate(295.21 60.665)" fill="#646462" font-family="HelveticaNeue" font-size="24">A</text></g><path d="M233.948 276.838c19.758 2.801 36.916 13.214 36.916 13.214v45.783H6.939v-42.477c21.133-14.659 48.628-19.268 59.881-20.522 15.469-1.725 21.549-5.575 25.784-9.488 1.808-1.671 2.963-5.128 3.249-6.333 1.834-7.721 4.48-23.071 3.918-28.792-.68-1.327-5.022-2.399-9.252-12.231-4.913-13.085-3.775-26.945-7.551-35.065-.557-1.198-5.684-.854-8.378-7.499-1.552-3.827-.946-8.489-2.032-11.023-4.496-10.991-4.839-15.619-5.368-18.069-.528-2.445-2.615-15.357 6.199-12.523-1.045-6.093-2.609-17.086-3.538-25.737S68.35 87.059 68.493 79.91c.143-7.149 5.29-28.454 21.342-30.678 0 0 3.891-4.843 11.687-10.787 9.063-6.042 19.108-7.474 25.638-10.36s15.495-5.068 27.543-1.773c11.508 3.147 16.076 5.773 21.647 7.707s13.12 3.431 17.074 6.023c1.511.99 6.619 3.242 8.355 6.516 3.242 6.114 8.372 13.264 9.54 16.447 1.168 3.183 3.266 16.871 2.86 29.745s-4.079 32.947-6.061 38.515c6.582-3.04 7.574 3.643 7.481 5.959-.081 2.031.076 6.373-.603 9.879-.99 5.11-5.277 14.751-5.452 17.971-.197 3.609-1.321 8.388-2.18 9.95-2.872 5.223-4.972 2.911-7.531 6.192-2.055 2.634-5.121 28.847-7.152 34.055-3.609 9.252-6.814 8.909-8.941 12.694-1.033 4.76.854 26.537 4.414 33.107 4.869 8.995 28.718 13.345 45.794 15.766z" clip-path="url(#b)" fill="#9a9a9a"/></svg>