<svg xmlns="http://www.w3.org/2000/svg" xmlns:xlink="http://www.w3.org/1999/xlink" viewBox="0 0 300 300"><defs><path id="a" d="M233 300H67c-36.85 0-67-30.15-67-67V67C0 30.15 30.15 0 67 0h166c36.85 0 67 30.15 67 67v166c0 36.85-30.15 67-67 67z"/></defs><clipPath id="b"><use xlink:href="#a" overflow="visible"/></clipPath><linearGradient id="c" gradientUnits="userSpaceOnUse" x1="150" y1=".026" x2="150" y2="299.974"><stop offset="0" stop-color="#6efb85"/><stop offset="1" stop-color="#1ab22b"/></linearGradient><path clip-path="url(#b)" fill="url(#c)" d="M.024.026h299.952v299.948H.024z"/><path d="M41.728 115.106h-2.91a3.584 3.584 0 0 0-3.573 3.573v9.315a3.584 3.584 0 0 0 3.573 3.573h2.91v-16.461zM173.996 213.336H66.072c-11.598 0-21-9.402-21-21v-86.181c0-11.598 9.402-21 21-21h107.924c11.598 0 21 9.402 21 21v86.181c0 11.598-9.402 21-21 21zM248.247 199.568l-48.234-32.083V130.13l48.234-30.32zM253.31 100.17h6.722v99.758h-6.722z" clip-path="url(#b)" fill="#fff"/></svg>