<svg xmlns="http://www.w3.org/2000/svg" viewBox="0 0 300 300"><clipPath id="a"><path d="M233 300H67c-36.85 0-67-30.15-67-67V67C0 30.15 30.15 0 67 0h166c36.85 0 67 30.15 67 67v166c0 36.85-30.15 67-67 67z"/></clipPath><clipPath id="b"><circle cx="100" cy="100" r="100"/></clipPath><clipPath id="c"><path d="M0 100h200v100H0z"/></clipPath><path clip-path="url(#a)" fill="#efeff4" d="M0 0h300v300H0z"/><g clip-path="url(#b)" transform="rotate(145 130.27 139.73) scale(1.2)"><path fill="#52d669" d="M0 0h100v100H0z"/><path fill="#133116" d="M1.76-1.73L101.745.015 100 100 .015 98.255z"/><path fill="#133116" d="M5.37-5.097L105.235.137 100 100 .137 94.766z"/><path fill="#133216" d="M9.096-8.335l99.62 8.716L100 100 .38 91.284z"/><path fill="#143317" d="M12.932-11.442L112.187.745 100 100 .745 87.813z"/><path fill="#143417" d="M16.875-14.412L115.643 1.23 100 100 1.231 84.357z"/><path fill="#143518" d="M20.918-17.244l98.163 19.081L100 100 1.837 80.92z"/><path fill="#153618" d="M25.058-19.932l97.437 22.495L100 100 2.563 77.505z"/><path fill="#153719" d="M29.29-22.474l96.592 25.881L100 100 3.407 74.118z"/><path fill="#153819" d="M33.607-24.868l95.63 29.238L100 100 4.37 70.763z"/><path fill="#16391A" d="M38.005-27.109l94.552 32.557L100 100 5.448 67.443z"/><path fill="#163A1A" d="M42.479-29.195l93.358 35.837L100 100 6.642 64.163z"/><path fill="#163B1B" d="M47.023-31.124l92.05 39.074L100 100 7.95 60.927z"/><path fill="#173C1B" d="M51.631-32.893l90.63 42.262L100 100 9.37 57.738z"/><path fill="#173C1B" d="M56.298-34.5L145.4 10.9 100 100 10.9 54.601z"/><path fill="#173D1C" d="M61.019-35.943l87.462 48.481L100 100 12.538 51.519z"/><path fill="#183E1C" d="M65.787-37.22l85.717 51.503L100 100 14.283 48.496z"/><path fill="#183F1D" d="M70.597-38.331l83.867 54.464L100 100 16.133 45.536z"/><path fill="#18401D" d="M75.442-39.273l81.916 57.358L100 100 18.085 42.642z"/><path fill="#19411E" d="M80.318-40.045l79.864 60.181L100 100 20.136 39.818z"/><path fill="#19421E" d="M85.217-40.647l77.715 62.932L100 100 22.285 37.068z"/><path fill="#1A431F" d="M90.135-41.077l75.47 65.606L100 100 24.529 34.394z"/><path fill="#1A441F" d="M95.064-41.335l73.136 68.2L100 100 26.865 31.8z"/><path fill="#1A4520" d="M100-41.421l70.71 70.71L100 100 29.29 29.29z"/><path fill="#1B4620" d="M104.936-41.335l68.2 73.135L100 100 31.8 26.865z"/><path fill="#1B4721" d="M109.865-41.077l65.606 75.471L100 100 34.394 24.529z"/><path fill="#1B4721" d="M114.783-40.647l62.932 77.715L100 100 37.068 22.285z"/><path fill="#1C4821" d="M119.682-40.045l60.182 79.863L100 100 39.818 20.136z"/><path fill="#1C4922" d="M124.558-39.273l57.357 81.915L100 100 42.642 18.085z"/><path fill="#1C4A22" d="M129.403-38.331l54.464 83.867L100 100 45.536 16.133z"/><path fill="#1D4B23" d="M134.213-37.22l51.504 85.716L100 100 48.496 14.283z"/><path fill="#1D4C23" d="M138.981-35.943l48.481 87.462L100 100 51.519 12.538z"/><path fill="#1D4D24" d="M143.702-34.5L189.1 54.601 100 100 54.601 10.9z"/><path fill="#1E4E24" d="M148.369-32.893l42.262 90.631L100 100 57.738 9.37z"/><path fill="#1E4F25" d="M152.977-31.124l39.073 92.05L100 100 60.927 7.95z"/><path fill="#1E5025" d="M157.521-29.195l35.837 93.358L100 100 64.163 6.642z"/><path fill="#1F5126" d="M161.995-27.109l32.557 94.552L100 100 67.443 5.448z"/><path fill="#1F5226" d="M166.393-24.868l29.237 95.63L100 100 70.763 4.37z"/><path fill="#1F5227" d="M170.71-22.474l25.883 96.592L100 100 74.118 3.407z"/><path fill="#205327" d="M174.942-19.932l22.495 97.437L100 100 77.505 2.563z"/><path fill="#205427" d="M179.082-17.244l19.08 98.163L100 100 80.92 1.837z"/><path fill="#215528" d="M183.125-14.412l15.644 98.769L100 100 84.357 1.231z"/><path fill="#215628" d="M187.068-11.442l12.187 99.255L100 100 87.813.745z"/><path fill="#215729" d="M190.904-8.335l8.715 99.62L100 100 91.284.38z"/><path fill="#225829" d="M194.63-5.097l5.233 99.863L100 100 94.766.137z"/><path fill="#22592A" d="M198.24-1.73l1.745 99.985L100 100 98.255.015z"/><path fill="#225A2A" d="M201.73 1.76l-1.745 99.985L100 100 101.745.015z"/><path fill="#235B2B" d="M205.097 5.37l-5.234 99.864L100 100 105.234.137z"/><path fill="#235C2B" d="M208.335 9.096l-8.716 99.62L100 100 108.716.38z"/><path fill="#235D2C" d="M211.442 12.932l-12.187 99.255L100 100 112.187.745z"/><path fill="#245D2C" d="M214.412 16.875l-15.643 98.768L100 100l15.643-98.769z"/><path fill="#245E2D" d="M217.244 20.918l-19.081 98.163L100 100l19.08-98.163z"/><path fill="#245F2D" d="M219.932 25.058l-22.495 97.437L100 100l22.495-97.437z"/><path fill="#25602D" d="M222.474 29.29l-25.881 96.592L100 100l25.882-96.593z"/><path fill="#25612E" d="M224.868 33.607l-29.238 95.63L100 100l29.237-95.63z"/><path fill="#25622E" d="M227.109 38.005l-32.557 94.552L100 100l32.557-94.552z"/><path fill="#26632F" d="M229.195 42.479l-35.837 93.358L100 100l35.837-93.358z"/><path fill="#26642F" d="M231.124 47.023l-39.074 92.05L100 100l39.073-92.05z"/><path fill="#266530" d="M232.893 51.631l-42.262 90.63L100 100l42.262-90.63z"/><path fill="#276630" d="M234.5 56.298L189.1 145.4 100 100l45.399-89.1z"/><path fill="#276731" d="M235.943 61.019l-48.481 87.462L100 100l48.481-87.462z"/><path fill="#286831" d="M237.22 65.787l-51.503 85.717L100 100l51.504-85.717z"/><path fill="#286832" d="M238.331 70.597l-54.464 83.867L100 100l54.464-83.867z"/><path fill="#286932" d="M239.273 75.442l-57.358 81.916L100 100l57.358-81.915z"/><path fill="#296A33" d="M240.045 80.318l-60.181 79.864L100 100l60.182-79.864z"/><path fill="#296B33" d="M240.647 85.217l-62.932 77.715L100 100l62.932-77.715z"/><path fill="#296C33" d="M241.077 90.135l-65.606 75.47L100 100l65.606-75.471z"/><path fill="#2A6D34" d="M241.335 95.064l-68.2 73.136L100 100l68.2-73.135z"/><path fill="#2A6E34" d="M241.421 100l-70.71 70.71L100 100l70.71-70.71z"/><path fill="#2A6F35" d="M241.335 104.936l-73.135 68.2L100 100l73.135-68.2z"/><path fill="#2B7035" d="M241.077 109.865l-75.471 65.606L100 100l75.471-65.606z"/><path fill="#2B7136" d="M240.647 114.783l-77.715 62.932L100 100l77.715-62.932z"/><path fill="#2B7236" d="M240.045 119.682l-79.863 60.182L100 100l79.864-60.182z"/><path fill="#2C7337" d="M239.273 124.558l-81.915 57.357L100 100l81.915-57.358z"/><path fill="#2C7337" d="M238.331 129.403l-83.867 54.464L100 100l83.867-54.464z"/><path fill="#2C7438" d="M237.22 134.213l-85.716 51.504L100 100l85.717-51.504z"/><path fill="#2D7538" d="M235.943 138.981l-87.462 48.481L100 100l87.462-48.481z"/><path fill="#2D7639" d="M234.5 143.702L145.399 189.1 100 100l89.1-45.399z"/><path fill="#2D7739" d="M232.893 148.369l-90.631 42.262L100 100l90.63-42.262z"/><path fill="#2E7839" d="M231.124 152.977l-92.05 39.073L100 100l92.05-39.073z"/><path fill="#2E793A" d="M229.195 157.521l-93.358 35.837L100 100l93.358-35.837z"/><path fill="#2F7A3A" d="M227.109 161.995l-94.552 32.557L100 100l94.552-32.557z"/><path fill="#2F7B3B" d="M224.868 166.393l-95.63 29.237L100 100l95.63-29.237z"/><path fill="#2F7C3B" d="M222.474 170.71l-96.592 25.883L100 100l96.593-25.882z"/><path fill="#307D3C" d="M219.932 174.942l-97.437 22.495L100 100l97.437-22.495z"/><path fill="#307E3C" d="M217.244 179.082l-98.163 19.08L100 100l98.163-19.08z"/><path fill="#307E3D" d="M214.412 183.125l-98.769 15.644L100 100l98.769-15.643z"/><path fill="#317F3D" d="M211.442 187.068l-99.255 12.187L100 100l99.255-12.187z"/><path fill="#31803E" d="M208.335 190.904l-99.62 8.715L100 100l99.62-8.716z"/><path fill="#31813E" d="M205.097 194.63l-99.863 5.233L100 100l99.863-5.234z"/><path fill="#32823F" d="M201.73 198.24l-99.985 1.745L100 100l99.985-1.745z"/><g clip-path="url(#c)"><path fill="#32833F" d="M198.24 201.73l-99.985-1.745L100 100l99.985 1.745z"/><path fill="#32833F" d="M198.24 201.73l-99.985-1.745L100 100l99.985 1.745z"/><path fill="#32843F" d="M194.63 205.097l-99.864-5.234L100 100l99.863 5.234z"/><path fill="#338540" d="M190.904 208.335l-99.62-8.716L100 100l99.62 8.716z"/><path fill="#338640" d="M187.068 211.442l-99.255-12.187L100 100l99.255 12.187z"/><path fill="#338741" d="M183.125 214.412L84.357 198.77 100 100l98.769 15.643z"/><path fill="#348841" d="M179.082 217.244l-98.163-19.081L100 100l98.163 19.08z"/><path fill="#348942" d="M174.942 219.932l-97.437-22.495L100 100l97.437 22.495z"/><path fill="#348942" d="M170.71 222.474l-96.592-25.881L100 100l96.593 25.882z"/><path fill="#358A43" d="M166.393 224.868l-95.63-29.238L100 100l95.63 29.237z"/><path fill="#358B43" d="M161.995 227.109l-94.552-32.557L100 100l94.552 32.557z"/><path fill="#368C44" d="M157.521 229.195l-93.358-35.837L100 100l93.358 35.837z"/><path fill="#368D44" d="M152.977 231.124l-92.05-39.074L100 100l92.05 39.073z"/><path fill="#368E45" d="M148.369 232.893l-90.63-42.262L100 100l90.63 42.262z"/><path fill="#378F45" d="M143.702 234.5L54.6 189.1 100 100l89.1 45.399z"/><path fill="#379045" d="M138.981 235.943l-87.462-48.481L100 100l87.462 48.481z"/><path fill="#379146" d="M134.213 237.22l-85.717-51.503L100 100l85.717 51.504z"/><path fill="#389246" d="M129.403 238.331l-83.867-54.464L100 100l83.867 54.464z"/><path fill="#389347" d="M124.558 239.273l-81.916-57.358L100 100l81.915 57.358z"/><path fill="#389447" d="M119.682 240.045l-79.864-60.181L100 100l79.864 60.182z"/><path fill="#399448" d="M114.783 240.647l-77.715-62.932L100 100l77.715 62.932z"/><path fill="#399548" d="M109.865 241.077l-75.47-65.606L100 100l75.471 65.606z"/><path fill="#399649" d="M104.936 241.335l-73.136-68.2L100 100l73.135 68.2z"/><path fill="#3A9749" d="M100 241.421l-70.71-70.71L100 100l70.71 70.71z"/><path fill="#3A984A" d="M95.064 241.335l-68.2-73.135L100 100l68.2 73.135z"/><path fill="#3A994A" d="M90.135 241.077l-65.606-75.471L100 100l65.606 75.471z"/><path fill="#3B9A4B" d="M85.217 240.647l-62.932-77.715L100 100l62.932 77.715z"/><path fill="#3B9B4B" d="M80.318 240.045l-60.182-79.863L100 100l60.182 79.864z"/><path fill="#3B9C4B" d="M75.442 239.273l-57.357-81.915L100 100l57.358 81.915z"/><path fill="#3C9D4C" d="M70.597 238.331l-54.464-83.867L100 100l54.464 83.867z"/><path fill="#3C9E4C" d="M65.787 237.22l-51.504-85.716L100 100l51.504 85.717z"/><path fill="#3D9F4D" d="M61.019 235.943L12.538 148.48 100 100l48.481 87.462z"/><path fill="#3D9F4D" d="M56.298 234.5L10.9 145.399 100 100l45.399 89.1z"/><path fill="#3DA04E" d="M51.631 232.893L9.369 142.262 100 100l42.262 90.63z"/><path fill="#3EA14E" d="M47.023 231.124L7.95 139.074 100 100l39.073 92.05z"/><path fill="#3EA24F" d="M42.479 229.195L6.642 135.837 100 100l35.837 93.358z"/><path fill="#3EA34F" d="M38.005 227.109L5.448 132.557 100 100l32.557 94.552z"/><path fill="#3FA450" d="M33.607 224.868L4.37 129.238 100 100l29.237 95.63z"/><path fill="#3FA550" d="M29.29 222.474L3.406 125.882 100 100l25.882 96.593z"/><path fill="#3FA651" d="M25.058 219.932L2.563 122.495 100 100l22.495 97.437z"/><path fill="#40A751" d="M20.918 217.244L1.838 119.08 100 100l19.08 98.163z"/><path fill="#40A851" d="M16.875 214.412L1.23 115.643 100 100l15.643 98.769z"/><path fill="#40A952" d="M12.932 211.442L.745 112.187 100 100l12.187 99.255z"/><path fill="#41AA52" d="M9.096 208.335l-8.715-99.62L100 100l8.716 99.62z"/><path fill="#41AA53" d="M5.37 205.097L.138 105.234 100 100l5.234 99.863z"/><path fill="#41AB53" d="M1.76 201.73L.015 101.745 100 100l1.745 99.985z"/><path fill="#42AC54" d="M-1.73 198.24L.015 98.255 100 100l-1.745 99.985z"/><path fill="#42AD54" d="M-5.097 194.63L.137 94.765 100 100l-5.234 99.863z"/><path fill="#42AE55" d="M-8.335 190.904l8.716-99.62L100 100l-8.716 99.62z"/><path fill="#43AF55" d="M-11.442 187.068L.745 87.813 100 100l-12.187 99.255z"/><path fill="#43B056" d="M-14.412 183.125L1.23 84.357 100 100l-15.643 98.769z"/><path fill="#44B156" d="M-17.244 179.082L1.837 80.919 100 100l-19.08 98.163z"/><path fill="#44B257" d="M-19.932 174.942L2.563 77.505 100 100l-22.495 97.437z"/><path fill="#44B357" d="M-22.474 170.71L3.407 74.119 100 100l-25.882 96.593z"/><path fill="#45B457" d="M-24.868 166.393L4.37 70.763 100 100l-29.237 95.63z"/><path fill="#45B558" d="M-27.109 161.995L5.448 67.443 100 100l-32.557 94.552z"/><path fill="#45B558" d="M-29.195 157.521L6.642 64.163 100 100l-35.837 93.358z"/><path fill="#46B659" d="M-31.124 152.977L7.95 60.927 100 100l-39.073 92.05z"/><path fill="#46B759" d="M-32.893 148.369L9.37 57.739 100 100l-42.262 90.63z"/><path fill="#46B85A" d="M-34.5 143.702L10.9 54.6 100 100l-45.399 89.1z"/><path fill="#47B95A" d="M-35.943 138.981l48.481-87.462L100 100l-48.481 87.462z"/><path fill="#47BA5B" d="M-37.22 134.213l51.503-85.717L100 100l-51.504 85.717z"/><path fill="#47BB5B" d="M-38.331 129.403l54.464-83.867L100 100l-54.464 83.867z"/><path fill="#48BC5C" d="M-39.273 124.558l57.358-81.916L100 100l-57.358 81.915z"/><path fill="#48BD5C" d="M-40.045 119.682l60.181-79.864L100 100l-60.182 79.864z"/><path fill="#48BE5D" d="M-40.647 114.783l62.932-77.715L100 100l-62.932 77.715z"/><path fill="#49BF5D" d="M-41.077 109.865l65.606-75.47L100 100l-65.606 75.471z"/><path fill="#49C05D" d="M-41.335 104.936l68.2-73.136L100 100l-68.2 73.135z"/><path fill="#49C05E" d="M-41.421 100l70.71-70.71L100 100l-70.71 70.71z"/><path fill="#4AC15E" d="M-41.335 95.064l73.135-68.2L100 100l-73.135 68.2z"/><path fill="#4AC25F" d="M-41.077 90.135l75.471-65.606L100 100l-75.471 65.606z"/><path fill="#4BC35F" d="M-40.647 85.217l77.715-62.932L100 100l-77.715 62.932z"/><path fill="#4BC460" d="M-40.045 80.318l79.863-60.182L100 100l-79.864 60.182z"/><path fill="#4BC560" d="M-39.273 75.442l81.915-57.357L100 100l-81.915 57.358z"/><path fill="#4CC661" d="M-38.331 70.597l83.867-54.464L100 100l-83.867 54.464z"/><path fill="#4CC761" d="M-37.22 65.787l85.716-51.504L100 100l-85.717 51.504z"/><path fill="#4CC862" d="M-35.943 61.019L51.52 12.538 100 100l-87.462 48.481z"/><path fill="#4DC962" d="M-34.5 56.298L54.601 10.9 100 100l-89.1 45.399z"/><path fill="#4DCA63" d="M-32.893 51.631L57.738 9.369 100 100 9.37 142.262z"/><path fill="#4DCB63" d="M-31.124 47.023L60.926 7.95 100 100 7.95 139.073z"/><path fill="#4ECB63" d="M-29.195 42.479L64.163 6.642 100 100 6.642 135.837z"/><path fill="#4ECC64" d="M-27.109 38.005L67.443 5.448 100 100 5.448 132.557z"/><path fill="#4ECD64" d="M-24.868 33.607L70.762 4.37 100 100 4.37 129.237z"/><path fill="#4FCE65" d="M-22.474 29.29L74.118 3.406 100 100 3.407 125.882z"/><path fill="#4FCF65" d="M-19.932 25.058L77.505 2.563 100 100 2.563 122.495z"/><path fill="#4FD066" d="M-17.244 20.918L80.92 1.838 100 100 1.837 119.08z"/><path fill="#50D166" d="M-14.412 16.875L84.357 1.23 100 100 1.231 115.643z"/><path fill="#50D267" d="M-11.442 12.932L87.813.745 100 100 .745 112.187z"/><path fill="#50D367" d="M-8.335 9.096L91.285.381 100 100 .38 108.716z"/><path fill="#51D468" d="M-5.097 5.37L94.766.138 100 100 .137 105.234z"/><path fill="#51D568" d="M-1.73 1.76L98.255.015 100 100 .015 101.745z"/></g></g><path d="M150 33.5c31.118 0 60.374 12.118 82.378 34.122C254.382 89.626 266.5 118.882 266.5 150s-12.118 60.374-34.122 82.378C210.374 254.382 181.118 266.5 150 266.5s-60.374-12.118-82.378-34.122C45.618 210.374 33.5 181.118 33.5 150s12.118-60.374 34.122-82.378C89.626 45.618 118.882 33.5 150 33.5m0-3.5C83.726 30 30 83.726 30 150s53.726 120 120 120 120-53.726 120-120S216.274 30 150 30z" fill="#35ed33"/><path d="M150 75c41.355 0 75 33.645 75 75s-33.645 75-75 75-75-33.645-75-75 33.645-75 75-75m0-3.5c-43.354 0-78.5 35.146-78.5 78.5s35.146 78.5 78.5 78.5 78.5-35.146 78.5-78.5-35.146-78.5-78.5-78.5z" fill="#35ed33"/><path d="M150 116.5c18.472 0 33.5 15.028 33.5 33.5s-15.028 33.5-33.5 33.5-33.5-15.028-33.5-33.5 15.028-33.5 33.5-33.5m0-3.5c-20.435 0-37 16.565-37 37s16.565 37 37 37 37-16.565 37-37-16.565-37-37-37z" fill="#35ed33"/><path d="M150 30c66.143 0 119.763 53.726 119.763 120S216.143 270 150 270 30.237 216.274 30.237 150 83.857 30 150 30m0-11c-34.932 0-67.772 13.629-92.471 38.377C32.836 82.119 19.237 115.013 19.237 150s13.599 67.882 38.292 92.623C82.228 267.371 115.068 281 150 281s67.772-13.629 92.471-38.377c24.693-24.742 38.292-57.636 38.292-92.623s-13.599-67.881-38.292-92.623C217.772 32.629 184.932 19 150 19z"/></svg>