<svg xmlns="http://www.w3.org/2000/svg" xmlns:xlink="http://www.w3.org/1999/xlink" viewBox="0 0 300 300"><defs><path id="a" d="M233 300H67c-36.85 0-67-30.15-67-67V67C0 30.15 30.15 0 67 0h166c36.85 0 67 30.15 67 67v166c0 36.85-30.15 67-67 67z"/></defs><clipPath id="b"><use xlink:href="#a" overflow="visible"/></clipPath><linearGradient id="c" gradientUnits="userSpaceOnUse" x1="150" y1=".026" x2="150" y2="299.974"><stop offset="0" stop-color="#fc0"/><stop offset="1" stop-color="#ff9500"/></linearGradient><path clip-path="url(#b)" fill="url(#c)" d="M.024.026h299.952v299.948H.024z"/><path d="M255.867 106.733H44.391c-4.39 0-7.98 2.981-7.98 7.938s3.59 7.925 7.98 7.925h30.225c3.093 0 5.109.874 7.317 3.243 2.208 2.368 2.285 5.355 2.351 7.585.066 2.223-.178 14.325-.304 17.842-.168 4.675-15.843 77.608-15.843 77.608-.985 4.278 1.521 8.102 6.166 9.65 4.441 1.48 10.104-1.637 11.089-5.915l14.791-58.958c-.35 1.396.624-5.142 4.822-5.142s4.874 4.13 5.18 5.353 15.108 58.747 15.108 58.747c.985 4.278 6.648 7.395 11.089 5.915 4.645-1.548 7.15-5.372 6.166-9.65 0 0-15.675-72.933-15.843-77.608-.127-3.517-.371-15.619-.304-17.842.066-2.23.144-5.216 2.351-7.585 2.208-2.368 4.224-3.243 7.317-3.243h28.122c3.093 0 5.109.874 7.317 3.243 2.208 2.368 2.285 5.355 2.351 7.585.066 2.223-.178 14.325-.304 17.842-.168 4.675-15.843 77.608-15.843 77.608-.985 4.278 1.521 8.102 6.166 9.65 4.441 1.48 10.104-1.637 11.089-5.915l14.791-58.958c-.35 1.396.624-5.142 4.822-5.142s4.874 4.13 5.18 5.353c.307 1.223 15.108 58.747 15.108 58.747.985 4.278 6.648 7.395 11.089 5.915 4.645-1.548 7.15-5.372 6.166-9.65 0 0-15.675-72.933-15.843-77.608-.127-3.517-.371-15.619-.304-17.842.066-2.23.144-5.216 2.351-7.585 2.208-2.368 4.224-3.243 7.317-3.243h30.225c4.39 0 7.978-3.01 7.978-7.943-.002-4.931-3.59-7.92-7.98-7.92z" clip-path="url(#b)" fill="#fff"/><circle cx="105.082" cy="79.902" r="18.609" clip-path="url(#b)" fill="#fff"/><circle cx="194.863" cy="79.902" r="18.609" clip-path="url(#b)" fill="#fff"/></svg>