<svg xmlns="http://www.w3.org/2000/svg" xmlns:xlink="http://www.w3.org/1999/xlink" viewBox="0 0 300 300"><defs><path id="a" d="M233 300H67c-36.85 0-67-30.15-67-67V67C0 30.15 30.15 0 67 0h166c36.85 0 67 30.15 67 67v166c0 36.85-30.15 67-67 67z"/></defs><clipPath id="b"><use xlink:href="#a" overflow="visible"/></clipPath><linearGradient id="c" gradientUnits="userSpaceOnUse" x1="149.872" y1=".026" x2="149.872" y2="299.974"><stop offset="0" stop-color="#ed3242"/><stop offset="1" stop-color="#f9be30"/></linearGradient><path clip-path="url(#b)" fill="url(#c)" d="M-.104.026h299.952v299.948H-.104z"/><g clip-path="url(#b)" fill="#fff"><path d="M184.477 88.408l11.578-11.578 27.496 27.497-11.577 11.577zM145.57 127.316l11.577-11.578 27.496 27.497-11.577 11.577z"/><path d="M215.773 188.096c.367-17.564 2.715-20.38 5.575-23.386 9.376-9.857 20.16-7.467 33.161-15.784 6.92-4.427 13.763-12.527 16.798-17.956 3.62-6.474 5.358-16.073-1.52-22.952-5.068-5.068-13.195-2.364-18.988-.792-4.253 1.154-10.947-1.051-14.028-4.131-5.216-5.216-3.233-13.659-1.712-15.179l76.67-76.67-22.723-22.723L209.526 68c-1.37 1.24-6.602 2.358-11.818-2.858-3.081-3.081-4.201-8.647-2.314-13.49 3.244-8.329 4.983-16.078.201-20.859-4.015-4.015-16.281-3.845-22.755-.226-5.429 3.035-12.572 9.576-16.999 16.496-8.317 13.001-6.372 25.228-16.229 34.604-3.006 2.86-8.027 4.692-25.591 5.06-17.525.367-41.663-1.637-66.99 23.691-17.904 17.904-21.212 36.601-22.82 53.095-.893 9.163.3 43.428 34.699 77.827s71.491 37.288 80.726 36.388c16.495-1.608 33.834-4.611 51.738-22.516 25.327-25.326 24.032-49.59 24.399-67.116zm-84.707-76.514c-.891-.891-1.056-2.243-.614-3.383 0 0-6.583 1.049-9.052 1.786-2.637.787-8.831 4.235-12.152 6.328-4.595 2.896-9.656 9.407-9.656 9.407s-5.877.654-8.707 1.421c-4.166 1.128-16.603 5.724-18.025 6.141-1.443.423-6.479 2.043-10.204 1.313-3.141-.615-4.556-5.397-1.903-7.731 1.558-1.371 3.501-1.196 4.444-.291 1.394 1.34 1.342 3.29.938 4.444 0 0 2.758-.46 3.975-.791 1.247-.339 13.39-4.966 16.672-7.119 9.078-5.957 10.092-11.065 10.092-11.065s7.932.994 13.073-1.384c3.917-1.812 6.711-3.282 11.061-4.52 3.983-1.134 10.241-2.134 12.169-1.115 2.83 1.495 3.493 4.751 1.795 6.449-1.237 1.235-2.869 1.147-3.906.11zm22.832 72.464a5.092 5.092 0 0 1-7.202 0l-30.491-30.491a5.092 5.092 0 1 1 7.202-7.202l30.491 30.491a5.092 5.092 0 0 1 0 7.202zm10.689 53.215c-.729-3.725.471-7.685 1.495-10.979 2.383-7.669 4.507-10.957 6.167-14.941 2.158-5.179 2.518-10.718 2.518-10.718s4.889-3.945 8.408-8.083c2.476-2.912 4.808-7.23 6.29-10.519-2.583-3.498-5.296-8.397-7.621-11.332-3.525-4.451-42.266-43.339-42.266-43.339l17.655-17.655 26.265 26.265 21.221-21.221-26.265-26.265 17.655-17.655 34.21 34.21c-.559-.545 4.55 4.831 4.109 8.022-.773 8.842-9.443 10.473-16.825 30.732-5.41 14.845-5.065 31.161-13.649 39.745-3.605 3.605-7.434 3.926-10.665 2.33-.4-.198-.814-.501-1.236-.871-.428 1.69-.768 2.867-1.94 5.401-2.379 5.141-1.607 12.898-1.607 12.898s-6.057 1.136-12.013 10.215c-2.154 3.282-5.925 11.986-7.538 16.308-.676 1.811-.791 3.975-.791 3.975 1.154-.404 3.104-.456 4.444.938.906.943 1.08 2.885-.291 4.444-2.333 2.651-7.115 1.235-7.73-1.905z"/></g></svg>