<svg xmlns="http://www.w3.org/2000/svg" xmlns:xlink="http://www.w3.org/1999/xlink" viewBox="0 0 335.84 335.836"><defs><path id="a" d="M260.615 335.836H75.225c-41.25 0-75-33.75-75-75V75c0-41.25 33.75-75 75-75h185.39c41.25 0 75 33.75 75 75v185.836c0 41.25-33.75 75-75 75z"/></defs><clipPath id="b"><use xlink:href="#a" overflow="visible"/></clipPath><path clip-path="url(#b)" fill="#fff" d="M0 0h335.84v335.836H0z"/><linearGradient id="c" gradientUnits="userSpaceOnUse" x1="206.205" y1="55.702" x2="206.205" y2="192.635"><stop offset="0" stop-color="#ff52a1"/><stop offset=".689" stop-color="#ff2a3e"/><stop offset="1" stop-color="#ff1709"/></linearGradient><path d="M240.073 55.702c-11.97 0-22.696 4.02-33.43 14.998a.614.614 0 0 1-.876 0c-10.734-10.978-21.46-14.998-33.43-14.998-22.291 0-44.434 17.746-44.434 43.141 0 26.203 21.125 61.628 78.054 93.728a.509.509 0 0 0 .496 0c56.929-32.1 78.054-67.524 78.054-93.728.001-25.395-22.143-43.141-44.434-43.141z" clip-path="url(#b)" fill="url(#c)"/></svg>