<svg xmlns="http://www.w3.org/2000/svg" xmlns:xlink="http://www.w3.org/1999/xlink" viewBox="0 0 300 300"><defs><path id="a" d="M233 300H67c-36.85 0-67-30.15-67-67V67C0 30.15 30.15 0 67 0h166c36.85 0 67 30.15 67 67v166c0 36.85-30.15 67-67 67z"/></defs><clipPath id="b"><use xlink:href="#a" overflow="visible"/></clipPath><path clip-path="url(#b)" fill="#fff" d="M.024.026h299.952v299.948H.024z"/><linearGradient id="c" gradientUnits="userSpaceOnUse" x1="184.194" y1="49.775" x2="184.194" y2="172.076"><stop offset="0" stop-color="#ff52a1"/><stop offset=".689" stop-color="#ff2a3e"/><stop offset="1" stop-color="#ff1709"/></linearGradient><path d="M214.443 49.775c-10.691 0-20.271 3.59-29.858 13.395a.549.549 0 0 1-.783 0c-9.587-9.805-19.167-13.395-29.858-13.395-19.909 0-39.686 15.85-39.686 38.531 0 23.403 18.868 55.042 69.713 83.712a.454.454 0 0 0 .443 0c50.846-28.67 69.713-60.309 69.713-83.712.002-22.681-19.775-38.531-39.684-38.531z" clip-path="url(#b)" fill="url(#c)"/></svg>