<svg xmlns="http://www.w3.org/2000/svg" xmlns:xlink="http://www.w3.org/1999/xlink" viewBox="0 0 335.84 335.836"><defs><path id="a" d="M260.573 335.836H75.183c-41.25 0-75-33.75-75-75V75c0-41.25 33.75-75 75-75h185.39c41.25 0 75 33.75 75 75v185.836c0 41.25-33.75 75-75 75z"/></defs><clipPath id="b"><use xlink:href="#a" overflow="visible"/></clipPath><path clip-path="url(#b)" fill="#fff" d="M-.085 0h335.84v335.836H-.085z"/><path d="M286.649 133.031c-2.041-1.621-8.736-6.74-21.13-16.467V76.45c0-2.2-2.266-4.3-4.466-4.3h-18.139c-2.2 0-4.23 2.1-4.23 4.3v18.651c-29.3-22.983-62.747-48.943-64.609-50.413-2.809-2.218-4.519-3.331-6.238-3.327v.9h-.002-.002c-1.719-.004-3.429.209-6.238 2.427-3.388 2.675-105.189 82.478-112.574 88.344-11.774 9.353-1.85 10.744 0 10.744 2.469 0 12.26.031 20.347.06v114.33c0 9.35 6.65 12.4 16 12.4h164.533c9.35 0 16.5-3.05 16.5-12.4v-114.33c8.087-.03 17.779-.06 20.247-.06 1.851-.001 11.775-1.392.001-10.745z" clip-path="url(#b)" fill="#f88e1a"/><path d="M246.564 124.742c-1.392-1.12-75.189-59.196-75.189-59.196a4.982 4.982 0 0 0-3.54-1.458 4.988 4.988 0 0 0-3.54 1.458s-73.996 58.076-75.389 59.196-1.392 2.775-1.392 7.19v113.27c0 3.301 3.9 7.302 7.2 7.302h146.242c3.3 0 7-4.001 7-7.302v-113.27c0-4.415 0-6.07-1.392-7.19z" clip-path="url(#b)" fill="#ffaf29"/><path d="M229.077 134.851c-1.097-.89-58.453-46.016-58.453-46.016a3.91 3.91 0 0 0-2.789-1.158 3.91 3.91 0 0 0-2.789 1.158s-57.356 45.127-58.453 46.016c-1.097.89-.797 3.204-.797 6.71v88.031c0 2.622 2.327 4.067 4.927 4.067h114.223c2.6 0 4.927-1.445 4.927-4.067v-88.031c0-3.506.301-5.82-.796-6.71z" clip-path="url(#b)" fill="#ffc148"/><path d="M210.593 144.102c-.771-.636-40.573-32.511-40.573-32.511a2.721 2.721 0 0 0-1.96-.828 2.723 2.723 0 0 0-1.96.828s-39.702 31.875-40.473 32.511-.771 2.676-.771 5.182v62.975c0 1.874 1.295 3.208 3.122 3.208h80.164c1.827 0 3.222-1.333 3.222-3.208v-62.975c0-2.507 0-4.546-.771-5.182z" clip-path="url(#b)" fill="#ffd466"/><path d="M192.755 153.092c-.449-.393-23.912-18.694-23.912-18.694a1.538 1.538 0 0 0-1.141-.512c-.414 0-.827.17-1.141.512 0 0-23.463 18.3-23.912 18.694s-.449 1.475-.449 3.025v38.931c0 1.16 1.37 2.508 2.434 2.508h46.235c1.064 0 2.334-1.349 2.334-2.508v-38.931c0-1.551.001-2.632-.448-3.025z" clip-path="url(#b)" fill="#ffe780"/></svg>