<svg xmlns="http://www.w3.org/2000/svg" xmlns:xlink="http://www.w3.org/1999/xlink" viewBox="0 0 300 300"><defs><path id="a" d="M233 300H67c-36.85 0-67-30.15-67-67V67C0 30.15 30.15 0 67 0h166c36.85 0 67 30.15 67 67v166c0 36.85-30.15 67-67 67z"/></defs><clipPath id="b"><use xlink:href="#a" overflow="visible"/></clipPath><path clip-path="url(#b)" fill="#fff" d="M-.082 0h300.004v300H-.082z"/><path d="M256.056 118.836c-1.823-1.448-7.804-6.021-18.875-14.71V68.292c0-1.965-2.024-3.841-3.989-3.841h-16.203c-1.965 0-3.779 1.876-3.779 3.841v16.661c-26.173-20.531-56.051-43.721-57.715-45.034-2.509-1.981-4.037-2.975-5.573-2.972v.804h-.002-.002c-1.535-.003-3.063.187-5.573 2.168-3.027 2.39-93.965 73.677-100.562 78.917-10.517 8.355-1.653 9.597 0 9.597 2.205 0 10.952.027 18.176.054v102.131c0 8.352 5.94 11.077 14.293 11.077h146.976c8.352 0 14.739-2.725 14.739-11.077V128.487c7.224-.026 15.882-.054 18.087-.054 1.654.001 10.519-1.242.002-9.597z" clip-path="url(#b)" fill="#f88e1a"/><path d="M220.248 111.431c-1.244-1-67.166-52.88-67.166-52.88a4.45 4.45 0 0 0-3.162-1.303 4.45 4.45 0 0 0-3.162 1.303s-66.1 51.879-67.344 52.88-1.244 2.479-1.244 6.422v101.184c0 2.949 3.484 6.523 6.432 6.523h130.637c2.948 0 6.253-3.574 6.253-6.523V117.853c0-3.944-.001-5.421-1.244-6.422z" clip-path="url(#b)" fill="#ffaf29"/><path d="M204.627 120.462c-.98-.795-52.215-41.106-52.215-41.106a3.495 3.495 0 0 0-2.491-1.035 3.49 3.49 0 0 0-2.491 1.035s-51.235 40.311-52.215 41.106-.712 2.862-.712 5.994v78.638c0 2.342 2.079 3.633 4.402 3.633H200.94c2.323 0 4.402-1.291 4.402-3.633v-78.638c0-3.133.265-5.199-.715-5.994z" clip-path="url(#b)" fill="#ffc148"/><path d="M188.115 128.725c-.689-.568-36.244-29.042-36.244-29.042a2.435 2.435 0 0 0-1.751-.74 2.432 2.432 0 0 0-1.751.74s-35.466 28.474-36.154 29.042c-.689.568-.689 2.39-.689 4.629v56.255c0 1.674 1.157 2.865 2.789 2.865h71.61c1.632 0 2.878-1.191 2.878-2.865v-56.255c0-2.239.001-4.061-.688-4.629z" clip-path="url(#b)" fill="#ffd466"/><path d="M172.181 136.756c-.401-.351-21.36-16.699-21.36-16.699a1.376 1.376 0 0 0-1.019-.458c-.369 0-.739.152-1.019.458 0 0-20.959 16.348-21.36 16.699-.401.351-.401 1.317-.401 2.703v34.777c0 1.036 1.224 2.241 2.174 2.241h41.301c.95 0 2.085-1.205 2.085-2.241v-34.777c0-1.385 0-2.351-.401-2.703z" clip-path="url(#b)" fill="#ffe780"/></svg>