<svg xmlns="http://www.w3.org/2000/svg" xmlns:xlink="http://www.w3.org/1999/xlink" viewBox="0 0 335.84 335.836"><defs><path id="a" d="M260.615 335.836H75.225c-41.25 0-75-33.75-75-75V75c0-41.25 33.75-75 75-75h185.39c41.25 0 75 33.75 75 75v185.836c0 41.25-33.75 75-75 75z"/></defs><clipPath id="b"><use xlink:href="#a" overflow="visible"/></clipPath><path clip-path="url(#b)" fill="#fff" d="M0 0h335.84v335.836H0z"/><path d="M286.692 135.331c-2.041-1.621-11.3-8.895-23.694-18.622V79.33c0-2.2-1.8-4-4-4h-18.139c-2.2 0-4 1.8-4 4v16.871c-29.3-22.983-60.879-47.743-62.741-49.213-2.809-2.218-4.519-3.331-6.238-3.327h-.004c-1.719-.004-3.429 1.109-6.238 3.327-3.388 2.675-105.189 82.478-112.574 88.344-11.774 9.353-1.85 9.844 0 9.844 2.469 0 13.66.031 21.747.06v109.73c0 9.35 7.65 17 17 17h160.133c9.35 0 17-7.65 17-17v-109.73c8.087-.03 19.279-.06 21.747-.06 1.851-.001 11.774-.492.001-9.845z" clip-path="url(#b)" fill="#f88e1a"/><path d="M245.606 129.142c-1.392-1.12-74.189-59.196-74.189-59.196a4.982 4.982 0 0 0-3.54-1.458 4.988 4.988 0 0 0-3.54 1.458s-72.796 58.076-74.189 59.196-1.392 2.775-1.392 7.19v111.97c0 3.301 2.7 6.002 6 6.002h146.243c3.3 0 6-2.701 6-6.002v-111.97c-.001-4.415-.001-6.07-1.393-7.19z" clip-path="url(#b)" fill="#ffaf29"/><path d="M229.119 136.363c-1.097-.89-58.453-47.016-58.453-47.016a3.91 3.91 0 0 0-2.789-1.158 3.91 3.91 0 0 0-2.789 1.158s-57.356 46.127-58.453 47.016c-1.097.89-1.097 2.204-1.097 5.71v88.931c0 2.622 2.127 4.767 4.727 4.767h115.223c2.6 0 4.727-2.145 4.727-4.767v-88.931c0-3.506.001-4.821-1.096-5.71z" clip-path="url(#b)" fill="#ffc148"/><path d="M210.953 146.902c-.771-.636-41.073-33.611-41.073-33.611a2.721 2.721 0 0 0-1.96-.828 2.723 2.723 0 0 0-1.96.828s-40.302 32.975-41.073 33.611-.771 1.576-.771 4.082v63.575c0 1.874 1.495 3.408 3.322 3.408h80.964c1.827 0 3.322-1.533 3.322-3.408v-63.575c0-2.507 0-3.446-.771-4.082z" clip-path="url(#b)" fill="#ffd466"/><path d="M193.843 157.795c-.464-.39-24.742-20.596-24.742-20.596a1.633 1.633 0 0 0-2.362 0s-24.278 20.206-24.742 20.596-.464.965-.464 2.501v38.957c0 1.148.9 2.088 2.001 2.088H192.306c1.101 0 2.001-.94 2.001-2.088v-38.957c0-1.536 0-2.112-.464-2.501z" clip-path="url(#b)" fill="#ffe780"/></svg>