<svg xmlns="http://www.w3.org/2000/svg" xmlns:xlink="http://www.w3.org/1999/xlink" viewBox="0 0 300 300"><defs><path id="a" d="M233 300H67c-36.85 0-67-30.15-67-67V67C0 30.15 30.15 0 67 0h166c36.85 0 67 30.15 67 67v166c0 36.85-30.15 67-67 67z"/></defs><clipPath id="b"><use xlink:href="#a" overflow="visible"/></clipPath><linearGradient id="c" gradientUnits="userSpaceOnUse" x1="150" y1=".026" x2="150" y2="299.974"><stop offset="0" stop-color="#ffa700"/><stop offset=".999" stop-color="#f9671e"/></linearGradient><path clip-path="url(#b)" fill="url(#c)" d="M.024.026h299.952v299.948H.024z"/><path d="M200.776 204.21c12.231 0 23.512 3.359 32.502 8.327 2.83 1.564 6.306 3.729 8.737 5.466 7.747 5.532 8.44-1.171 8.44-1.793s-.103-108.215-.103-117.226-4.183-14.54-9.054-18.74c-5.701-4.915-22.084-12.808-38.559-12.808-24.378 0-39.49 14.096-44.193 21.02-4.782 7.04-5.58 11.393-5.58 18.715v126.857c0 1.552.115 4.246 1.263 1.275 6.948-17.988 24.195-31.093 46.547-31.093zM99.224 204.21c-12.231 0-23.512 3.359-32.502 8.327-2.83 1.564-6.306 3.729-8.737 5.466-7.747 5.532-8.44-1.171-8.44-1.793s.103-108.215.103-117.226 4.183-14.54 9.054-18.74c5.701-4.915 22.084-12.808 38.559-12.808 24.378 0 39.49 14.096 44.193 21.02 4.782 7.04 5.58 11.393 5.58 18.715v126.857c0 1.552-.115 4.246-1.263 1.275-6.948-17.988-24.195-31.093-46.547-31.093z" clip-path="url(#b)" fill="#fff"/></svg>