<svg xmlns="http://www.w3.org/2000/svg" xmlns:xlink="http://www.w3.org/1999/xlink" viewBox="0 0 335.84 335.836"><defs><path id="a" d="M260.615 335.836H75.225c-41.25 0-75-33.75-75-75V75c0-41.25 33.75-75 75-75h185.39c41.25 0 75 33.75 75 75v185.836c0 41.25-33.75 75-75 75z"/></defs><clipPath id="b"><use xlink:href="#a" overflow="visible"/></clipPath><linearGradient id="c" gradientUnits="userSpaceOnUse" x1="167.92" x2="167.92" y2="335.836"><stop offset="0" stop-color="#fea60d"/><stop offset="1" stop-color="#fd691b"/></linearGradient><path clip-path="url(#b)" fill="url(#c)" d="M0 0h335.84v335.836H0z"/><path d="M230.571 228.614c13.695 0 26.325 3.761 36.391 9.323 3.168 1.751 7.06 4.176 9.782 6.12 8.673 6.194 9.45-1.312 9.45-2.008V103.586s-.384-7.447-3.602-11.781c-1.759-2.368-6.401-6.093-11.66-9.259-4.366-2.629-9.206-4.79-12.723-6.222-7.755-3.158-20.461-5.197-29.491-5.197s-21.154 1.464-32.394 7.524c-8.139 5.083-15.618 11.138-20.31 19.25-4.692 8.113-4.773 18.605-4.773 18.605v148.691c0 2.768.936 5.117 1.879 1.678 6.103-22.268 27.282-38.261 57.451-38.261zM105.269 228.614c-13.695 0-26.325 3.761-36.391 9.323-3.168 1.751-7.06 4.176-9.782 6.12-8.673 6.194-9.45-1.312-9.45-2.008V103.586s.384-7.447 3.602-11.781c1.759-2.368 6.401-6.093 11.66-9.259 4.366-2.629 9.206-4.79 12.723-6.222 7.755-3.158 20.461-5.197 29.491-5.197s21.154 1.464 32.394 7.524c8.139 5.083 15.618 11.138 20.31 19.25 4.692 8.113 4.773 18.605 4.773 18.605v148.691c0 2.768-.936 5.117-1.879 1.678-6.103-22.268-27.282-38.261-57.451-38.261z" clip-path="url(#b)" fill="#fff"/></svg>