<svg xmlns="http://www.w3.org/2000/svg" xmlns:xlink="http://www.w3.org/1999/xlink" viewBox="0 0 335.84 335.836"><defs><path id="a" d="M260.615 335.836H75.225c-41.25 0-75-33.75-75-75V75c0-41.25 33.75-75 75-75h185.39c41.25 0 75 33.75 75 75v185.836c0 41.25-33.75 75-75 75z"/></defs><clipPath id="b"><use xlink:href="#a" overflow="visible"/></clipPath><linearGradient id="c" gradientUnits="userSpaceOnUse" x1="167.92" x2="167.92" y2="335.836"><stop offset="0" stop-color="#ffa700"/><stop offset=".999" stop-color="#f9671e"/></linearGradient><path clip-path="url(#b)" fill="url(#c)" d="M0 0h335.84v335.836H0z"/><path d="M224.771 228.614c13.695 0 26.325 3.761 36.391 9.323 3.168 1.751 7.06 4.176 9.782 6.12 8.673 6.194 9.45-1.312 9.45-2.008s-.115-121.162-.115-131.252-4.683-16.28-10.138-20.982c-6.383-5.504-24.726-14.34-43.172-14.34-27.294 0-44.215 15.782-49.48 23.534-5.354 7.882-6.248 12.756-6.248 20.954v142.035c0 1.738.129 4.754 1.414 1.427 7.779-20.138 27.09-34.811 52.116-34.811zM111.069 228.614c-13.695 0-26.325 3.761-36.391 9.323-3.168 1.751-7.06 4.176-9.782 6.12-8.673 6.194-9.45-1.312-9.45-2.008s.115-121.162.115-131.252 4.683-16.28 10.138-20.982c6.383-5.504 24.726-14.34 43.172-14.34 27.294 0 44.215 15.782 49.48 23.534 5.354 7.882 6.248 12.756 6.248 20.954v142.035c0 1.738-.129 4.754-1.414 1.427-7.779-20.138-27.09-34.811-52.116-34.811z" clip-path="url(#b)" fill="#fff"/></svg>