<svg xmlns="http://www.w3.org/2000/svg" xmlns:xlink="http://www.w3.org/1999/xlink" viewBox="0 0 300 300"><defs><path id="a" d="M233 300H67c-36.85 0-67-30.15-67-67V67C0 30.15 30.15 0 67 0h166c36.85 0 67 30.15 67 67v166c0 36.85-30.15 67-67 67z"/></defs><clipPath id="b"><use xlink:href="#a" overflow="visible"/></clipPath><linearGradient id="c" gradientUnits="userSpaceOnUse" x1="150" y1=".026" x2="150" y2="299.974"><stop offset="0" stop-color="#0e1177"/><stop offset="1" stop-color="#753ec1"/></linearGradient><path clip-path="url(#b)" fill="url(#c)" d="M.024.026h299.952v299.948H.024z"/><path d="M280.331 117.577h-97.556l-32.817-95.974-32.733 95.974H19.669l77.095 57.563-32.38 100.285L150 214.743l85.616 60.682-32.379-100.285 77.094-57.563zm-163.744 36.088a1 1 0 0 1-1 1h-4.027a1 1 0 0 1-1-1v-7.752a1 1 0 0 1 1-1h4.027a1 1 0 0 1 1 1v7.752zm53.698 23.878c0 2.75-2.25 5-5 5h-41.953c-2.75 0-5-2.25-5-5v-35.132c0-2.75 2.25-5 5-5h41.953c2.75 0 5 2.25 5 5v35.132zm19.116-.313l-16.953-10.815v-12.276l16.953-11.984v35.075z" clip-path="url(#b)" fill="#fff"/></svg>