<svg xmlns="http://www.w3.org/2000/svg" xmlns:xlink="http://www.w3.org/1999/xlink" viewBox="0 0 335.84 335.836"><defs><path id="a" d="M260.615 335.836H75.225c-41.25 0-75-33.75-75-75V75c0-41.25 33.75-75 75-75h185.39c41.25 0 75 33.75 75 75v185.836c0 41.25-33.75 75-75 75z"/></defs><clipPath id="b"><use xlink:href="#a" overflow="visible"/></clipPath><linearGradient id="c" gradientUnits="userSpaceOnUse" x1="167.92" x2="167.92" y2="335.836"><stop offset="0" stop-color="#ef4db7"/><stop offset="1" stop-color="#c744fc"/></linearGradient><path clip-path="url(#b)" fill="url(#c)" d="M0 0h335.84v335.836H0z"/><path d="M167.92 35.911c72.739 0 131.706 58.967 131.706 131.706 0 72.739-58.967 131.706-131.706 131.706S36.214 240.357 36.214 167.618c0-72.74 58.967-131.707 131.706-131.707m0-14c-38.92 0-75.51 15.156-103.03 42.676-27.52 27.52-42.676 64.11-42.676 103.03s15.156 75.51 42.676 103.03c27.52 27.52 64.11 42.676 103.03 42.676s75.51-15.156 103.03-42.676c27.52-27.52 42.676-64.11 42.676-103.03s-15.156-75.51-42.676-103.03c-27.52-27.519-64.11-42.676-103.03-42.676z" clip-path="url(#b)" fill="#fff"/><path d="M226.217 206.309c-.516 13.899-9.918 26.9-28.606 26.9-13.565-.554-22.509-8.569-22.257-21.189.01-11.221 10.509-18.69 19.684-20.529.865-.173 10.074-1.999 11.92-2.569 2.053-.633 5.538-.93 7.011-2.394 1.474-1.465 2.479-4.584 2.482-7.234.003-2.65.009-57.442 0-58.123-.018-1.331-.262-2.798-1.114-3.572-.852-.774-2.513-.647-3.73-.347-.859.212-69.334 14.196-70.074 14.365-1.102.252-2.205.515-3.015 1.607-.811 1.092-.84 1.941-.81 3.228v88.17c0 12.235-6.98 26.583-29.933 26.583-9.943 0-21.091-7.965-21.091-20.717 0-11.927 9.472-18.782 21.941-21.013 1.468-.263 5.336-1.14 9.523-2.167 2.508-.615 5.498-1.227 7.314-2.994 1.809-1.76 2.356-4.32 2.356-7.377V98.436c-.241-3.353 2.609-6.22 5.048-6.679l87.462-17.702c2.509-.371 5.888 2.717 5.888 5.365v126.889z" clip-path="url(#b)" fill="#fff"/></svg>