<svg xmlns="http://www.w3.org/2000/svg" xmlns:xlink="http://www.w3.org/1999/xlink" viewBox="0 0 335.84 335.836"><defs><path id="a" d="M260.615 335.836H75.225c-41.25 0-75-33.75-75-75V75c0-41.25 33.75-75 75-75h185.39c41.25 0 75 33.75 75 75v185.836c0 41.25-33.75 75-75 75z"/></defs><clipPath id="b"><use xlink:href="#a" overflow="visible"/></clipPath><linearGradient id="c" gradientUnits="userSpaceOnUse" x1="167.92" x2="167.92" y2="335.836"><stop offset="0" stop-color="#fb5bc4"/><stop offset="1" stop-color="#a645fe"/></linearGradient><path clip-path="url(#b)" fill="url(#c)" d="M0 0h335.84v335.836H0z"/><path d="M167.92 35.911c72.739 0 131.706 58.967 131.706 131.706 0 72.739-58.967 131.706-131.706 131.706S36.214 240.357 36.214 167.618c0-72.74 58.967-131.707 131.706-131.707m0-14c-38.92 0-75.51 15.156-103.03 42.676-27.52 27.52-42.676 64.11-42.676 103.03s15.156 75.51 42.676 103.03c27.52 27.52 64.11 42.676 103.03 42.676s75.51-15.156 103.03-42.676c27.52-27.52 42.676-64.11 42.676-103.03s-15.156-75.51-42.676-103.03c-27.52-27.519-64.11-42.676-103.03-42.676z" clip-path="url(#b)" fill="#fff"/><path d="M218.183 204.594c-.484 12.361-10.856 16.488-23.751 16.488s-23.348-3.89-23.348-16.628c0-12.989 11.67-17.184 23.348-16.628.826.039 7.02.201 8.811-.055 1.791-.256 4.299-1.331 5.527-2.764s1.514-2.552 1.516-4.909c.003-2.357-.367-56.987-.375-57.593-.017-1.184-.535-1.955-1.334-2.644-.799-.688-2.355-.575-3.496-.308-.806.189-63.682 13.248-64.375 13.399-1.033.224-2.067.458-2.827 1.429-.76.971-.788 1.726-.76 2.871l.027 81.251c-.484 12.361-11.03 16.779-23.925 16.779s-23.355-3.486-23.355-16.93 10.234-16.327 23.348-16.628c1.36-.031 4.756.327 8.531-.011 2.169-.195 4.379-1.032 5.412-2.186 1.531-1.712 1.721-6.119 1.721-6.119l.157-92.84c0-1.65.333-2.287 2.619-2.696l81.322-15.494c2.352-.33 5.519 1.972 5.519 4.327l-.312 117.889z" clip-path="url(#b)" fill="#fff"/></svg>