<svg xmlns="http://www.w3.org/2000/svg" xmlns:xlink="http://www.w3.org/1999/xlink" viewBox="0 0 335.84 335.836"><defs><path id="a" d="M260.615 335.836H75.225c-41.25 0-75-33.75-75-75V75c0-41.25 33.75-75 75-75h185.39c41.25 0 75 33.75 75 75v185.836c0 41.25-33.75 75-75 75z"/></defs><clipPath id="b"><use xlink:href="#a" overflow="visible"/></clipPath><linearGradient id="c" gradientUnits="userSpaceOnUse" x1="167.92" x2="167.92" y2="335.836"><stop offset="0" stop-color="#ef4db7"/><stop offset="1" stop-color="#c744fc"/></linearGradient><path clip-path="url(#b)" fill="url(#c)" d="M0 0h335.84v335.836H0z"/><path d="M167.92 35.911c72.739 0 131.706 58.967 131.706 131.706 0 72.739-58.967 131.706-131.706 131.706S36.214 240.357 36.214 167.618c0-72.74 58.967-131.707 131.706-131.707m0-14c-38.92 0-75.51 15.156-103.03 42.676-27.52 27.52-42.676 64.11-42.676 103.03s15.156 75.51 42.676 103.03c27.52 27.52 64.11 42.676 103.03 42.676s75.51-15.156 103.03-42.676c27.52-27.52 42.676-64.11 42.676-103.03s-15.156-75.51-42.676-103.03c-27.52-27.519-64.11-42.676-103.03-42.676z" clip-path="url(#b)" fill="#fff"/><path d="M223.697 208.19c-.516 13.899-12.311 23.155-30.999 23.155-7.517 0-19.171-5.969-18.919-18.589.01-11.221 10.784-19.127 19.959-20.967.865-.173 10.074-1.999 11.92-2.569 2.053-.633 5.459-1.774 6.769-3.385 1.31-1.611 2.821-4.894 2.824-7.544.003-2.65-.382-55.842-.391-56.523-.018-1.331-.571-2.198-1.423-2.972-.852-.774-2.513-.647-3.73-.347-.859.212-67.934 14.396-68.674 14.565-1.102.252-2.205.515-3.015 1.607-.811 1.092-.84 1.941-.81 3.228l.027 87.97c-.032 10.085-9.421 22.497-31.623 22.497-8.558 0-18.813-6.53-18.813-19.281 0-11.927 9.863-19.453 22.427-21.064 1.481-.19 5.753-.964 9.677-1.941 2.506-.624 5.767-2.161 6.869-3.459 1.634-1.924 2.459-4.305 2.648-7.137.189-2.832.164-97.759.164-97.759 0-1.855 1.445-3.863 3.884-4.322l85.662-17.202c2.509-.371 5.888 2.217 5.888 4.865l-.321 127.174z" clip-path="url(#b)" fill="#fff"/></svg>