<svg xmlns="http://www.w3.org/2000/svg" xmlns:xlink="http://www.w3.org/1999/xlink" viewBox="0 0 300 300"><defs><path id="a" d="M233 300H67c-36.85 0-67-30.15-67-67V67C0 30.15 30.15 0 67 0h166c36.85 0 67 30.15 67 67v166c0 36.85-30.15 67-67 67z"/></defs><clipPath id="b"><use xlink:href="#a" overflow="visible"/></clipPath><linearGradient id="c" gradientUnits="userSpaceOnUse" x1="150" y1=".026" x2="150" y2="299.974"><stop offset="0" stop-color="#ffa800"/><stop offset="1" stop-color="#f8671d"/></linearGradient><path clip-path="url(#b)" fill="url(#c)" d="M.024.026h299.952v299.948H.024z"/><path d="M94.24 240.855H78.839v-30.612a7.701 7.701 0 0 1 15.402 0v30.612z" clip-path="url(#b)" fill="#fff"/><g clip-path="url(#b)" fill="#fff"><path d="M83.833 157.118c-8.857 9.758-15.948 21.458-20.68 34.484 3.318-.268 6.674-.414 10.068-.414 3.579 0 7.118.156 10.612.454v-34.524zM211.878 152.905L150 177.206l-60.085-23.553v38.661c23.028 3.126 43.779 12.615 60.042 26.445 20.111-17.102 47.082-27.571 76.736-27.571 3.341 0 6.645.141 9.912.401-5.432-14.952-13.972-28.159-24.727-38.684z"/></g><path d="M149.882 69.878l-127.47 50.014 60.969 23.899 54.99-21.83a5.159 5.159 0 0 1-.396-1.934c0-4.24 5.33-7.678 11.904-7.678 6.575 0 11.904 3.437 11.904 7.678 0 4.24-5.33 7.678-11.904 7.678-2.368 0-4.568-.451-6.422-1.22l-51.783 20.557L150 169.905l127.352-50.014-127.47-50.013z" clip-path="url(#b)" fill="#fff"/></svg>