<svg xmlns="http://www.w3.org/2000/svg" xmlns:xlink="http://www.w3.org/1999/xlink" viewBox="0 0 300 300"><defs><path id="a" d="M233 300H67c-36.85 0-67-30.15-67-67V67C0 30.15 30.15 0 67 0h166c36.85 0 67 30.15 67 67v166c0 36.85-30.15 67-67 67z"/></defs><clipPath id="b"><use xlink:href="#a" overflow="visible"/></clipPath><linearGradient id="c" gradientUnits="userSpaceOnUse" x1="150" y1=".026" x2="150" y2="299.974"><stop offset="0" stop-color="#ef4db7"/><stop offset="1" stop-color="#c744fc"/></linearGradient><path clip-path="url(#b)" fill="url(#c)" d="M.024.026h299.952v299.948H.024z"/><path d="M150 32.1c64.966 0 117.632 52.666 117.632 117.632 0 64.966-52.666 117.632-117.632 117.632S32.368 214.698 32.368 149.732C32.368 84.766 85.034 32.1 150 32.1m0-12.504c-34.761 0-67.441 13.537-92.02 38.116-24.579 24.579-38.116 57.26-38.116 92.02s13.537 67.441 38.116 92.02c24.579 24.579 57.26 38.116 92.02 38.116s67.441-13.537 92.02-38.116c24.579-24.579 38.116-57.26 38.116-92.02S266.6 82.291 242.02 57.712c-24.579-24.58-57.259-38.116-92.02-38.116z" clip-path="url(#b)" fill="#fff"/><path d="M202.068 184.288c-.461 12.413-8.858 24.025-25.549 24.025-12.116-.495-20.104-7.653-19.879-18.925.009-10.022 9.386-16.693 17.581-18.336.772-.155 8.997-1.785 10.646-2.294 1.834-.566 4.946-.831 6.262-2.138 1.316-1.308 2.214-4.094 2.217-6.461.002-2.367.008-51.304 0-51.912-.016-1.189-.234-2.499-.995-3.191-.761-.691-2.244-.578-3.331-.31-.768.189-61.925 12.679-62.586 12.83-.985.225-1.969.46-2.693 1.435-.724.975-.75 1.733-.724 2.883v78.748c0 10.928-6.234 23.742-26.734 23.742-8.88 0-18.837-7.114-18.837-18.503 0-10.653 8.46-16.775 19.597-18.768 1.311-.235 4.766-1.018 8.506-1.935 2.24-.549 4.911-1.096 6.533-2.674 1.616-1.572 2.104-3.858 2.104-6.588V87.941c-.216-2.995 2.33-5.556 4.508-5.966l78.116-15.811c2.241-.331 5.259 2.426 5.259 4.792v113.332z" clip-path="url(#b)" fill="#fff"/></svg>