<svg xmlns="http://www.w3.org/2000/svg" xmlns:xlink="http://www.w3.org/1999/xlink" viewBox="0 0 300 300"><defs><path id="a" d="M233 300H67c-36.85 0-67-30.15-67-67V67C0 30.15 30.15 0 67 0h166c36.85 0 67 30.15 67 67v166c0 36.85-30.15 67-67 67z"/></defs><clipPath id="b"><use xlink:href="#a" overflow="visible"/></clipPath><linearGradient id="c" gradientUnits="userSpaceOnUse" x1="150" y1=".026" x2="150" y2="299.974"><stop offset="0" stop-color="#1ad4fc"/><stop offset="1" stop-color="#1f65f2"/></linearGradient><path clip-path="url(#b)" fill="url(#c)" d="M.024.026h299.952v299.948H.024z"/><path d="M187.782 235.879h-15.074v-.032h-11.453c-3.85 0-7-3.15-7-7v-69.398h-8.583v69.398c0 3.85-3.15 7-7 7h-12.555v.032h-13.856c-2.2 0-4 1.8-4 4v.499c0 2.2 1.8 4 4 4h75.521c2.2 0 4-1.8 4-4v-.499c0-2.2-1.8-4-4-4zM61.446 146.048v.28c0 4.4 3.6 8 8 8h161.808c4.4 0 8-3.6 8-8v-.28H61.446zM230.562 75.135c0-5.5-4.5-10-10-10h-130.5V53.301c0-3.3 2.7-6 6-6h22.922c.827 3.336 3.847 5.831 7.43 5.831h16.743c4.214 0 7.662-3.448 7.662-7.662v-1.576c0-4.214-3.448-7.662-7.662-7.662h-16.743c-3.668 0-6.753 2.613-7.491 6.069h-22.86c-6.065 0-11 4.935-11 11v11.834h-5.71c-5.5 0-10 4.5-10 10l-2.605 65.406h166.417l-2.603-65.406z" clip-path="url(#b)" fill="#fff"/></svg>