<svg xmlns="http://www.w3.org/2000/svg" xmlns:xlink="http://www.w3.org/1999/xlink" viewBox="0 0 300 300"><defs><path id="a" d="M233 300H67c-36.85 0-67-30.15-67-67V67C0 30.15 30.15 0 67 0h166c36.85 0 67 30.15 67 67v166c0 36.85-30.15 67-67 67z"/></defs><clipPath id="b"><use xlink:href="#a" overflow="visible"/></clipPath><linearGradient id="c" gradientUnits="userSpaceOnUse" x1="150" y1=".026" x2="150" y2="299.974"><stop offset="0" stop-color="#1e52ee"/><stop offset="1" stop-color="#19e5ff"/></linearGradient><path clip-path="url(#b)" fill="url(#c)" d="M.024.026h299.952v299.948H.024z"/><g clip-path="url(#b)" fill="#fff"><path d="M50.473 90.215c-.519.91-.355 2.604-.355 3.721v112.23c0 .867.18 1.693.502 2.445l57.621-59.252-57.768-59.144zM149.962 172.1c5.702-.001 12.451-2.81 15.856-6.207 3.405-3.398 79.29-80.388 79.29-80.388-.702-.274-.76-.156-1.555-.156H56.371c-.796 0-.854-.118-1.555.156 0 0 75.885 76.99 79.29 80.388 3.404 3.397 10.154 6.207 15.856 6.207zM249.45 90.215l-57.768 59.144 57.621 59.252a6.2 6.2 0 0 0 .502-2.445V93.937c-.001-1.118.164-2.812-.355-3.722z"/><path d="M170.541 171.072c-4.914 4.685-12.701 8.095-20.58 8.095-7.879 0-15.665-3.41-20.579-8.095-2.894-2.759-16.341-16.798-16.341-16.798l-58.33 58.645c.871.452.61.444 1.66.444h187.182c1.05 0 .789.009 1.66-.444l-58.33-58.645c-.001-.001-13.448 14.038-16.342 16.798z"/></g></svg>