<svg xmlns="http://www.w3.org/2000/svg" xmlns:xlink="http://www.w3.org/1999/xlink" viewBox="0 0 335.84 335.836"><defs><path id="a" d="M260.615 335.836H75.225c-41.25 0-75-33.75-75-75V75c0-41.25 33.75-75 75-75h185.39c41.25 0 75 33.75 75 75v185.836c0 41.25-33.75 75-75 75z"/></defs><clipPath id="b"><use xlink:href="#a" overflow="visible"/></clipPath><linearGradient id="c" gradientUnits="userSpaceOnUse" x1="167.92" x2="167.92" y2="335.836"><stop offset="0" stop-color="#1e52ee"/><stop offset="1" stop-color="#19e5ff"/></linearGradient><path clip-path="url(#b)" fill="url(#c)" d="M0 0h335.84v335.836H0z"/><g clip-path="url(#b)" fill="#fff"><path d="M56.485 100.98c-.581 1.019-.397 2.916-.397 4.167v125.658c0 .97.201 1.896.562 2.738l64.515-66.342-64.68-66.221zM167.878 192.662c6.384-.001 13.941-3.146 17.753-6.95 3.812-3.804 88.776-90.006 88.776-90.006-.786-.307-.85-.175-1.741-.175H63.089c-.891 0-.956-.132-1.741.175 0 0 84.964 86.202 88.776 90.006 3.811 3.804 11.369 6.95 17.754 6.95zM279.269 100.98l-64.68 66.221 64.515 66.342a6.93 6.93 0 0 0 .562-2.738V105.147c0-1.251.184-3.148-.397-4.167z"/><path d="M190.918 191.511c-5.502 5.246-14.221 9.064-23.042 9.064-8.821 0-17.539-3.818-23.041-9.064-3.24-3.09-18.296-18.808-18.296-18.808L61.23 238.365c.975.507.683.497 1.858.497h209.577c1.175 0 .883.01 1.858-.497l-65.309-65.662c.001-.001-15.055 15.718-18.296 18.808z"/></g></svg>