<svg xmlns="http://www.w3.org/2000/svg" xmlns:xlink="http://www.w3.org/1999/xlink" viewBox="0 0 335.84 335.836"><defs><path id="a" d="M260.615 335.836H75.225c-41.25 0-75-33.75-75-75V75c0-41.25 33.75-75 75-75h185.39c41.25 0 75 33.75 75 75v185.836c0 41.25-33.75 75-75 75z"/></defs><clipPath id="b"><use xlink:href="#a" overflow="visible"/></clipPath><linearGradient id="c" gradientUnits="userSpaceOnUse" x1="167.92" x2="167.92" y2="335.836"><stop offset="0" stop-color="#1e52ee"/><stop offset="1" stop-color="#19e5ff"/></linearGradient><path clip-path="url(#b)" fill="url(#c)" d="M0 0h335.84v335.836H0z"/><g clip-path="url(#b)" fill="#fff"><path d="M57.006 99.086a6.933 6.933 0 0 0-.918 3.445v130.774c0 .97.201 1.896.562 2.738l68.657-68.539-68.301-68.418zM152.502 188.111c3.812 3.804 8.992 7.537 15.376 7.537 6.384 0 11.564-3.732 15.376-7.537 3.812-3.804 91.941-92.098 91.941-92.098a6.926 6.926 0 0 0-2.527-.482H63.088c-.891 0-1.741.175-2.527.482 0 0 88.129 88.294 91.941 92.098zM278.749 99.086l-68.3 68.417 68.657 68.539a6.93 6.93 0 0 0 .562-2.738V102.531a6.947 6.947 0 0 0-.919-3.445z"/><path d="M185.122 192.873c-3.196 3.202-8.423 8.333-17.245 8.333s-14.049-5.131-17.245-8.333l-22.015-22.052-68.787 68.67a6.935 6.935 0 0 0 3.258.814h209.579a6.924 6.924 0 0 0 3.258-.814l-68.788-68.671-22.015 22.053z"/></g></svg>