<svg xmlns="http://www.w3.org/2000/svg" xmlns:xlink="http://www.w3.org/1999/xlink" viewBox="0 0 335.84 335.836"><defs><path id="a" d="M260.615 335.836H75.225c-41.25 0-75-33.75-75-75V75c0-41.25 33.75-75 75-75h185.39c41.25 0 75 33.75 75 75v185.836c0 41.25-33.75 75-75 75z"/></defs><clipPath id="b"><use xlink:href="#a" overflow="visible"/></clipPath><g clip-path="url(#b)"><path fill="#73C455" d="M1.951 53.211v-1.357l.043-.143C11.429 20.676 40.96-1 73.809-1h156.759v54.211H1.951z"/><path fill="#5C9D44" d="M229.568 0v52.212H2.951v-.209C12.065 22.022 40.439 0 73.809 0h155.759m2-2H73.809C57.19-2 41.38 3.241 28.089 13.155 15.23 22.748 5.623 36.337 1.037 51.421l-.086.284V54.211h230.618V-2h-.001z"/></g><g clip-path="url(#b)"><path fill="#FBC3D0" d="M284.505 53.211V1.887l1.3.408c23.081 7.252 41.479 26.276 48.013 49.647l.355 1.269h-49.668z"/><path fill="#C99CA6" d="M285.506 3.249c22.875 7.188 40.854 25.73 47.349 48.963h-47.349V3.249m-2-2.725v53.688h51.985l-.71-2.538c-3.274-11.71-9.505-22.551-18.021-31.351-8.506-8.789-19.106-15.353-30.655-18.982l-2.599-.817z"/></g><g clip-path="url(#b)"><path fill="#E3DCCB" d="M74.714 336.836c-41.625 0-75.489-33.75-75.489-75.234V104.376h231.527v232.46H74.714z"/><path fill="#B6B0A2" d="M229.753 105.376v230.46H74.714c-40.969 0-74.489-33.405-74.489-74.234V105.376h229.528m2-2H-1.775v158.226c0 20.282 7.98 39.404 22.469 53.844 14.488 14.438 33.672 22.389 54.02 22.389h157.039V103.376z"/><path fill="#E3DCCB" d="M284.505 104.375h52.109v98.983h-52.109z"/><path fill="#B6B0A2" d="M335.615 105.375l-.001 96.983h-50.109v-96.983h50.11m2-2h-54.11v100.983h54.109v-2l.001-96.983v-2z"/><g><path fill="#E3DCCB" d="M284.563 253.894l52.052-.004v9.67c0 31.804-20.87 60.575-50.752 69.967l-1.3.408v-80.041z"/><path fill="#B6B0A2" d="M335.615 254.89v8.669c0 32.368-21.157 59.932-50.052 69.013v-77.679l50.052-.003m2-2h-2l-50.052.003h-2v82.404l2.6-.817c14.551-4.573 27.646-13.983 36.872-26.495 9.539-12.937 14.581-28.299 14.581-44.426V252.89h-.001z"/></g></g><path clip-path="url(#b)" fill="#FDDD4C" d="M317.375 314.549c-15.779 2.334-43.183 2.248-54.734.435-11.651-1.828-32.67-5.741-46.83-12.411s-22.612-11.252-33.919-20.406c-13.466-10.901-25.905-24.163-35.113-36.035-16.939-21.84-39.208-39.392-61.341-51.774-25.698-14.376-53.702-21.683-85.498-19.91v50.699c.096-.005.187-.004.284-.011 11.161-.828 23.264-.465 34.416 1.972 11.528 2.52 21.012 7.357 30.06 13.095 4.725 2.996 14.205 9.416 22.574 17.21 7.658 7.132 14.242 15.556 18.345 20.623 4.46 5.507 11.143 13.649 17.602 20.617 5.978 6.449 11.802 11.849 14.556 14.295 5.73 5.089 31.635 24.096 31.635 24.096l127.801-.288 20.162-22.207z"/><g clip-path="url(#b)" fill="#FBA335"><path d="M176.893 335.508c-8.2-3.14-30.99-20.03-36.51-24.93-1.7-1.52-7.76-7-14.31-14.06-6.36-6.86-13-14.95-17.45-20.44l-1.24-1.54c-4.12-5.11-10.33-12.83-17.44-19.44-9.01-8.39-19.14-15.11-23.08-17.61-7.56-4.79-17.92-10.66-31.19-13.56-10.44-2.28-23-3.04-35.73-2.1v7.46c11.72-.43 24.45-.66 34.23 1.48 12.2 2.67 21.87 8.15 28.94 12.63 3.77 2.4 13.48 8.83 22.06 16.82 6.74 6.27 12.77 13.76 16.76 18.71l1.25 1.55c4.51 5.57 11.26 13.78 17.76 20.8 6.76 7.29 13.03 12.97 14.8 14.53 5.81 5.16 29.9 22.12 30.92 22.84 0 0 18.43 0 10.23-3.14zM316.54 310.1c-17.243 4.86-41.742 3.462-53.161 1.67-13.786-2.163-32.936-6.021-45.882-12.12-14.145-6.663-22.296-11.126-33.208-19.96-12.211-9.885-24.48-22.479-34.549-35.46-20.131-25.955-45.044-42.975-62.397-52.683-27.591-15.435-56.184-22.097-87.402-20.35v6.887c29.861-1.661 57.589 4.805 83.984 19.572 16.787 9.391 40.873 25.838 60.284 50.864 10.389 13.394 23.059 26.396 35.676 36.61 11.475 9.288 19.956 13.938 34.629 20.851 13.696 6.452 33.542 10.47 47.78 12.704 1.938.304 12.944 1.932 26.291 1.932 9.384-.001 19.928-.806 29.283-3.441l-1.328-7.076z"/></g><g clip-path="url(#b)" fill="#B6B0A3"><path d="M229.757 304.211h1.666v31.624h-1.666zM283.585 312.008h1.978v20.438h-1.978z"/></g><path clip-path="url(#b)" fill="#FFF" d="M283.556 340.355l.025-87.464 58.966.287v-48.813h-59.032l.041-100.907h58.991l-2.751-49.248-56.278.023.029-57.621-51.917-3.414-.047 61.012-231.914-.029v49.193l231.962.006-.247 238.97z"/><path clip-path="url(#b)" fill="#25BBF8" d="M269.018 191.551l-.019-109.879c0-8.25-6.75-15-15-15H.206v21.264H242.49a3.905 3.905 0 0 1 3.893 3.893l.019 99.722h22.616z"/><g clip-path="url(#b)" fill="#2566C0"><path d="M253.363 64.729H-.431v6h253.793c6.617 0 12 5.383 12 12v110.09h6V82.729c.001-9.925-8.074-18-17.999-18z"/><path d="M242.428 86.146H.145v6h242.283c.484 0 .894.409.894.894v99.933h6V93.039c0-3.801-3.093-6.893-6.894-6.893z"/></g><path clip-path="url(#b)" fill="#FFF" d="M274.116 193.343a39.188 39.188 0 0 0-16.406-3.585 39.176 39.176 0 0 0-16.406 3.585h32.812z"/><circle clip-path="url(#b)" fill="#2883F8" cx="257.71" cy="229.336" r="34.228"/><path clip-path="url(#b)" fill="#FFF" d="M271.007 242.281l-13.716-34.75-13.716 34.75c-.82 3.038-.393 4.472 2.335 2.42l11.382-11.756 11.382 11.756c2.726 2.052 3.153.619 2.333-2.42zM177.842 134.685l-.02-.052c-7.068 3.345-16.846 5.988-27.781 5.988-15.852 0-26.401-4.279-35.631-9.992v-.017l-.014.008-.014-.008v.017c-9.23 5.713-19.779 9.992-35.631 9.992-10.935 0-20.713-2.643-27.781-5.988l-.02.052c-2.72 7.675-4.378 15.824-4.378 24.149 0 18.678 3.779 36.621 13.357 50.06 12.538 17.592 33.041 28.037 54.453 28.046h.028c21.412-.009 41.915-10.454 54.453-28.046 9.578-13.44 13.357-31.383 13.357-50.06 0-8.326-1.658-16.475-4.378-24.149z"/><g clip-path="url(#b)"><path fill="#007AFF" d="M176.801 158.031l-62.391-.024v.001l-62.391.024c-1.016 18.957 2.74 34.785 11.239 47.549 9.867 14.818 27.248 24.354 51.151 25.857v-.001c23.903-1.503 41.284-11.039 51.151-25.857 8.501-12.764 12.257-28.592 11.241-47.549z"/></g><g clip-path="url(#b)"><path fill="#DE1D26" d="M147.332 147.445c-12.939 0-24.615-3.695-32.942-9.626-8.327 5.931-20.004 9.626-32.942 9.626-9.751 0-18.783-2.102-26.209-5.673a76.876 76.876 0 0 0-2.652 12.599h123.65a76.866 76.866 0 0 0-2.658-12.617c-7.435 3.583-16.48 5.691-26.247 5.691z"/></g><g clip-path="url(#b)" fill="#FFF"><path d="M96.806 204.532H71.472c.035-3.074.777-5.759 2.226-8.056 1.448-2.297 3.427-4.293 5.936-5.989a66.858 66.858 0 0 1 3.763-2.57 29.846 29.846 0 0 0 3.604-2.677c1.095-.954 1.996-1.987 2.703-3.101.707-1.113 1.078-2.394 1.113-3.843 0-.671-.08-1.386-.239-2.146a5.706 5.706 0 0 0-.927-2.12c-.459-.653-1.096-1.2-1.908-1.643-.813-.441-1.873-.662-3.18-.662-1.202 0-2.2.238-2.995.715a5.367 5.367 0 0 0-1.908 1.961c-.477.831-.831 1.812-1.06 2.941a21.231 21.231 0 0 0-.397 3.657h-6.042c0-2.049.273-3.948.822-5.697.547-1.749 1.369-3.26 2.464-4.531a11.626 11.626 0 0 1 4.001-2.995c1.572-.724 3.4-1.086 5.485-1.086 2.261 0 4.151.371 5.671 1.113 1.519.741 2.747 1.678 3.683 2.809.936 1.131 1.599 2.358 1.988 3.684.388 1.325.583 2.589.583 3.789 0 1.484-.23 2.827-.689 4.028a12.987 12.987 0 0 1-1.855 3.312 18.749 18.749 0 0 1-2.65 2.782 39.184 39.184 0 0 1-3.074 2.385 82.425 82.425 0 0 1-3.18 2.12c-1.06.672-2.041 1.344-2.941 2.015s-1.688 1.369-2.358 2.093c-.672.725-1.131 1.493-1.378 2.306h18.073v5.406zM115.621 205.274c-1.873 0-3.613-.266-5.22-.795-1.608-.53-2.995-1.299-4.161-2.306s-2.076-2.234-2.729-3.684c-.654-1.448-.98-3.074-.98-4.876 0-2.332.609-4.293 1.829-5.883 1.219-1.59 2.87-2.65 4.955-3.181v-.105c-1.696-.636-2.994-1.616-3.895-2.941-.901-1.325-1.352-2.889-1.352-4.69 0-3.181.998-5.662 2.994-7.446 1.996-1.784 4.85-2.677 8.56-2.677s6.563.893 8.56 2.677c1.996 1.784 2.995 4.266 2.995 7.446 0 1.802-.451 3.365-1.352 4.69s-2.2 2.306-3.896 2.941v.105c2.084.53 3.736 1.591 4.956 3.181 1.219 1.59 1.829 3.551 1.829 5.883 0 1.802-.327 3.428-.98 4.876a10.525 10.525 0 0 1-2.729 3.684c-1.166 1.007-2.553 1.775-4.161 2.306-1.611.53-3.35.795-5.223.795zm0-4.77c2.014 0 3.692-.6 5.035-1.802 1.342-1.201 2.014-2.896 2.014-5.088 0-2.049-.672-3.647-2.014-4.797-1.343-1.147-3.021-1.722-5.035-1.722-2.014 0-3.692.574-5.035 1.722-1.343 1.149-2.014 2.748-2.014 4.797 0 2.191.671 3.887 2.014 5.088 1.343 1.202 3.021 1.802 5.035 1.802zm0-29.044c-1.625 0-3.003.486-4.134 1.458-1.131.972-1.696 2.377-1.696 4.213 0 1.768.547 3.119 1.643 4.055 1.095.937 2.491 1.404 4.187 1.404 1.696 0 3.091-.468 4.187-1.404 1.095-.936 1.643-2.287 1.643-4.055 0-1.836-.565-3.241-1.696-4.213s-2.509-1.458-4.134-1.458zM147.103 166.69c2.65 0 4.814.609 6.493 1.828a12.578 12.578 0 0 1 3.922 4.664c.936 1.891 1.572 3.967 1.908 6.228.335 2.262.503 4.452.503 6.572s-.168 4.311-.503 6.572c-.336 2.261-.972 4.337-1.908 6.227a12.57 12.57 0 0 1-3.922 4.664c-1.679 1.22-3.843 1.829-6.493 1.829s-4.814-.609-6.492-1.829a12.551 12.551 0 0 1-3.922-4.664c-.937-1.89-1.572-3.966-1.908-6.227-.336-2.262-.503-4.452-.503-6.572s.167-4.311.503-6.572c.335-2.261.971-4.337 1.908-6.228a12.569 12.569 0 0 1 3.922-4.664c1.678-1.218 3.842-1.828 6.492-1.828zm0 33.549c1.307 0 2.402-.379 3.286-1.14.883-.759 1.581-1.783 2.093-3.074.512-1.289.875-2.8 1.087-4.531.212-1.73.318-3.568.318-5.512s-.106-3.771-.318-5.485c-.212-1.714-.575-3.225-1.087-4.532s-1.21-2.34-2.093-3.101c-.884-.759-1.979-1.139-3.286-1.139-1.343 0-2.447.38-3.312 1.139-.866.761-1.555 1.794-2.067 3.101-.513 1.308-.875 2.818-1.086 4.532s-.318 3.542-.318 5.485.106 3.781.318 5.512c.212 1.731.574 3.242 1.086 4.531.512 1.291 1.201 2.315 2.067 3.074.865.761 1.969 1.14 3.312 1.14z"/></g></svg>