<svg xmlns="http://www.w3.org/2000/svg" xmlns:xlink="http://www.w3.org/1999/xlink" viewBox="0 0 335.84 335.836"><defs><path id="a" d="M260.615 335.836H75.225c-41.25 0-75-33.75-75-75V75c0-41.25 33.75-75 75-75h185.39c41.25 0 75 33.75 75 75v185.836c0 41.25-33.75 75-75 75z"/></defs><clipPath id="b"><use xlink:href="#a" overflow="visible"/></clipPath><path clip-path="url(#b)" fill="#fbc3d0" stroke="#c99ca6" stroke-width="2" stroke-miterlimit="10" d="M284.461 1.788h49.336v51.523h-49.336z"/><path clip-path="url(#b)" fill="#73c455" stroke="#5c9d44" stroke-width="2" stroke-miterlimit="10" d="M0-2.97h230.568v56.182H0z"/><g clip-path="url(#b)"><path fill="#e3dccb" stroke="#b6b0a2" stroke-width="2" stroke-miterlimit="10" d="M-1.415 104.343h232.09v232.293H-1.415z"/><path fill="#e3dccb" d="M284.505 104.375h52.109v98.983h-52.109z"/><path d="M335.615 105.375l-.001 96.983h-50.109v-96.983h50.11m2-2h-54.11v100.983h54.109v-2l.001-96.983v-2z" fill="#b6b0a2"/><path fill="#e3dccb" stroke="#b6b0a2" stroke-width="2" stroke-miterlimit="10" d="M337.388 333.501l-52.825-.353v-79.255l53.149-.003z"/></g><path d="M317.375 314.549c-15.779 2.334-43.183-.752-54.734-2.565-11.651-1.828-32.67-7.541-46.83-14.211s-22.612-11.252-33.919-20.406c-13.466-10.901-25.905-24.163-35.113-36.035-16.939-21.84-39.208-39.392-61.341-51.774-25.698-14.376-53.702-21.683-85.498-19.91v55.499c.096-.005.187-.004.284-.011 11.161-.828 23.264-.465 34.416 1.972 11.528 2.52 21.012 7.357 30.06 13.095 4.725 2.996 14.205 9.416 22.574 17.21 7.658 7.132 14.242 15.556 18.345 20.623 4.46 5.507 11.143 13.649 17.602 20.617 5.978 6.449 11.802 11.849 14.556 14.295 5.73 5.089 31.635 24.096 31.635 24.096l127.801-.288 20.162-22.207z" clip-path="url(#b)" fill="#fddd4c"/><g clip-path="url(#b)" fill="#fba335"><path d="M176.893 337.536c-8.2-3.14-30.99-20.03-36.51-24.93-1.7-1.52-7.76-7-14.31-14.06-6.36-6.86-13-14.95-17.45-20.44l-1.24-1.54c-4.12-5.11-10.33-12.83-17.44-19.44-9.01-8.39-19.14-15.11-23.08-17.61-7.56-4.79-17.92-10.66-31.19-13.56-10.44-2.28-23-3.04-35.73-2.1v4.133c11.72-.43 24.45-.66 34.23 1.48 12.2 2.67 21.87 8.15 28.94 12.63 3.77 2.4 13.48 8.83 22.06 16.82 6.74 6.27 12.77 13.76 16.76 18.71l1.25 1.55c4.51 5.57 11.26 13.78 17.76 20.8 6.76 7.29 13.03 12.97 14.8 14.53 5.81 5.16 29.9 22.12 30.92 22.84 0-.001 18.43 3.327 10.23.187zM317.383 311.542c-16.71 3.858-42.585-.681-54.004-2.473-13.786-2.163-32.936-6.921-45.882-13.02-14.145-6.663-22.296-11.126-33.208-19.96-12.211-9.885-24.48-22.479-34.549-35.46-20.131-25.955-45.044-42.975-62.397-52.683-27.591-15.435-56.184-22.097-87.402-20.35v3.687c29.861-1.661 57.589 4.805 83.984 19.572 16.787 9.391 40.873 25.838 60.284 50.864 10.389 13.394 23.059 26.396 35.676 36.61 11.475 9.288 19.956 13.938 34.629 20.851 13.696 6.452 33.502 11.639 47.78 13.604 11.845 1.63 40.664 6.505 55.739 2.09l-.65-3.332z"/></g><g clip-path="url(#b)" fill="#b6b0a3"><path d="M229.757 304.211h1.666v31.624h-1.666zM283.585 312.008h1.978v20.438h-1.978z"/></g><path clip-path="url(#b)" fill="#fff" d="M283.556 340.355l.025-87.464 58.966.287v-48.813h-59.032l.041-100.907h58.991l-2.751-49.248-56.278.023.029-57.621-51.917-3.414-.047 61.012-231.914-.029v49.193l231.962.006-.247 238.97z"/><path clip-path="url(#b)" fill="#469dfc" d="M271.366 196.708l-.003-131.958L.228 64.735l-.08 27.416 243.174.01.003 104.829z"/><g clip-path="url(#b)" fill="#3499fc"><path d="M271.363 64.75L-.431 64.729v6l265.794.013v125.935h6z"/><path d="M249.321 86.098L.145 86.146v6l243.177.015v104.911h6z"/></g><path d="M271.941 197.639c-2.229-2.79-7.94-4.779-14.652-4.779-6.713 0-12.423 1.989-14.652 4.779h29.304z" clip-path="url(#b)" fill="#fff"/><circle cx="257.71" cy="229.336" r="31.187" clip-path="url(#b)" fill="#2883f8"/><path d="M268.675 243.387l-11.385-35.749-.001 14.299-.001-14.299-11.385 35.749c-.82 3.038-.393 4.472 2.335 2.42l9.051-10.593 9.051 10.593c2.728 2.052 3.156.618 2.335-2.42zM178.161 133.119c-7.068 3.346-15.447 7.502-26.383 7.502-15.776 0-26.298-4.239-35.497-9.911v-.098l-.014.008-.014-.008v.017l-.053.032-.053-.032v-.017l-.014.008-.014-.008v.098c-9.199 5.672-19.721 9.911-35.497 9.911-10.936 0-19.315-4.156-26.383-7.502-2.731 7.69-6.232 22.813-6.232 31.157 0 18.678 4.215 31.178 13.794 44.618 12.512 17.555 32.955 27.991 54.319 28.044v.003h.028l.053-.001.053.001h.028v-.003c21.364-.053 41.807-10.488 54.319-28.044 9.578-13.44 13.794-25.94 13.794-44.618-.001-8.344-3.503-23.467-6.234-31.157z" clip-path="url(#b)" fill="#fff"/><g clip-path="url(#b)"><path d="M179.563 155.948l-63.43-.025v.001l-63.43.024c-1.033 19.712 2.785 36.171 11.426 49.443 10.032 15.408 27.702 25.324 52.003 26.887v-.001c24.301-1.563 41.972-11.479 52.003-26.887 8.643-13.271 12.461-29.73 11.428-49.442z" fill="#007aff"/></g><g clip-path="url(#b)"><path d="M149.598 145.217c-12.947 0-24.631-2.135-32.963-8.452-8.332 6.317-20.016 8.452-32.963 8.452-9.757 0-18.795-1.538-26.226-5.342-1.205 4.251-2.097 9.819-2.654 14.519h123.729c-.558-4.707-1.452-10.281-2.66-14.537-7.44 3.815-16.49 5.36-26.263 5.36z" fill="#de1d26"/></g><g clip-path="url(#b)"><text transform="translate(73.463 200.807)" fill="#fff" font-family="HelveticaNeue-Medium" font-size="49" letter-spacing="2">280</text></g></svg>