<svg xmlns="http://www.w3.org/2000/svg" xmlns:xlink="http://www.w3.org/1999/xlink" viewBox="0 0 300 300"><defs><path id="a" d="M233 300H67c-36.85 0-67-30.15-67-67V67C0 30.15 30.15 0 67 0h166c36.85 0 67 30.15 67 67v166c0 36.85-30.15 67-67 67z"/></defs><clipPath id="b"><use xlink:href="#a" overflow="visible"/></clipPath><path clip-path="url(#b)" fill="#fff" d="M.024.024h299.952v299.952H.024z"/><g clip-path="url(#b)"><path fill="#fbc3d0" d="M254.709-1.476h46.769v46.578h-46.769z"/><path d="M299.978.024v43.578h-43.769V.024h43.769m3-3h-49.769v49.578h49.769V-2.976z" fill="#c99ca6"/></g><g clip-path="url(#b)"><path fill="#73c455" d="M-1.478-1.476h205.399v46.483H-1.478z"/><path d="M202.421.024v43.483H.022V.024h202.399m3-3H-2.978v49.483h208.399V-2.976z" fill="#5c9d44"/></g><g clip-path="url(#b)"><path fill="#e3dccb" d="M-1.277 95.325h205.44v206.151H-1.277z"/><path d="M202.662 96.825v203.152H.223V96.825h202.439m3-3H-2.777v209.152h208.439V93.825z" fill="#b6b0a2"/><path fill="#e3dccb" d="M254.613 95.734h46.863v85.494h-46.863z"/><path d="M299.976 97.234v82.494h-43.863V97.234h43.863m3-3h-49.864v88.494h49.863V94.234h.001z" fill="#b6b0a2"/><g><path fill="#e3dccb" d="M254.885 301.476v-70.07l48.271-.002-.287 70.072z"/><path d="M301.65 232.904l-.276 67.073h-44.989v-67.07l45.265-.003m3.012-3.001h-3.013l-45.265.003h-3v73.07h50.977l.012-2.988.276-67.073.013-3.012z" fill="#b6b0a2"/></g></g><path d="M283.486 280.964c-14.093 2.085-38.569-.672-48.886-2.291-10.406-1.633-29.18-6.735-41.826-12.693-12.647-5.958-19.486-10.479-29.585-18.654-12.027-9.736-23.123-21.422-31.347-32.025-15.129-19.507-35.743-34.914-55.511-45.973-22.952-12.84-48.028-18.485-76.363-17.783v49.569c.086-.005.166-.008.254-.01 8.461-.162 20.423.852 30.383 3.029 10.296 2.25 18.713 5.889 27.253 10.207 6.222 3.146 13.08 7.972 20.378 15.117 6.699 6.559 12.294 14.485 15.959 19.01 3.983 4.919 10.114 12.074 15.882 18.298 5.339 5.76 10.81 10.091 13.27 12.276 5.117 4.545 29.062 20.934 29.062 20.934h113.249l17.828-19.011z" clip-path="url(#b)" fill="#fddd4c"/><g clip-path="url(#b)" fill="none" stroke="#e29528" stroke-width="2.6" stroke-miterlimit="10"><path d="M153.711 300.846s-25.245-17.258-30.363-21.803c-2.46-2.185-7.931-6.516-13.27-12.276-5.769-6.224-11.899-13.379-15.882-18.298-3.665-4.526-9.26-12.451-15.959-19.01-7.298-7.146-14.156-11.971-20.378-15.117-8.54-4.318-16.957-7.956-27.253-10.207-9.96-2.177-22.123-3.202-30.584-3.039M-.026 151.548c28.335-.702 53.411 4.943 76.363 17.783 17.796 9.955 48.893 38.399 50.812 40.269 1.886 2.058 3.19 3.758 4.699 5.704 8.224 10.603 19.319 22.289 31.347 32.025 10.099 8.175 16.938 12.697 29.585 18.654 12.647 5.958 31.42 11.06 41.826 12.693 10.317 1.619 34.793 4.376 48.886 2.291"/></g><path clip-path="url(#b)" fill="#fff" d="M205.662 269.552h47.723v30.424h-47.723z"/><g clip-path="url(#b)" fill="#b6b0a3"><path d="M202.662 267.719h3v32.257h-3zM253.385 278.696h3v18.288h-3z"/></g><path clip-path="url(#b)" fill="#469dfc" d="M243.197 177.395l-.003-120.535H.225L.154 83.41h215.495l.002 93.985z"/><path d="M243.898 177.976c-2.198-2.724-7.829-4.666-14.448-4.666-6.619 0-12.25 1.942-14.448 4.666h28.896z" clip-path="url(#b)" fill="#fff"/><circle cx="229.761" cy="205.942" r="29.586" clip-path="url(#b)" fill="#2883f8"/><path d="M243.294 221.953c-.394-1.076-10.475-28.365-12.935-35.023a.573.573 0 0 0-1.075 0c-2.46 6.658-12.541 33.947-12.935 35.022-.449 1.225-.209 1.672 1.115.304a7328.896 7328.896 0 0 1 11.952-12.195.565.565 0 0 1 .811 0c2.002 2.04 10.78 10.984 11.951 12.195 1.324 1.369 1.565.922 1.116-.303zM158.019 121.346c-6.313 2.988-14.06 5.661-23.827 5.661-14.09 0-21.436-2.119-30.51-6.817-9.074 4.699-16.42 6.817-30.51 6.817-9.767 0-17.514-2.673-23.827-5.661-2.439 6.868-4.853 23.338-4.853 30.79 0 13.56 2.672 23.513 10.727 34.462 10.551 14.342 31.208 25.228 48.463 25.228s37.912-10.887 48.463-25.228c8.055-10.948 10.727-20.902 10.727-34.462 0-7.452-2.414-23.921-4.853-30.79z" clip-path="url(#b)" fill="#fff"/><path d="M157.971 147.003a2.606 2.606 0 0 0-2.597-2.512H51.99a2.606 2.606 0 0 0-2.597 2.512c-.587 16.025 1.725 25.19 9.068 36.468 8.96 13.762 29.994 23.478 45.222 23.478s36.262-9.716 45.222-23.478c7.341-11.278 9.654-20.443 9.066-36.468z" clip-path="url(#b)" fill="#157efb"/><path d="M154.179 128.476c-8.125 2.763-12.878 3.2-21.593 3.2-11.564 0-17.874-.993-28.904-4.669-11.03 3.676-17.341 4.669-28.904 4.669-8.715 0-13.468-.437-21.593-3.2-1.076 3.797-1.848 7.184-2.346 11.382h105.686c-.498-4.198-1.27-7.585-2.346-11.382z" clip-path="url(#b)" fill="#dc212e"/><g clip-path="url(#b)"><text transform="translate(66.439 183.444)" fill="#fff" font-family="HelveticaNeue-Medium" font-size="45.551" letter-spacing="1">280</text></g></svg>