<svg xmlns="http://www.w3.org/2000/svg" xmlns:xlink="http://www.w3.org/1999/xlink" viewBox="0 0 335.84 335.836"><defs><path id="a" d="M260.615 335.836H75.225c-41.25 0-75-33.75-75-75V75c0-41.25 33.75-75 75-75h185.39c41.25 0 75 33.75 75 75v185.836c0 41.25-33.75 75-75 75z"/></defs><clipPath id="b"><use xlink:href="#a" overflow="visible"/></clipPath><path clip-path="url(#b)" fill="#fbc3d0" stroke="#c99ca6" stroke-width="2" stroke-miterlimit="10" d="M284.461 1.788h49.336v51.523h-49.336z"/><path clip-path="url(#b)" fill="#73c455" stroke="#5c9d44" stroke-width="2" stroke-miterlimit="10" d="M0-2.97h230.568v56.182H0z"/><g clip-path="url(#b)"><path fill="#e3dccb" stroke="#b6b0a2" stroke-width="2" stroke-miterlimit="10" d="M-1.415 104.343h232.09v232.293H-1.415z"/><path fill="#e3dccb" d="M284.505 104.375h52.109v98.983h-52.109z"/><path d="M335.615 105.375l-.001 96.983h-50.109v-96.983h50.11m2-2h-54.11v100.983h54.109v-2l.001-96.983v-2z" fill="#b6b0a2"/><path fill="#e3dccb" stroke="#b6b0a2" stroke-width="2" stroke-miterlimit="10" d="M337.388 333.501l-52.825-.353v-79.255l53.149-.003z"/></g><path d="M317.375 314.549c-15.779 2.334-43.183 2.248-54.734.435-11.651-1.828-32.67-5.741-46.83-12.411s-22.612-11.252-33.919-20.406c-13.466-10.901-25.905-24.163-35.113-36.035-16.939-21.84-39.208-39.392-61.341-51.774-25.698-14.376-53.702-21.683-85.498-19.91v50.699c.096-.005.187-.004.284-.011 11.161-.828 23.264-.465 34.416 1.972 11.528 2.52 21.012 7.357 30.06 13.095 4.725 2.996 14.205 9.416 22.574 17.21 7.658 7.132 14.242 15.556 18.345 20.623 4.46 5.507 11.143 13.649 17.602 20.617 5.978 6.449 11.802 11.849 14.556 14.295 5.73 5.089 31.635 24.096 31.635 24.096l127.801-.288 20.162-22.207z" clip-path="url(#b)" fill="#fddd4c"/><g clip-path="url(#b)" fill="#fba335"><path d="M176.893 335.508c-8.2-3.14-30.99-20.03-36.51-24.93-1.7-1.52-7.76-7-14.31-14.06-6.36-6.86-13-14.95-17.45-20.44l-1.24-1.54c-4.12-5.11-10.33-12.83-17.44-19.44-9.01-8.39-19.14-15.11-23.08-17.61-7.56-4.79-17.92-10.66-31.19-13.56-10.44-2.28-23-3.04-35.73-2.1v7.46c11.72-.43 24.45-.66 34.23 1.48 12.2 2.67 21.87 8.15 28.94 12.63 3.77 2.4 13.48 8.83 22.06 16.82 6.74 6.27 12.77 13.76 16.76 18.71l1.25 1.55c4.51 5.57 11.26 13.78 17.76 20.8 6.76 7.29 13.03 12.97 14.8 14.53 5.81 5.16 29.9 22.12 30.92 22.84 0 0 18.43 0 10.23-3.14zM316.54 310.1c-17.243 4.86-41.742 3.462-53.161 1.67-13.786-2.163-32.936-6.021-45.882-12.12-14.145-6.663-22.296-11.126-33.208-19.96-12.211-9.885-24.48-22.479-34.549-35.46-20.131-25.955-45.044-42.975-62.397-52.683-27.591-15.435-56.184-22.097-87.402-20.35v6.887c29.861-1.661 57.589 4.805 83.984 19.572 16.787 9.391 40.873 25.838 60.284 50.864 10.389 13.394 23.059 26.396 35.676 36.61 11.475 9.288 19.956 13.938 34.629 20.851 13.696 6.452 33.542 10.47 47.78 12.704 1.938.304 12.944 1.932 26.291 1.932 9.384-.001 19.928-.806 29.283-3.441l-1.328-7.076z"/></g><g clip-path="url(#b)" fill="#b6b0a3"><path d="M229.757 304.211h1.666v31.624h-1.666zM283.585 312.008h1.978v20.438h-1.978z"/></g><path clip-path="url(#b)" fill="#fff" d="M283.556 340.355l.025-87.464 58.966.287v-48.813h-59.032l.041-100.907h58.991l-2.751-49.248-56.278.023.029-57.621-51.917-3.414-.047 61.012-231.914-.029v49.193l231.962.006-.247 238.97z"/><path d="M269.018 191.551l-.019-109.879c0-8.25-6.75-15-15-15H.206v21.264H242.49a3.905 3.905 0 0 1 3.893 3.893l.019 99.722h22.616z" clip-path="url(#b)" fill="#25bbf8"/><g clip-path="url(#b)" fill="#2566c0"><path d="M253.363 64.729H-.431v6h253.793c6.617 0 12 5.383 12 12v110.09h6V82.729c.001-9.925-8.074-18-17.999-18z"/><path d="M242.428 86.146H.145v6h242.283c.484 0 .894.409.894.894v99.933h6V93.039c0-3.801-3.093-6.893-6.894-6.893z"/></g><path d="M274.116 193.343a39.188 39.188 0 0 0-16.406-3.585 39.176 39.176 0 0 0-16.406 3.585h32.812z" clip-path="url(#b)" fill="#fff"/><circle cx="257.71" cy="229.336" r="34.228" clip-path="url(#b)" fill="#2883f8"/><path d="M271.007 242.281l-13.716-34.75-13.716 34.75c-.82 3.038-.393 4.472 2.335 2.42l11.382-11.756 11.382 11.756c2.726 2.052 3.153.619 2.333-2.42zM177.842 134.685l-.02-.052c-7.068 3.345-16.846 5.988-27.781 5.988-15.852 0-26.401-4.279-35.631-9.992v-.017l-.014.008-.014-.008v.017c-9.23 5.713-19.779 9.992-35.631 9.992-10.935 0-20.713-2.643-27.781-5.988l-.02.052c-2.72 7.675-4.378 15.824-4.378 24.149 0 18.678 3.779 36.621 13.357 50.06 12.538 17.592 33.041 28.037 54.453 28.046h.028c21.412-.009 41.915-10.454 54.453-28.046 9.578-13.44 13.357-31.383 13.357-50.06 0-8.326-1.658-16.475-4.378-24.149z" clip-path="url(#b)" fill="#fff"/><g clip-path="url(#b)"><path d="M176.801 158.031l-62.391-.024v.001l-62.391.024c-1.016 18.957 2.74 34.785 11.239 47.549 9.867 14.818 27.248 24.354 51.151 25.857v-.001c23.903-1.503 41.284-11.039 51.151-25.857 8.501-12.764 12.257-28.592 11.241-47.549z" fill="#007aff"/></g><g clip-path="url(#b)"><path d="M147.332 147.445c-12.939 0-24.615-3.695-32.942-9.626-8.327 5.931-20.004 9.626-32.942 9.626-9.751 0-18.783-2.102-26.209-5.673a76.876 76.876 0 0 0-2.652 12.599h123.65a76.866 76.866 0 0 0-2.658-12.617c-7.435 3.583-16.48 5.691-26.247 5.691z" fill="#de1d26"/></g><g clip-path="url(#b)"><text transform="translate(69.403 204.56)" fill="#fff" font-family="HelveticaNeue-Medium" font-size="53" letter-spacing="2">280</text></g></svg>