<svg xmlns="http://www.w3.org/2000/svg" xmlns:xlink="http://www.w3.org/1999/xlink" viewBox="0 0 335.84 335.836"><defs><path id="a" d="M260.615 335.836H75.225c-41.25 0-75-33.75-75-75V75c0-41.25 33.75-75 75-75h185.39c41.25 0 75 33.75 75 75v185.836c0 41.25-33.75 75-75 75z"/></defs><clipPath id="b"><use xlink:href="#a" overflow="visible"/></clipPath><path clip-path="url(#b)" fill="#fff" d="M.002 0h335.836v335.836H.002z"/><g clip-path="url(#b)"><path fill="#fbc3d0" d="M285.335-1.5h52.005v51.792h-52.005z"/><path d="M335.84 0v48.791h-49.005V0h49.005m3-3h-55.005v54.791h55.005V-3z" fill="#c99ca6"/></g><g clip-path="url(#b)"><path fill="#73c455" d="M-1.5-1.5h229.612v51.685H-1.5z"/><path d="M226.612 0v48.685H0V0h226.612m3-3H-3v54.685h232.612V-3z" fill="#5c9d44"/></g><g clip-path="url(#b)"><path fill="#e3dccb" d="M-1.275 106.881h229.657v230.455H-1.275z"/><path d="M226.882 108.381v227.454H.225V108.381h226.657m3-3H-2.775v233.454h232.657V105.381z" fill="#b6b0a2"/><path fill="#e3dccb" d="M285.227 107.339h52.111v95.362h-52.111z"/><path d="M335.838 108.839v92.362h-49.111v-92.362h49.111m3-3h-55.111v98.362h55.111v-98.362z" fill="#b6b0a2"/><g><path fill="#e3dccb" d="M285.532 337.336v-78.094l53.685-.003-.32 78.097z"/><path d="M337.712 260.739l-.309 75.096h-50.371v-75.093l50.68-.003m3.012-3h-3.013l-50.68.003h-3v81.093h56.359l.012-2.988.309-75.097.013-3.011z" fill="#b6b0a2"/></g></g><path d="M317.375 314.549c-15.779 2.334-43.183-.752-54.734-2.565-11.651-1.828-32.67-7.541-46.83-14.211s-21.817-11.733-33.124-20.886c-13.466-10.901-25.889-23.984-35.097-35.856-16.939-21.84-40.019-39.091-62.151-51.472-25.698-14.376-53.774-20.696-85.498-19.91v55.499c.096-.005.186-.009.284-.011 9.473-.182 22.866.954 34.017 3.392 11.528 2.52 20.952 6.593 30.513 11.428 6.967 3.522 14.645 8.925 22.816 16.926 7.501 7.344 13.765 16.218 17.868 21.285 4.46 5.507 11.324 13.519 17.783 20.487 5.978 6.449 12.103 11.298 14.857 13.744 5.73 5.089 32.539 23.438 32.539 23.438h126.797l19.96-21.288z" clip-path="url(#b)" fill="#fddd4c"/><g clip-path="url(#b)" fill="none" stroke="#e29528" stroke-width="2.6" stroke-miterlimit="10"><path d="M172.075 336.809s-28.265-19.322-33.995-24.411c-2.754-2.446-8.879-7.295-14.857-13.744-6.459-6.968-13.322-14.98-17.782-20.487-4.103-5.067-10.367-13.941-17.868-21.285-8.172-8-15.85-13.403-22.816-16.926-9.561-4.834-18.985-8.908-30.513-11.428-11.153-2.437-24.771-3.585-34.244-3.403M-.054 169.651c31.725-.786 59.801 5.535 85.498 19.91 19.925 11.146 54.742 42.993 56.89 45.086 2.112 2.304 3.571 4.207 5.261 6.386 9.208 11.872 21.63 24.955 35.097 35.856 11.307 9.153 18.964 14.215 33.124 20.886s35.179 12.383 46.83 14.211c11.551 1.812 38.956 4.899 54.734 2.565"/></g><g clip-path="url(#b)" fill="#b6b0a3"><path d="M226.882 299.72h2.999v36.116h-2.999zM284.033 312.033h3v20.453h-3z"/></g><path clip-path="url(#b)" fill="#469dfc" d="M272.266 198.59l-.003-134.955H.228l-.08 29.726h241.274l.003 105.229z"/><path d="M273.05 199.241c-2.461-3.05-8.765-5.225-16.177-5.225-7.411 0-13.715 2.174-16.177 5.225h32.354z" clip-path="url(#b)" fill="#fff"/><circle cx="257.223" cy="230.552" r="33.125" clip-path="url(#b)" fill="#2883f8"/><path d="M272.374 248.478c-.441-1.204-11.728-31.758-14.482-39.212a.64.64 0 0 0-1.203 0c-2.754 7.454-14.041 38.008-14.482 39.212-.502 1.372-.234 1.872 1.248.341 1.312-1.356 11.14-11.37 13.381-13.653a.632.632 0 0 1 .909 0 7892.67 7892.67 0 0 1 13.381 13.654c1.482 1.531 1.751 1.03 1.248-.342zM176.898 135.836c-7.068 3.346-15.742 6.339-26.677 6.339-15.776 0-24.001-2.372-34.16-7.633-10.159 5.261-18.384 7.633-34.16 7.633-10.936 0-19.609-2.993-26.677-6.339-2.731 7.69-5.434 26.129-5.434 34.473 0 15.182 2.992 26.326 12.01 38.584 11.813 16.057 34.942 28.246 54.261 28.246s42.447-12.189 54.261-28.246c9.018-12.258 12.01-23.403 12.01-38.584 0-8.343-2.703-26.783-5.434-34.473z" clip-path="url(#b)" fill="#fff"/><path d="M176.845 164.562a2.917 2.917 0 0 0-2.908-2.813H58.185a2.918 2.918 0 0 0-2.908 2.813c-.657 17.942 1.931 28.203 10.152 40.831 10.032 15.408 33.582 26.287 50.631 26.287s40.6-10.879 50.631-26.287c8.223-12.628 10.811-22.889 10.154-40.831z" clip-path="url(#b)" fill="#157efb"/><path d="M172.599 143.819c-9.097 3.093-14.418 3.583-24.176 3.583-12.947 0-20.012-1.111-32.362-5.227-12.35 4.116-19.415 5.227-32.362 5.227-9.757 0-15.079-.49-24.176-3.583-1.205 4.251-2.069 8.043-2.627 12.743h118.329c-.557-4.699-1.421-8.492-2.626-12.743z" clip-path="url(#b)" fill="#dc212e"/><g clip-path="url(#b)"><text transform="translate(74.363 205.362)" fill="#fff" font-family="HelveticaNeue-Medium" font-size="51" letter-spacing="1">280</text></g></svg>