<svg xmlns="http://www.w3.org/2000/svg" xmlns:xlink="http://www.w3.org/1999/xlink" viewBox="0 0 335.84 335.836"><defs><path id="a" d="M260.615 335.836H75.225c-41.25 0-75-33.75-75-75V75c0-41.25 33.75-75 75-75h185.39c41.25 0 75 33.75 75 75v185.836c0 41.25-33.75 75-75 75z"/></defs><clipPath id="b"><use xlink:href="#a" overflow="visible"/></clipPath><linearGradient id="c" gradientUnits="userSpaceOnUse" x1="167.92" x2="167.92" y2="335.836"><stop offset="0" stop-color="#8dff73"/><stop offset="1" stop-color="#0ad319"/></linearGradient><path clip-path="url(#b)" fill="url(#c)" d="M0 0h335.84v335.836H0z"/><path d="M167.667 57.976c-67.84 0-122.835 45.787-122.835 102.268 0 37.105 23.735 69.593 59.253 87.518-.086 1.917-.356 3.897-.914 5.823-1.323 4.566-6.696 10.189-10.857 14.677-3.709 4.002-6.371 7.121-5.664 7.475 1.502.751 6.633.375 8.385 0 1.752-.375 8.541-2.612 10.679-3.575 1.483-.668 20.735-11.694 29.801-13.188l-.016-.012c10.254 2.311 21.036 3.551 32.168 3.551 67.84 0 122.835-45.787 122.835-102.268S235.507 57.976 167.667 57.976z" clip-path="url(#b)" fill="#fff"/></svg>