<svg xmlns="http://www.w3.org/2000/svg" xmlns:xlink="http://www.w3.org/1999/xlink" viewBox="0 0 300 300"><defs><path id="a" d="M233 300H67c-36.85 0-67-30.15-67-67V67C0 30.15 30.15 0 67 0h166c36.85 0 67 30.15 67 67v166c0 36.85-30.15 67-67 67z"/></defs><clipPath id="b"><use xlink:href="#a" overflow="visible"/></clipPath><linearGradient id="c" gradientUnits="userSpaceOnUse" x1="150" x2="150" y2="300"><stop offset="0" stop-color="#74fb8c"/><stop offset="1" stop-color="#27b137"/></linearGradient><path clip-path="url(#b)" fill="url(#c)" d="M-.002 0h300.004v300H-.002z"/><path d="M149.774 51.789c-60.601 0-109.728 40.901-109.728 91.355 0 33.145 21.202 62.167 52.93 78.179-.076 1.712-.318 3.481-.817 5.201-1.182 4.078-5.981 9.102-9.698 13.111-3.314 3.575-5.692 6.361-5.059 6.677 1.342.671 5.925.335 7.491 0 1.565-.335 7.629-2.333 9.54-3.194 1.325-.597 18.522-10.446 26.621-11.781l-.015-.011a130.704 130.704 0 0 0 28.735 3.172c60.601 0 109.728-40.901 109.728-91.355s-49.127-91.354-109.728-91.354z" clip-path="url(#b)" fill="#fff"/></svg>