<svg xmlns="http://www.w3.org/2000/svg" xmlns:xlink="http://www.w3.org/1999/xlink" viewBox="0 0 300 300"><defs><path id="a" d="M233 300H67c-36.85 0-67-30.15-67-67V67C0 30.15 30.15 0 67 0h166c36.85 0 67 30.15 67 67v166c0 36.85-30.15 67-67 67z"/></defs><clipPath id="b"><use xlink:href="#a" overflow="visible"/></clipPath><path clip-path="url(#b)" fill="#fff" d="M-.002 0h300.004v300H-.002z"/><g clip-path="url(#b)"><defs><path id="c" d="M219.538 200.614c0 12.819-8.803 28.494-34.093 28.494-13.408 0-24.689-9.482-24.39-24.105.836-13.922 10.341-21.395 27.956-24.89 3.698-.895 5.734-1.066 9.581-1.867 2.469-.514 5.553-1.116 7.107-2.983 1.554-1.867 2.03-4.136 2.03-9.376 0-3.071.011-65.761 0-66.55-.021-1.543-.072-2.282-1.317-3.307-1.043-.859-3.602-.099-5.581.255-1.032.185-76.494 15.164-77.354 15.428-1.444.443-3.436.55-4.398 1.815-.962 1.265-1.251 2.964-1.215 4.456v101.809c0 12.672-8.529 29.925-34.334 29.925-12.94 0-24.285-8.629-24.285-23.066 0-13.82 9.939-23.629 29.345-26.16 1.755-.229 5.081-.539 7.626-1.26 2.943-.834 6.025-1.829 7.332-3.333 1.938-2.23 2.419-4.983 2.643-8.264.224-3.282 0-112.658 0-112.658.005-2.799 2.262-7.997 6.034-8.973l99.571-20.128c5.354-.961 7.76 3.573 7.76 6.641l-.018 148.097z"/></defs><clipPath id="d"><use xlink:href="#c" overflow="visible"/></clipPath><radialGradient id="e" cx="78.98" cy="52.242" r="184.316" gradientTransform="matrix(1 0 0 .5 0 26.121)" gradientUnits="userSpaceOnUse"><stop offset=".297" stop-color="#f64f5f"/><stop offset=".547" stop-color="#f45b6d"/><stop offset=".745" stop-color="#e26380"/><stop offset="1" stop-color="#d96489"/></radialGradient><path clip-path="url(#d)" fill="url(#e)" d="M221.234 105.207l-116.25 22.036V66.188l116.25-23.472z"/><linearGradient id="f" gradientUnits="userSpaceOnUse" x1="61.933" y1="103.787" x2="115.817" y2="251.834"><stop offset="0" stop-color="#dd5578" stop-opacity="0"/><stop offset=".174" stop-color="#d55581" stop-opacity=".05"/><stop offset=".232" stop-color="#cb558b"/><stop offset=".311" stop-color="#b356a3"/><stop offset=".556" stop-color="#815aee"/><stop offset=".656" stop-color="#8652f6"/><stop offset="1" stop-color="#695ffb"/></linearGradient><path clip-path="url(#d)" fill="url(#f)" d="M58.277 105.118h61.196v145.386H58.277z"/><linearGradient id="g" gradientUnits="userSpaceOnUse" x1="156.113" y1="46.676" x2="222.31" y2="228.55"><stop offset="0" stop-color="#dc6486" stop-opacity="0"/><stop offset=".312" stop-color="#cc618b" stop-opacity=".1"/><stop offset=".374" stop-color="#b36797"/><stop offset=".448" stop-color="#9079b3"/><stop offset=".632" stop-color="#5b92e5"/><stop offset=".909" stop-color="#4f96ef"/><stop offset="1" stop-color="#3a9af8"/></linearGradient><path clip-path="url(#d)" fill="url(#g)" d="M158.673 45.745h61.077v183.737h-61.077z"/></g></svg>