<svg xmlns="http://www.w3.org/2000/svg" xmlns:xlink="http://www.w3.org/1999/xlink" viewBox="0 0 335.84 335.836"><defs><path id="a" d="M260.615 335.836H75.225c-41.25 0-75-33.75-75-75V75c0-41.25 33.75-75 75-75h185.39c41.25 0 75 33.75 75 75v185.836c0 41.25-33.75 75-75 75z"/></defs><clipPath id="b"><use xlink:href="#a" overflow="visible"/></clipPath><path clip-path="url(#b)" fill="#fff" d="M0 0h335.84v335.836H0z"/><g><defs><path id="c" d="M245.765 224.578c0 14.35-9.854 31.898-38.166 31.898-15.009 0-27.638-10.615-27.304-26.985.936-15.585 11.576-23.951 31.296-27.863 4.14-1.002 6.419-1.193 10.725-2.09 2.764-.575 6.217-1.249 7.956-3.339s2.273-4.63 2.273-10.495c0-3.438.012-73.616 0-74.5-.024-1.727-.081-2.555-1.474-3.703-1.168-.962-4.033-.111-6.248.285-1.155.207-85.632 16.976-86.594 17.271-1.616.496-3.847.615-4.923 2.031-1.076 1.416-1.4 3.319-1.361 4.988v113.971c0 14.186-9.548 33.5-38.436 33.5-14.485 0-27.186-9.66-27.186-25.822 0-15.471 11.126-26.451 32.85-29.285 1.965-.256 5.688-.603 8.537-1.41 3.294-.933 6.745-2.047 8.208-3.731 2.169-2.496 2.708-5.578 2.959-9.252s0-126.115 0-126.115c.006-3.133 2.532-8.952 6.755-10.045l111.465-22.533c5.994-1.075 8.687 4 8.687 7.435l-.019 165.789z"/></defs><clipPath id="d"><use xlink:href="#c" overflow="visible"/></clipPath><radialGradient id="e" cx="88.417" cy="58.483" r="206.333" gradientTransform="matrix(1 0 0 .5 0 29.241)" gradientUnits="userSpaceOnUse"><stop offset=".297" stop-color="#f64f5f"/><stop offset=".547" stop-color="#f45b6d"/><stop offset=".745" stop-color="#e26380"/><stop offset="1" stop-color="#d96489"/></radialGradient><path clip-path="url(#d)" fill="url(#e)" d="M247.663 117.774l-130.136 24.669V74.095l130.136-26.276z"/><linearGradient id="f" gradientUnits="userSpaceOnUse" x1="70.06" y1="120.445" x2="128.927" y2="282.18"><stop offset="0" stop-color="#dd5578" stop-opacity="0"/><stop offset=".13" stop-color="#d55581" stop-opacity=".1"/><stop offset=".195" stop-color="#cb558b"/><stop offset=".311" stop-color="#b356a3"/><stop offset=".556" stop-color="#815aee"/><stop offset=".656" stop-color="#8652f6"/><stop offset="1" stop-color="#695ffb"/></linearGradient><path clip-path="url(#d)" fill="url(#f)" d="M65.24 122.199h68.506v158.227H65.24z"/><linearGradient id="g" gradientUnits="userSpaceOnUse" x1="163.929" y1="48.657" x2="240.65" y2="259.446"><stop offset="0" stop-color="#dc6486" stop-opacity="0"/><stop offset=".268" stop-color="#cc618b" stop-opacity=".1"/><stop offset=".392" stop-color="#b36797"/><stop offset=".448" stop-color="#9079b3"/><stop offset=".632" stop-color="#5b92e5"/><stop offset=".909" stop-color="#4f96ef"/><stop offset="1" stop-color="#3a9af8"/></linearGradient><path clip-path="url(#d)" fill="url(#g)" d="M156.915 51.209h90.748v205.685h-90.748z"/></g></svg>