<svg xmlns="http://www.w3.org/2000/svg" xmlns:xlink="http://www.w3.org/1999/xlink" viewBox="0 0 335.84 335.836"><defs><path id="a" d="M260.615 335.836H75.225c-41.25 0-75-33.75-75-75V75c0-41.25 33.75-75 75-75h185.39c41.25 0 75 33.75 75 75v185.836c0 41.25-33.75 75-75 75z"/></defs><clipPath id="b"><use xlink:href="#a" overflow="visible"/></clipPath><path clip-path="url(#b)" fill="#fff" d="M0 0h335.84v335.836H0z"/><g><defs><path id="c" d="M246.265 224.578c0 14.35-10.255 28.943-38.567 28.943-12.546 0-25.822-8.736-25.488-25.106.936-15.585 9.473-23.046 29.512-27.895 4.14-1.002 5.882-1.199 10.267-1.542 2.843-.222 6.674-1.731 8.414-3.82s2.941-6.016 2.945-9.453c.004-3.438-.145-72.516-.157-73.399-.024-1.727-1.337-3.21-2.705-3.921-1.342-.698-3.969-.8-5.664-.597-1.165.14-88.484 17.574-89.446 17.869-1.616.496-2.398 1.151-3.475 2.567-1.076 1.416-1.11 3.354-1.071 5.024l-.34 112.801c-.043 13.081-8.045 30.133-36.933 30.133-12.235 0-26.011-8.324-26.011-24.486 0-15.471 9.115-24.989 31.918-29.498 1.944-.384 5.688-.603 8.537-1.41 3.294-.933 5.156-1.669 6.619-3.352 2.169-2.496 2.988-5.956 3.238-9.63.251-3.674.018-123.872.018-123.872.006-3.133 3.532-7.852 7.755-8.945l112.965-21.733c3.331-.481 7.687 2.7 7.687 6.135l-.018 165.187z"/></defs><clipPath id="d"><use xlink:href="#c" overflow="visible"/></clipPath><radialGradient id="e" cx="88.417" cy="55.694" r="207.843" gradientTransform="matrix(1 0 0 .5 0 27.847)" gradientUnits="userSpaceOnUse"><stop offset=".297" stop-color="#f64f5f"/><stop offset=".547" stop-color="#f45b6d"/><stop offset=".745" stop-color="#e26380"/><stop offset="1" stop-color="#d96489"/></radialGradient><path clip-path="url(#d)" fill="url(#e)" d="M247.663 117.774l-130.136 24.669V74.095l130.014-29.42z"/><linearGradient id="f" gradientUnits="userSpaceOnUse" x1="71.348" y1="120.816" x2="129.946" y2="281.81"><stop offset="0" stop-color="#dd5578" stop-opacity="0"/><stop offset=".13" stop-color="#d55581" stop-opacity=".1"/><stop offset=".195" stop-color="#cb558b"/><stop offset=".311" stop-color="#b356a3"/><stop offset=".556" stop-color="#815aee"/><stop offset=".656" stop-color="#8652f6"/><stop offset="1" stop-color="#695ffb"/></linearGradient><path clip-path="url(#d)" fill="url(#f)" d="M67.548 122.199h66.199v158.227H67.548z"/><linearGradient id="g" gradientUnits="userSpaceOnUse" x1="164.25" y1="50.538" x2="240.329" y2="259.563"><stop offset="0" stop-color="#dc6486" stop-opacity="0"/><stop offset=".268" stop-color="#cc618b" stop-opacity=".1"/><stop offset=".392" stop-color="#b36797"/><stop offset=".448" stop-color="#9079b3"/><stop offset=".632" stop-color="#5b92e5"/><stop offset=".909" stop-color="#4f96ef"/><stop offset="1" stop-color="#3a9af8"/></linearGradient><path clip-path="url(#d)" fill="url(#g)" d="M156.915 53.207h90.748v203.686h-90.748z"/></g></svg>