<svg xmlns="http://www.w3.org/2000/svg" xmlns:xlink="http://www.w3.org/1999/xlink" viewBox="0 0 300 300"><defs><path id="a" d="M233 300H67c-36.85 0-67-30.15-67-67V67C0 30.15 30.15 0 67 0h166c36.85 0 67 30.15 67 67v166c0 36.85-30.15 67-67 67z"/></defs><clipPath id="b"><use xlink:href="#a" overflow="visible"/></clipPath><linearGradient id="c" gradientUnits="userSpaceOnUse" x1="150" x2="150" y2="300"><stop offset="0" stop-color="#ff5363"/><stop offset="1" stop-color="#ff3358"/></linearGradient><path clip-path="url(#b)" fill="url(#c)" d="M-.002 0h300.004v300H-.002z"/><path d="M56.9 53.405v24.636H40.726v149.324c0 6.414 5.199 11.613 11.613 11.613h180.81c6.414 0 11.613-5.199 11.613-11.613V53.405H56.9z" clip-path="url(#b)" fill="#fff"/><linearGradient id="d" gradientUnits="userSpaceOnUse" x1="40.726" y1="158.475" x2="57.021" y2="158.475"><stop offset="0" stop-opacity="0"/><stop offset=".824" stop-opacity=".2"/><stop offset="1" stop-opacity=".3"/></linearGradient><path d="M50.969 238.91c-5.6-.625-10.243-5.555-10.243-11.545V78.041h16.295v151.333s-.206 3.033-.915 4.841c-.857 2.187-3.253 4.695-5.137 4.695z" clip-path="url(#b)" fill="url(#d)"/><g clip-path="url(#b)"><linearGradient id="e" gradientUnits="userSpaceOnUse" x1="87.677" y1="106.898" x2="87.677" y2="134.419" gradientTransform="rotate(180 90.736 129.394)"><stop offset="0" stop-color="#ff3b5a"/><stop offset="1" stop-color="#ff445d"/></linearGradient><path d="M79.819 126.572c-.05.551 0 25.319 0 25.319h26.356c.8-.27 1.57-.955 1.616-2.137.057-1.471-.497-1.641-1.063-2.292s-21.333-21.855-22.003-22.594c-.188-.207-.865-.535-1.74-.494 0 0-1.308.076-1.986.598-.678.522-1.131 1.056-1.18 1.6z" fill="url(#e)"/><linearGradient id="f" gradientUnits="userSpaceOnUse" x1="138.701" y1="78.1" x2="138.701" y2="105.621"><stop offset="0" stop-color="#ff3b5a"/><stop offset="1" stop-color="#ff445d"/></linearGradient><path d="M152.677 103.419c.05-.551 0-25.319 0-25.319h-26.356c-.8.27-1.57.955-1.616 2.137-.057 1.471.497 1.641 1.063 2.292s21.333 21.855 22.003 22.594c.188.207.865.535 1.74.494 0 0 1.308-.076 1.986-.598.678-.522 1.131-1.055 1.18-1.6z" fill="url(#f)"/><linearGradient id="g" gradientUnits="userSpaceOnUse" x1="116.199" y1="78.1" x2="116.199" y2="151.955"><stop offset="0" stop-color="#ff3b5a"/><stop offset="1" stop-color="#ff445d"/></linearGradient><path fill="url(#g)" d="M101.872 78.1H79.721v22.593l51.107 51.262h21.849v-22.894z"/></g><g clip-path="url(#b)" fill="#bababa"><path d="M86.433 168.761a5.607 5.607 0 1 0 0 11.214h158.328v-11.214H86.433zM80.826 194.635a5.607 5.607 0 0 0 5.607 5.607h158.328v-11.214H86.433a5.607 5.607 0 0 0-5.607 5.607zM80.826 214.901a5.607 5.607 0 0 0 5.607 5.607h158.328v-11.214H86.433a5.607 5.607 0 0 0-5.607 5.607z"/></g></svg>