<svg xmlns="http://www.w3.org/2000/svg" xmlns:xlink="http://www.w3.org/1999/xlink" viewBox="0 0 300 300"><defs><path id="a" d="M233 300H67c-36.85 0-67-30.15-67-67V67C0 30.15 30.15 0 67 0h166c36.85 0 67 30.15 67 67v166c0 36.85-30.15 67-67 67z"/></defs><clipPath id="b"><use xlink:href="#a" overflow="visible"/></clipPath><linearGradient id="c" gradientUnits="userSpaceOnUse" x1="150" x2="150" y2="300"><stop offset="0" stop-color="#ff5160"/><stop offset="1" stop-color="#ff2e55"/></linearGradient><path clip-path="url(#b)" fill="url(#c)" d="M-.002 0h300.004v300H-.002z"/><path d="M57.487 57.514V80.05H40.013L40 230.825c0 5.695 5.416 11.658 11.724 11.658l7.762.003h176.249c6.414 0 11.713-4.899 11.713-11.313V57.514H57.487z" clip-path="url(#b)" fill="#fff"/><linearGradient id="d" gradientUnits="userSpaceOnUse" x1="40" y1="161.258" x2="57.491" y2="161.258"><stop offset="0" stop-opacity="0"/><stop offset=".824" stop-opacity=".2"/><stop offset="1" stop-opacity=".3"/></linearGradient><path d="M51.724 242.483c-5.984 0-11.724-5.609-11.724-11.658V80.034h17.492v152.82s-.221 3.062-.982 4.889c-.92 2.207-2.763 4.74-4.786 4.74z" clip-path="url(#b)" fill="url(#d)"/><g clip-path="url(#b)" fill="#ff435c"><path d="M154.989 79.982s-23.661.002-24.252 0c-.793-.003-2.519.966-3.077 1.703-.558.737-.989 2.311-.898 2.916.089.591.356 1.788 1.069 2.53.348.362 19.651 19.601 20.008 19.944.741.713 1.938.98 2.53 1.068.606.091 2.18-.34 2.916-.898.737-.558 1.708-2.284 1.705-3.077-.003-.591-.001-24.186-.001-24.186zM80.001 154.998s23.658-.001 24.249.001c.793.003 2.523-.947 3.082-1.683.559-.736.991-2.31.901-2.916-.088-.591-.354-1.789-1.066-2.531a13929.52 13929.52 0 0 0-19.989-19.962c-.741-.713-1.938-.981-2.529-1.071-.605-.092-2.18.338-2.917.895-.737.557-1.732 2.282-1.73 3.076l-.001 24.191zM102.913 80.227H80.19v22.843l52.429 51.831h22.415v-23.148z"/></g><g clip-path="url(#b)" fill="#bdbdbd"><path d="M86.972 171.878c-3.136 0-5.678 2.463-5.678 5.502s2.542 5.502 5.678 5.502h160.322v-11.003H86.972zM81.294 197.264c0 3.038 2.542 5.502 5.678 5.502h160.322v-11.003H86.972c-3.136 0-5.678 2.463-5.678 5.501zM81.294 217.149c0 3.038 2.542 5.502 5.678 5.502h160.322v-11.003H86.972c-3.136-.001-5.678 2.462-5.678 5.501z"/></g></svg>