<svg xmlns="http://www.w3.org/2000/svg" xmlns:xlink="http://www.w3.org/1999/xlink" viewBox="0 0 335.84 335.836"><defs><path id="a" d="M260.615 335.836H75.225c-41.25 0-75-33.75-75-75V75c0-41.25 33.75-75 75-75h185.39c41.25 0 75 33.75 75 75v185.836c0 41.25-33.75 75-75 75z"/></defs><clipPath id="b"><use xlink:href="#a" overflow="visible"/></clipPath><linearGradient id="c" gradientUnits="userSpaceOnUse" x1="167.92" x2="167.92" y2="335.836"><stop offset="0" stop-color="#ff5363"/><stop offset="1" stop-color="#ff3358"/></linearGradient><path clip-path="url(#b)" fill="url(#c)" d="M0 0h335.84v335.836H0z"/><path d="M63.699 59.785v27.579H45.593v167.161c0 7.18 5.82 13 13 13h202.408c7.18 0 13-5.82 13-13V59.785H63.699z" clip-path="url(#b)" fill="#fff"/><linearGradient id="d" gradientUnits="userSpaceOnUse" x1="45.593" y1="177.405" x2="63.834" y2="177.405"><stop offset="0" stop-opacity="0"/><stop offset=".824" stop-opacity=".2"/><stop offset="1" stop-opacity=".3"/></linearGradient><path d="M57.059 267.448c-6.269-.699-11.466-6.218-11.466-12.924V87.363h18.241v169.41s-.23 3.395-1.024 5.42c-.959 2.447-3.642 5.255-5.751 5.255z" clip-path="url(#b)" fill="url(#d)"/><g clip-path="url(#b)"><linearGradient id="e" gradientUnits="userSpaceOnUse" x1="112.311" y1="124.59" x2="112.311" y2="155.398" gradientTransform="rotate(180 108.656 147.312)"><stop offset="0" stop-color="#ff3b5a"/><stop offset="1" stop-color="#ff445d"/></linearGradient><path d="M89.355 141.692c-.056.616 0 28.343 0 28.343h29.505c.896-.303 1.758-1.069 1.809-2.392.063-1.647-.557-1.837-1.19-2.566s-23.881-24.465-24.631-25.293c-.21-.232-.969-.599-1.948-.553 0 0-1.464.085-2.223.67s-1.266 1.181-1.322 1.791z" fill="url(#e)"/><linearGradient id="f" gradientUnits="userSpaceOnUse" x1="155.271" y1="87.43" x2="155.271" y2="118.238"><stop offset="0" stop-color="#ff3b5a"/><stop offset="1" stop-color="#ff445d"/></linearGradient><path d="M170.917 115.773c.056-.616 0-28.343 0-28.343h-29.505c-.896.303-1.758 1.069-1.809 2.392-.063 1.647.557 1.837 1.19 2.566s23.881 24.465 24.631 25.293c.21.232.969.599 1.948.553 0 0 1.464-.085 2.223-.67.76-.584 1.267-1.182 1.322-1.791z" fill="url(#f)"/><linearGradient id="g" gradientUnits="userSpaceOnUse" x1="130.082" y1="87.43" x2="130.082" y2="170.107"><stop offset="0" stop-color="#ff3b5a"/><stop offset="1" stop-color="#ff445d"/></linearGradient><path fill="url(#g)" d="M114.042 87.43H89.246v25.291l57.212 57.386h24.459v-25.629z"/></g><g clip-path="url(#b)" fill="#bababa"><path d="M96.76 188.92a6.277 6.277 0 1 0 0 12.554h177.241V188.92H96.76zM90.483 217.884a6.277 6.277 0 0 0 6.277 6.277h177.241v-12.554H96.76a6.278 6.278 0 0 0-6.277 6.277zM90.483 240.571a6.277 6.277 0 0 0 6.277 6.277h177.241v-12.554H96.76a6.278 6.278 0 0 0-6.277 6.277z"/></g></svg>