<svg xmlns="http://www.w3.org/2000/svg" xmlns:xlink="http://www.w3.org/1999/xlink" viewBox="0 0 335.84 335.836"><defs><path id="a" d="M260.615 335.836H75.225c-41.25 0-75-33.75-75-75V75c0-41.25 33.75-75 75-75h185.39c41.25 0 75 33.75 75 75v185.836c0 41.25-33.75 75-75 75z"/></defs><clipPath id="b"><use xlink:href="#a" overflow="visible"/></clipPath><path clip-path="url(#b)" fill="#FFF" d="M0 0h335.84v335.836H0z"/><g clip-path="url(#b)"><path fill="#EAEAEA" d="M-.622 292.221H336.34v44.115H-.622z"/><path fill="#B8B8B8" d="M335.84 292.72v43.115H-.122V292.72H335.84m1-1H-1.122v45.115H336.84V291.72z"/></g><g clip-path="url(#b)"><path fill="#EEE" d="M-.622 229.228H336.34v62.233H-.622z"/><path fill="#B8B8B8" d="M335.84 229.727v61.234H-.122v-61.234H335.84m1-1H-1.122v63.234H336.84v-63.234z"/></g><g clip-path="url(#b)"><path fill="#EEE" d="M-.622 166.197h337.083v62.317H-.622z"/><path fill="#B8B8B8" d="M335.962 166.697v61.317H-.122v-61.317h336.084m1-1H-1.122v63.317h338.083v-63.317h.001z"/></g><g clip-path="url(#b)"><path fill="#ECECEC" d="M-.622 105.127H336.34v60.305H-.622z"/><path fill="#B8B8B8" d="M335.84 105.628v59.306H-.122v-59.306H335.84m1-1H-1.122v61.306H336.84v-61.306z"/></g><g clip-path="url(#b)" fill="#AAA"><path d="M6.43 120.46h5.706v5.706H6.43zM313.369 120.46h5.706v5.706h-5.706zM302.407 120.46h5.706v5.706h-5.706zM291.444 120.46h5.706v5.706h-5.706zM280.482 120.46h5.706v5.706h-5.706zM269.52 120.46h5.706v5.706h-5.706zM258.558 120.46h5.706v5.706h-5.706zM247.596 120.46h5.706v5.706h-5.706zM236.634 120.46h5.706v5.706h-5.706zM225.672 120.46h5.706v5.706h-5.706zM214.71 120.46h5.706v5.706h-5.706zM203.748 120.46h5.706v5.706h-5.706zM192.785 120.46h5.706v5.706h-5.706zM181.823 120.46h5.706v5.706h-5.706zM170.861 120.46h5.706v5.706h-5.706zM159.899 120.46h5.706v5.706h-5.706zM148.937 120.46h5.706v5.706h-5.706zM137.975 120.46h5.706v5.706h-5.706zM127.013 120.46h5.706v5.706h-5.706zM116.051 120.46h5.706v5.706h-5.706zM105.089 120.46h5.706v5.706h-5.706zM94.127 120.46h5.706v5.706h-5.706zM83.165 120.46h5.706v5.706h-5.706zM72.202 120.46h5.706v5.706h-5.706zM61.24 120.46h5.706v5.706H61.24zM50.278 120.46h5.706v5.706h-5.706zM39.316 120.46h5.706v5.706h-5.706zM28.354 120.46h5.706v5.706h-5.706zM17.392 120.46h5.706v5.706h-5.706zM324.331 120.46h5.706v5.706h-5.706z"/></g><linearGradient id="c" gradientUnits="userSpaceOnUse" x1="167.859" y1="105.627" x2="167.859" y2="116.47"><stop offset="0" stop-opacity=".3"/><stop offset=".2" stop-color="#2b2b2b" stop-opacity=".2"/><stop offset="1" stop-color="#fff" stop-opacity=".1"/></linearGradient><path clip-path="url(#b)" fill="url(#c)" d="M-.122 105.628H335.84v10.843H-.122z"/><linearGradient id="d" gradientUnits="userSpaceOnUse" x1="168.154" x2="168.154" y2="105.004"><stop offset="0" stop-color="#f8d967"/><stop offset="1" stop-color="#fbcb42"/></linearGradient><path clip-path="url(#b)" fill="url(#d)" d="M.225 0h335.858v105.004H.225z"/></svg>