<svg xmlns="http://www.w3.org/2000/svg" xmlns:xlink="http://www.w3.org/1999/xlink" viewBox="0 0 335.84 335.836"><defs><path id="a" d="M260.615 335.836H75.225c-41.25 0-75-33.75-75-75V75c0-41.25 33.75-75 75-75h185.39c41.25 0 75 33.75 75 75v185.836c0 41.25-33.75 75-75 75z"/></defs><clipPath id="b"><use xlink:href="#a" overflow="visible"/></clipPath><path clip-path="url(#b)" fill="#FFF" d="M0 0h335.84v335.836H0z"/><g clip-path="url(#b)"><path fill="#EAEAEA" d="M-.622 292.221H336.34v44.115H-.622z"/><path fill="#B8B8B8" d="M335.84 292.72v43.115H-.122V292.72H335.84m1-1H-1.122v45.115H336.84V291.72z"/></g><g clip-path="url(#b)"><path fill="#EEE" d="M-.622 229.228H336.34v62.233H-.622z"/><path fill="#B8B8B8" d="M335.84 229.727v61.234H-.122v-61.234H335.84m1-1H-1.122v63.234H336.84v-63.234z"/></g><g clip-path="url(#b)"><path fill="#EEE" d="M-.622 166.197h337.083v62.317H-.622z"/><path fill="#B8B8B8" d="M335.962 166.697v61.317H-.122v-61.317h336.084m1-1H-1.122v63.317h338.083v-63.317h.001z"/></g><g clip-path="url(#b)"><path fill="#ECECEC" d="M-.622 105.127H336.34v60.305H-.622z"/><path fill="#B8B8B8" d="M335.84 105.628v59.306H-.122v-59.306H335.84m1-1H-1.122v61.306H336.84v-61.306z"/></g><g clip-path="url(#b)"><radialGradient id="c" cx="9.329" cy="124.414" r="2.739" gradientUnits="userSpaceOnUse"><stop offset="0" stop-color="#aaa"/><stop offset="1" stop-color="#717171"/></radialGradient><circle fill="url(#c)" cx="9.277" cy="123.295" r="2.853"/><radialGradient id="d" cx="316.248" cy="124.414" r="2.739" gradientUnits="userSpaceOnUse"><stop offset="0" stop-color="#aaa"/><stop offset="1" stop-color="#717171"/></radialGradient><circle fill="url(#d)" cx="316.196" cy="123.295" r="2.853"/><radialGradient id="e" cx="305.287" cy="124.414" r="2.739" gradientUnits="userSpaceOnUse"><stop offset="0" stop-color="#aaa"/><stop offset="1" stop-color="#717171"/></radialGradient><circle fill="url(#e)" cx="305.234" cy="123.295" r="2.853"/><radialGradient id="f" cx="294.325" cy="124.414" r="2.739" gradientUnits="userSpaceOnUse"><stop offset="0" stop-color="#aaa"/><stop offset="1" stop-color="#717171"/></radialGradient><circle fill="url(#f)" cx="294.273" cy="123.295" r="2.853"/><radialGradient id="g" cx="283.364" cy="124.414" r="2.739" gradientUnits="userSpaceOnUse"><stop offset="0" stop-color="#aaa"/><stop offset="1" stop-color="#717171"/></radialGradient><circle fill="url(#g)" cx="283.312" cy="123.295" r="2.853"/><radialGradient id="h" cx="272.402" cy="124.414" r="2.739" gradientUnits="userSpaceOnUse"><stop offset="0" stop-color="#aaa"/><stop offset="1" stop-color="#717171"/></radialGradient><circle fill="url(#h)" cx="272.35" cy="123.295" r="2.853"/><radialGradient id="i" cx="261.441" cy="124.414" r="2.739" gradientUnits="userSpaceOnUse"><stop offset="0" stop-color="#aaa"/><stop offset="1" stop-color="#717171"/></radialGradient><circle fill="url(#i)" cx="261.389" cy="123.295" r="2.853"/><radialGradient id="j" cx="250.48" cy="124.414" r="2.739" gradientUnits="userSpaceOnUse"><stop offset="0" stop-color="#aaa"/><stop offset="1" stop-color="#717171"/></radialGradient><circle fill="url(#j)" cx="250.428" cy="123.295" r="2.853"/><radialGradient id="k" cx="239.518" cy="124.414" r="2.739" gradientUnits="userSpaceOnUse"><stop offset="0" stop-color="#aaa"/><stop offset="1" stop-color="#717171"/></radialGradient><circle fill="url(#k)" cx="239.466" cy="123.295" r="2.853"/><radialGradient id="l" cx="228.557" cy="124.414" r="2.739" gradientUnits="userSpaceOnUse"><stop offset="0" stop-color="#aaa"/><stop offset="1" stop-color="#717171"/></radialGradient><circle fill="url(#l)" cx="228.505" cy="123.295" r="2.853"/><radialGradient id="m" cx="217.596" cy="124.414" r="2.739" gradientUnits="userSpaceOnUse"><stop offset="0" stop-color="#aaa"/><stop offset="1" stop-color="#717171"/></radialGradient><circle fill="url(#m)" cx="217.543" cy="123.295" r="2.853"/><radialGradient id="n" cx="107.982" cy="124.414" r="2.739" gradientUnits="userSpaceOnUse"><stop offset="0" stop-color="#aaa"/><stop offset="1" stop-color="#717171"/></radialGradient><circle fill="url(#n)" cx="107.93" cy="123.295" r="2.853"/><radialGradient id="o" cx="86.059" cy="124.414" r="2.739" gradientUnits="userSpaceOnUse"><stop offset="0" stop-color="#aaa"/><stop offset="1" stop-color="#717171"/></radialGradient><circle fill="url(#o)" cx="86.007" cy="123.295" r="2.853"/><radialGradient id="p" cx="75.098" cy="124.414" r="2.739" gradientUnits="userSpaceOnUse"><stop offset="0" stop-color="#aaa"/><stop offset="1" stop-color="#717171"/></radialGradient><circle fill="url(#p)" cx="75.046" cy="123.295" r="2.853"/><radialGradient id="q" cx="64.136" cy="124.414" r="2.739" gradientUnits="userSpaceOnUse"><stop offset="0" stop-color="#aaa"/><stop offset="1" stop-color="#717171"/></radialGradient><circle fill="url(#q)" cx="64.084" cy="123.295" r="2.853"/><radialGradient id="r" cx="53.175" cy="124.414" r="2.739" gradientUnits="userSpaceOnUse"><stop offset="0" stop-color="#aaa"/><stop offset="1" stop-color="#717171"/></radialGradient><circle fill="url(#r)" cx="53.123" cy="123.295" r="2.853"/><radialGradient id="s" cx="42.214" cy="124.414" r="2.739" gradientUnits="userSpaceOnUse"><stop offset="0" stop-color="#aaa"/><stop offset="1" stop-color="#717171"/></radialGradient><circle fill="url(#s)" cx="42.162" cy="123.295" r="2.853"/><radialGradient id="t" cx="31.252" cy="124.414" r="2.739" gradientUnits="userSpaceOnUse"><stop offset="0" stop-color="#aaa"/><stop offset="1" stop-color="#717171"/></radialGradient><circle fill="url(#t)" cx="31.2" cy="123.295" r="2.853"/><radialGradient id="u" cx="20.291" cy="124.414" r="2.739" gradientUnits="userSpaceOnUse"><stop offset="0" stop-color="#aaa"/><stop offset="1" stop-color="#717171"/></radialGradient><circle fill="url(#u)" cx="20.239" cy="123.295" r="2.853"/><radialGradient id="v" cx="327.209" cy="124.414" r="2.739" gradientUnits="userSpaceOnUse"><stop offset="0" stop-color="#aaa"/><stop offset="1" stop-color="#717171"/></radialGradient><circle fill="url(#v)" cx="327.157" cy="123.295" r="2.853"/><radialGradient id="w" cx="206.634" cy="124.414" r="2.739" gradientUnits="userSpaceOnUse"><stop offset="0" stop-color="#aaa"/><stop offset="1" stop-color="#717171"/></radialGradient><circle fill="url(#w)" cx="206.582" cy="123.295" r="2.853"/><radialGradient id="x" cx="195.673" cy="124.414" r="2.739" gradientUnits="userSpaceOnUse"><stop offset="0" stop-color="#aaa"/><stop offset="1" stop-color="#717171"/></radialGradient><circle fill="url(#x)" cx="195.621" cy="123.295" r="2.853"/><radialGradient id="y" cx="184.712" cy="124.414" r="2.739" gradientUnits="userSpaceOnUse"><stop offset="0" stop-color="#aaa"/><stop offset="1" stop-color="#717171"/></radialGradient><circle fill="url(#y)" cx="184.659" cy="123.295" r="2.853"/><radialGradient id="z" cx="173.75" cy="124.414" r="2.739" gradientUnits="userSpaceOnUse"><stop offset="0" stop-color="#aaa"/><stop offset="1" stop-color="#717171"/></radialGradient><circle fill="url(#z)" cx="173.698" cy="123.295" r="2.853"/><radialGradient id="A" cx="129.905" cy="124.414" r="2.739" gradientUnits="userSpaceOnUse"><stop offset="0" stop-color="#aaa"/><stop offset="1" stop-color="#717171"/></radialGradient><circle fill="url(#A)" cx="129.853" cy="123.295" r="2.853"/><radialGradient id="B" cx="118.943" cy="124.414" r="2.739" gradientUnits="userSpaceOnUse"><stop offset="0" stop-color="#aaa"/><stop offset="1" stop-color="#717171"/></radialGradient><circle fill="url(#B)" cx="118.891" cy="123.295" r="2.853"/><radialGradient id="C" cx="162.789" cy="124.414" r="2.739" gradientUnits="userSpaceOnUse"><stop offset="0" stop-color="#aaa"/><stop offset="1" stop-color="#717171"/></radialGradient><circle fill="url(#C)" cx="162.737" cy="123.295" r="2.853"/><radialGradient id="D" cx="151.827" cy="124.414" r="2.739" gradientUnits="userSpaceOnUse"><stop offset="0" stop-color="#aaa"/><stop offset="1" stop-color="#717171"/></radialGradient><circle fill="url(#D)" cx="151.775" cy="123.295" r="2.853"/><radialGradient id="E" cx="140.866" cy="124.414" r="2.739" gradientUnits="userSpaceOnUse"><stop offset="0" stop-color="#aaa"/><stop offset="1" stop-color="#717171"/></radialGradient><circle fill="url(#E)" cx="140.814" cy="123.295" r="2.853"/><radialGradient id="F" cx="97.02" cy="124.414" r="2.739" gradientUnits="userSpaceOnUse"><stop offset="0" stop-color="#aaa"/><stop offset="1" stop-color="#717171"/></radialGradient><circle fill="url(#F)" cx="96.968" cy="123.295" r="2.853"/></g><linearGradient id="G" gradientUnits="userSpaceOnUse" x1="167.859" y1="105.627" x2="167.859" y2="116.47"><stop offset="0" stop-opacity=".3"/><stop offset=".2" stop-color="#2b2b2b" stop-opacity=".2"/><stop offset="1" stop-color="#fff" stop-opacity=".1"/></linearGradient><path clip-path="url(#b)" fill="url(#G)" d="M-.122 105.628H335.84v10.843H-.122z"/><linearGradient id="H" gradientUnits="userSpaceOnUse" x1="168.154" x2="168.154" y2="105.004"><stop offset="0" stop-color="#f8d967"/><stop offset="1" stop-color="#fbcb42"/></linearGradient><path clip-path="url(#b)" fill="url(#H)" d="M.225 0h335.858v105.004H.225z"/></svg>