<svg xmlns="http://www.w3.org/2000/svg" xmlns:xlink="http://www.w3.org/1999/xlink" viewBox="0 0 300 300"><defs><path id="a" d="M233 300H67c-36.85 0-67-30.15-67-67V67C0 30.15 30.15 0 67 0h166c36.85 0 67 30.15 67 67v166c0 36.85-30.15 67-67 67z"/></defs><clipPath id="b"><use xlink:href="#a" overflow="visible"/></clipPath><g clip-path="url(#b)"><path fill="#F7F7F7" d="M-1.36 264.701h302.613v36.549H-1.36z"/><path fill="#ADADAD" d="M300.002 265.952V300H-.111v-34.048h300.113m2.5-2.5H-2.611V302.5h305.113v-39.048z"/></g><g clip-path="url(#b)"><path fill="#F7F7F7" d="M-1.36 207.18h302.613v55.592H-1.36z"/><path fill="#ADADAD" d="M300.002 208.43v53.092H-.111V208.43h300.113m2.5-2.5H-2.611v58.092h305.113V205.93z"/></g><g clip-path="url(#b)"><path fill="#F7F7F7" d="M-1.36 152.145h302.721v53.058H-1.36z"/><path fill="#ADADAD" d="M300.111 153.395v50.558H-.111v-50.558h300.222m2.5-2.5H-2.611v55.558H302.61v-55.558h.001z"/></g><g clip-path="url(#b)"><path fill="#F7F7F7" d="M-1.36 90.873h302.613v59.304H-1.36z"/><path fill="#ADADAD" d="M300.002 92.123v56.804H-.111V92.123h300.113m2.5-2.5H-2.611v61.804h305.113V89.623z"/></g><g clip-path="url(#b)" fill="#AAA"><path d="M2.973 109.839H8.07v5.097H2.973zM282.334 109.839h5.097v5.097h-5.097zM272.357 109.839h5.097v5.097h-5.097zM262.38 109.839h5.097v5.097h-5.097zM252.403 109.839h5.097v5.097h-5.097zM242.425 109.839h5.097v5.097h-5.097zM232.448 109.839h5.097v5.097h-5.097zM222.471 109.839h5.097v5.097h-5.097zM212.494 109.839h5.097v5.097h-5.097zM202.517 109.839h5.097v5.097h-5.097zM192.539 109.839h5.097v5.097h-5.097zM182.562 109.839h5.097v5.097h-5.097zM172.585 109.839h5.097v5.097h-5.097zM162.608 109.839h5.097v5.097h-5.097zM152.631 109.839h5.097v5.097h-5.097zM142.653 109.839h5.097v5.097h-5.097zM132.676 109.839h5.097v5.097h-5.097zM122.699 109.839h5.097v5.097h-5.097zM112.722 109.839h5.097v5.097h-5.097zM102.745 109.839h5.097v5.097h-5.097zM92.767 109.839h5.097v5.097h-5.097zM82.79 109.839h5.097v5.097H82.79zM72.813 109.839h5.097v5.097h-5.097zM62.836 109.839h5.097v5.097h-5.097zM52.859 109.839h5.097v5.097h-5.097zM42.881 109.839h5.097v5.097h-5.097zM32.904 109.839h5.097v5.097h-5.097zM22.927 109.839h5.097v5.097h-5.097zM12.95 109.839h5.097v5.097H12.95zM292.311 109.839h5.097v5.097h-5.097z"/></g><linearGradient id="c" gradientUnits="userSpaceOnUse" x1="150.209" x2="150.209" y2="91.835"><stop offset="0" stop-color="#f8d967"/><stop offset="1" stop-color="#fbcb42"/></linearGradient><path clip-path="url(#b)" fill="url(#c)" d="M.199 0h300.02v91.834H.199z"/><linearGradient id="d" gradientUnits="userSpaceOnUse" x1="149.946" y1="89.711" x2="149.946" y2="99.397"><stop offset="0" stop-opacity=".1"/><stop offset=".203" stop-color="#261f1d" stop-opacity=".2"/><stop offset=".248" stop-color="#27211f" stop-opacity=".5"/><stop offset=".331" stop-color="#2b2b2b" stop-opacity=".4"/><stop offset="1" stop-color="#fff" stop-opacity=".1"/></linearGradient><path clip-path="url(#b)" fill="url(#d)" d="M-.111 89.711h300.113v9.686H-.111z"/></svg>