<svg xmlns="http://www.w3.org/2000/svg" xmlns:xlink="http://www.w3.org/1999/xlink" viewBox="0 0 335.84 335.836"><defs><path id="a" d="M260.615 335.836H75.225c-41.25 0-75-33.75-75-75V75c0-41.25 33.75-75 75-75h185.39c41.25 0 75 33.75 75 75v185.836c0 41.25-33.75 75-75 75z"/></defs><clipPath id="b"><use xlink:href="#a" overflow="visible"/></clipPath><g clip-path="url(#b)"><path fill="#F7F7F7" d="M-1.372 296.471H337.09v40.615H-1.372z"/><path fill="#ADADAD" d="M335.84 297.72v38.115H-.122V297.72H335.84m2.5-2.5H-2.622v43.115H338.34V295.22z"/></g><g clip-path="url(#b)"><path fill="#F7F7F7" d="M-1.372 232.077H337.09v61.934H-1.372z"/><path fill="#ADADAD" d="M335.84 233.328v59.434H-.122v-59.434H335.84m2.5-2.5H-2.622v64.434H338.34v-64.434z"/></g><g clip-path="url(#b)"><path fill="#F7F7F7" d="M-1.372 170.468h338.583v59.097H-1.372z"/><path fill="#ADADAD" d="M335.962 171.718v56.597H-.122v-56.597h336.084m2.5-2.5H-2.622v61.597h341.083v-61.597h.001z"/></g><g clip-path="url(#b)"><path fill="#F7F7F7" d="M-1.372 101.877H337.09v66.089H-1.372z"/><path fill="#ADADAD" d="M335.84 103.128v63.589H-.122v-63.589H335.84m2.5-2.5H-2.622v68.589H338.34v-68.589z"/></g><g clip-path="url(#b)" fill="#AAA"><path d="M3.33 122.96h5.706v5.706H3.33zM316.062 122.96h5.706v5.706h-5.706zM304.893 122.96h5.706v5.706h-5.706zM293.724 122.96h5.706v5.706h-5.706zM282.555 122.96h5.706v5.706h-5.706zM271.386 122.96h5.706v5.706h-5.706zM260.217 122.96h5.706v5.706h-5.706zM249.048 122.96h5.706v5.706h-5.706zM237.879 122.96h5.706v5.706h-5.706zM226.71 122.96h5.706v5.706h-5.706zM215.541 122.96h5.706v5.706h-5.706zM204.372 122.96h5.706v5.706h-5.706zM193.203 122.96h5.706v5.706h-5.706zM182.034 122.96h5.706v5.706h-5.706zM170.865 122.96h5.706v5.706h-5.706zM159.696 122.96h5.706v5.706h-5.706zM148.527 122.96h5.706v5.706h-5.706zM137.358 122.96h5.706v5.706h-5.706zM126.189 122.96h5.706v5.706h-5.706zM115.02 122.96h5.706v5.706h-5.706zM103.851 122.96h5.706v5.706h-5.706zM92.682 122.96h5.706v5.706h-5.706zM81.513 122.96h5.706v5.706h-5.706zM70.344 122.96h5.706v5.706h-5.706zM59.175 122.96h5.706v5.706h-5.706zM48.006 122.96h5.706v5.706h-5.706zM36.837 122.96h5.706v5.706h-5.706zM25.668 122.96h5.706v5.706h-5.706zM14.499 122.96h5.706v5.706h-5.706zM327.231 122.96h5.706v5.706h-5.706z"/></g><linearGradient id="c" gradientUnits="userSpaceOnUse" x1="168.154" x2="168.154" y2="102.804"><stop offset="0" stop-color="#f8d967"/><stop offset="1" stop-color="#fbcb42"/></linearGradient><path clip-path="url(#b)" fill="url(#c)" d="M.225 0h335.858v102.804H.225z"/><linearGradient id="d" gradientUnits="userSpaceOnUse" x1="167.859" y1="100.428" x2="167.859" y2="111.27"><stop offset="0" stop-opacity=".1"/><stop offset=".203" stop-color="#261f1d" stop-opacity=".2"/><stop offset=".248" stop-color="#27211f" stop-opacity=".5"/><stop offset=".331" stop-color="#2b2b2b" stop-opacity=".4"/><stop offset="1" stop-color="#fff" stop-opacity=".1"/></linearGradient><path clip-path="url(#b)" fill="url(#d)" d="M-.122 100.428H335.84v10.843H-.122z"/></svg>