<svg xmlns="http://www.w3.org/2000/svg" xmlns:xlink="http://www.w3.org/1999/xlink" viewBox="0 0 300 300"><defs><path id="a" d="M233 300H67c-36.85 0-67-30.15-67-67V67C0 30.15 30.15 0 67 0h166c36.85 0 67 30.15 67 67v166c0 36.85-30.15 67-67 67z"/></defs><clipPath id="b"><use xlink:href="#a" overflow="visible"/></clipPath><linearGradient id="c" gradientUnits="userSpaceOnUse" x1="150" y1=".026" x2="150" y2="299.974"><stop offset="0" stop-color="#82f96c"/><stop offset="1" stop-color="#11d51e"/></linearGradient><path clip-path="url(#b)" fill="url(#c)" d="M.024.026h299.952v299.948H.024z"/><path d="M255.184 243.582H45.389a3.692 3.692 0 0 1-3.681-3.681 3.692 3.692 0 0 1 3.681-3.681h209.795a3.692 3.692 0 0 1 3.681 3.681 3.691 3.691 0 0 1-3.681 3.681zM88.044 227.186H44.848c-1.1 0-2-.9-2-2v-30.339c0-1.1.9-2 2-2h43.196c1.1 0 2 .9 2 2v30.339c0 1.1-.9 2-2 2zM143.394 227.186h-43.196c-1.1 0-2-.9-2-2v-75.812c0-1.1.9-2 2-2h43.196c1.1 0 2 .9 2 2v75.812c0 1.1-.9 2-2 2zM198.743 227.186h-43.196c-1.1 0-2-.9-2-2V59.403c0-1.1.9-2 2-2h43.196c1.1 0 2 .9 2 2v165.784c0 1.099-.9 1.999-2 1.999zM254.093 227.186h-43.196c-1.1 0-2-.9-2-2V109.605c0-1.1.9-2 2-2h43.196c1.1 0 2 .9 2 2v115.581c0 1.1-.9 2-2 2z" clip-path="url(#b)" fill="#fff"/></svg>