<svg xmlns="http://www.w3.org/2000/svg" xmlns:xlink="http://www.w3.org/1999/xlink" viewBox="0 0 300 300"><defs><path id="a" d="M233 300H67c-36.85 0-67-30.15-67-67V67C0 30.15 30.15 0 67 0h166c36.85 0 67 30.15 67 67v166c0 36.85-30.15 67-67 67z"/></defs><clipPath id="b"><use xlink:href="#a" overflow="visible"/></clipPath><linearGradient id="c" gradientUnits="userSpaceOnUse" x1="150" y1=".026" x2="150" y2="299.974"><stop offset="0" stop-color="#ffba00"/><stop offset="1" stop-color="#ff8501"/></linearGradient><path clip-path="url(#b)" fill="url(#c)" d="M.024.026h299.952v299.948H.024z"/><path d="M65.63 244.59H300v-8.694H65.63a4.36 4.36 0 0 0-4.347 4.347 4.36 4.36 0 0 0 4.347 4.347z" clip-path="url(#b)" fill="#fff"/><g clip-path="url(#b)" fill="#fff"><path d="M66.686 232.32c.979 1.298 9.519-4.275 20.463-11.739l-8.582-8.422c-7.356 10.618-12.843 18.886-11.881 20.161zM102.423 180.895c-7.405 8.001-15.454 18.786-22.055 28.418l9.707 9.526c9.418-6.577 20.157-14.271 27.889-21.406 19.354-17.859 44.885-42.959 53.185-51.117l-18.632-18.286c-8.145 8.315-30.192 31.359-50.094 52.865zM242.158 73.588l.423-.452c3.373-3.361 7.118-12.422 1.748-17.85-5.227-5.283-15.9-1.928-19.26 1.993 0 0-28.247 26.918-32.294 30.856s-33.675 33.347-37.78 37.397l-.161.16 18.666 18.319c.449-.438.516-.497.084-.06l-.071.073.007.007c2.508-2.443 34.315-34.072 37.555-37.369 2.419-2.461 16.325-17.3 24.834-26.391.508-.033.912.038 1.128.284 1.237 1.408-.228 3.991-1.922 6.073-8.66 10.638-47.424 46.068-50.174 54.75-1.164 3.674.851 9.035 3.976 9.035 3.203 0 3.516-2.109 2.765-3.63-.793-1.606-.701-4.521.224-5.642 1.711-2.072 42.127-44.706 47.43-50.363 5.303-5.657 5.81-11.156 3.945-14.156-.536-.859-.889-1.92-1.123-3.034z"/></g></svg>