<svg xmlns="http://www.w3.org/2000/svg" xmlns:xlink="http://www.w3.org/1999/xlink" viewBox="0 0 300 300"><defs><path id="a" d="M233 300H67c-36.85 0-67-30.15-67-67V67C0 30.15 30.15 0 67 0h166c36.85 0 67 30.15 67 67v166c0 36.85-30.15 67-67 67z"/></defs><clipPath id="b"><use xlink:href="#a" overflow="visible"/></clipPath><linearGradient id="c" gradientUnits="userSpaceOnUse" x1="150" y1=".026" x2="150" y2="299.974"><stop offset="0" stop-color="#73f98a"/><stop offset="1" stop-color="#28b037"/></linearGradient><path clip-path="url(#b)" fill="url(#c)" d="M.024.026h299.952v299.948H.024z"/><path d="M108.987 135.859c-2.761-5.069-3.428-8.132-.738-12.646 4.644-7.792 6.722-11.574 9.996-18.588 2.691-5.766.947-9.23-2.6-14.437-9.446-13.869-14.231-22.413-22.048-33.774-2.922-4.247-4.753-6.078-13.24-3.678-9.829 2.779-13.333 8.026-17.492 12.074-7.211 7.02-10.283 20.565-5.469 36.256 8.09 26.367 28.744 57.802 56.054 85.112s57.13 47.612 83.497 55.702c15.691 4.814 29.236 1.742 36.256-5.469 4.048-4.158 8.922-10.669 12.074-17.492 2.926-6.333-.592-11.204-3.536-13.567-10.756-8.63-20.048-12.274-33.916-21.721-5.208-3.547-8.672-5.291-14.437-2.6-7.014 3.273-10.796 5.352-18.588 9.996-4.514 2.69-7.3 1.801-12.25-1.167-5.315-3.187-20.939-18.278-27.722-25.058-4.094-4.093-21.122-20.28-25.841-28.943z" clip-path="url(#b)" fill="#fff"/></svg>