<svg xmlns="http://www.w3.org/2000/svg" xmlns:xlink="http://www.w3.org/1999/xlink" viewBox="0 0 335.84 335.836"><defs><path id="a" d="M260.615 335.836H75.225c-41.25 0-75-33.75-75-75V75c0-41.25 33.75-75 75-75h185.39c41.25 0 75 33.75 75 75v185.836c0 41.25-33.75 75-75 75z"/></defs><clipPath id="b"><use xlink:href="#a" overflow="visible"/></clipPath><linearGradient id="c" gradientUnits="userSpaceOnUse" x1="167.92" x2="167.92" y2="335.836"><stop offset="0" stop-color="#73f98a"/><stop offset="1" stop-color="#28b037"/></linearGradient><path clip-path="url(#b)" fill="url(#c)" d="M0 0h335.84v335.836H0z"/><path d="M122 152.085c-3.091-5.675-3.838-9.105-.827-14.159 5.199-8.725 7.526-12.959 11.192-20.812 3.013-6.456 1.06-10.334-2.911-16.165-10.577-15.528-15.933-25.095-24.686-37.815-3.272-4.755-5.322-6.805-14.824-4.119-11.004 3.112-14.928 8.987-19.584 13.519-8.074 7.859-11.514 23.026-6.123 40.594 9.058 29.521 32.183 64.717 62.761 95.295s63.965 53.309 93.487 62.367c17.568 5.39 32.734 1.95 40.594-6.123 4.532-4.656 9.99-11.945 13.519-19.585 3.276-7.091-.663-12.545-3.96-15.19-12.043-9.663-22.446-13.743-37.974-24.32-5.831-3.971-9.709-5.924-16.165-2.911-7.854 3.665-12.088 5.992-20.812 11.192-5.054 3.012-8.173 2.016-13.716-1.307-5.951-3.569-23.445-20.465-31.039-28.056-4.583-4.581-23.648-22.705-28.932-32.405z" clip-path="url(#b)" fill="#fff"/></svg>