<svg xmlns="http://www.w3.org/2000/svg" xmlns:xlink="http://www.w3.org/1999/xlink" viewBox="0 0 300 300"><defs><path id="a" d="M233 300H67c-36.85 0-67-30.15-67-67V67C0 30.15 30.15 0 67 0h166c36.85 0 67 30.15 67 67v166c0 36.85-30.15 67-67 67z"/></defs><clipPath id="b"><use xlink:href="#a" overflow="visible"/></clipPath><path clip-path="url(#b)" fill="#FFF" d="M.024.026h299.952v299.948H.024z"/><path clip-path="url(#b)" style="mix-blend-mode:multiply" fill="#F26967" d="M144.377 144.882c-15.568 15.405-40.909 15.272-56.313-.295l-30.71-31.034c-15.405-15.568-15.272-40.909.296-56.314 15.567-15.405 40.908-15.272 56.313.296l30.71 31.034c15.405 15.567 15.272 40.908-.296 56.313z"/><path clip-path="url(#b)" style="mix-blend-mode:multiply" fill="#D486AD" d="M142.4 150.323c-.115 21.901-18.128 39.726-40.029 39.611l-43.659-.229c-21.901-.115-39.726-18.128-39.611-40.029.115-21.901 18.128-39.726 40.029-39.611l43.659.229c21.902.116 39.726 18.129 39.611 40.029z"/><path clip-path="url(#b)" style="mix-blend-mode:multiply" fill="#A38EC3" d="M144.845 155.585c15.405 15.568 15.272 40.909-.295 56.313l-31.034 30.71c-15.567 15.405-40.908 15.272-56.313-.296-15.405-15.567-15.272-40.908.296-56.313l31.034-30.71c15.566-15.405 40.907-15.272 56.312.296z"/><path clip-path="url(#b)" style="mix-blend-mode:multiply" fill="#79ABDB" d="M149.676 280.98c-21.901-.115-39.726-18.128-39.611-40.029l.229-43.659c.115-21.901 18.128-39.726 40.029-39.611 21.901.115 39.726 18.128 39.611 40.029l-.229 43.659c-.115 21.901-18.128 39.726-40.029 39.611z"/><path clip-path="url(#b)" style="mix-blend-mode:multiply" fill="#6CC198" d="M155.604 155.14c15.568-15.405 40.909-15.272 56.313.295l30.71 31.034c15.405 15.567 15.272 40.908-.296 56.313-15.567 15.405-40.908 15.272-56.313-.296l-30.71-31.034c-15.405-15.566-15.272-40.907.296-56.312z"/><path clip-path="url(#b)" style="mix-blend-mode:multiply" fill="#B3D557" d="M157.6 149.677c.115-21.901 18.128-39.726 40.029-39.611l43.659.229c21.901.115 39.726 18.128 39.611 40.029-.115 21.901-18.128 39.726-40.029 39.611l-43.659-.229c-21.902-.116-39.726-18.129-39.611-40.029z"/><path clip-path="url(#b)" style="mix-blend-mode:multiply" fill="#F8E32B" d="M155.133 144.389c-15.405-15.568-15.272-40.909.295-56.313l31.034-30.71c15.567-15.405 40.908-15.272 56.313.296 15.405 15.567 15.272 40.908-.296 56.313l-31.034 30.71c-15.566 15.404-40.907 15.271-56.312-.296z"/><path clip-path="url(#b)" style="mix-blend-mode:multiply" fill="#FAA733" d="M150.324 19.102c21.901.115 39.726 18.128 39.611 40.029l-.229 43.659c-.115 21.901-18.128 39.726-40.029 39.611-21.901-.115-39.726-18.128-39.611-40.029l.229-43.659c.115-21.901 18.128-39.726 40.029-39.611z"/><radialGradient id="c" cx="7.335" cy="7.337" r="22.556" gradientTransform="matrix(6.649 0 0 6.6489 101.23 101.216)" gradientUnits="userSpaceOnUse"><stop offset=".04" stop-opacity="0"/><stop offset=".07" stop-opacity=".03"/><stop offset=".27" stop-opacity=".05"/><stop offset=".62" stop-opacity="0"/></radialGradient><path clip-path="url(#b)" fill="url(#c)" d="M.024.026h299.952v299.948H.024z"/></svg>