<svg xmlns="http://www.w3.org/2000/svg" xmlns:xlink="http://www.w3.org/1999/xlink" viewBox="0 0 335.84 335.836"><defs><path id="a" d="M260.615 335.836H75.225c-41.25 0-75-33.75-75-75V75c0-41.25 33.75-75 75-75h185.39c41.25 0 75 33.75 75 75v185.836c0 41.25-33.75 75-75 75z"/></defs><clipPath id="b"><use xlink:href="#a" overflow="visible"/></clipPath><path clip-path="url(#b)" fill="#FFF" d="M0 0h335.84v335.836H0z"/><linearGradient id="c" gradientUnits="userSpaceOnUse" x1="112.983" y1="-.733" x2="113.707" y2="137.334" gradientTransform="rotate(-44.7 167.715 91.042)"><stop offset="0" stop-color="#f26964"/><stop offset="1" stop-color="#f48157"/></linearGradient><path clip-path="url(#b)" fill="url(#c)" style="mix-blend-mode:multiply" d="M162.751 161.073l-2.253 2.229c-16.811 16.635-44.175 16.491-60.81-.319l-36.613-36.999c-16.635-16.811-16.491-44.175.319-60.81l2.253-2.229c16.811-16.635 44.175-16.491 60.81.319l36.613 36.999c16.635 16.81 16.491 44.175-.319 60.81z"/><linearGradient id="d" gradientUnits="userSpaceOnUse" x1="90.363" y1="-54.634" x2="91.088" y2="83.432" gradientTransform="rotate(-89.702 167.712 91.33)"><stop offset="0" stop-color="#cc8bbc"/><stop offset="1" stop-color="#df768f"/></linearGradient><path clip-path="url(#b)" fill="url(#d)" style="mix-blend-mode:multiply" d="M159.419 166.696l-.017 3.169c-.124 23.65-19.575 42.898-43.225 42.774l-52.052-.273c-23.65-.124-42.898-19.575-42.774-43.225l.017-3.169c.124-23.65 19.575-42.898 43.225-42.774l52.052.273c23.65.124 42.899 19.575 42.774 43.225z"/><linearGradient id="e" gradientUnits="userSpaceOnUse" x1="157.558" y1="-39.96" x2="68.117" y2="-39.491" gradientTransform="rotate(-134.7 167.718 91.448)"><stop offset="0" stop-color="#b38bbe"/><stop offset="1" stop-color="#9d8ec3"/></linearGradient><path clip-path="url(#b)" fill="url(#e)" style="mix-blend-mode:multiply" d="M161.034 173.044l2.229 2.253c16.635 16.811 16.491 44.175-.319 60.81l-36.999 36.613c-16.811 16.635-44.175 16.491-60.81-.319l-2.229-2.253c-16.635-16.811-16.491-44.175.319-60.81l36.999-36.613c16.81-16.635 44.175-16.491 60.81.319z"/><linearGradient id="f" gradientUnits="userSpaceOnUse" x1="167.965" y1="176.41" x2="168.689" y2="314.476" gradientTransform="translate(.883 -.879)"><stop offset=".001" stop-color="#809fd2"/><stop offset="1" stop-color="#6cb7e4"/></linearGradient><path clip-path="url(#b)" fill="url(#f)" style="mix-blend-mode:multiply" d="M169.142 314.478l-3.169-.017c-23.65-.124-42.898-19.575-42.774-43.225l.273-52.052c.124-23.65 19.575-42.898 43.225-42.774l3.169.017c23.65.124 42.898 19.575 42.774 43.225l-.273 52.052c-.124 23.65-19.575 42.898-43.225 42.774z"/><linearGradient id="g" gradientUnits="userSpaceOnUse" x1="271.561" y1="271.551" x2="173.931" y2="173.922"><stop offset="0" stop-color="#6ec097"/><stop offset="1" stop-color="#70bcbc"/></linearGradient><path clip-path="url(#b)" fill="url(#g)" style="mix-blend-mode:multiply" d="M173.068 174.787l2.253-2.229c16.811-16.635 44.175-16.491 60.81.319l36.613 36.999c16.635 16.811 16.491 44.175-.319 60.81l-2.253 2.229c-16.811 16.635-44.175 16.491-60.81-.319l-36.613-36.999c-16.635-16.81-16.492-44.175.319-60.81z"/><linearGradient id="h" gradientUnits="userSpaceOnUse" x1="243.137" y1="-55.436" x2="243.861" y2="82.63" gradientTransform="rotate(90.298 167.72 91.737)"><stop offset="0" stop-color="#c6da45"/><stop offset="1" stop-color="#98cd66"/></linearGradient><path clip-path="url(#b)" fill="url(#h)" style="mix-blend-mode:multiply" d="M176.421 169.14l.017-3.169c.124-23.65 19.575-42.898 43.225-42.774l52.052.273c23.65.124 42.898 19.575 42.774 43.225l-.017 3.169c-.124 23.65-19.575 42.898-43.225 42.774l-52.052-.273c-23.65-.124-42.899-19.575-42.774-43.225z"/><linearGradient id="i" gradientUnits="userSpaceOnUse" x1="173.917" y1="161.898" x2="271.546" y2="64.269"><stop offset="0" stop-color="#e2e030"/><stop offset="1" stop-color="#f7e322"/></linearGradient><path clip-path="url(#b)" fill="url(#i)" style="mix-blend-mode:multiply" d="M174.782 162.762l-2.229-2.253c-16.635-16.811-16.491-44.175.319-60.81l36.999-36.613c16.811-16.635 44.175-16.491 60.81.319l2.229 2.253c16.635 16.811 16.491 44.175-.319 60.81l-36.999 36.613c-16.811 16.635-44.175 16.491-60.81-.319z"/><linearGradient id="j" gradientUnits="userSpaceOnUse" x1="167.525" y1="23.651" x2="167.525" y2="161.704" gradientTransform="rotate(-180 167.716 91.533)"><stop offset="0" stop-color="#fcc12a"/><stop offset="1" stop-color="#f89c34"/></linearGradient><path clip-path="url(#b)" fill="url(#j)" style="mix-blend-mode:multiply" d="M166.698 21.35l3.169.017c23.65.124 42.898 19.575 42.774 43.225l-.273 52.052c-.124 23.65-19.575 42.898-43.225 42.774l-3.169-.017c-23.65-.124-42.898-19.575-42.774-43.225l.273-52.052c.124-23.65 19.575-42.898 43.225-42.774z"/></svg>