<svg xmlns="http://www.w3.org/2000/svg" xmlns:xlink="http://www.w3.org/1999/xlink" viewBox="0 0 335.84 335.836"><defs><path id="a" d="M260.615 335.836H75.225c-41.25 0-75-33.75-75-75V75c0-41.25 33.75-75 75-75h185.39c41.25 0 75 33.75 75 75v185.836c0 41.25-33.75 75-75 75z"/></defs><clipPath id="b"><use xlink:href="#a" overflow="visible"/></clipPath><path clip-path="url(#b)" fill="#FFF" d="M0 0h335.84v335.836H0z"/><path clip-path="url(#b)" style="mix-blend-mode:multiply" fill="#F26967" d="M162.751 161.073l-2.253 2.229c-16.811 16.635-44.175 16.491-60.81-.319l-36.613-36.999c-16.635-16.811-16.491-44.175.319-60.81l2.253-2.229c16.811-16.635 44.175-16.491 60.81.319l36.613 36.999c16.635 16.81 16.491 44.175-.319 60.81z"/><path clip-path="url(#b)" style="mix-blend-mode:multiply" fill="#D486AD" d="M159.419 166.696l-.017 3.169c-.124 23.65-19.575 42.898-43.225 42.774l-52.052-.273c-23.65-.124-42.898-19.575-42.774-43.225l.017-3.169c.124-23.65 19.575-42.898 43.225-42.774l52.052.273c23.65.124 42.899 19.575 42.774 43.225z"/><path clip-path="url(#b)" style="mix-blend-mode:multiply" fill="#A38EC3" d="M161.034 173.044l2.229 2.253c16.635 16.811 16.491 44.175-.319 60.81l-36.999 36.613c-16.811 16.635-44.175 16.491-60.81-.319l-2.229-2.253c-16.635-16.811-16.491-44.175.319-60.81l36.999-36.613c16.81-16.635 44.175-16.491 60.81.319z"/><path clip-path="url(#b)" style="mix-blend-mode:multiply" fill="#79ABDB" d="M169.142 314.578l-3.169-.017c-23.65-.124-42.898-19.575-42.774-43.225l.273-52.052c.124-23.65 19.575-42.898 43.225-42.774l3.169.017c23.65.124 42.898 19.575 42.774 43.225l-.273 52.052c-.124 23.65-19.575 42.898-43.225 42.774z"/><path clip-path="url(#b)" style="mix-blend-mode:multiply" fill="#6CC198" d="M173.068 174.787l2.253-2.229c16.811-16.635 44.175-16.491 60.81.319l36.613 36.999c16.635 16.811 16.491 44.175-.319 60.81l-2.253 2.229c-16.811 16.635-44.175 16.491-60.81-.319l-36.613-36.999c-16.635-16.81-16.492-44.175.319-60.81z"/><path clip-path="url(#b)" style="mix-blend-mode:multiply" fill="#B3D557" d="M176.421 169.14l.017-3.169c.124-23.65 19.575-42.898 43.225-42.774l52.052.273c23.65.124 42.898 19.575 42.774 43.225l-.017 3.169c-.124 23.65-19.575 42.898-43.225 42.774l-52.052-.273c-23.65-.124-42.899-19.575-42.774-43.225z"/><path clip-path="url(#b)" style="mix-blend-mode:multiply" fill="#F8E32B" d="M174.782 162.762l-2.229-2.253c-16.635-16.811-16.491-44.175.319-60.81l36.999-36.613c16.811-16.635 44.175-16.491 60.81.319l2.229 2.253c16.635 16.811 16.491 44.175-.319 60.81l-36.999 36.613c-16.811 16.635-44.175 16.491-60.81-.319z"/><path clip-path="url(#b)" style="mix-blend-mode:multiply" fill="#FAA733" d="M166.698 21.35l3.169.017c23.65.124 42.898 19.575 42.774 43.225l-.273 52.052c-.124 23.65-19.575 42.898-43.225 42.774l-3.169-.017c-23.65-.124-42.898-19.575-42.774-43.225l.273-52.052c.124-23.65 19.575-42.898 43.225-42.774z"/><radialGradient id="c" cx="25.255" cy="25.255" r="25.255" gradientTransform="matrix(6.649 0 0 6.6489 0 0)" gradientUnits="userSpaceOnUse"><stop offset=".04" stop-opacity="0"/><stop offset=".07" stop-opacity=".03"/><stop offset=".27" stop-opacity=".05"/><stop offset=".62" stop-opacity="0"/></radialGradient><path clip-path="url(#b)" fill="url(#c)" d="M0 0h335.84v335.836H0z"/></svg>