<svg xmlns="http://www.w3.org/2000/svg" xmlns:xlink="http://www.w3.org/1999/xlink" viewBox="0 0 300 300"><defs><path id="a" d="M233 300H67c-36.85 0-67-30.15-67-67V67C0 30.15 30.15 0 67 0h166c36.85 0 67 30.15 67 67v166c0 36.85-30.15 67-67 67z"/></defs><clipPath id="b"><use xlink:href="#a" overflow="visible"/></clipPath><linearGradient id="c" gradientUnits="userSpaceOnUse" x1="150" y1=".026" x2="150" y2="299.974"><stop offset="0" stop-color="#d56dfb"/><stop offset="1" stop-color="#842bc2"/></linearGradient><path clip-path="url(#b)" fill="url(#c)" d="M.024.026h299.952v299.948H.024z"/><circle cx="149.958" cy="129.94" r="24.408" clip-path="url(#b)" fill="#fff"/><path d="M175.908 179.639c-1.377-14.367-21.524-15.103-25.95-15.103-4.426 0-24.574.736-25.95 15.103-1.377 14.367 3.608 60.753 7.099 71.111 3.542 10.509 7.565 14.122 18.851 14.122 11.286 0 15.309-3.614 18.851-14.122 3.491-10.358 8.476-56.744 7.099-71.111z" clip-path="url(#b)" fill="#fff"/><path d="M149.958 67.71c-38.957 0-70.651 31.694-70.651 70.651 0 25.364 13.441 47.64 33.568 60.103-.481-6.476-.834-12.659-1.016-18.177-11.397-10.363-18.552-25.309-18.552-41.927 0-31.288 25.364-56.651 56.651-56.651 31.288 0 56.651 25.364 56.651 56.651 0 16.618-7.155 31.564-18.552 41.927-.182 5.518-.535 11.7-1.016 18.177 20.127-12.464 33.568-34.74 33.568-60.103 0-38.957-31.694-70.651-70.651-70.651z" clip-path="url(#b)" fill="#fff"/><path d="M149.958 32.522c-58.36 0-105.84 47.48-105.84 105.84 0 46.899 30.664 86.763 72.994 100.616a641.207 641.207 0 0 1-1.915-15.59c-33.486-13.704-57.079-46.607-57.079-85.026 0-50.722 41.118-91.84 91.84-91.84s91.84 41.118 91.84 91.84c0 38.419-23.593 71.322-57.079 85.026a646.21 646.21 0 0 1-1.915 15.59c42.33-13.852 72.994-53.717 72.994-100.616 0-58.361-47.48-105.84-105.84-105.84z" clip-path="url(#b)" fill="#fff"/></svg>