<svg xmlns="http://www.w3.org/2000/svg" xmlns:xlink="http://www.w3.org/1999/xlink" viewBox="0 0 300 300"><defs><path id="a" d="M233 300H67c-36.85 0-67-30.15-67-67V67C0 30.15 30.15 0 67 0h166c36.85 0 67 30.15 67 67v166c0 36.85-30.15 67-67 67z"/></defs><clipPath id="b"><use xlink:href="#a" overflow="visible"/></clipPath><path clip-path="url(#b)" fill="#f7f7f7" d="M-.002 0h300.004v300H-.002z"/><g clip-path="url(#b)" fill="#cc73e1"><circle cx="47.83" cy="236.415" r="16.624"/><path d="M47.83 214.82c-11.907 0-21.595 9.687-21.595 21.595 0 11.907 9.687 21.595 21.595 21.595 11.907 0 21.595-9.687 21.595-21.595 0-11.907-9.687-21.595-21.595-21.595zm0 40.51c-10.446 0-18.915-8.468-18.915-18.915 0-10.446 8.468-18.915 18.915-18.915 10.446 0 18.915 8.468 18.915 18.915 0 10.446-8.468 18.915-18.915 18.915z"/></g><g clip-path="url(#b)" fill="#63da38"><circle cx="47.83" cy="178.633" r="16.624"/><path d="M47.83 157.039c-11.907 0-21.595 9.687-21.595 21.595 0 11.907 9.687 21.595 21.595 21.595 11.907 0 21.595-9.687 21.595-21.595s-9.687-21.595-21.595-21.595zm0 40.509c-10.446 0-18.915-8.468-18.915-18.915 0-10.446 8.468-18.915 18.915-18.915 10.446 0 18.915 8.468 18.915 18.915s-8.468 18.915-18.915 18.915z"/></g><g clip-path="url(#b)" fill="#1badf8"><circle cx="47.83" cy="120.852" r="16.624"/><path d="M47.83 99.257c-11.907 0-21.595 9.687-21.595 21.595 0 11.907 9.687 21.595 21.595 21.595 11.907 0 21.595-9.687 21.595-21.595S59.738 99.257 47.83 99.257zm0 40.509c-10.446 0-18.915-8.468-18.915-18.915 0-10.446 8.468-18.915 18.915-18.915 10.446 0 18.915 8.468 18.915 18.915s-8.468 18.915-18.915 18.915z"/></g><g clip-path="url(#b)" fill="#ff9500"><circle cx="47.83" cy="63.07" r="16.624"/><path d="M47.83 41.475c-11.907 0-21.595 9.687-21.595 21.595 0 11.907 9.687 21.595 21.595 21.595 11.907 0 21.595-9.687 21.595-21.595 0-11.907-9.687-21.595-21.595-21.595zm0 40.51c-10.446 0-18.915-8.468-18.915-18.915 0-10.446 8.468-18.915 18.915-18.915 10.446 0 18.915 8.468 18.915 18.915 0 10.446-8.468 18.915-18.915 18.915z"/></g><g clip-path="url(#b)" fill="#a8a8a8"><path d="M94.598 34.09h205.404v2.624H94.598zM94.598 91.346h205.404v2.624H94.598zM94.598 148.603h205.404v2.624H94.598zM94.598 205.86h205.404v2.624H94.598zM94.598 263.117h205.404v2.624H94.598z"/></g></svg>