<svg xmlns="http://www.w3.org/2000/svg" xmlns:xlink="http://www.w3.org/1999/xlink" viewBox="0 0 335.84 335.836"><defs><path id="a" d="M260.615 335.836H75.225c-41.25 0-75-33.75-75-75V75c0-41.25 33.75-75 75-75h185.39c41.25 0 75 33.75 75 75v185.836c0 41.25-33.75 75-75 75z"/></defs><clipPath id="b"><use xlink:href="#a" overflow="visible"/></clipPath><path clip-path="url(#b)" fill="#f7f7f7" d="M0 0h335.84v335.836H0z"/><g clip-path="url(#b)" fill="#cc73e1"><circle cx="53.546" cy="264.655" r="18.61"/><path d="M53.546 240.481c-13.33 0-24.174 10.844-24.174 24.174s10.844 24.174 24.174 24.174 24.174-10.844 24.174-24.174-10.844-24.174-24.174-24.174zm0 45.348c-11.694 0-21.174-9.48-21.174-21.174 0-11.694 9.48-21.174 21.174-21.174 11.694 0 21.174 9.48 21.174 21.174 0 11.694-9.48 21.174-21.174 21.174z"/></g><g clip-path="url(#b)" fill="#63da38"><circle cx="53.546" cy="199.971" r="18.61"/><path d="M53.546 175.797c-13.33 0-24.174 10.844-24.174 24.174s10.844 24.174 24.174 24.174 24.174-10.844 24.174-24.174c0-13.329-10.844-24.174-24.174-24.174zm0 45.348c-11.694 0-21.174-9.48-21.174-21.174 0-11.694 9.48-21.174 21.174-21.174 11.694 0 21.174 9.48 21.174 21.174 0 11.694-9.48 21.174-21.174 21.174z"/></g><g clip-path="url(#b)" fill="#1badf8"><circle cx="53.546" cy="135.288" r="18.61"/><path d="M53.546 111.114c-13.33 0-24.174 10.844-24.174 24.174s10.844 24.174 24.174 24.174 24.174-10.844 24.174-24.174-10.844-24.174-24.174-24.174zm0 45.348c-11.694 0-21.174-9.48-21.174-21.174 0-11.694 9.48-21.174 21.174-21.174 11.694 0 21.174 9.48 21.174 21.174 0 11.694-9.48 21.174-21.174 21.174z"/></g><g clip-path="url(#b)" fill="#ff9500"><circle cx="53.546" cy="70.604" r="18.61"/><path d="M53.546 46.43c-13.33 0-24.174 10.844-24.174 24.174s10.844 24.174 24.174 24.174S77.72 83.934 77.72 70.604 66.876 46.43 53.546 46.43zm0 45.348c-11.694 0-21.174-9.48-21.174-21.174 0-11.694 9.48-21.174 21.174-21.174 11.694 0 21.174 9.48 21.174 21.174 0 11.694-9.48 21.174-21.174 21.174z"/></g><g clip-path="url(#b)" fill="#a8a8a8"><path d="M105.9 38.162h229.94V41.1H105.9zM105.9 102.258h229.94v2.938H105.9zM105.9 166.354h229.94v2.938H105.9zM105.9 230.451h229.94v2.938H105.9zM105.9 294.547h229.94v2.938H105.9z"/></g></svg>