<svg xmlns="http://www.w3.org/2000/svg" xmlns:xlink="http://www.w3.org/1999/xlink" viewBox="0 0 300 300"><defs><path id="a" d="M233 300H67c-37.003 0-67-29.997-67-67V67C0 29.997 29.997 0 67 0h166c37.003 0 67 29.997 67 67v166c0 37.003-29.997 67-67 67z"/></defs><clipPath id="b"><use xlink:href="#a" overflow="visible"/></clipPath><path clip-path="url(#b)" fill="#fff" d="M-.002 0h300.004v300H-.002z"/><linearGradient id="c" gradientUnits="userSpaceOnUse" x1="149.962" y1="18.844" x2="149.962" y2="281.156"><stop offset="0" stop-color="#0de4ff"/><stop offset="1" stop-color="#1e53ee"/></linearGradient><circle cx="149.962" cy="150" r="131.156" clip-path="url(#b)" fill="url(#c)"/><g><g fill="none" stroke="#fefefe" stroke-width="2.4" stroke-miterlimit="10"><path d="M148.082 28.792l.354 22.361M169.166 30.302l-3.536 22.082M189.667 35.45l-7.318 21.133M208.961 44.082l-10.877 19.54M226.464 55.934l-14.107 17.354M241.641 70.646l-16.906 14.64M254.032 87.771l-19.192 11.48M263.26 106.788l-20.895 7.972M269.044 127.119l-21.961 4.221M271.209 148.145l-22.361.342M269.688 169.228l-22.08-3.547M264.529 189.726l-21.129-7.328M255.887 209.017l-19.534-10.888M244.026 226.513l-17.346-14.116M229.306 241.682l-14.631-16.913M212.175 254.064l-11.471-19.198M193.153 263.282l-7.961-20.898M172.819 269.056l-4.21-21.964M151.792 271.21l-.331-22.361M130.71 269.678l3.558-22.078M110.214 264.508l7.34-21.125M90.928 255.856l10.898-19.528M73.438 243.986l14.125-17.339M58.276 229.258l16.922-14.622M45.903 212.12l19.204-11.46M36.695 193.094l20.903-7.95M30.932 172.757l21.966-4.198M28.789 151.728l22.361-.319M30.332 130.647l22.076 3.57M35.513 110.154l21.12 7.351M44.175 90.873l19.522 10.908M56.054 73.389l17.331 14.134M70.79 58.235l14.613 16.929M87.934 45.871l11.45 19.21M106.965 36.673l7.939 20.907M127.305 30.92l4.187 21.968"/></g><g fill="none" stroke="#fff" stroke-width="2.4" stroke-miterlimit="10"><path d="M158.981 28.834l-.898 12.107M179.891 32.236l-2.987 11.767M199.892 39.218l-4.986 11.07M218.376 49.568l-6.833 10.036M234.781 62.971l-8.471 8.697M248.609 79.021l-9.853 7.092M259.439 97.228l-10.935 5.273M266.942 117.039l-11.685 3.294M270.89 137.853l-12.08 1.214M271.162 159.036l-12.107-.903M267.751 179.944l-11.767-2.992M260.76 199.942l-11.068-4.991M250.401 218.421l-10.033-6.837M236.99 234.821l-8.692-8.476M220.935 248.642l-7.089-9.857M202.723 259.463l-5.269-10.938M182.908 266.957l-3.289-11.687M162.092 270.895l-1.208-12.08M140.909 271.158l.909-12.107M120.002 267.737L123 255.972M100.008 260.737l4.995-11.066M81.533 250.37l6.842-10.03M65.14 236.952l8.479-8.689M51.326 220.89l9.86-7.084M40.513 202.673l10.94-5.263M33.028 182.855l11.688-3.283M29.099 162.037l12.081-1.203M28.846 140.854l12.107.914M32.277 119.949l11.763 3.003M39.286 99.958l11.063 5M49.661 81.487l10.026 6.847M63.087 65.1l8.685 8.484M79.155 51.294l7.079 9.863M97.377 40.489l5.258 10.943M117.199 33.013l3.277 11.69M138.018 29.094l1.197 12.081"/></g><path fill="#ff1414" d="M238.063 56.832l-100.345 80.647 23.34 23.224z"/><path fill="#fff" d="M137.718 137.479h-.001L60.713 241.35l100.345-80.647z"/></g></svg>