<svg xmlns="http://www.w3.org/2000/svg" xmlns:xlink="http://www.w3.org/1999/xlink" viewBox="0 0 335.84 335.836"><defs><path id="a" d="M313.693 22.145C300.09 8.486 281.296 0 260.615 0H75.225l-.223.223c-41.25 0-75 33.75-75 75v185.39l.223.223c0 41.25 33.75 75 75 75h185.39c20.681 0 39.475-8.486 53.078-22.145 13.659-13.603 22.145-32.396 22.145-53.078V75.223c0-20.682-8.486-39.475-22.145-53.078z"/></defs><clipPath id="b"><use xlink:href="#a" overflow="visible"/></clipPath><path clip-path="url(#b)" fill="#fff" d="M0 0h335.84v335.836H0z"/><linearGradient id="c" gradientUnits="userSpaceOnUse" x1="167.878" y1="21.095" x2="167.878" y2="314.74"><stop offset="0" stop-color="#0de4ff"/><stop offset="1" stop-color="#1e53ee"/></linearGradient><circle cx="167.878" cy="167.918" r="146.823" clip-path="url(#b)" fill="url(#c)"/><g><g fill="none" stroke="#fefefe" stroke-width="2.4" stroke-miterlimit="10"><path d="M165.773 32.231l.396 25.032M189.375 33.921l-3.958 24.72M212.325 39.685l-8.192 23.657M233.924 49.348l-12.176 21.874M253.517 62.616l-15.791 19.426M270.507 79.085l-18.925 16.388M284.379 98.256l-21.485 12.851M294.709 119.544l-23.39 8.924M301.184 142.303l-24.585 4.726M303.608 165.842l-25.032.383M301.905 189.443l-24.717-3.971M296.13 212.389l-23.653-8.204M286.456 233.984l-21.868-12.188M273.177 253.57l-19.418-15.801M256.699 270.552l-16.378-18.934M237.521 284.413l-12.84-21.491M216.228 294.732l-8.912-23.395M193.465 301.195l-4.713-24.587M169.926 303.606l-.37-25.032M146.325 301.892l3.984-24.716M123.382 296.104l8.216-23.648M101.792 286.419l12.199-21.861M82.213 273.131l15.811-19.41M65.24 256.643l18.943-16.368M51.389 237.458l21.498-12.829M41.081 216.159l23.399-8.899M34.629 193.393l24.59-4.7M32.23 169.853l25.033-.357M33.957 146.253l24.714 3.997M39.757 123.312l23.644 8.229M49.453 101.728l21.855 12.211M62.752 82.156l19.402 15.821M79.248 65.191l16.358 18.952M98.44 51.35l12.818 21.505M119.745 41.053l8.887 23.405M142.514 34.614l4.687 24.592"/></g><g fill="none" stroke="#fff" stroke-width="2.4" stroke-miterlimit="10"><path d="M177.974 32.278l-1.005 13.554M201.381 36.086l-3.343 13.174M223.771 43.902l-5.581 12.393M244.464 55.489l-7.649 11.234M262.829 70.493l-9.484 9.736M278.308 88.46l-11.03 7.94M290.432 108.842l-12.242 5.903M298.831 131.02l-13.081 3.687M303.25 154.32l-13.523 1.359M303.555 178.033l-13.553-1.011M299.736 201.439l-13.172-3.35M291.91 223.825l-12.39-5.586M280.314 244.512l-11.231-7.653M265.301 262.871l-9.731-9.489M247.328 278.342l-7.935-11.034M226.94 290.457l-5.897-12.245M204.758 298.846l-3.681-13.083M181.457 303.254l-1.353-13.523M157.743 303.548l1.017-13.553M134.339 299.719l3.356-13.17M111.956 291.882l5.592-12.387M91.274 280.277l7.659-11.227M72.923 265.256l9.493-9.727M57.46 247.276l11.037-7.93M45.354 226.883l12.248-5.893M36.975 204.697l13.085-3.675M32.577 181.393l13.525-1.347M32.294 157.679l13.553 1.024M36.134 134.277l13.169 3.362M43.981 111.898l12.384 5.597M55.595 91.221l11.224 7.664M70.625 72.877l9.722 9.497M88.612 57.421l7.925 11.042M109.011 45.325l5.886 12.251M131.2 36.957l3.67 13.086M154.506 32.569l1.341 13.525"/></g><path fill="#ff1414" d="M266.502 63.621l-112.331 90.28 26.128 25.998v.001z"/><path fill="#fff" d="M154.171 153.901h-.001L67.967 270.179l112.332-90.28z"/></g></svg>