<svg xmlns="http://www.w3.org/2000/svg" xmlns:xlink="http://www.w3.org/1999/xlink" viewBox="0 0 300 300"><defs><path id="a" d="M233 300H67c-36.85 0-67-30.15-67-67V67C0 30.15 30.15 0 67 0h166c36.85 0 67 30.15 67 67v166c0 36.85-30.15 67-67 67z"/></defs><clipPath id="b"><use xlink:href="#a" overflow="visible"/></clipPath><path clip-path="url(#b)" fill="#545454" d="M.024.026h299.952v299.948H.024z"/><path d="M220.303 153.257c.099-.147.224-.297.375-.44a2.537 2.537 0 0 1 1.255-.589c2.44-.417 4.177-.625 4.783-.682 1.106-.103 1.859-.269 2.378-.466.97-.311 1.096-.706 1.104-1.101.001-.041 0-.084-.003-.127v-.018c-.009-.389-.132-.78-1.069-1.087-.52-.202-1.282-.371-2.41-.474-.606-.055-2.343-.261-4.784-.673a2.53 2.53 0 0 1-1.341-.668 2.636 2.636 0 0 1-.443-.603c-.018-.036-.041-.075-.057-.109-.018-.039-.029-.073-.043-.109a.836.836 0 0 1-.074-.269c-.002-.032.005-.079.01-.125.028-.166.102-.395.221-.639a2.66 2.66 0 0 1 .321-.48c.274-.3.655-.577 1.178-.731 2.376-.697 4.076-1.106 4.671-1.232 1.086-.231 1.815-.483 2.308-.739.928-.421 1.007-.829.969-1.221a1.415 1.415 0 0 0-.018-.126l-.002-.018c-.054-.386-.221-.759-1.188-.956-.54-.14-1.317-.22-2.449-.191-.608.015-2.357.013-4.83-.114a2.522 2.522 0 0 1-1.409-.508 2.633 2.633 0 0 1-.51-.548c-.022-.034-.049-.069-.069-.101-.022-.037-.037-.069-.055-.103-.019-.036-.039-.072-.054-.105a.855.855 0 0 1-.051-.154c-.006-.032-.005-.079-.004-.126a2.54 2.54 0 0 1 .145-.659c.063-.166.149-.341.263-.514.237-.33.584-.65 1.086-.863 2.279-.968 3.92-1.571 4.497-1.766 1.052-.355 1.746-.69 2.206-1.002.873-.526.904-.94.821-1.326a1.4 1.4 0 0 0-.033-.123l-.004-.018c-.099-.377-.308-.728-1.29-.811-.553-.076-1.333-.065-2.455.094-.602.086-2.339.286-4.81.448a2.52 2.52 0 0 1-1.459-.341 2.645 2.645 0 0 1-.57-.484c-.026-.031-.057-.063-.081-.093-.026-.033-.044-.063-.065-.094-.023-.034-.048-.068-.066-.099a.758.758 0 0 1-.068-.147c-.009-.031-.014-.078-.019-.124a2.51 2.51 0 0 1 .067-.672 2.64 2.64 0 0 1 .202-.542 2.55 2.55 0 0 1 .978-.983c2.151-1.226 3.712-2.015 4.261-2.275 1.003-.474 1.654-.888 2.075-1.251.806-.624.789-1.039.662-1.412a1.274 1.274 0 0 0-.047-.119l-.006-.017c-.142-.363-.39-.688-1.375-.656-.558-.012-1.332.09-2.428.379-.588.155-2.291.556-4.726 1.003a2.53 2.53 0 0 1-1.489-.169 2.654 2.654 0 0 1-.623-.415c-.029-.028-.064-.056-.09-.083-.03-.031-.053-.059-.078-.088-.026-.03-.054-.061-.076-.089a.733.733 0 0 1-.085-.139c-.013-.03-.023-.076-.033-.121a2.53 2.53 0 0 1-.011-.676c.023-.176.067-.365.137-.56.155-.376.419-.767.857-1.09 1.994-1.467 3.453-2.432 3.969-2.754.942-.588 1.54-1.074 1.916-1.483.728-.713.663-1.123.493-1.479a1.347 1.347 0 0 0-.06-.112l-.008-.016c-.183-.344-.467-.638-1.442-.492-.555.053-1.313.244-2.367.658-.566.222-2.211.818-4.577 1.544a2.523 2.523 0 0 1-1.498.005 2.643 2.643 0 0 1-.667-.34c-.033-.024-.07-.048-.1-.072-.033-.027-.058-.051-.086-.077-.03-.027-.062-.055-.087-.081a.718.718 0 0 1-.1-.128c-.016-.028-.031-.073-.047-.117a2.507 2.507 0 0 1-.089-.67c.002-.178.024-.371.071-.573.11-.391.327-.81.725-1.182 1.81-1.689 3.147-2.817 3.622-3.196.867-.693 1.405-1.245 1.731-1.695.641-.793.528-1.192.319-1.527a1.154 1.154 0 0 0-.073-.104l-.01-.016c-.221-.32-.538-.579-1.49-.321-.545.117-1.275.394-2.275.928-.536.286-2.101 1.069-4.367 2.065a2.522 2.522 0 0 1-1.487.178 2.61 2.61 0 0 1-.703-.261c-.035-.02-.074-.039-.105-.059-.037-.023-.065-.045-.096-.068a.824.824 0 0 1-.209-.184.826.826 0 0 1-.06-.11 2.536 2.536 0 0 1-.166-.654 2.616 2.616 0 0 1 .004-.579c.064-.401.231-.842.583-1.258 1.602-1.887 2.799-3.163 3.227-3.595.781-.789 1.251-1.4 1.523-1.885.544-.861.386-1.245.139-1.553a1.465 1.465 0 0 0-.096-.109c-.257-.292-.602-.513-1.517-.146-.528.18-1.221.54-2.152 1.186-.5.347-1.962 1.305-4.098 2.558a2.524 2.524 0 0 1-1.457.35 2.643 2.643 0 0 1-.727-.177c-.037-.016-.079-.031-.114-.047-.038-.018-.068-.037-.101-.055-.036-.02-.073-.039-.103-.058a.757.757 0 0 1-.127-.101c-.022-.023-.047-.064-.072-.103a2.513 2.513 0 0 1-.241-.632 2.674 2.674 0 0 1-.063-.573c.017-.406.131-.864.433-1.318 1.372-2.061 2.413-3.466 2.788-3.945.684-.875 1.081-1.536 1.294-2.049.44-.919.239-1.281-.042-1.558a1.328 1.328 0 0 0-.095-.085l-.013-.013c-.289-.261-.657-.44-1.524.031-.504.24-1.15.678-2 1.427-.456.402-1.798 1.524-3.774 3.016a2.52 2.52 0 0 1-1.407.516 2.611 2.611 0 0 1-.743-.092c-.039-.012-.082-.021-.118-.034-.04-.014-.072-.029-.108-.043-.038-.015-.077-.03-.109-.046a.725.725 0 0 1-.138-.086.752.752 0 0 1-.084-.094 2.563 2.563 0 0 1-.313-.598 2.624 2.624 0 0 1-.129-.564c-.03-.405.03-.873.278-1.358 1.124-2.206 1.995-3.723 2.311-4.242.578-.947.895-1.65 1.047-2.185.331-.964.089-1.301-.222-1.544a1.289 1.289 0 0 0-.119-.084c-.318-.225-.704-.36-1.51.207-.473.297-1.064.807-1.821 1.65-.406.453-1.609 1.723-3.398 3.433a2.526 2.526 0 0 1-1.337.676 2.62 2.62 0 0 1-.749-.005c-.04-.007-.084-.012-.121-.02-.041-.009-.075-.02-.111-.03-.04-.011-.08-.022-.114-.033a.788.788 0 0 1-.147-.069c-.027-.018-.061-.051-.094-.083a2.554 2.554 0 0 1-.38-.558 2.65 2.65 0 0 1-.193-.544 2.545 2.545 0 0 1 .118-1.382c.861-2.321 1.549-3.929 1.804-4.482.464-1.008.697-1.743.786-2.292.217-.996-.063-1.303-.4-1.508a1.193 1.193 0 0 0-.112-.061c-.005-.003-.01-.007-.016-.009-.342-.187-.741-.276-1.475.381-.435.349-.963.925-1.617 1.85-.351.497-1.398 1.898-2.977 3.805a2.528 2.528 0 0 1-1.25.827 2.629 2.629 0 0 1-.745.082c-.04-.002-.084-.002-.122-.006-.043-.004-.078-.011-.115-.017-.04-.006-.081-.012-.116-.02a.721.721 0 0 1-.154-.052c-.029-.014-.066-.044-.103-.072a2.54 2.54 0 0 1-.442-.51 2.63 2.63 0 0 1-.255-.518 2.537 2.537 0 0 1-.043-1.386c.585-2.406 1.083-4.082 1.272-4.661.344-1.055.49-1.813.515-2.367.1-1.014-.214-1.286-.572-1.451a1.38 1.38 0 0 0-.118-.047l-.017-.008c-.361-.146-.768-.189-1.422.55-.392.398-.849 1.03-1.391 2.025-.291.534-1.168 2.047-2.515 4.124a2.523 2.523 0 0 1-1.145.966c-.264.1-.516.152-.731.168-.04.002-.084.008-.121.009-.043.001-.078-.002-.116-.004-.041-.002-.082-.002-.118-.006a.795.795 0 0 1-.159-.033c-.03-.011-.071-.036-.111-.059a2.522 2.522 0 0 1-.499-.456c-.113-.138-.22-.3-.314-.485a2.546 2.546 0 0 1-.204-1.372c.302-2.457.602-4.18.722-4.777.219-1.088.277-1.858.237-2.412-.019-1.019-.361-1.253-.737-1.374a1.166 1.166 0 0 0-.123-.033l-.018-.006c-.375-.103-.785-.098-1.348.711-.343.44-.724 1.122-1.147 2.173-.227.564-.923 2.169-2.02 4.388a2.513 2.513 0 0 1-1.026 1.092c-.25.13-.494.211-.706.251-.039.007-.082.018-.119.023-.043.006-.079.007-.117.01-.04.003-.081.007-.116.008a.72.72 0 0 1-.162-.015c-.031-.007-.075-.027-.117-.046a2.547 2.547 0 0 1-.548-.395 2.65 2.65 0 0 1-.368-.445 2.542 2.542 0 0 1-.362-1.339c.015-2.476.113-4.222.163-4.828.091-1.106.059-1.877-.044-2.423-.137-1.01-.504-1.202-.891-1.28a1.658 1.658 0 0 0-.126-.019l-.018-.003c-.385-.059-.79-.007-1.256.862-.289.477-.589 1.198-.888 2.292-.16.587-.665 2.261-1.497 4.593a2.526 2.526 0 0 1-.891 1.204 2.656 2.656 0 0 1-.672.332c-.038.012-.08.027-.116.036-.042.011-.077.016-.115.023a2.04 2.04 0 0 1-.115.021.768.768 0 0 1-.163.004c-.032-.004-.077-.018-.122-.032a2.55 2.55 0 0 1-.59-.328 2.633 2.633 0 0 1-.417-.4 2.538 2.538 0 0 1-.514-1.288c-.272-2.461-.378-4.207-.398-4.814-.038-1.109-.159-1.871-.325-2.401-.253-.988-.641-1.136-1.034-1.168a1.326 1.326 0 0 0-.127-.004l-.019-.001c-.389-.014-.786.085-1.148 1.003-.232.507-.446 1.258-.615 2.378-.091.601-.398 2.323-.954 4.736a2.517 2.517 0 0 1-.746 1.299 2.597 2.597 0 0 1-.659.421c-.024.01-.05.024-.073.033-.056.022-.105.036-.154.05-.024.007-.051.017-.073.022a.787.787 0 0 1-.165.024.74.74 0 0 1-.124-.018 2.52 2.52 0 0 1-.625-.258 2.61 2.61 0 0 1-.428-.321 2.54 2.54 0 0 1-.69-1.247c-.556-2.413-.863-4.134-.954-4.736-.17-1.127-.386-1.88-.62-2.388-.362-.914-.758-1.013-1.147-.999a1.421 1.421 0 0 0-.127.011l-.016.001c-.383.031-.76.17-1.013 1.087-.178.532-.309 1.315-.348 2.476-.021.608-.126 2.354-.398 4.814a2.518 2.518 0 0 1-.616 1.407 2.647 2.647 0 0 1-.578.465c-.022.013-.046.029-.068.04-.054.029-.101.048-.148.068-.023.01-.048.022-.069.03a.766.766 0 0 1-.161.043c-.033.004-.082 0-.13-.003a2.375 2.375 0 0 1-.544-.138l-.018-.006-.054-.024a2.685 2.685 0 0 1-.494-.284 2.54 2.54 0 0 1-.83-1.158c-.832-2.332-1.337-4.006-1.497-4.593-.3-1.1-.602-1.823-.893-2.3-.465-.866-.87-.918-1.255-.859a1.454 1.454 0 0 0-.125.025l-.016.003c-.376.075-.735.257-.88 1.196-.116.549-.155 1.342-.059 2.501.05.606.148 2.352.163 4.828a2.52 2.52 0 0 1-.448 1.469c-.167.224-.35.402-.52.528-.021.015-.044.035-.064.049-.05.034-.094.059-.139.084-.022.013-.045.028-.066.038a.763.763 0 0 1-.155.061c-.032.008-.081.01-.129.012-.145 0-.339-.021-.557-.074l-.018-.004-.057-.018a2.66 2.66 0 0 1-.523-.225 2.529 2.529 0 0 1-.958-1.054c-1.097-2.22-1.792-3.824-2.02-4.388-.425-1.057-.809-1.741-1.153-2.181-.562-.806-.971-.811-1.346-.708a1.54 1.54 0 0 0-.121.039l-.016.004c-.365.118-.7.341-.736 1.29-.051.559.002 1.351.231 2.491.12.596.42 2.319.722 4.777a2.527 2.527 0 0 1-.275 1.512c-.141.242-.302.44-.456.585-.019.017-.038.039-.057.055-.045.04-.087.07-.128.1-.02.015-.042.033-.061.046a.714.714 0 0 1-.147.078.862.862 0 0 1-.127.027 2.38 2.38 0 0 1-.561-.009l-.019-.002c-.018-.002-.039-.008-.058-.011a2.635 2.635 0 0 1-.546-.163 2.525 2.525 0 0 1-1.074-.936c-1.347-2.077-2.224-3.59-2.515-4.125-.545-1.001-1.005-1.635-1.398-2.032-.652-.735-1.058-.693-1.419-.547a1.178 1.178 0 0 0-.115.053l-.015.006c-.349.16-.656.42-.581 1.368.014.561.159 1.341.519 2.446.188.578.686 2.255 1.271 4.661.146.6.062 1.12-.098 1.533a2.595 2.595 0 0 1-.384.634c-.017.02-.034.044-.051.062-.04.045-.078.079-.115.114l-.055.053a.746.746 0 0 1-.137.095c-.03.015-.077.028-.123.041a2.368 2.368 0 0 1-.559.056h-.018c-.019 0-.04-.004-.06-.005a2.662 2.662 0 0 1-.56-.098 2.529 2.529 0 0 1-1.176-.805c-1.579-1.907-2.626-3.308-2.976-3.805-.658-.931-1.188-1.508-1.625-1.857-.733-.655-1.132-.565-1.473-.378-.036.02-.073.042-.108.066l-.014.008c-.328.199-.603.493-.418 1.425.079.555.313 1.314.799 2.37.254.552.943 2.16 1.803 4.482.215.579.192 1.106.08 1.535a2.644 2.644 0 0 1-.308.674l-.043.067a1.632 1.632 0 0 1-.101.126c-.016.019-.033.042-.049.059a.71.71 0 0 1-.125.11.782.782 0 0 1-.118.055c-.135.05-.325.096-.547.12l-.02.003c-.018.002-.039.001-.058.002a2.699 2.699 0 0 1-.57-.033 2.531 2.531 0 0 1-1.261-.663c-1.789-1.711-2.992-2.981-3.398-3.434-.761-.848-1.355-1.36-1.829-1.656-.804-.565-1.189-.43-1.506-.205-.034.024-.067.05-.1.078l-.013.01c-.303.236-.542.56-.25 1.465.143.542.464 1.269 1.069 2.261.317.519 1.187 2.036 2.311 4.242.28.55.319 1.076.258 1.515a2.603 2.603 0 0 1-.228.706c-.012.023-.023.05-.035.071a1.406 1.406 0 0 1-.087.139c-.013.02-.027.044-.04.062a.759.759 0 0 1-.111.124.826.826 0 0 1-.11.068 2.405 2.405 0 0 1-.53.183l-.018.005c-.018.004-.039.005-.058.009-.172.03-.365.042-.569.034a2.528 2.528 0 0 1-1.33-.513c-1.976-1.492-3.317-2.614-3.773-3.017-.855-.754-1.504-1.194-2.009-1.432-.864-.468-1.231-.289-1.52-.029a1.51 1.51 0 0 0-.09.089l-.012.011c-.273.269-.473.619-.079 1.484.205.522.608 1.206 1.324 2.122.375.479 1.415 1.885 2.787 3.946.342.514.441 1.032.432 1.475a2.628 2.628 0 0 1-.144.726c-.009.024-.017.053-.027.076a1.846 1.846 0 0 1-.069.146.796.796 0 0 1-.13.205.755.755 0 0 1-.102.081c-.121.08-.295.169-.506.244l-.017.007-.057.016a2.66 2.66 0 0 1-.561.099 2.533 2.533 0 0 1-1.38-.355c-2.135-1.253-3.598-2.212-4.098-2.559-.936-.65-1.632-1.011-2.161-1.19-.913-.365-1.257-.144-1.513.148a1.318 1.318 0 0 0-.079.099l-.011.012c-.24.299-.398.669.094 1.482.264.495.744 1.128 1.561 1.954.428.432 1.624 1.708 3.226 3.596.4.471.558.974.6 1.415.015.279-.01.533-.059.738l-.017.078c-.016.059-.034.107-.052.155l-.025.07a.757.757 0 0 1-.08.146.722.722 0 0 1-.092.092 2.426 2.426 0 0 1-.49.309l-.055.023c-.16.069-.345.125-.545.163a2.536 2.536 0 0 1-1.413-.192c-2.266-.997-3.83-1.78-4.367-2.066-1.005-.537-1.738-.815-2.285-.931-.949-.256-1.265.002-1.486.322-.024.034-.046.07-.067.108l-.009.013c-.204.325-.318.711.265 1.462.32.461.869 1.034 1.777 1.759.475.38 1.811 1.508 3.621 3.197.451.421.667.902.76 1.335.048.275.052.53.027.74l-.008.081c-.009.06-.021.109-.034.159l-.017.074a.84.84 0 0 1-.062.155c-.017.029-.049.066-.08.102a2.413 2.413 0 0 1-.435.353l-.016.011c-.015.01-.035.018-.051.028a2.708 2.708 0 0 1-.523.226 2.533 2.533 0 0 1-1.425-.027c-2.367-.727-4.011-1.323-4.577-1.546-1.06-.417-1.821-.607-2.377-.659-.972-.145-1.256.149-1.439.492a1.349 1.349 0 0 0-.054.115l-.007.014c-.165.347-.233.743.433 1.421.371.421.983.926 1.969 1.542.516.322 1.974 1.288 3.968 2.756.497.366.767.819.91 1.239.079.267.113.52.113.731 0 .026.002.057.001.082-.002.06-.009.11-.015.16-.003.025-.005.054-.009.077a.77.77 0 0 1-.044.161c-.013.031-.041.071-.068.111a2.362 2.362 0 0 1-.392.401l-.015.013c-.014.012-.033.023-.048.034-.14.104-.307.201-.493.285-.387.155-.864.24-1.419.138-2.435-.448-4.137-.849-4.725-1.004-1.102-.291-1.879-.392-2.438-.379-.982-.031-1.23.294-1.372.656a1.539 1.539 0 0 0-.041.12l-.006.015c-.124.363-.146.765.595 1.361.417.375 1.084.806 2.135 1.303.55.26 2.11 1.05 4.261 2.277.536.306.857.724 1.047 1.124.11.257.173.505.197.715.003.026.008.055.01.079.005.061.004.112.004.163v.075a.78.78 0 0 1-.025.165.787.787 0 0 1-.055.118 2.417 2.417 0 0 1-.342.444l-.013.014-.043.039c-.127.12-.282.236-.457.341-.366.198-.83.339-1.393.302-2.47-.162-4.208-.363-4.81-.449-1.128-.161-1.912-.172-2.465-.094-.979.083-1.188.434-1.286.811a1.6 1.6 0 0 0-.026.124l-.004.016c-.081.375-.056.777.749 1.283.458.324 1.17.674 2.271 1.046.576.195 2.218.798 4.496 1.767.568.242.936.62 1.171.996.139.242.229.48.278.685.006.026.015.054.02.079.012.059.017.109.022.16.003.025.008.053.009.076a.707.707 0 0 1-.006.166.734.734 0 0 1-.041.123 2.384 2.384 0 0 1-.289.481l-.011.015c-.011.015-.027.03-.039.045a2.742 2.742 0 0 1-.414.391 2.533 2.533 0 0 1-1.348.461c-2.473.126-4.222.127-4.83.112-1.139-.029-1.919.051-2.46.193-.963.196-1.129.569-1.184.954a1.272 1.272 0 0 0-.014.143c-.036.382.035.778.892 1.187.492.269 1.241.534 2.378.776.595.127 2.295.535 4.671 1.234a2.515 2.515 0 0 1 1.278.853c.166.225.284.451.356.649.009.025.021.052.028.075.019.057.03.107.041.157l.018.073a.832.832 0 0 1 .014.166c-.002.033-.014.08-.026.127a2.404 2.404 0 0 1-.231.512c-.003.006-.005.011-.009.016l-.033.049c-.096.145-.22.294-.366.436-.311.277-.73.521-1.286.615-2.441.412-4.178.616-4.784.671-1.135.103-1.9.274-2.421.477-.933.307-1.055.696-1.065 1.085-.001.041 0 .084.003.127v.016c.008.384.125.769 1.024 1.076.52.21 1.294.387 2.452.495.606.057 2.342.266 4.782.683a2.517 2.517 0 0 1 1.368.699c.191.204.334.415.429.604.011.023.027.049.037.071.025.055.042.103.059.151l.026.071a.743.743 0 0 1 .033.163c.002.033-.005.082-.011.129-.025.142-.08.331-.17.535l-.007.017c-.008.017-.02.035-.028.052a2.61 2.61 0 0 1-.313.476 2.53 2.53 0 0 1-1.206.759c-2.377.692-4.079 1.097-4.674 1.222-1.115.234-1.856.492-2.349.754-.892.413-.968.814-.932 1.201.004.041.01.083.018.126l.002.016c.053.38.213.749 1.142.95.541.148 1.33.234 2.492.207.608-.014 2.357-.008 4.829.124a2.525 2.525 0 0 1 1.44.535c.214.181.381.374.497.55.014.022.032.045.045.066.032.052.054.098.077.145.011.022.025.046.034.067a.842.842 0 0 1 .052.158.752.752 0 0 1 .004.13 2.373 2.373 0 0 1-.107.55l-.005.018-.021.055c-.06.164-.146.337-.256.509a2.52 2.52 0 0 1-1.11.894c-2.281.963-3.924 1.562-4.501 1.755-1.081.362-1.786.704-2.246 1.022-.838.514-.867.921-.786 1.301.009.04.019.082.032.123l.003.016c.096.372.298.719 1.244.811.555.084 1.349.078 2.5-.083.602-.084 2.34-.281 4.811-.437a2.523 2.523 0 0 1 1.493.365c.233.155.421.327.557.489.016.02.037.041.052.06.037.048.065.091.093.134.014.021.03.043.042.063.033.058.057.11.07.151.01.032.014.08.019.129.009.144-.002.339-.042.558l-.003.02c-.003.018-.011.038-.014.056-.041.17-.107.352-.195.537a2.53 2.53 0 0 1-.998 1.017c-2.154 1.221-3.716 2.007-4.267 2.266-1.032.485-1.693.907-2.112 1.275-.772.607-.754 1.015-.63 1.384.013.039.029.079.046.118l.005.015c.139.358.38.68 1.331.661.561.019 1.348-.079 2.473-.373.588-.154 2.292-.551 4.728-.992a2.52 2.52 0 0 1 1.525.189c.249.126.456.276.61.421.019.018.042.037.059.055.042.043.075.082.107.122l.049.058c.04.054.07.103.087.142a.784.784 0 0 1 .034.125c.025.142.038.338.023.561l-.001.019c-.001.019-.006.04-.008.058a2.699 2.699 0 0 1-.132.554 2.53 2.53 0 0 1-.874 1.126c-1.998 1.463-3.458 2.424-3.975 2.745-.968.601-1.576 1.097-1.95 1.512-.697.693-.631 1.096-.465 1.447.018.037.038.075.06.112l.007.015c.179.339.456.631 1.398.502.559-.046 1.33-.235 2.413-.657.567-.221 2.212-.813 4.581-1.534a2.519 2.519 0 0 1 1.537.011c.262.097.484.221.653.347.021.016.046.032.065.047.047.038.083.073.12.108l.056.052a.801.801 0 0 1 .103.131c.017.029.032.075.048.121.042.138.077.331.088.554l.001.019c.001.018-.002.04-.001.058 0 .174-.022.367-.066.566a2.525 2.525 0 0 1-.737 1.22c-1.814 1.684-3.154 2.809-3.63 3.188-.892.71-1.438 1.272-1.761 1.728-.612.769-.5 1.162-.294 1.492a1.383 1.383 0 0 0 .081.118c.217.316.526.574 1.446.337.55-.11 1.294-.387 2.321-.933.537-.285 2.103-1.064 4.372-2.055a2.528 2.528 0 0 1 1.527-.168c.272.066.508.163.691.269.022.013.049.026.07.039.051.032.092.063.132.094.02.015.044.031.062.046a.752.752 0 0 1 .117.118c.02.027.041.071.062.114.057.133.114.32.151.54l.004.019c.003.018.003.039.006.058.02.173.02.367 0 .57-.06.412-.225.868-.591 1.297-1.607 1.884-2.807 3.156-3.236 3.587-.804.808-1.281 1.43-1.549 1.92-.518.835-.362 1.212-.119 1.516.026.032.054.064.084.095l.01.013c.253.289.59.509 1.477.167.533-.173 1.24-.535 2.196-1.195.5-.346 1.966-1.301 4.104-2.548a2.526 2.526 0 0 1 1.497-.344c.278.034.523.103.717.187.024.011.052.02.075.031.054.026.098.052.142.078.022.013.047.025.066.038a.751.751 0 0 1 .13.104.758.758 0 0 1 .075.106c.072.125.151.304.213.518l.006.02c.005.017.007.038.012.056.04.17.063.363.066.568a2.536 2.536 0 0 1-.436 1.356c-1.377 2.057-2.422 3.46-2.797 3.938-.704.896-1.106 1.569-1.316 2.087-.418.889-.219 1.246.057 1.52a1.564 1.564 0 0 0 .106.096c.285.258.644.437 1.485-.006.51-.234 1.17-.675 2.044-1.442.457-.401 1.801-1.52 3.781-3.007a2.524 2.524 0 0 1 1.447-.515c.28.001.532.042.734.103.025.008.053.014.077.022.057.019.104.04.15.061.023.01.05.02.07.03.06.03.109.061.141.088a.738.738 0 0 1 .086.097c.086.116.185.284.271.49l.008.018c.007.017.012.037.019.055.059.164.104.353.131.556a2.53 2.53 0 0 1-.276 1.398c-1.129 2.203-2.004 3.718-2.322 4.236-.596.971-.916 1.687-1.065 2.225-.312.932-.073 1.263.233 1.503.033.026.067.05.104.073l.013.01c.313.223.691.36 1.475-.178.479-.292 1.084-.806 1.862-1.669.407-.452 1.613-1.719 3.407-3.425a2.525 2.525 0 0 1 1.379-.68c.277-.031.531-.02.739.017l.08.013c.058.013.107.028.155.043.025.007.052.014.074.022a.759.759 0 0 1 .15.071.697.697 0 0 1 .097.086c.099.105.217.261.327.455l.01.017c.009.016.016.036.025.052.078.156.144.338.195.536a2.53 2.53 0 0 1-.112 1.421c-.866 2.319-1.559 3.925-1.815 4.477-.479 1.034-.715 1.782-.799 2.334-.202.962.074 1.263.406 1.466.035.022.073.042.111.061l.014.008c.336.185.728.277 1.444-.348.442-.345.983-.927 1.656-1.874.352-.496 1.403-1.894 2.986-3.797a2.526 2.526 0 0 1 1.29-.835c.272-.063.527-.082.738-.069.026.002.055.001.08.004.06.006.11.015.16.025.025.004.053.008.075.013.065.016.12.034.158.053.03.015.068.045.106.074.111.093.246.235.378.415l.011.014c.011.015.021.034.032.05.095.146.182.318.255.509.131.395.188.877.054 1.424-.591 2.404-1.093 4.08-1.283 4.657-.356 1.083-.503 1.853-.523 2.411-.089.979.22 1.245.573 1.408.038.017.077.033.118.048l.015.007c.355.145.755.191 1.394-.513.399-.394.869-1.034 1.428-2.054.292-.533 1.173-2.044 2.526-4.118a2.531 2.531 0 0 1 1.184-.979c.263-.094.514-.142.726-.154.026-.001.055-.005.079-.005.06-.001.111.002.162.006l.076.004c.066.008.123.02.163.035.031.011.073.037.114.062.121.079.272.205.424.369l.012.012c.013.014.025.032.038.047.112.134.218.295.312.476.176.377.289.849.218 1.408-.308 2.457-.613 4.179-.734 4.775-.228 1.117-.285 1.898-.24 2.455.025.983.363 1.212.733 1.333.039.013.08.024.122.034l.016.005c.37.103.772.102 1.325-.671.351-.438.743-1.128 1.18-2.205.229-.564.928-2.166 2.031-4.383a2.516 2.516 0 0 1 1.063-1.109c.25-.124.493-.201.701-.237.026-.004.055-.012.08-.015.059-.008.11-.011.161-.013l.076-.005c.067 0 .124.005.166.015a.834.834 0 0 1 .121.048c.129.065.293.172.463.317l.014.011c.014.012.028.029.042.041.126.12.251.268.366.437.219.354.385.81.381 1.373-.022 2.476-.124 4.222-.175 4.828-.097 1.135-.063 1.919.046 2.467.139.973.501 1.161.882 1.238.041.008.083.014.126.019l.016.003c.379.059.779.012 1.238-.82.297-.476.607-1.207.916-2.327.162-.586.671-2.26 1.509-4.589.091-.252.214-.459.348-.645l-.159.667c.396-1.11 1.491-1.525 2.023-1.597.134.05.303.134.483.255l.016.01c.015.01.031.025.046.036.438.328.914.895 1.005 1.73.268 2.461.371 4.207.39 4.815.103 3.194.692 3.504 1.294 3.554.081.007.165.007.253-.004.081.019.161.027.238.03.603.02 1.225-.218 1.7-3.378.09-.601.396-2.323.95-4.737.219-.954.912-1.484 1.425-1.715.037-.016.076-.037.111-.05.04-.016.075-.025.111-.036.038-.012.078-.026.112-.035.514.126 1.574.667 1.841 1.828l-.082-.701c.114.202.214.426.275.69.56 2.412.87 4.133.962 4.734.168 1.097.378 1.839.606 2.346.367.951.77 1.053 1.164 1.038.041-.002.084-.005.127-.011l.018-.001c.388-.032.77-.177 1.022-1.13.171-.531.295-1.302.331-2.435.02-.608.122-2.354.39-4.815a2.524 2.524 0 0 1 .588-1.378c.19-.208.391-.367.576-.478.035-.02.072-.045.105-.063.038-.02.071-.034.107-.049.037-.017.074-.034.107-.047a.775.775 0 0 1 .157-.042c.032-.004.079 0 .126.003.167.018.4.079.65.182.162.072.331.168.498.292.316.256.616.62.8 1.133.836 2.33 1.344 4.004 1.505 4.59.294 1.071.589 1.783.874 2.26.475.901.887.956 1.276.895.041-.006.083-.015.125-.025l.018-.003c.382-.077.745-.265.884-1.242.108-.547.142-1.328.046-2.456-.051-.606-.152-2.352-.172-4.828a2.516 2.516 0 0 1 .424-1.436 2.6 2.6 0 0 1 .517-.542c.032-.024.066-.053.097-.074.035-.024.067-.041.099-.061.035-.021.07-.043.101-.06a.792.792 0 0 1 .151-.06c.031-.007.079-.009.125-.011.168-.001.406.032.667.106.17.053.349.129.529.232.344.218.683.545.926 1.033 1.101 2.218 1.8 3.821 2.028 4.385.416 1.029.792 1.703 1.13 2.143.577.84.992.847 1.372.741.04-.011.081-.025.121-.04l.017-.005c.37-.121.709-.35.734-1.336.044-.556-.013-1.335-.239-2.445-.121-.596-.424-2.319-.731-4.775a2.524 2.524 0 0 1 .254-1.476c.137-.246.296-.448.451-.598.029-.028.059-.06.087-.085.033-.028.062-.049.092-.072.032-.025.064-.051.093-.071a.766.766 0 0 1 .143-.077c.03-.011.077-.018.123-.026a2.483 2.483 0 0 1 1.227.197c.367.176.742.462 1.039.918 1.351 2.075 2.231 3.586 2.523 4.12.533.974.984 1.599 1.371 1.998.67.768 1.083.726 1.449.577.038-.016.077-.034.115-.053l.017-.007c.354-.163.664-.43.574-1.412-.021-.558-.168-1.324-.521-2.4-.189-.578-.69-2.254-1.28-4.658a2.516 2.516 0 0 1 .081-1.495c.108-.26.242-.479.378-.646.026-.031.052-.067.078-.095.029-.032.055-.055.082-.082.029-.028.058-.058.085-.082a.822.822 0 0 1 .133-.093c.029-.015.075-.027.119-.04.163-.04.402-.063.673-.051.178.012.37.045.569.104.384.133.79.373 1.138.791 1.582 1.904 2.632 3.303 2.984 3.799.642.905 1.163 1.474 1.594 1.825.755.685 1.16.595 1.506.405.036-.02.073-.042.109-.067l.016-.009c.333-.203.609-.504.406-1.469-.086-.551-.321-1.296-.796-2.324-.255-.552-.947-2.158-1.812-4.478a2.528 2.528 0 0 1-.093-1.495c.077-.271.185-.505.301-.687.022-.034.044-.072.065-.103.025-.035.048-.062.073-.091a.82.82 0 0 1 .196-.199c.027-.018.071-.036.114-.054.158-.058.393-.109.664-.129a2.7 2.7 0 0 1 .576.037c.397.087.828.278 1.223.654 1.793 1.708 2.997 2.976 3.404 3.427.743.825 1.326 1.329 1.795 1.628.829.593 1.221.457 1.543.228.034-.024.067-.05.1-.079l.015-.011c.307-.24.547-.572.233-1.507-.149-.538-.469-1.25-1.06-2.216-.318-.519-1.191-2.034-2.319-4.238a2.52 2.52 0 0 1-.266-1.474c.045-.278.125-.522.219-.717.018-.036.035-.077.053-.11.021-.038.041-.067.062-.1.021-.034.043-.069.063-.098a.76.76 0 0 1 .108-.121.694.694 0 0 1 .107-.066c.15-.076.378-.154.644-.205.175-.029.369-.041.576-.03.405.04.855.18 1.291.508 1.979 1.488 3.322 2.608 3.779 3.009.834.733 1.472 1.167 1.971 1.409.892.492 1.266.312 1.559.047.031-.028.061-.058.09-.09l.013-.012c.277-.274.477-.631.057-1.523-.211-.517-.611-1.187-1.31-2.078-.376-.478-1.419-1.882-2.795-3.94a2.526 2.526 0 0 1-.435-1.434c.012-.281.064-.533.134-.736.014-.038.026-.081.04-.116.016-.04.033-.071.05-.105.017-.037.035-.074.052-.105a.805.805 0 0 1 .093-.133c.022-.023.061-.051.098-.078a2.52 2.52 0 0 1 .616-.278c.171-.049.362-.084.569-.096.407-.007.87.08 1.341.355 2.138 1.249 3.602 2.205 4.103 2.551.913.631 1.597.988 2.122 1.17.943.386 1.294.163 1.554-.134.027-.031.054-.065.079-.1l.012-.014c.243-.304.4-.682-.12-1.519-.269-.489-.745-1.109-1.543-1.912-.429-.432-1.628-1.705-3.233-3.589a2.512 2.512 0 0 1-.598-1.374c-.02-.281.002-.536.048-.746.009-.04.016-.084.027-.12.011-.041.024-.074.037-.11.013-.039.026-.078.039-.111a.863.863 0 0 1 .077-.143.726.726 0 0 1 .088-.089c.128-.109.332-.237.58-.348.164-.068.35-.125.554-.162a2.545 2.545 0 0 1 1.373.197c2.268.992 3.834 1.772 4.371 2.057.98.521 1.701.796 2.243.916.982.273 1.304.012 1.527-.313.023-.034.046-.07.067-.108l.01-.015c.206-.33.318-.724-.296-1.495-.324-.454-.868-1.014-1.754-1.72-.476-.379-1.814-1.504-3.628-3.19a2.525 2.525 0 0 1-.754-1.295 2.613 2.613 0 0 1-.039-.748c.005-.04.007-.084.013-.122.007-.043.016-.077.024-.114a.828.828 0 0 1 .086-.265.707.707 0 0 1 .078-.099 2.54 2.54 0 0 1 .535-.412c.155-.087.333-.165.531-.225a2.536 2.536 0 0 1 1.387.036c2.368.722 4.014 1.315 4.58 1.536 1.034.404 1.782.593 2.334.65 1.007.158 1.297-.14 1.481-.488a1.744 1.744 0 0 0 .062-.131c.167-.352.232-.756-.467-1.451-.375-.414-.98-.907-1.942-1.505-.516-.321-1.977-1.284-3.974-2.747a2.522 2.522 0 0 1-.899-1.199 2.642 2.642 0 0 1-.126-.738c0-.04-.003-.085-.002-.123.002-.042.007-.077.01-.114.004-.041.007-.083.013-.118a.845.845 0 0 1 .042-.157c.013-.03.04-.069.066-.107.1-.135.268-.307.483-.472a2.67 2.67 0 0 1 .503-.286c.38-.145.844-.222 1.38-.124 2.436.442 4.139.84 4.727.994 1.074.281 1.838.382 2.394.375 1.019.04 1.272-.289 1.415-.657.015-.039.028-.079.04-.121l.007-.017c.124-.369.143-.778-.632-1.386-.42-.367-1.079-.787-2.104-1.27-.55-.259-2.112-1.046-4.265-2.268a2.526 2.526 0 0 1-1.032-1.086 2.62 2.62 0 0 1-.21-.719c-.005-.04-.013-.084-.016-.121-.003-.043-.002-.079-.003-.117-.001-.04-.002-.081-.001-.117a.755.755 0 0 1 .024-.161.692.692 0 0 1 .053-.114c.083-.146.231-.336.426-.525.131-.121.286-.238.466-.342.36-.188.813-.318 1.357-.284 2.471.157 4.209.354 4.811.439 1.099.155 1.871.167 2.421.094 1.016-.079 1.229-.435 1.328-.817a1.532 1.532 0 0 0 .031-.143c.081-.381.052-.789-.789-1.304-.46-.316-1.162-.657-2.236-1.017-.577-.193-2.219-.793-4.5-1.758a2.517 2.517 0 0 1-1.151-.959 2.634 2.634 0 0 1-.292-.689c-.009-.039-.023-.082-.03-.119a1.338 1.338 0 0 1-.016-.116c-.005-.04-.012-.081-.015-.116a.808.808 0 0 1 .005-.162c.006-.032.023-.076.039-.12.066-.155.19-.36.362-.57.116-.135.257-.269.423-.394a2.542 2.542 0 0 1 1.315-.44c2.472-.131 4.221-.136 4.829-.122 1.11.026 1.877-.052 2.416-.187 1-.196 1.17-.574 1.225-.965a1.303 1.303 0 0 0 .013-.145c.036-.388-.04-.79-.935-1.204-.493-.261-1.231-.517-2.339-.751-.595-.125-2.296-.531-4.673-1.224a2.523 2.523 0 0 1-1.254-.819 2.632 2.632 0 0 1-.371-.651c-.014-.038-.032-.078-.043-.114-.013-.041-.02-.075-.03-.112-.01-.039-.021-.08-.028-.114a.79.79 0 0 1-.014-.162c.002-.032.014-.078.025-.123.063-.161.163-.379.309-.608zm-70.341 54.653c-31.983 0-57.91-25.927-57.91-57.91s25.927-57.91 57.91-57.91c31.983 0 57.91 25.927 57.91 57.91s-25.927 57.91-57.91 57.91z" clip-path="url(#b)" fill="#b5b7ba"/><g clip-path="url(#b)"><linearGradient id="c" gradientUnits="userSpaceOnUse" x1="150" y1="29.785" x2="150" y2="270.227"><stop offset="0" stop-color="#dbdcdd"/><stop offset="1" stop-color="#8a8d92"/></linearGradient><path d="M234.91 83.17c2.406-2.834 4.203-4.749 4.845-5.398 1.173-1.185 1.879-2.103 2.286-2.831.817-1.293.579-1.87.209-2.332a2.08 2.08 0 0 0-.126-.143l-.018-.022c-.386-.439-.903-.77-2.278-.22-.793.27-1.834.81-3.231 1.78-.75.521-2.947 1.96-6.153 3.84a3.784 3.784 0 0 1-2.187.525 3.953 3.953 0 0 1-1.092-.266c-.056-.024-.119-.046-.171-.071-.058-.028-.102-.055-.152-.083-.054-.03-.109-.059-.155-.088a1.132 1.132 0 0 1-.191-.152c-.033-.035-.071-.096-.109-.154a3.81 3.81 0 0 1-.362-.948 4.024 4.024 0 0 1-.094-.86c.026-.61.197-1.297.65-1.979 2.061-3.094 3.623-5.204 4.186-5.923 1.027-1.313 1.622-2.307 1.942-3.077.661-1.379.358-1.924-.063-2.34a1.941 1.941 0 0 0-.142-.127l-.02-.02c-.434-.391-.987-.66-2.288.046-.756.36-1.727 1.018-3.003 2.143-.685.604-2.699 2.289-5.666 4.528a3.788 3.788 0 0 1-2.112.775 3.934 3.934 0 0 1-1.115-.138c-.058-.017-.123-.032-.177-.05-.061-.021-.109-.043-.162-.065-.057-.023-.115-.046-.163-.069a1.088 1.088 0 0 1-.207-.129c-.037-.031-.082-.087-.126-.141a3.77 3.77 0 0 1-.469-.898 4.022 4.022 0 0 1-.194-.847 3.808 3.808 0 0 1 .417-2.039c1.688-3.312 2.995-5.59 3.471-6.369.867-1.423 1.343-2.478 1.572-3.28.497-1.448.133-1.954-.334-2.318a2.056 2.056 0 0 0-.156-.11l-.022-.017c-.477-.338-1.057-.541-2.267.311-.709.445-1.597 1.211-2.733 2.477-.61.679-2.416 2.586-5.103 5.155a3.793 3.793 0 0 1-2.007 1.015 3.913 3.913 0 0 1-1.124-.008c-.06-.01-.127-.017-.182-.03-.062-.014-.112-.03-.166-.045-.06-.016-.121-.032-.172-.05a1.155 1.155 0 0 1-.221-.104c-.04-.027-.091-.077-.141-.125a3.818 3.818 0 0 1-.571-.839 3.953 3.953 0 0 1-.29-.817 3.812 3.812 0 0 1 .177-2.074c1.292-3.486 2.326-5.899 2.708-6.729.697-1.514 1.047-2.617 1.181-3.441.326-1.496-.094-1.956-.601-2.263a2.064 2.064 0 0 0-.168-.091l-.024-.014c-.513-.281-1.112-.415-2.215.571-.653.525-1.446 1.389-2.428 2.778-.527.746-2.099 2.849-4.47 5.712a3.788 3.788 0 0 1-1.876 1.241c-.41.103-.795.137-1.118.123-.06-.003-.127-.003-.182-.008-.064-.006-.116-.017-.173-.026-.06-.009-.122-.018-.174-.029a1.17 1.17 0 0 1-.231-.077c-.043-.022-.1-.066-.155-.108a3.79 3.79 0 0 1-.664-.766 3.97 3.97 0 0 1-.383-.778 3.805 3.805 0 0 1-.065-2.082c.879-3.612 1.626-6.129 1.909-6.998.516-1.585.736-2.722.773-3.555.15-1.523-.321-1.932-.859-2.178a1.885 1.885 0 0 0-.178-.071l-.025-.011c-.542-.219-1.153-.283-2.134.825-.588.597-1.275 1.547-2.089 3.04-.437.802-1.754 3.073-3.777 6.192a3.79 3.79 0 0 1-1.719 1.45 3.97 3.97 0 0 1-1.097.252c-.06.004-.126.012-.182.013-.064.001-.117-.003-.174-.006-.061-.002-.124-.004-.177-.009a1.175 1.175 0 0 1-.238-.05c-.045-.017-.107-.054-.166-.089a3.815 3.815 0 0 1-.749-.684 3.99 3.99 0 0 1-.471-.728 3.808 3.808 0 0 1-.306-2.059c.454-3.689.904-6.277 1.084-7.172.329-1.634.415-2.789.356-3.621-.028-1.53-.543-1.881-1.106-2.063a2.064 2.064 0 0 0-.184-.05l-.026-.008c-.564-.155-1.178-.147-2.024 1.067-.515.661-1.087 1.684-1.722 3.262-.341.847-1.386 3.256-3.033 6.589a3.792 3.792 0 0 1-1.54 1.64 3.953 3.953 0 0 1-1.06.377c-.059.011-.124.027-.179.034-.064.009-.118.01-.176.015-.06.005-.122.01-.175.011a1.215 1.215 0 0 1-.243-.022c-.047-.011-.112-.041-.176-.069a3.786 3.786 0 0 1-.823-.593 3.968 3.968 0 0 1-.552-.669 3.81 3.81 0 0 1-.543-2.01c.023-3.717.17-6.339.245-7.249.137-1.661.089-2.818-.067-3.637-.205-1.516-.757-1.805-1.338-1.921a1.867 1.867 0 0 0-.189-.028l-.027-.005c-.578-.089-1.187-.01-1.886 1.294-.435.716-.885 1.799-1.333 3.441-.24.881-.999 3.395-2.248 6.896a3.79 3.79 0 0 1-1.338 1.807 3.932 3.932 0 0 1-1.009.498c-.058.017-.12.041-.174.055-.063.016-.116.024-.173.035-.059.012-.12.025-.172.032a1.086 1.086 0 0 1-.244.006c-.048-.006-.116-.028-.183-.048a3.801 3.801 0 0 1-.886-.493 3.974 3.974 0 0 1-.626-.6 3.815 3.815 0 0 1-.772-1.933c-.409-3.695-.567-6.316-.598-7.229-.056-1.665-.239-2.809-.488-3.604-.38-1.483-.962-1.706-1.552-1.754a2 2 0 0 0-.191-.006l-.028-.002c-.584-.021-1.18.128-1.724 1.505-.348.762-.67 1.89-.924 3.571-.137.903-.598 3.488-1.433 7.11a3.797 3.797 0 0 1-1.12 1.951c-.337.29-.683.501-.989.633-.036.015-.075.036-.11.049a2.373 2.373 0 0 1-.232.075c-.036.011-.076.025-.109.034a1.142 1.142 0 0 1-.247.035c-.048 0-.118-.014-.187-.027a3.809 3.809 0 0 1-.938-.387 3.976 3.976 0 0 1-.643-.482 3.8 3.8 0 0 1-1.036-1.872c-.835-3.622-1.296-6.208-1.432-7.11-.256-1.692-.58-2.823-.93-3.585-.543-1.372-1.138-1.521-1.722-1.5a2.086 2.086 0 0 0-.19.016l-.024.001c-.574.046-1.141.256-1.522 1.632-.268.798-.464 1.974-.523 3.718-.031.913-.189 3.534-.598 7.229a3.787 3.787 0 0 1-.925 2.113 3.94 3.94 0 0 1-.868.698c-.034.019-.07.044-.102.061-.08.043-.152.073-.223.102l-.103.046a1.139 1.139 0 0 1-.242.064c-.05.006-.123 0-.195-.005a3.569 3.569 0 0 1-.817-.207l-.026-.009c-.026-.01-.054-.026-.081-.037a4.042 4.042 0 0 1-.742-.427 3.799 3.799 0 0 1-1.246-1.739c-1.249-3.501-2.007-6.015-2.248-6.896-.45-1.651-.903-2.738-1.34-3.454-.698-1.3-1.307-1.378-1.884-1.289a1.88 1.88 0 0 0-.187.038l-.024.004c-.565.113-1.104.386-1.322 1.796-.174.824-.232 2.015-.089 3.754.075.91.222 3.532.245 7.249a3.784 3.784 0 0 1-.673 2.206 3.92 3.92 0 0 1-.78.793c-.032.023-.065.053-.096.074a2.656 2.656 0 0 1-.208.127c-.033.019-.068.042-.098.058-.09.045-.17.077-.233.092-.049.012-.122.015-.194.018a3.622 3.622 0 0 1-.836-.111l-.026-.006c-.027-.007-.057-.02-.085-.027a3.988 3.988 0 0 1-.786-.338 3.806 3.806 0 0 1-1.439-1.583c-1.647-3.333-2.691-5.742-3.032-6.589-.639-1.587-1.215-2.614-1.731-3.275-.844-1.21-1.458-1.217-2.021-1.063-.06.016-.12.036-.181.059l-.024.007c-.548.177-1.052.511-1.105 1.937-.077.839.003 2.028.348 3.739.18.895.63 3.482 1.084 7.172a3.79 3.79 0 0 1-.413 2.27 3.946 3.946 0 0 1-.684.879c-.028.026-.058.058-.085.082-.068.06-.13.105-.192.151l-.091.069a1.16 1.16 0 0 1-.22.118 1.147 1.147 0 0 1-.191.04 3.552 3.552 0 0 1-.842-.014l-.028-.003c-.028-.004-.059-.013-.087-.017a4.035 4.035 0 0 1-.82-.245 3.804 3.804 0 0 1-1.613-1.406c-2.022-3.119-3.339-5.391-3.776-6.193-.819-1.502-1.51-2.455-2.1-3.052-.979-1.104-1.589-1.04-2.13-.821-.057.023-.115.05-.173.08l-.023.009c-.524.24-.985.63-.872 2.054.021.842.239 2.014.779 3.673.283.868 1.03 3.386 1.908 6.998.219.9.093 1.681-.147 2.302a3.926 3.926 0 0 1-.577.952c-.025.03-.051.066-.076.093-.06.067-.117.119-.173.171-.028.026-.057.057-.083.08a1.195 1.195 0 0 1-.205.143 1.281 1.281 0 0 1-.185.062 3.557 3.557 0 0 1-.84.084h-.026c-.028 0-.061-.006-.09-.007a3.974 3.974 0 0 1-.841-.148 3.802 3.802 0 0 1-1.766-1.209c-2.37-2.864-3.942-4.967-4.469-5.713-.987-1.397-1.784-2.264-2.44-2.788-1.101-.983-1.699-.848-2.211-.568-.055.03-.109.063-.163.099l-.021.012c-.493.299-.905.74-.628 2.14.118.834.47 1.973 1.2 3.558.382.83 1.416 3.243 2.707 6.729.322.87.288 1.66.121 2.304a3.96 3.96 0 0 1-.462 1.012c-.022.032-.043.071-.065.101a2.337 2.337 0 0 1-.152.19c-.025.029-.05.063-.074.089-.069.073-.134.13-.187.165a1.248 1.248 0 0 1-.177.083 3.601 3.601 0 0 1-.822.181l-.029.004c-.027.003-.059.001-.087.003a4.056 4.056 0 0 1-.856-.049 3.795 3.795 0 0 1-1.893-.996c-2.687-2.569-4.492-4.476-5.102-5.156-1.143-1.274-2.035-2.042-2.747-2.486-1.207-.848-1.786-.645-2.262-.308a2.025 2.025 0 0 0-.15.117l-.02.014c-.455.354-.814.84-.376 2.199.214.814.696 1.905 1.604 3.395.475.78 1.782 3.057 3.47 6.37.421.826.478 1.615.387 2.274-.074.414-.2.776-.342 1.06-.018.034-.034.075-.052.107-.044.08-.088.145-.131.209-.02.031-.041.066-.06.093-.06.081-.118.145-.167.186a1.133 1.133 0 0 1-.166.103 3.6 3.6 0 0 1-.796.275l-.028.007c-.027.006-.059.008-.087.014a4.024 4.024 0 0 1-.854.05 3.802 3.802 0 0 1-1.997-.77c-2.966-2.24-4.981-3.925-5.665-4.529-1.283-1.132-2.258-1.792-3.017-2.151-1.297-.703-1.848-.434-2.282-.043a1.892 1.892 0 0 0-.135.134l-.018.017c-.41.404-.711.929-.118 2.228.307.784.912 1.811 1.987 3.186.563.719 2.125 2.83 4.185 5.924.514.772.663 1.55.648 2.215a3.968 3.968 0 0 1-.216 1.09c-.014.037-.026.08-.04.114-.034.084-.069.152-.104.22-.017.034-.034.073-.051.103-.051.087-.1.158-.144.204-.034.036-.094.079-.152.121-.181.12-.443.254-.76.366l-.026.01c-.026.009-.058.015-.085.024a4.024 4.024 0 0 1-.843.149 3.799 3.799 0 0 1-2.072-.533c-3.206-1.881-5.402-3.321-6.152-3.842-1.406-.976-2.45-1.518-3.245-1.786-1.37-.548-1.887-.217-2.272.222a2.219 2.219 0 0 0-.119.149l-.016.018c-.361.449-.598 1.005.141 2.226.396.743 1.116 1.693 2.344 2.934.642.649 2.439 2.564 4.844 5.399.6.707.838 1.462.901 2.124.023.419-.015.8-.089 1.109-.009.038-.016.081-.026.117a2.258 2.258 0 0 1-.079.233c-.013.035-.025.074-.038.106-.04.092-.081.168-.12.22-.03.04-.084.089-.138.138-.166.14-.411.303-.713.452l-.023.012c-.026.012-.057.022-.083.034-.24.103-.517.187-.818.245a3.8 3.8 0 0 1-2.121-.289c-3.403-1.496-5.751-2.672-6.556-3.102-1.509-.806-2.61-1.223-3.431-1.398-1.424-.385-1.899.003-2.231.484a2.124 2.124 0 0 0-.101.162l-.014.02c-.306.488-.478 1.068.399 2.195.48.692 1.305 1.552 2.668 2.642.713.57 2.72 2.264 5.437 4.8a3.78 3.78 0 0 1 1.141 2.004c.072.413.078.796.041 1.111-.005.039-.007.084-.013.121a2.456 2.456 0 0 1-.051.238c-.009.037-.016.078-.026.111a1.144 1.144 0 0 1-.093.232 1.124 1.124 0 0 1-.121.153 3.59 3.59 0 0 1-.653.53c-.009.005-.015.011-.024.017-.023.015-.052.028-.076.042a3.948 3.948 0 0 1-.786.339 3.8 3.8 0 0 1-2.14-.041c-3.553-1.092-6.022-1.987-6.872-2.321-1.592-.626-2.734-.912-3.569-.99-1.46-.217-1.886.224-2.161.739a2.119 2.119 0 0 0-.081.173l-.011.021c-.248.52-.35 1.116.65 2.134.557.632 1.476 1.39 2.957 2.315.774.484 2.964 1.933 5.958 4.137a3.788 3.788 0 0 1 1.366 1.86c.119.401.169.78.169 1.097 0 .04.003.085.001.123-.003.09-.013.165-.023.241-.004.038-.007.081-.013.115-.018.099-.04.182-.066.241-.02.046-.061.106-.102.166a3.6 3.6 0 0 1-.588.603l-.022.019c-.022.018-.049.034-.072.051a4.03 4.03 0 0 1-.74.428 3.802 3.802 0 0 1-2.13.208c-3.656-.672-6.212-1.275-7.095-1.508-1.654-.437-2.821-.589-3.66-.569-1.475-.046-1.847.441-2.06.985a1.92 1.92 0 0 0-.061.181l-.009.023c-.185.546-.219 1.149.893 2.044.626.563 1.628 1.21 3.205 1.956.825.391 3.168 1.577 6.397 3.418a3.782 3.782 0 0 1 1.572 1.688c.165.386.259.758.296 1.073.004.039.012.082.015.119.007.091.007.168.006.245 0 .037.002.078.001.112-.006.1-.019.186-.037.247a1.104 1.104 0 0 1-.082.177 3.594 3.594 0 0 1-.514.667l-.019.021c-.019.02-.045.039-.065.059-.191.18-.424.354-.687.511a3.803 3.803 0 0 1-2.091.453c-3.709-.243-6.318-.546-7.222-.675-1.694-.242-2.871-.258-3.702-.141-1.47.125-1.784.652-1.932 1.217a2.13 2.13 0 0 0-.04.187l-.006.024c-.121.563-.084 1.167 1.124 1.927.687.486 1.757 1.013 3.41 1.571.865.292 3.33 1.198 6.751 2.653a3.787 3.787 0 0 1 1.758 1.495c.208.364.344.721.417 1.029.009.038.022.081.029.118.017.088.026.164.034.24.004.038.012.08.014.115.005.1.003.187-.008.25a1.197 1.197 0 0 1-.061.185c-.086.2-.231.455-.434.723l-.016.022c-.017.022-.041.045-.058.067-.168.2-.379.4-.622.587-.511.36-1.179.65-2.024.693-3.712.189-6.339.191-7.251.168-1.711-.044-2.882.077-3.693.289-1.446.295-1.696.855-1.777 1.433a2.309 2.309 0 0 0-.018.19l-.003.024c-.055.574.052 1.168 1.339 1.783.739.404 1.863.802 3.57 1.165.893.19 3.446.804 7.013 1.852.89.262 1.503.762 1.92 1.281.249.337.426.677.534.975.013.037.031.078.043.113.028.086.045.161.062.236.009.037.02.077.027.11.017.099.025.185.021.249-.003.05-.021.121-.039.191a3.61 3.61 0 0 1-.347.768l-.013.024c-.014.024-.035.049-.05.073-.144.218-.33.441-.55.655a3.798 3.798 0 0 1-1.93.923c-3.666.618-6.274.925-7.183 1.008-1.704.155-2.854.411-3.635.716-1.401.46-1.585 1.046-1.599 1.629-.001.062 0 .126.005.191v.024c.012.576.187 1.154 1.538 1.615.781.315 1.943.581 3.681.743.909.085 3.516.399 7.18 1.026a3.792 3.792 0 0 1 2.055 1.049c.287.306.502.623.644.907.017.035.04.073.055.107.038.082.063.155.089.227.013.035.029.074.04.107.028.096.046.181.049.245.003.05-.007.122-.017.194-.037.214-.12.496-.256.804l-.01.025c-.012.026-.029.053-.042.079a4.04 4.04 0 0 1-.47.715 3.796 3.796 0 0 1-1.81 1.14c-3.569 1.039-6.124 1.646-7.018 1.834-1.675.352-2.786.739-3.527 1.133-1.339.62-1.453 1.222-1.399 1.804.006.062.015.125.027.189l.002.024c.079.571.32 1.125 1.715 1.426.812.222 1.997.351 3.742.311.913-.021 3.539-.012 7.251.186a3.782 3.782 0 0 1 2.162.803c.321.271.572.561.746.827.021.033.048.068.067.099.047.078.081.148.115.217.017.033.037.069.051.1a1.2 1.2 0 0 1 .078.238c.009.049.007.122.006.195a3.611 3.611 0 0 1-.16.826c-.003.01-.004.018-.008.028-.008.026-.023.055-.032.082-.09.246-.22.506-.384.765a3.797 3.797 0 0 1-1.666 1.343c-3.425 1.446-5.892 2.346-6.758 2.636-1.623.544-2.682 1.057-3.372 1.534-1.258.771-1.301 1.383-1.18 1.954.013.061.029.122.048.184l.005.024c.145.558.448 1.08 1.869 1.218.833.127 2.025.117 3.753-.125.904-.127 3.514-.422 7.224-.656a3.79 3.79 0 0 1 2.241.547c.35.232.633.491.836.734.024.03.055.061.078.091.056.072.098.137.139.201.021.032.045.065.063.095a1.2 1.2 0 0 1 .105.227c.014.048.021.121.029.193.013.216-.003.509-.063.838-.002.011-.002.019-.005.03-.005.027-.016.057-.022.084a4.08 4.08 0 0 1-.293.806 3.805 3.805 0 0 1-1.499 1.527c-3.234 1.833-5.58 3.013-6.406 3.402-1.549.728-2.541 1.361-3.171 1.915-1.16.912-1.132 1.524-.945 2.077.02.059.043.118.069.177l.008.023c.208.537.571 1.021 1.998.993.842.029 2.025-.119 3.713-.559.883-.231 3.441-.827 7.099-1.49a3.787 3.787 0 0 1 2.289.284c.374.19.685.414.915.632.028.027.063.055.089.082.063.064.112.124.16.183.024.029.053.06.074.087.06.081.105.155.13.213.02.046.035.117.051.188.038.214.057.507.034.842l-.001.028c-.002.028-.009.059-.012.088-.031.26-.097.543-.198.832a3.797 3.797 0 0 1-1.312 1.691c-2.999 2.196-5.193 3.64-5.968 4.122-1.454.903-2.366 1.647-2.928 2.27-1.046 1.04-.947 1.645-.698 2.173.027.056.057.112.09.168l.011.022c.269.509.685.948 2.099.754.839-.069 1.997-.353 3.623-.986.851-.332 3.322-1.22 6.878-2.303a3.782 3.782 0 0 1 2.308.017c.393.145.727.331.981.521.031.024.069.048.098.071.07.056.125.109.18.162.028.026.06.054.084.079.069.073.122.141.154.197.025.043.049.113.072.181.063.208.115.497.132.832l.002.029c.001.028-.002.059-.002.088a4 4 0 0 1-.1.85 3.806 3.806 0 0 1-1.107 1.832c-2.724 2.529-4.735 4.218-5.45 4.786-1.339 1.066-2.159 1.91-2.645 2.594-.918 1.154-.75 1.744-.441 2.24.033.053.069.105.108.157l.013.021c.326.475.79.862 2.172.506.826-.166 1.943-.582 3.485-1.4.807-.428 3.158-1.598 6.564-3.085a3.788 3.788 0 0 1 2.293-.252c.408.099.762.245 1.037.404.034.02.074.039.105.059.076.048.137.094.198.141.031.023.066.046.093.068.077.065.138.126.176.178.03.04.061.106.093.172.086.199.172.48.227.811l.005.028c.004.027.005.059.008.087.03.26.03.551 0 .856a3.799 3.799 0 0 1-.887 1.947c-2.412 2.828-4.214 4.739-4.858 5.386-1.207 1.214-1.923 2.148-2.326 2.883-.778 1.253-.543 1.82-.179 2.276.039.049.081.096.126.143l.015.019c.379.434.885.765 2.217.25.801-.26 1.862-.803 3.298-1.795.751-.519 2.951-1.953 6.162-3.826a3.787 3.787 0 0 1 2.247-.516c.417.05.785.155 1.077.281.036.016.079.031.113.047.081.039.147.078.213.117.033.019.07.038.1.057.084.056.152.109.195.156.034.036.073.098.112.16.109.187.226.456.319.777.003.011.007.019.009.029.007.026.011.057.018.084.06.255.094.545.099.852a3.8 3.8 0 0 1-.655 2.036c-2.068 3.089-3.636 5.196-4.2 5.913-1.057 1.345-1.66 2.356-1.975 3.133-.628 1.335-.329 1.871.086 2.282.044.044.092.086.142.128l.017.017c.427.387.968.657 2.23-.008.765-.351 1.757-1.014 3.068-2.165.686-.602 2.705-2.282 5.677-4.515a3.786 3.786 0 0 1 2.173-.773c.42.002.798.063 1.102.154.037.012.08.021.115.033.086.029.156.06.226.091.035.015.074.03.106.045.09.046.163.091.212.132.038.032.084.089.13.146.13.174.277.427.407.735.004.01.009.018.012.028.01.025.018.056.028.082.089.247.157.53.197.835a3.8 3.8 0 0 1-.414 2.099c-1.696 3.308-3.009 5.582-3.486 6.361-.894 1.458-1.376 2.532-1.599 3.341-.469 1.399-.109 1.896.35 2.256.049.038.101.075.156.11l.019.015c.469.335 1.037.54 2.214-.267.719-.438 1.627-1.211 2.796-2.507.612-.678 2.422-2.581 5.115-5.143a3.788 3.788 0 0 1 2.071-1.02 3.9 3.9 0 0 1 1.11.026c.039.007.083.012.12.02.088.019.161.042.233.064.037.011.078.021.111.033.094.035.172.071.226.107.042.028.094.079.146.13.149.158.325.392.49.684l.015.025c.013.024.024.054.038.079.117.234.217.508.292.805.127.612.128 1.34-.168 2.133-1.301 3.482-2.341 5.894-2.725 6.722-.719 1.552-1.073 2.675-1.2 3.504-.304 1.444.111 1.896.61 2.2.053.032.109.063.167.092l.021.013c.505.278 1.093.416 2.168-.522.664-.518 1.476-1.391 2.487-2.814.529-.744 2.106-2.844 4.484-5.701a3.781 3.781 0 0 1 1.937-1.253 3.936 3.936 0 0 1 1.108-.104c.039.003.083.002.12.006.09.009.166.023.241.037.037.007.079.012.113.019.098.024.18.051.237.08.044.022.102.067.16.111.166.139.37.352.568.624l.017.022c.016.023.031.052.047.075.143.219.274.478.383.764.197.593.283 1.317.081 2.139-.888 3.61-1.641 6.125-1.926 6.993-.534 1.626-.755 2.782-.786 3.62-.134 1.469.331 1.87.861 2.114.056.026.116.05.177.072l.022.01c.534.218 1.134.286 2.093-.77.599-.592 1.304-1.553 2.144-3.084.439-.801 1.762-3.069 3.792-6.183a3.783 3.783 0 0 1 1.778-1.469 3.943 3.943 0 0 1 1.089-.232c.039-.002.082-.008.119-.008.091-.002.167.003.244.009.038.002.08.003.114.006.1.012.184.03.244.052.047.017.11.055.172.092.182.119.408.307.636.554l.018.019c.019.021.037.048.056.07.168.201.327.443.469.715a3.8 3.8 0 0 1 .328 2.114c-.463 3.688-.92 6.274-1.102 7.169-.342 1.676-.428 2.85-.361 3.686.037 1.475.545 1.819 1.1 2.001.059.019.121.036.184.05l.023.007c.555.154 1.159.153 1.99-1.008.526-.657 1.115-1.694 1.771-3.311.343-.846 1.394-3.253 3.049-6.581a3.786 3.786 0 0 1 1.596-1.666c.375-.186.74-.301 1.053-.356.039-.006.083-.018.12-.022.089-.012.166-.016.242-.019.038-.002.08-.007.115-.007.101.001.187.008.249.023.049.012.115.042.181.072.194.097.441.258.696.476l.021.017c.021.018.042.043.063.062.19.18.377.402.549.656.329.532.579 1.216.571 2.062-.032 3.717-.186 6.339-.263 7.249-.145 1.705-.094 2.881.069 3.703.208 1.461.753 1.744 1.325 1.859.061.012.124.022.189.029l.024.005c.569.089 1.169.017 1.859-1.232.447-.714.911-1.812 1.375-3.494.243-.88 1.007-3.393 2.265-6.891a3.86 3.86 0 0 1 .523-.969l-.238 1.001c.595-1.667 2.239-2.29 3.037-2.398.201.075.455.201.726.383l.024.016c.023.016.046.037.069.054.658.493 1.373 1.344 1.509 2.598.402 3.695.556 6.317.586 7.23.154 4.796 1.04 5.261 1.943 5.336.121.01.248.01.38-.006.122.028.242.04.357.044.906.031 1.839-.328 2.553-5.073.136-.903.595-3.489 1.426-7.112.329-1.432 1.369-2.228 2.139-2.575.055-.024.115-.055.167-.075.06-.023.112-.037.167-.055.058-.019.116-.039.168-.052.771.19 2.364 1.001 2.764 2.745l-.123-1.053c.171.304.321.639.413 1.036.841 3.621 1.307 6.205 1.445 7.108.252 1.647.568 2.761.909 3.522.552 1.428 1.156 1.581 1.748 1.558.062-.002.126-.008.191-.016l.027-.001c.583-.048 1.157-.266 1.534-1.697.256-.798.443-1.955.497-3.656.029-.913.183-3.534.585-7.23a3.783 3.783 0 0 1 .883-2.069c.286-.312.587-.552.865-.718.052-.031.108-.068.158-.094.057-.03.107-.05.16-.074.055-.025.111-.052.16-.071a1.2 1.2 0 0 1 .236-.063c.048-.006.119 0 .189.005.251.028.6.118.976.274.244.108.498.253.748.438a3.81 3.81 0 0 1 1.201 1.702c1.255 3.499 2.018 6.012 2.26 6.892.442 1.607.885 2.678 1.312 3.394.713 1.353 1.331 1.435 1.917 1.344.061-.01.124-.022.187-.038l.027-.004c.573-.115 1.118-.399 1.327-1.864.162-.822.213-1.993.07-3.688-.077-.91-.228-3.532-.258-7.249a3.789 3.789 0 0 1 .636-2.157c.248-.343.52-.617.777-.814.048-.036.099-.08.146-.112.053-.036.1-.062.149-.091.052-.032.105-.065.152-.09.087-.043.166-.075.227-.09.047-.011.119-.014.188-.017.252-.002.61.048 1.002.159.255.079.524.194.794.348a3.817 3.817 0 0 1 1.39 1.551c1.653 3.33 2.702 5.737 3.044 6.583.625 1.545 1.189 2.557 1.697 3.218.866 1.262 1.489 1.271 2.06 1.113.06-.017.121-.037.182-.06l.026-.007c.556-.181 1.065-.526 1.102-2.006.065-.835-.02-2.004-.359-3.671-.182-.895-.636-3.481-1.097-7.17a3.789 3.789 0 0 1 .382-2.217c.206-.37.445-.673.677-.898.044-.042.089-.091.131-.127.049-.043.093-.074.138-.109.048-.037.096-.076.14-.106a1.13 1.13 0 0 1 .215-.115c.045-.017.116-.028.184-.039.25-.031.612-.023 1.014.042.262.049.543.131.829.254.55.265 1.114.693 1.56 1.379 2.028 3.115 3.349 5.385 3.788 6.186.8 1.462 1.478 2.401 2.059 2.999 1.006 1.153 1.626 1.09 2.175.867.058-.023.116-.05.173-.08l.026-.011c.531-.244.996-.646.862-2.121-.032-.837-.253-1.988-.782-3.604-.284-.868-1.036-3.384-1.921-6.994a3.786 3.786 0 0 1 .122-2.245c.162-.391.363-.719.567-.971.039-.047.078-.101.116-.143.043-.048.083-.083.124-.123.043-.043.087-.087.128-.122a1.22 1.22 0 0 1 .2-.14c.043-.022.112-.041.179-.06.245-.06.604-.094 1.011-.076.267.018.556.068.855.157a3.807 3.807 0 0 1 1.708 1.188c2.376 2.859 3.952 4.96 4.48 5.704.964 1.359 1.746 2.213 2.393 2.74 1.133 1.028 1.742.894 2.261.609.055-.03.109-.064.163-.1l.024-.013c.499-.304.915-.757.61-2.205-.129-.828-.482-1.946-1.195-3.49-.383-.829-1.422-3.241-2.72-6.724a3.78 3.78 0 0 1-.139-2.244c.115-.408.278-.758.452-1.031.033-.05.066-.108.098-.154.038-.053.073-.092.109-.137.038-.047.077-.097.112-.136.067-.07.13-.127.182-.162.04-.027.106-.054.171-.08.237-.088.59-.164.996-.193.266-.012.558.003.864.056a3.815 3.815 0 0 1 1.836.982c2.692 2.564 4.5 4.468 5.112 5.146 1.116 1.238 1.991 1.996 2.695 2.444 1.245.89 1.834.686 2.316.342a2.04 2.04 0 0 0 .15-.118l.022-.016c.461-.36.821-.858.35-2.263-.224-.807-.704-1.877-1.592-3.326-.477-.779-1.788-3.054-3.482-6.363a3.783 3.783 0 0 1-.399-2.213c.067-.418.188-.784.329-1.076.027-.054.052-.115.08-.164.031-.057.062-.101.093-.149.032-.051.064-.104.095-.147.059-.078.115-.142.162-.182.037-.031.1-.066.16-.1.225-.115.567-.231.967-.307.263-.043.554-.062.865-.045.608.06 1.284.271 1.938.763 2.971 2.234 4.988 3.915 5.674 4.518 1.252 1.1 2.21 1.751 2.96 2.115 1.34.739 1.901.468 2.34.071a2.16 2.16 0 0 0 .136-.135l.02-.018c.416-.411.716-.947.085-2.287-.316-.776-.917-1.783-1.967-3.12-.564-.718-2.13-2.826-4.196-5.916a3.791 3.791 0 0 1-.653-2.153c.018-.422.096-.8.202-1.105.021-.057.039-.121.061-.174.024-.06.049-.107.074-.158.026-.055.052-.112.078-.158.049-.084.098-.154.14-.2.033-.035.091-.077.148-.118.21-.14.537-.295.925-.418.256-.073.543-.126.854-.145.611-.01 1.307.12 2.013.533 3.21 1.875 5.409 3.31 6.16 3.829 1.371.948 2.398 1.483 3.185 1.757 1.417.579 1.942.245 2.333-.201.041-.047.081-.097.119-.15l.018-.021c.365-.457.601-1.024-.18-2.281-.404-.734-1.118-1.664-2.317-2.872-.643-.648-2.444-2.56-4.855-5.389a3.789 3.789 0 0 1-.898-2.063 3.906 3.906 0 0 1 .072-1.12c.014-.059.025-.126.04-.18.017-.062.037-.111.055-.165.02-.058.039-.118.059-.167.039-.089.079-.164.116-.214.029-.039.082-.087.133-.134.193-.163.499-.356.871-.523.246-.103.525-.188.831-.243a3.814 3.814 0 0 1 2.061.296c3.406 1.489 5.757 2.66 6.563 3.089 1.472.782 2.554 1.195 3.368 1.376 1.474.41 1.957.017 2.293-.471.035-.051.069-.106.101-.162l.016-.023c.31-.496.478-1.087-.445-2.245-.486-.682-1.303-1.523-2.634-2.582-.714-.569-2.724-2.259-5.447-4.79a3.783 3.783 0 0 1-1.131-1.944 3.946 3.946 0 0 1-.059-1.123c.007-.06.01-.127.019-.182.01-.064.024-.115.036-.172.013-.059.025-.12.039-.171.028-.093.059-.172.09-.227.024-.042.071-.096.117-.149.172-.184.453-.41.803-.619.232-.131.5-.248.798-.338a3.813 3.813 0 0 1 2.083.054c3.556 1.084 6.026 1.974 6.877 2.306 1.552.606 2.675.891 3.504.976 1.512.237 1.947-.21 2.224-.733.029-.055.056-.113.081-.173l.013-.024c.25-.529.349-1.135-.702-2.178-.562-.621-1.471-1.362-2.915-2.26-.775-.482-2.968-1.927-5.966-4.125a3.784 3.784 0 0 1-1.349-1.8 3.982 3.982 0 0 1-.189-1.108c0-.061-.005-.128-.003-.184.002-.063.01-.115.016-.172.006-.062.011-.125.019-.178.018-.096.039-.178.064-.235.019-.044.06-.103.098-.161.15-.203.403-.46.726-.708.216-.157.469-.305.756-.429a3.814 3.814 0 0 1 2.072-.187c3.657.664 6.215 1.262 7.098 1.493 1.612.422 2.76.574 3.594.562 1.529.06 1.909-.434 2.124-.986a2.4 2.4 0 0 0 .061-.181l.01-.026c.187-.554.215-1.168-.949-2.082-.63-.552-1.619-1.182-3.159-1.907-.826-.389-3.172-1.57-6.404-3.405a3.788 3.788 0 0 1-1.549-1.63 3.966 3.966 0 0 1-.316-1.08c-.007-.06-.02-.126-.024-.182-.005-.065-.004-.118-.004-.176-.001-.06-.004-.122-.001-.175.006-.097.018-.181.036-.241a1.17 1.17 0 0 1 .079-.171 3.83 3.83 0 0 1 .639-.788c.196-.181.43-.357.7-.513a3.81 3.81 0 0 1 2.037-.426c3.71.236 6.319.532 7.223.659 1.651.232 2.809.25 3.635.142 1.525-.118 1.846-.653 1.994-1.226a1.82 1.82 0 0 0 .039-.187l.007-.027c.122-.572.078-1.185-1.185-1.958-.69-.475-1.745-.986-3.358-1.527-.866-.29-3.332-1.191-6.756-2.639a3.788 3.788 0 0 1-1.728-1.44 3.941 3.941 0 0 1-.439-1.035c-.014-.059-.034-.123-.045-.178-.012-.063-.017-.117-.025-.173-.008-.06-.018-.122-.022-.175a1.15 1.15 0 0 1 .008-.244c.008-.048.034-.114.059-.18.099-.232.286-.541.543-.856a4 4 0 0 1 .635-.591 3.807 3.807 0 0 1 1.974-.66c3.712-.197 6.338-.205 7.251-.183 1.667.039 2.819-.078 3.627-.281 1.501-.294 1.757-.863 1.839-1.449.009-.062.014-.125.017-.19l.004-.027c.054-.582-.06-1.186-1.404-1.807-.741-.391-1.848-.777-3.512-1.127-.894-.188-3.448-.797-7.017-1.837a3.79 3.79 0 0 1-1.883-1.23 3.91 3.91 0 0 1-.556-.978c-.021-.057-.048-.118-.065-.171-.02-.061-.03-.113-.044-.169-.015-.059-.032-.119-.042-.172a1.228 1.228 0 0 1-.021-.243c.003-.048.021-.118.037-.185.071-.242.221-.57.44-.914.149-.221.336-.446.562-.661a3.816 3.816 0 0 1 1.884-.885c3.664-.626 6.272-.939 7.181-1.023 1.66-.155 2.791-.404 3.571-.7 1.457-.466 1.645-1.06 1.658-1.653.001-.062 0-.126-.005-.191v-.027c-.014-.585-.197-1.171-1.605-1.632-.781-.303-1.926-.557-3.619-.712-.909-.083-3.517-.391-7.183-1.011a3.787 3.787 0 0 1-2.013-1.003 3.94 3.94 0 0 1-.665-.905c-.028-.054-.062-.112-.085-.164-.027-.059-.044-.109-.064-.163-.022-.056-.045-.114-.061-.164a1.206 1.206 0 0 1-.049-.239c-.003-.048.007-.119.016-.188a3.83 3.83 0 0 1 .332-.96c.123-.237.282-.482.481-.72a3.82 3.82 0 0 1 1.769-1.098c3.567-1.047 6.12-1.66 7.014-1.85 1.631-.346 2.725-.725 3.465-1.11 1.393-.632 1.511-1.244 1.455-1.834a2.149 2.149 0 0 0-.027-.189l-.003-.027c-.081-.579-.332-1.14-1.783-1.435-.811-.21-1.977-.33-3.677-.287-.913.023-3.539.02-7.251-.171a3.783 3.783 0 0 1-2.116-.763 3.943 3.943 0 0 1-.766-.822c-.033-.051-.074-.104-.103-.152-.033-.055-.056-.104-.082-.155-.028-.054-.058-.108-.08-.157a1.162 1.162 0 0 1-.076-.232 1.222 1.222 0 0 1-.006-.189c.013-.252.084-.606.218-.99.094-.25.224-.512.395-.772a3.815 3.815 0 0 1 1.63-1.296c3.421-1.454 5.886-2.359 6.752-2.651 1.579-.533 2.622-1.036 3.312-1.504 1.311-.79 1.357-1.411 1.233-1.991a2.203 2.203 0 0 0-.049-.185l-.006-.027c-.148-.566-.462-1.094-1.938-1.218-.83-.115-2.002-.098-3.686.142-.904.129-3.513.43-7.222.672a3.79 3.79 0 0 1-2.191-.512 3.931 3.931 0 0 1-.855-.727c-.039-.047-.086-.095-.121-.14-.039-.05-.066-.095-.098-.141-.035-.051-.072-.102-.099-.149a1.107 1.107 0 0 1-.102-.221c-.014-.046-.021-.118-.028-.187a3.81 3.81 0 0 1 .101-1.008c.065-.259.163-.535.303-.814a3.815 3.815 0 0 1 1.468-1.475c3.23-1.841 5.573-3.026 6.398-3.416 1.507-.712 2.484-1.333 3.115-1.878 1.21-.937 1.184-1.559.994-2.12a2.185 2.185 0 0 0-.07-.178l-.009-.026c-.213-.545-.586-1.033-2.065-.985-.838-.018-2 .135-3.645.568-.883.233-3.439.835-7.095 1.505a3.796 3.796 0 0 1-2.235-.254 3.915 3.915 0 0 1-.935-.624c-.044-.041-.096-.084-.135-.124-.045-.046-.079-.088-.117-.132-.04-.045-.081-.091-.113-.133a1.188 1.188 0 0 1-.128-.208c-.019-.044-.034-.114-.05-.182a3.806 3.806 0 0 1-.016-1.015c.034-.264.1-.549.206-.841a3.814 3.814 0 0 1 1.287-1.637c2.994-2.203 5.184-3.652 5.959-4.136 1.414-.883 2.313-1.613 2.876-2.227 1.093-1.071.995-1.686.741-2.221a2.308 2.308 0 0 0-.09-.169l-.012-.025c-.274-.516-.702-.958-2.166-.739-.834.08-1.971.366-3.554.987-.85.334-3.319 1.228-6.873 2.319a3.79 3.79 0 0 1-2.249.007 3.944 3.944 0 0 1-1.001-.511c-.049-.036-.106-.073-.15-.108-.05-.04-.087-.077-.129-.116a3.285 3.285 0 0 1-.131-.121 1.216 1.216 0 0 1-.151-.192c-.024-.042-.047-.109-.07-.175a3.763 3.763 0 0 1-.134-1.006c.003-.267.036-.557.107-.86a3.81 3.81 0 0 1 1.089-1.775c2.718-2.536 4.725-4.229 5.439-4.799 1.302-1.041 2.11-1.87 2.599-2.546.962-1.19.793-1.79.478-2.292a2.215 2.215 0 0 0-.109-.157l-.015-.023c-.332-.481-.808-.87-2.237-.483-.819.176-1.915.592-3.415 1.393-.806.43-3.154 1.605-6.557 3.1a3.785 3.785 0 0 1-2.233.268 3.973 3.973 0 0 1-1.056-.392c-.052-.03-.111-.059-.158-.089-.055-.035-.098-.068-.145-.102-.049-.035-.1-.07-.141-.103a1.152 1.152 0 0 1-.172-.173 1.12 1.12 0 0 1-.09-.166 3.814 3.814 0 0 1-.25-.982 3.962 3.962 0 0 1 .007-.869 3.783 3.783 0 0 1 .873-1.891zM104.857 215.542c-1.825 3.076-11.721 10.142-23.596-2.705-5.496-5.946-11.169-12.421-14.981-19.379-5.809-10.605-10.188-26.711-9.742-43.748-.341-17.039 4.138-33.106 10.013-43.674 3.855-6.935 9.568-13.374 15.101-19.286 11.954-12.773 21.806-5.646 23.613-2.559.648 1.108 20.365 34.472 31.203 53.332 5.017 8.73 5.378 15.847-.077 24.882-11.244 18.621-30.878 52.033-31.534 53.137zm133.898-37.326c-2.411 7.73-5.191 15.877-9.319 22.653-6.292 10.326-17.975 22.124-32.961 30.238-14.596 8.797-30.845 12.966-42.935 13.149-7.933.12-16.364-1.618-24.249-3.463-17.034-3.986-15.774-16.081-14-19.186.637-1.115 19.712-34.849 30.648-53.653 5.062-8.704 11.049-12.568 21.601-12.349 21.747.452 60.5.796 61.784.813 3.577.046 14.639 5.096 9.431 21.798zM144.852 150a5.11 5.11 0 1 1 10.22 0 5.11 5.11 0 0 1-10.22 0zm94.043-27.744c5.118 16.729-5.971 21.72-9.547 21.747-1.284.01-40.035.48-61.787.48-10.069 0-16.419-3.233-21.535-12.465-10.543-19.027-29.728-52.698-30.359-53.817-1.757-3.115-2.953-15.216 14.103-19.111 7.894-1.803 16.335-3.495 24.267-3.333 12.089.247 28.242 4.462 42.791 13.337 14.943 8.195 26.635 20.098 32.871 30.457 4.091 6.8 6.827 14.962 9.196 22.705z" fill="url(#c)"/><linearGradient id="d" gradientUnits="userSpaceOnUse" x1="150" y1=".026" x2="150" y2="299.974"><stop offset="0" stop-color="#dbdcdd"/><stop offset="1" stop-color="#8a8d92"/></linearGradient><path d="M.024.026v299.948h299.952V.026H.024zM150 280.655c-72.159 0-130.655-58.496-130.655-130.655S77.841 19.345 150 19.345 280.655 77.841 280.655 150 222.159 280.655 150 280.655z" fill="url(#d)"/></g></svg>