<svg xmlns="http://www.w3.org/2000/svg" xmlns:xlink="http://www.w3.org/1999/xlink" viewBox="0 0 335.84 335.836"><defs><path id="a" d="M260.615 335.836H75.225c-41.25 0-75-33.75-75-75V75c0-41.25 33.75-75 75-75h185.39c41.25 0 75 33.75 75 75v185.836c0 41.25-33.75 75-75 75z"/></defs><clipPath id="b"><use xlink:href="#a" overflow="visible"/></clipPath><path clip-path="url(#b)" fill="#545454" d="M0 0h335.84v335.836H0z"/><path d="M246.634 171.565c.111-.165.251-.333.419-.493a2.85 2.85 0 0 1 1.405-.66c2.732-.467 4.677-.7 5.355-.763 1.238-.115 2.081-.301 2.663-.522 1.086-.348 1.227-.791 1.236-1.232.001-.046 0-.094-.004-.143v-.021c-.01-.436-.147-.873-1.197-1.217-.582-.226-1.436-.415-2.699-.531-.678-.062-2.623-.292-5.356-.754a2.825 2.825 0 0 1-1.501-.748 2.9 2.9 0 0 1-.496-.675c-.021-.041-.046-.084-.063-.122-.02-.044-.033-.082-.048-.122-.016-.042-.034-.085-.046-.123a.845.845 0 0 1-.036-.178.852.852 0 0 1 .012-.14c.032-.186.115-.442.247-.716.091-.177.21-.359.359-.537a2.84 2.84 0 0 1 1.319-.818c2.66-.781 4.564-1.238 5.23-1.379 1.216-.258 2.032-.541 2.584-.828 1.039-.472 1.127-.928 1.085-1.368a1.406 1.406 0 0 0-.02-.141l-.002-.02c-.061-.432-.247-.85-1.33-1.07-.605-.157-1.474-.246-2.742-.214-.681.017-2.639.015-5.407-.127a2.822 2.822 0 0 1-1.578-.569 2.935 2.935 0 0 1-.571-.613c-.025-.038-.055-.077-.077-.113-.025-.041-.042-.077-.061-.115-.021-.04-.044-.081-.06-.117a.882.882 0 0 1-.057-.173c-.006-.036-.005-.089-.005-.141a2.82 2.82 0 0 1 .162-.738c.07-.186.167-.382.294-.576.266-.37.654-.728 1.216-.966 2.551-1.084 4.389-1.759 5.035-1.977 1.178-.397 1.955-.773 2.47-1.122.977-.589 1.012-1.052.919-1.484a2.015 2.015 0 0 0-.036-.138l-.004-.02c-.11-.422-.344-.816-1.445-.908-.619-.085-1.493-.073-2.749.106-.674.096-2.619.321-5.385.501a2.823 2.823 0 0 1-1.634-.382 2.928 2.928 0 0 1-.638-.542c-.029-.035-.064-.071-.09-.105-.029-.037-.05-.071-.073-.105-.026-.038-.053-.076-.074-.111a.816.816 0 0 1-.076-.165.875.875 0 0 1-.021-.139 2.821 2.821 0 0 1 .075-.752c.048-.193.122-.399.226-.607a2.84 2.84 0 0 1 1.095-1.1c2.408-1.373 4.156-2.256 4.771-2.548 1.123-.531 1.852-.994 2.323-1.4.903-.698.883-1.163.741-1.581a1.584 1.584 0 0 0-.052-.133l-.007-.019c-.159-.406-.437-.77-1.54-.735-.625-.013-1.492.101-2.718.424-.658.174-2.565.622-5.291 1.123a2.821 2.821 0 0 1-1.667-.19 2.941 2.941 0 0 1-.697-.465c-.033-.031-.071-.062-.101-.093-.034-.035-.059-.066-.087-.099-.03-.034-.061-.068-.085-.099a.843.843 0 0 1-.095-.155.864.864 0 0 1-.037-.136 2.833 2.833 0 0 1-.012-.757c.026-.197.075-.409.154-.627.174-.421.469-.859.96-1.221 2.233-1.643 3.866-2.723 4.444-3.084 1.054-.658 1.724-1.203 2.145-1.661.815-.798.742-1.257.552-1.656a1.923 1.923 0 0 0-.067-.126l-.009-.018c-.205-.385-.523-.714-1.615-.551-.622.059-1.47.273-2.65.736-.634.249-2.475.916-5.125 1.729a2.824 2.824 0 0 1-1.677.005 2.933 2.933 0 0 1-.746-.381c-.037-.027-.079-.054-.112-.081-.037-.03-.065-.057-.096-.086-.034-.031-.069-.062-.097-.091a.875.875 0 0 1-.112-.143c-.018-.031-.035-.082-.052-.13a2.826 2.826 0 0 1-.1-.75c.002-.199.027-.415.08-.641.123-.438.366-.907.812-1.324 2.027-1.891 3.524-3.154 4.056-3.579.971-.776 1.573-1.394 1.938-1.898.717-.888.591-1.335.357-1.709a2.053 2.053 0 0 0-.081-.117l-.011-.017c-.248-.359-.603-.649-1.668-.36-.611.131-1.428.442-2.547 1.039-.601.321-2.352 1.197-4.89 2.312a2.826 2.826 0 0 1-1.665.2 2.936 2.936 0 0 1-.787-.293c-.039-.022-.083-.044-.118-.066-.041-.026-.073-.051-.108-.076-.036-.026-.074-.052-.105-.077a.9.9 0 0 1-.128-.129c-.022-.029-.044-.077-.067-.124a2.836 2.836 0 0 1-.186-.733 2.936 2.936 0 0 1 .005-.648c.072-.449.258-.943.653-1.408 1.794-2.113 3.134-3.541 3.613-4.025.874-.884 1.401-1.568 1.705-2.111.609-.965.432-1.394.156-1.739a1.845 1.845 0 0 0-.094-.107l-.013-.016c-.288-.327-.674-.574-1.698-.164-.591.201-1.367.604-2.409 1.327-.559.388-2.197 1.462-4.589 2.864a2.82 2.82 0 0 1-1.631.391 2.897 2.897 0 0 1-.814-.199c-.042-.018-.089-.035-.127-.053-.043-.021-.076-.041-.113-.062-.04-.022-.082-.044-.115-.065a.854.854 0 0 1-.142-.113c-.025-.026-.053-.071-.081-.115a2.837 2.837 0 0 1-.27-.707 2.97 2.97 0 0 1-.07-.642c.019-.455.147-.968.485-1.476 1.537-2.307 2.702-3.881 3.122-4.417.766-.979 1.21-1.72 1.448-2.295.493-1.029.267-1.435-.047-1.745a1.625 1.625 0 0 0-.106-.095l-.015-.015c-.324-.292-.736-.492-1.706.034-.564.268-1.288.759-2.239 1.598-.511.451-2.013 1.707-4.225 3.377a2.826 2.826 0 0 1-1.575.578 2.936 2.936 0 0 1-.831-.103c-.043-.013-.092-.024-.132-.038-.045-.016-.081-.032-.12-.049-.042-.017-.086-.034-.122-.051a.816.816 0 0 1-.154-.096c-.028-.023-.061-.065-.094-.105a2.84 2.84 0 0 1-.35-.67 3.008 3.008 0 0 1-.145-.632 2.842 2.842 0 0 1 .311-1.521c1.259-2.47 2.233-4.168 2.588-4.75.647-1.061 1.002-1.848 1.172-2.446.371-1.08.099-1.457-.249-1.729a1.61 1.61 0 0 0-.116-.082l-.016-.013c-.356-.252-.788-.404-1.691.232-.529.332-1.191.903-2.038 1.847-.455.507-1.801 1.929-3.805 3.844a2.831 2.831 0 0 1-1.497.757 2.91 2.91 0 0 1-.838-.006c-.045-.008-.094-.013-.136-.022-.046-.01-.083-.022-.124-.034-.044-.012-.09-.024-.128-.037a.85.85 0 0 1-.164-.077c-.03-.02-.068-.057-.105-.093a2.837 2.837 0 0 1-.426-.625 2.94 2.94 0 0 1-.216-.609 2.846 2.846 0 0 1 .132-1.547c.964-2.599 1.735-4.399 2.019-5.018.519-1.129.781-1.952.88-2.566.243-1.115-.07-1.459-.448-1.688a1.66 1.66 0 0 0-.125-.068l-.018-.01c-.382-.209-.829-.31-1.652.426-.487.391-1.079 1.035-1.811 2.071-.393.556-1.565 2.125-3.333 4.26a2.821 2.821 0 0 1-1.399.925 2.92 2.92 0 0 1-.834.091c-.045-.003-.094-.002-.136-.006-.048-.005-.087-.013-.129-.02-.045-.007-.091-.013-.13-.022a.834.834 0 0 1-.172-.058c-.032-.016-.074-.049-.116-.08a2.82 2.82 0 0 1-.495-.571 3.013 3.013 0 0 1-.286-.58 2.841 2.841 0 0 1-.049-1.552c.655-2.693 1.213-4.571 1.424-5.218.385-1.182.549-2.029.577-2.651.112-1.136-.239-1.44-.641-1.624a1.73 1.73 0 0 0-.151-.061c-.404-.164-.86-.211-1.592.615-.438.445-.951 1.154-1.558 2.267-.326.598-1.308 2.292-2.816 4.618a2.826 2.826 0 0 1-1.282 1.081c-.295.112-.577.17-.818.188-.045.003-.094.009-.136.01-.048.001-.087-.002-.13-.004-.046-.002-.092-.003-.132-.007a.87.87 0 0 1-.178-.037c-.034-.012-.08-.04-.124-.066a2.829 2.829 0 0 1-.558-.51 2.954 2.954 0 0 1-.351-.543 2.838 2.838 0 0 1-.228-1.536c.339-2.751.674-4.681.809-5.348.245-1.219.31-2.08.265-2.7-.021-1.141-.405-1.403-.825-1.539a1.446 1.446 0 0 0-.137-.037l-.02-.006c-.42-.116-.878-.11-1.509.796-.384.493-.811 1.256-1.284 2.433-.254.632-1.034 2.428-2.262 4.913a2.825 2.825 0 0 1-1.148 1.223c-.28.145-.553.236-.79.281-.044.008-.092.02-.133.025-.048.006-.088.008-.131.011a.953.953 0 0 1-.311-.008.767.767 0 0 1-.131-.052 2.852 2.852 0 0 1-.614-.442 2.96 2.96 0 0 1-.412-.499 2.841 2.841 0 0 1-.405-1.499c.017-2.772.126-4.727.183-5.406.102-1.239.066-2.102-.05-2.712-.153-1.131-.565-1.346-.998-1.433a1.594 1.594 0 0 0-.141-.021l-.02-.004c-.431-.066-.885-.007-1.407.965-.324.534-.66 1.342-.994 2.566-.179.657-.745 2.532-1.676 5.143a2.83 2.83 0 0 1-.998 1.348 2.92 2.92 0 0 1-.753.371c-.043.013-.089.03-.13.041-.047.012-.087.018-.129.026a.891.891 0 0 1-.31.029c-.036-.004-.087-.021-.136-.036a2.864 2.864 0 0 1-.661-.368 2.952 2.952 0 0 1-.467-.448 2.838 2.838 0 0 1-.576-1.442c-.305-2.755-.423-4.71-.446-5.39-.042-1.242-.178-2.094-.364-2.688-.283-1.106-.717-1.272-1.158-1.308a1.655 1.655 0 0 0-.142-.005l-.021-.002c-.436-.016-.88.096-1.285 1.123-.26.568-.499 1.409-.689 2.663-.102.673-.446 2.601-1.068 5.302a2.833 2.833 0 0 1-.835 1.455 2.97 2.97 0 0 1-.738.472c-.027.011-.056.027-.082.037-.063.025-.118.04-.173.056-.027.008-.057.019-.082.025a.863.863 0 0 1-.185.026.842.842 0 0 1-.139-.02 2.837 2.837 0 0 1-.699-.289 3.055 3.055 0 0 1-.48-.359 2.835 2.835 0 0 1-.773-1.396c-.622-2.701-.966-4.629-1.068-5.302-.191-1.262-.432-2.105-.694-2.674-.405-1.023-.849-1.134-1.284-1.118a1.774 1.774 0 0 0-.16.013c-.428.035-.851.19-1.135 1.217-.2.595-.346 1.472-.39 2.772-.023.681-.141 2.635-.446 5.39a2.825 2.825 0 0 1-.69 1.576 2.942 2.942 0 0 1-.647.52c-.025.014-.052.033-.076.045-.06.032-.113.054-.166.076-.026.011-.053.025-.077.034a.94.94 0 0 1-.18.048c-.037.004-.091 0-.145-.004a2.634 2.634 0 0 1-.609-.155l-.02-.007c-.019-.007-.04-.019-.06-.027a3.014 3.014 0 0 1-.553-.318 2.831 2.831 0 0 1-.929-1.297c-.931-2.611-1.497-4.486-1.676-5.143-.336-1.231-.674-2.041-.999-2.575-.521-.969-.974-1.027-1.405-.962a1.824 1.824 0 0 0-.14.028l-.018.003c-.421.084-.823.288-.986 1.339-.13.615-.173 1.503-.066 2.8.056.679.166 2.634.182 5.406a2.827 2.827 0 0 1-.502 1.645c-.188.251-.392.45-.582.591-.024.017-.049.039-.072.055a1.861 1.861 0 0 1-.155.095l-.073.043a.873.873 0 0 1-.174.068c-.036.009-.091.011-.145.013-.162 0-.38-.023-.624-.083l-.02-.004c-.02-.005-.043-.015-.063-.02a2.992 2.992 0 0 1-.586-.252 2.845 2.845 0 0 1-1.073-1.18c-1.228-2.485-2.007-4.282-2.261-4.914-.476-1.184-.906-1.949-1.291-2.442-.63-.902-1.087-.908-1.507-.792-.045.012-.09.027-.135.044l-.018.005c-.409.132-.784.381-.824 1.445-.057.625.002 1.513.259 2.789.134.668.47 2.597.808 5.348a2.829 2.829 0 0 1-.308 1.693 2.947 2.947 0 0 1-.51.656c-.021.019-.043.044-.064.061a1.725 1.725 0 0 1-.143.112c-.023.017-.047.037-.068.051a.876.876 0 0 1-.164.088c-.035.013-.089.021-.142.03-.161.019-.38.021-.628-.01l-.021-.002c-.021-.003-.044-.009-.065-.013a3.017 3.017 0 0 1-.612-.182 2.837 2.837 0 0 1-1.203-1.048c-1.508-2.326-2.49-4.02-2.816-4.618-.61-1.12-1.126-1.831-1.566-2.276-.73-.823-1.185-.776-1.589-.612a1.476 1.476 0 0 0-.129.059l-.017.007c-.391.179-.735.47-.65 1.531.016.628.178 1.502.581 2.739.211.647.768 2.525 1.423 5.218a2.82 2.82 0 0 1-.11 1.716 2.945 2.945 0 0 1-.43.71c-.019.022-.038.049-.057.069-.045.05-.087.089-.129.127-.021.02-.042.042-.062.059a.838.838 0 0 1-.153.106.792.792 0 0 1-.138.046 2.666 2.666 0 0 1-.626.063h-.02c-.021 0-.045-.004-.067-.005a2.935 2.935 0 0 1-.627-.11 2.829 2.829 0 0 1-1.317-.902c-1.768-2.135-2.94-3.704-3.333-4.26-.736-1.042-1.331-1.688-1.819-2.079-.821-.733-1.267-.633-1.649-.424a1.402 1.402 0 0 0-.121.074l-.016.009c-.367.223-.675.552-.469 1.596.088.622.351 1.471.895 2.654.285.619 1.056 2.419 2.019 5.018.24.648.215 1.238.09 1.718a2.943 2.943 0 0 1-.345.754c-.016.024-.032.053-.048.075a1.829 1.829 0 0 1-.113.141c-.018.022-.037.047-.055.066a.874.874 0 0 1-.14.123c-.031.02-.082.041-.132.062a2.703 2.703 0 0 1-.613.135l-.022.003c-.02.002-.044.001-.065.003a3.02 3.02 0 0 1-.638-.037 2.833 2.833 0 0 1-1.412-.743c-2.003-1.916-3.349-3.338-3.804-3.845-.852-.95-1.518-1.523-2.048-1.854-.9-.633-1.331-.481-1.687-.229a1.487 1.487 0 0 0-.112.088l-.015.011c-.339.264-.607.627-.28 1.64.16.607.519 1.42 1.196 2.531.354.581 1.329 2.28 2.587 4.75.314.616.357 1.204.289 1.696a2.933 2.933 0 0 1-.255.79c-.013.025-.026.056-.039.08a1.77 1.77 0 0 1-.098.156c-.015.023-.03.049-.045.069a.859.859 0 0 1-.125.139c-.029.024-.076.05-.124.077-.144.073-.35.149-.594.205l-.021.005-.065.01a3.011 3.011 0 0 1-.637.038 2.83 2.83 0 0 1-1.489-.574c-2.212-1.671-3.714-2.927-4.225-3.378-.957-.844-1.684-1.336-2.249-1.604-.967-.524-1.378-.324-1.702-.032a1.582 1.582 0 0 0-.115.112c-.306.302-.53.693-.088 1.661.229.585.68 1.351 1.482 2.376.419.536 1.585 2.11 3.121 4.418.383.576.494 1.156.484 1.652a2.962 2.962 0 0 1-.161.813c-.01.027-.019.059-.03.085a1.682 1.682 0 0 1-.078.164c-.013.025-.025.054-.038.077a.88.88 0 0 1-.107.152.873.873 0 0 1-.114.09 2.71 2.71 0 0 1-.567.273l-.019.007c-.02.007-.043.011-.064.018a2.98 2.98 0 0 1-.628.111 2.832 2.832 0 0 1-1.545-.397c-2.391-1.403-4.029-2.477-4.588-2.865-1.048-.728-1.827-1.132-2.42-1.332-1.022-.408-1.407-.162-1.694.165-.031.035-.06.072-.089.111l-.012.014c-.269.335-.446.749.105 1.66.296.554.833 1.263 1.748 2.188.479.484 1.819 1.912 3.612 4.026.447.527.625 1.09.672 1.584.017.313-.011.597-.066.827-.007.028-.012.061-.02.087-.018.066-.038.12-.059.174-.009.026-.018.055-.028.079a.882.882 0 0 1-.089.164.829.829 0 0 1-.103.103 2.744 2.744 0 0 1-.531.337l-.017.009c-.019.009-.042.016-.062.025a3.04 3.04 0 0 1-.61.183 2.834 2.834 0 0 1-1.582-.215c-2.537-1.116-4.289-1.992-4.889-2.313-1.126-.601-1.946-.912-2.558-1.042-1.062-.287-1.416.003-1.664.361a1.451 1.451 0 0 0-.075.121l-.01.015c-.228.364-.356.796.297 1.637.358.516.973 1.157 1.989 1.97.532.425 2.028 1.688 4.055 3.58.505.472.747 1.01.851 1.495.053.308.058.594.03.829-.004.029-.005.063-.009.09-.01.067-.024.122-.038.178-.007.027-.012.058-.019.083a.853.853 0 0 1-.07.173.834.834 0 0 1-.09.114 2.688 2.688 0 0 1-.487.395l-.018.012c-.017.011-.039.021-.057.031a3.013 3.013 0 0 1-.586.253c-.45.122-.992.155-1.596-.03-2.65-.814-4.491-1.482-5.125-1.731-1.187-.466-2.039-.68-2.661-.738-1.089-.162-1.407.167-1.611.551a1.535 1.535 0 0 0-.069.145c-.185.388-.261.832.485 1.591.415.471 1.101 1.037 2.205 1.726.578.361 2.21 1.442 4.443 3.085.557.41.859.917 1.019 1.387.088.299.126.582.126.818 0 .03.002.063.001.092-.002.067-.01.123-.017.179-.003.028-.005.06-.01.086a.841.841 0 0 1-.049.18.887.887 0 0 1-.076.124c-.096.13-.246.29-.438.45l-.016.014c-.016.013-.037.025-.053.038a3.044 3.044 0 0 1-.552.319 2.838 2.838 0 0 1-1.589.155c-2.726-.501-4.632-.951-5.291-1.124-1.234-.326-2.104-.439-2.729-.425-1.1-.035-1.378.329-1.536.734a1.335 1.335 0 0 0-.045.135c-.002.006-.005.011-.006.017-.138.407-.163.857.666 1.524.467.42 1.214.902 2.39 1.459.616.291 2.363 1.176 4.771 2.549.6.342.959.81 1.172 1.258.123.288.193.565.221.8.003.029.009.061.011.089.005.068.005.126.004.183 0 .028.002.058 0 .084a.852.852 0 0 1-.028.184.913.913 0 0 1-.061.132c-.081.14-.21.317-.383.497l-.014.016c-.014.015-.033.029-.048.044a2.964 2.964 0 0 1-.512.381c-.41.222-.93.379-1.559.338-2.766-.181-4.711-.407-5.385-.503-1.263-.18-2.141-.192-2.76-.105-1.096.093-1.33.486-1.44.908a1.485 1.485 0 0 0-.029.139l-.004.018c-.09.42-.062.87.839 1.437.513.363 1.31.755 2.543 1.172.645.218 2.483.894 5.034 1.978a2.823 2.823 0 0 1 1.311 1.115c.155.271.257.537.311.767.006.029.017.061.022.088.013.066.019.122.025.179.003.028.009.06.011.086a.887.887 0 0 1-.006.186.947.947 0 0 1-.045.138 2.662 2.662 0 0 1-.324.539l-.012.017c-.013.017-.03.033-.043.05a3.067 3.067 0 0 1-.464.438c-.381.268-.88.484-1.51.516-2.768.141-4.727.142-5.407.125-1.276-.033-2.149.058-2.754.216-1.078.22-1.264.637-1.325 1.069a1.593 1.593 0 0 0-.015.16c-.041.428.039.871.999 1.329.551.301 1.389.598 2.662.869.666.142 2.57.6 5.229 1.381a2.819 2.819 0 0 1 1.431.955c.186.251.318.505.398.727l.032.084c.021.064.033.12.046.176.006.027.015.057.02.082a.83.83 0 0 1 .015.186c-.002.037-.016.09-.029.142a2.686 2.686 0 0 1-.259.573l-.01.018c-.011.018-.026.036-.037.055a2.98 2.98 0 0 1-.41.489 2.83 2.83 0 0 1-1.44.688c-2.733.461-4.678.69-5.356.751-1.271.116-2.128.306-2.711.534-1.045.343-1.182.78-1.192 1.215a1.7 1.7 0 0 0 .003.142v.018c.009.43.14.861 1.147 1.205.582.235 1.449.433 2.745.554.678.063 2.622.297 5.354.765a2.828 2.828 0 0 1 1.532.782c.214.228.374.465.48.676.013.026.03.055.041.08.028.061.047.116.066.17.01.026.022.055.029.08a.893.893 0 0 1 .037.183c.002.037-.005.091-.012.145-.028.16-.09.37-.191.599l-.008.019c-.009.019-.022.039-.031.059a3.013 3.013 0 0 1-.351.533 2.827 2.827 0 0 1-1.35.85c-2.661.775-4.567 1.228-5.233 1.368-1.249.262-2.078.551-2.63.845-.998.462-1.084.912-1.043 1.345.004.046.011.093.02.141l.002.018c.059.426.239.839 1.279 1.064.606.166 1.489.262 2.79.232.681-.016 2.639-.009 5.407.139.69.037 1.221.294 1.612.599.239.202.426.418.556.616.016.024.036.05.05.074.035.058.061.11.086.162.012.025.028.052.038.075.029.069.05.13.058.177a.928.928 0 0 1 .005.146 2.665 2.665 0 0 1-.12.616l-.006.021c-.006.02-.017.041-.024.061a3.038 3.038 0 0 1-.286.57 2.835 2.835 0 0 1-1.242 1.001c-2.554 1.078-4.393 1.749-5.039 1.965-1.21.405-2 .789-2.515 1.144-.938.575-.97 1.031-.88 1.457.01.045.022.091.036.138l.004.018c.108.416.334.805 1.393.908.621.094 1.51.087 2.799-.093.674-.094 2.62-.315 5.387-.489a2.83 2.83 0 0 1 1.671.408c.261.173.472.366.624.548.018.022.041.046.058.068.042.053.073.102.104.15.015.023.034.049.047.071a.915.915 0 0 1 .078.169c.011.036.016.09.021.144.01.161-.002.38-.047.625l-.004.023c-.004.02-.012.042-.016.062-.045.19-.119.394-.219.601a2.832 2.832 0 0 1-1.118 1.138c-2.411 1.367-4.161 2.247-4.777 2.537-1.155.543-1.895 1.015-2.365 1.428-.865.68-.844 1.137-.705 1.549.015.044.032.088.052.132l.006.017c.155.401.425.761 1.49.74.628.022 1.51-.088 2.769-.417.659-.172 2.566-.617 5.294-1.111a2.83 2.83 0 0 1 1.707.211c.279.142.511.309.682.471.021.02.047.041.066.061.047.048.083.092.12.136l.055.065c.044.06.078.115.097.159.015.034.026.088.038.141.028.159.042.378.026.628l-.001.021-.009.065a3.05 3.05 0 0 1-.147.621 2.837 2.837 0 0 1-.978 1.261c-2.237 1.638-3.872 2.714-4.451 3.074-1.084.673-1.765 1.228-2.183 1.693-.78.775-.707 1.227-.521 1.62.02.042.042.084.067.125l.008.016c.201.38.511.707 1.565.562.626-.051 1.489-.263 2.702-.736.634-.247 2.477-.91 5.129-1.717a2.828 2.828 0 0 1 1.721.012c.293.108.542.247.732.388.023.018.051.036.073.053.052.042.093.082.134.121.021.02.045.04.063.059a.868.868 0 0 1 .115.147c.019.032.036.084.054.135.047.155.086.37.098.62l.002.021c.001.021-.002.044-.001.065 0 .195-.025.41-.074.634-.12.451-.363.937-.825 1.366-2.031 1.886-3.531 3.145-4.064 3.569-.999.795-1.61 1.425-1.972 1.935-.685.861-.56 1.301-.329 1.67a1.642 1.642 0 0 0 .091.132c.243.354.589.643 1.62.377.616-.123 1.449-.434 2.599-1.044.601-.319 2.355-1.191 4.895-2.301a2.822 2.822 0 0 1 1.71-.188c.304.074.568.183.773.301.025.015.055.029.078.044.057.036.102.07.148.105l.069.051a.844.844 0 0 1 .131.132c.022.03.046.079.069.128.064.148.128.358.169.605l.004.021c.003.02.003.044.006.065a3.02 3.02 0 0 1 0 .638 2.838 2.838 0 0 1-.661 1.452c-1.799 2.109-3.142 3.534-3.623 4.017-.9.905-1.434 1.602-1.734 2.15-.58.934-.405 1.357-.133 1.697.029.036.06.072.094.107l.011.014c.283.324.66.57 1.653.186.597-.194 1.388-.599 2.459-1.338.56-.387 2.201-1.456 4.595-2.853a2.823 2.823 0 0 1 1.676-.385c.311.038.586.115.803.209.027.012.059.023.084.035.061.029.11.058.159.087l.074.042a.974.974 0 0 1 .146.116.756.756 0 0 1 .083.119c.081.14.169.34.238.58l.007.022c.005.019.008.043.014.063.045.19.07.406.074.636a2.835 2.835 0 0 1-.488 1.519c-1.542 2.303-2.711 3.874-3.132 4.41-.789 1.003-1.238 1.757-1.473 2.336-.468.996-.245 1.395.064 1.701a1.4 1.4 0 0 0 .106.095l.013.013c.319.288.722.49 1.663-.006.571-.262 1.31-.756 2.288-1.615.512-.449 2.017-1.702 4.233-3.367a2.83 2.83 0 0 1 1.621-.577c.313.001.595.047.822.115.028.009.06.016.086.025.064.022.116.045.168.068.026.011.055.022.079.034a.825.825 0 0 1 .158.099.793.793 0 0 1 .097.109c.097.129.207.318.304.548l.009.021c.008.019.013.042.021.061.067.184.117.395.147.622a2.832 2.832 0 0 1-.309 1.565c-1.265 2.467-2.244 4.163-2.599 4.743-.667 1.088-1.026 1.888-1.192 2.491-.35 1.043-.082 1.414.261 1.683.036.029.075.056.116.082l.014.011c.35.25.774.403 1.651-.199.536-.326 1.213-.903 2.085-1.869.456-.506 1.806-1.924 3.814-3.835a2.822 2.822 0 0 1 1.544-.761c.31-.035.595-.022.828.019.029.005.062.009.089.015.065.014.12.031.174.048l.083.024c.07.026.129.053.168.08.031.021.07.059.109.097.111.117.243.292.366.51l.011.019c.01.018.018.04.028.059.087.175.162.379.218.6.095.457.096 1-.125 1.591-.97 2.597-1.746 4.395-2.032 5.013-.536 1.158-.8 1.995-.895 2.613-.226 1.077.083 1.414.455 1.641a1.485 1.485 0 0 0 .141.077c.376.207.815.31 1.617-.389.495-.387 1.101-1.038 1.854-2.099.394-.555 1.57-2.121 3.344-4.252a2.832 2.832 0 0 1 1.444-.935c.305-.071.59-.091.826-.077l.089.004c.067.006.123.017.18.028l.084.014a.86.86 0 0 1 .177.06c.033.017.076.05.119.083.124.104.276.263.423.465l.012.016c.012.017.023.039.035.056.107.163.204.357.286.57.147.443.211.982.06 1.595-.662 2.692-1.224 4.568-1.437 5.215-.398 1.212-.563 2.074-.586 2.7-.1 1.096.246 1.394.642 1.577a1.578 1.578 0 0 0 .148.061c.398.162.846.214 1.561-.574.447-.441.973-1.158 1.598-2.299.327-.597 1.314-2.289 2.828-4.611.378-.579.866-.91 1.326-1.096.295-.106.576-.159.812-.173.029-.001.061-.006.089-.006.068-.001.125.003.182.007.028.002.059.002.085.005a.811.811 0 0 1 .182.039.878.878 0 0 1 .128.069c.135.089.304.229.475.413l.014.014.042.052c.125.15.244.33.35.533.197.422.323.951.245 1.576-.345 2.75-.686 4.679-.822 5.346-.255 1.25-.319 2.125-.269 2.749.028 1.1.407 1.357.82 1.492.044.014.09.027.137.038l.017.006c.414.115.865.114 1.484-.751.393-.49.832-1.263 1.321-2.469.256-.631 1.04-2.426 2.274-4.908a2.825 2.825 0 0 1 1.19-1.242c.28-.139.552-.225.785-.265.029-.005.062-.013.09-.017a1.77 1.77 0 0 1 .18-.014c.028-.002.06-.005.086-.005.075 0 .139.006.186.017a.857.857 0 0 1 .135.054c.145.073.329.192.519.355l.016.013c.016.014.031.032.047.046.142.134.281.3.409.489.245.397.432.907.426 1.538-.024 2.772-.139 4.727-.196 5.405-.108 1.271-.07 2.148.052 2.762.155 1.089.561 1.3.988 1.387.045.009.093.016.141.021l.018.004c.425.066.872.013 1.387-.919.333-.532.68-1.351 1.025-2.606.181-.656.751-2.53 1.689-5.138.101-.282.24-.514.39-.723l-.178.746c.443-1.243 1.67-1.707 2.265-1.788.15.056.339.15.541.285l.018.012c.017.012.034.028.052.04.491.367 1.024 1.003 1.126 1.938.3 2.756.415 4.711.437 5.391.115 3.576.775 3.923 1.449 3.979.09.008.185.008.283-.004.091.021.18.03.266.033.675.023 1.372-.244 1.904-3.783.101-.673.444-2.601 1.064-5.303.245-1.068 1.021-1.661 1.595-1.92.041-.018.086-.041.125-.056.045-.017.083-.028.124-.041.043-.014.087-.029.125-.039.575.141 1.763.747 2.061 2.047l-.092-.785c.127.227.239.477.308.773.627 2.7.975 4.627 1.078 5.3.188 1.228.423 2.059.678 2.626.411 1.065.862 1.179 1.303 1.162.046-.002.094-.006.142-.012l.021-.001c.435-.036.863-.198 1.144-1.266.191-.595.33-1.458.371-2.726.022-.681.137-2.635.436-5.391a2.823 2.823 0 0 1 .658-1.543c.213-.233.438-.411.645-.535.039-.023.08-.051.117-.07.043-.023.08-.038.119-.055.041-.019.083-.039.119-.053a.936.936 0 0 1 .176-.047c.036-.004.089 0 .141.003.187.021.448.088.728.204.182.081.371.189.558.327.354.287.689.695.895 1.269.936 2.609 1.505 4.483 1.685 5.14.329 1.199.66 1.997.979 2.531.532 1.009.993 1.07 1.429 1.003a1.453 1.453 0 0 0 .16-.032c.427-.086.834-.297.99-1.39.121-.613.159-1.487.052-2.75-.057-.679-.17-2.634-.192-5.405a2.828 2.828 0 0 1 .474-1.608 2.95 2.95 0 0 1 .579-.607c.036-.027.074-.06.109-.083.04-.027.075-.046.111-.068.039-.023.078-.048.113-.067a.898.898 0 0 1 .169-.067c.035-.008.088-.01.14-.013.188-.001.455.036.747.118.19.059.391.144.592.26.385.244.765.61 1.036 1.156 1.233 2.483 2.015 4.278 2.27 4.909.466 1.152.887 1.906 1.265 2.4.646.941 1.11.948 1.536.83.045-.012.09-.027.136-.045l.02-.006c.415-.135.794-.392.822-1.496.049-.623-.015-1.495-.268-2.737-.136-.667-.475-2.596-.818-5.347a2.823 2.823 0 0 1 .285-1.653 2.95 2.95 0 0 1 .505-.67c.033-.031.066-.068.098-.095.036-.032.069-.055.103-.081.036-.028.072-.057.104-.079a.863.863 0 0 1 .16-.086.865.865 0 0 1 .138-.029c.187-.023.456-.017.756.031.196.037.405.098.618.189.41.197.831.517 1.164 1.028 1.512 2.323 2.498 4.015 2.825 4.613.597 1.09 1.102 1.791 1.535 2.237.75.86 1.213.813 1.622.646.043-.017.086-.038.129-.06l.019-.008c.396-.182.743-.482.643-1.581-.024-.624-.188-1.483-.583-2.688-.212-.647-.773-2.523-1.433-5.216a2.818 2.818 0 0 1 .091-1.674 2.96 2.96 0 0 1 .423-.724c.029-.035.058-.075.087-.107.032-.035.062-.062.092-.092.032-.032.065-.065.095-.091a.915.915 0 0 1 .149-.104.89.89 0 0 1 .133-.045c.183-.044.45-.07.754-.057.199.014.414.05.637.117.43.148.884.417 1.274.886 1.772 2.132 2.947 3.698 3.341 4.254.719 1.014 1.302 1.651 1.784 2.043.845.767 1.299.667 1.686.454.041-.022.081-.047.122-.075l.018-.01c.372-.227.682-.564.455-1.645-.096-.617-.359-1.451-.891-2.603-.286-.618-1.06-2.417-2.028-5.014a2.823 2.823 0 0 1-.104-1.674c.086-.304.207-.565.337-.769.025-.038.049-.081.073-.115.028-.039.054-.069.081-.102.028-.035.057-.072.084-.102a.904.904 0 0 1 .136-.121c.03-.02.079-.04.127-.06a2.85 2.85 0 0 1 .743-.144 2.97 2.97 0 0 1 .645.042c.445.097.927.312 1.369.732 2.007 1.912 3.356 3.332 3.812 3.838.832.923 1.485 1.488 2.009 1.823.928.663 1.367.511 1.727.255.038-.027.075-.057.112-.088l.017-.012c.344-.269.612-.64.261-1.687-.167-.602-.525-1.399-1.187-2.481-.356-.581-1.333-2.277-2.596-4.745a2.821 2.821 0 0 1-.297-1.651c.05-.312.14-.585.245-.802.02-.04.039-.086.059-.123.023-.042.046-.075.069-.111.024-.038.048-.078.071-.11a.92.92 0 0 1 .121-.136.85.85 0 0 1 .12-.074c.168-.085.423-.172.721-.229.196-.032.413-.046.645-.033.453.045.957.202 1.445.569 2.215 1.666 3.72 2.92 4.231 3.369.933.821 1.648 1.306 2.207 1.577.999.551 1.418.349 1.745.053.034-.031.068-.065.101-.101l.015-.014c.31-.307.534-.706.063-1.705-.236-.578-.684-1.329-1.467-2.327-.42-.536-1.589-2.107-3.129-4.412a2.821 2.821 0 0 1-.487-1.605c.014-.315.071-.596.15-.824.015-.043.029-.091.045-.13.018-.044.037-.079.056-.118.019-.041.039-.083.058-.118a.87.87 0 0 1 .105-.149c.025-.026.068-.057.11-.088.157-.104.4-.22.69-.311.191-.055.405-.094.637-.108.455-.008.974.089 1.501.397 2.394 1.398 4.033 2.468 4.594 2.856 1.022.707 1.788 1.106 2.375 1.31 1.056.432 1.449.182 1.74-.15a1.46 1.46 0 0 0 .089-.112l.013-.015c.272-.341.448-.763-.135-1.701-.301-.547-.834-1.241-1.728-2.141-.48-.483-1.822-1.909-3.62-4.019a2.829 2.829 0 0 1-.67-1.538c-.023-.314.002-.6.054-.835.01-.044.018-.094.03-.134.013-.046.027-.083.041-.123.015-.043.029-.088.044-.125a.878.878 0 0 1 .087-.16c.021-.029.061-.065.099-.1a2.86 2.86 0 0 1 .65-.39c.183-.077.392-.14.62-.181.451-.06.978-.024 1.537.22 2.54 1.111 4.293 1.984 4.894 2.303 1.098.583 1.905.891 2.512 1.026 1.099.306 1.46.013 1.71-.351.026-.038.051-.079.075-.121l.012-.017c.231-.37.357-.81-.331-1.674-.363-.509-.972-1.136-1.964-1.926-.533-.424-2.032-1.684-4.062-3.572a2.829 2.829 0 0 1-.844-1.449 2.963 2.963 0 0 1-.044-.838c.005-.045.007-.095.014-.136.007-.048.018-.086.027-.128.009-.044.019-.09.029-.128a.806.806 0 0 1 .068-.169.86.86 0 0 1 .087-.111c.128-.138.338-.306.599-.462.173-.097.373-.185.595-.252a2.84 2.84 0 0 1 1.553.04c2.651.809 4.494 1.472 5.128 1.72 1.158.452 1.995.664 2.613.728 1.128.177 1.452-.156 1.658-.547.022-.041.042-.084.061-.129l.009-.018c.186-.394.26-.846-.523-1.624-.419-.463-1.097-1.015-2.174-1.685-.578-.36-2.213-1.437-4.449-3.076a2.814 2.814 0 0 1-1.006-1.342 2.942 2.942 0 0 1-.141-.826c0-.045-.004-.095-.002-.137.002-.047.007-.086.012-.128.004-.046.008-.093.014-.133a.878.878 0 0 1 .047-.175c.014-.033.044-.077.073-.12.112-.151.3-.343.541-.528.161-.117.35-.227.563-.32a2.838 2.838 0 0 1 1.545-.139c2.727.495 4.634.941 5.293 1.113 1.202.315 2.058.428 2.68.419 1.14.045 1.424-.324 1.584-.736.017-.043.032-.089.045-.135l.007-.019c.139-.413.16-.871-.708-1.552-.47-.411-1.208-.881-2.355-1.422-.616-.29-2.365-1.171-4.776-2.539a2.823 2.823 0 0 1-1.155-1.216 2.96 2.96 0 0 1-.236-.805c-.005-.045-.015-.094-.018-.135-.004-.048-.003-.088-.003-.131-.001-.045-.003-.091-.001-.13a.838.838 0 0 1 .027-.18c.01-.035.035-.082.059-.128.093-.164.259-.376.477-.588.146-.135.321-.266.522-.383a2.84 2.84 0 0 1 1.519-.318c2.766.176 4.712.397 5.386.492 1.231.173 2.094.186 2.711.106 1.138-.088 1.376-.487 1.487-.914.012-.045.021-.092.029-.139l.005-.02c.091-.427.058-.884-.884-1.46-.515-.354-1.302-.735-2.504-1.139-.646-.217-2.485-.888-5.038-1.968a2.827 2.827 0 0 1-1.289-1.074 2.916 2.916 0 0 1-.327-.772c-.011-.044-.025-.091-.033-.133-.009-.047-.013-.087-.018-.129-.006-.045-.013-.091-.016-.13a.853.853 0 0 1 .006-.182.795.795 0 0 1 .044-.134c.074-.173.213-.403.405-.638.13-.151.288-.302.474-.441.376-.256.863-.46 1.472-.492 2.768-.147 4.726-.153 5.407-.137 1.243.029 2.102-.058 2.705-.21 1.12-.219 1.31-.643 1.371-1.081a1.628 1.628 0 0 0 .016-.162c.04-.434-.045-.884-1.047-1.348-.552-.292-1.378-.579-2.619-.84-.666-.14-2.571-.594-5.232-1.37a2.821 2.821 0 0 1-1.404-.917 2.961 2.961 0 0 1-.415-.729c-.016-.042-.036-.088-.048-.128-.015-.046-.023-.084-.033-.126-.011-.044-.024-.089-.031-.128a.85.85 0 0 1-.015-.181.822.822 0 0 1 .028-.138c.043-.171.155-.415.318-.671zm-78.756 61.191c-35.809 0-64.838-29.029-64.838-64.838s29.029-64.838 64.838-64.838 64.838 29.029 64.838 64.838-29.029 64.838-64.838 64.838z" clip-path="url(#b)" fill="#b5b7ba"/><g clip-path="url(#b)"><linearGradient id="c" gradientUnits="userSpaceOnUse" x1="167.92" y1="33.319" x2="167.92" y2="302.529"><stop offset="0" stop-color="#dbdcdd"/><stop offset="1" stop-color="#8a8d92"/></linearGradient><path d="M262.989 93.092c2.694-3.173 4.706-5.317 5.425-6.044 1.313-1.327 2.104-2.354 2.56-3.169.914-1.448.649-2.093.234-2.611a2.325 2.325 0 0 0-.142-.16l-.02-.024c-.432-.492-1.012-.862-2.55-.246-.888.302-2.053.907-3.618 1.993-.84.583-3.299 2.195-6.89 4.3a4.247 4.247 0 0 1-2.449.588 4.402 4.402 0 0 1-1.222-.298c-.063-.027-.134-.052-.191-.079-.064-.031-.115-.062-.17-.093-.06-.033-.122-.066-.173-.098a1.253 1.253 0 0 1-.214-.17c-.037-.039-.08-.107-.122-.173a4.27 4.27 0 0 1-.406-1.062 4.425 4.425 0 0 1-.105-.963c.029-.683.22-1.453.728-2.216 2.307-3.464 4.057-5.827 4.687-6.632 1.15-1.47 1.817-2.583 2.175-3.445.74-1.544.401-2.154-.071-2.62a2.773 2.773 0 0 0-.159-.143l-.022-.022c-.486-.438-1.105-.739-2.561.051-.847.403-1.934 1.139-3.362 2.399-.767.676-3.022 2.562-6.344 5.07a4.24 4.24 0 0 1-2.365.868 4.41 4.41 0 0 1-1.248-.155c-.065-.019-.138-.036-.198-.056-.068-.023-.122-.048-.181-.073-.063-.026-.129-.051-.183-.077a1.337 1.337 0 0 1-.232-.144 1.373 1.373 0 0 1-.141-.157 4.269 4.269 0 0 1-.526-1.006 4.459 4.459 0 0 1-.217-.948 4.264 4.264 0 0 1 .467-2.283c1.89-3.708 3.354-6.258 3.886-7.131.971-1.593 1.504-2.775 1.76-3.672.557-1.621.149-2.188-.374-2.596a2.27 2.27 0 0 0-.175-.123l-.025-.019c-.534-.379-1.183-.606-2.539.348-.794.499-1.788 1.356-3.06 2.773-.683.761-2.705 2.896-5.713 5.772a4.236 4.236 0 0 1-2.247 1.136c-.47.061-.901.049-1.258-.008-.067-.012-.142-.02-.204-.033-.07-.015-.125-.033-.186-.051-.067-.018-.135-.036-.192-.056a1.315 1.315 0 0 1-.247-.116c-.045-.03-.102-.086-.158-.14a4.258 4.258 0 0 1-.639-.939 4.462 4.462 0 0 1-.325-.915 4.278 4.278 0 0 1 .198-2.323c1.447-3.903 2.605-6.605 3.032-7.534.78-1.695 1.172-2.931 1.322-3.852.365-1.674-.106-2.19-.673-2.534a2.585 2.585 0 0 0-.188-.102l-.026-.016c-.574-.314-1.245-.465-2.48.64-.731.587-1.62 1.555-2.719 3.11-.59.835-2.35 3.19-5.005 6.396a4.242 4.242 0 0 1-2.101 1.39 4.39 4.39 0 0 1-1.252.137c-.067-.004-.142-.003-.204-.009-.072-.007-.13-.019-.194-.029-.067-.01-.137-.02-.195-.033a1.273 1.273 0 0 1-.259-.087 1.27 1.27 0 0 1-.174-.121 4.219 4.219 0 0 1-.743-.858 4.5 4.5 0 0 1-.429-.871 4.263 4.263 0 0 1-.073-2.331c.984-4.044 1.821-6.863 2.138-7.835.578-1.774.824-3.047.866-3.98.168-1.705-.359-2.163-.962-2.439a2.23 2.23 0 0 0-.199-.08l-.028-.013c-.607-.246-1.291-.317-2.39.924-.658.668-1.428 1.732-2.339 3.404-.489.898-1.964 3.441-4.229 6.933a4.254 4.254 0 0 1-1.924 1.624 4.411 4.411 0 0 1-1.228.282c-.067.004-.141.014-.204.015-.072.001-.131-.004-.195-.007-.068-.003-.138-.004-.198-.01a1.269 1.269 0 0 1-.267-.056c-.051-.018-.119-.06-.186-.1a4.239 4.239 0 0 1-.838-.766 4.472 4.472 0 0 1-.527-.815 4.265 4.265 0 0 1-.342-2.306c.508-4.131 1.012-7.028 1.214-8.03.368-1.83.465-3.123.398-4.054-.031-1.713-.608-2.106-1.239-2.31a2.476 2.476 0 0 0-.206-.056l-.03-.009c-.631-.174-1.319-.165-2.266 1.195-.576.74-1.217 1.886-1.928 3.652-.382.948-1.552 3.646-3.396 7.377a4.237 4.237 0 0 1-1.724 1.836 4.428 4.428 0 0 1-1.187.422c-.066.012-.138.03-.2.038-.072.01-.132.012-.197.016-.067.005-.137.012-.196.013a1.252 1.252 0 0 1-.272-.025c-.053-.013-.126-.046-.197-.077a4.264 4.264 0 0 1-.921-.663 4.461 4.461 0 0 1-.618-.749 4.27 4.27 0 0 1-.608-2.251c.025-4.162.19-7.098.274-8.117.154-1.86.1-3.155-.075-4.073-.23-1.698-.848-2.021-1.498-2.151a2.295 2.295 0 0 0-.212-.032l-.03-.006c-.647-.099-1.329-.011-2.112 1.449-.487.802-.991 2.015-1.492 3.852-.269.986-1.118 3.801-2.517 7.721a4.235 4.235 0 0 1-1.499 2.023 4.416 4.416 0 0 1-1.13.558c-.065.019-.134.046-.195.061-.07.018-.13.027-.194.039-.066.013-.134.028-.193.035a1.297 1.297 0 0 1-.273.007c-.054-.006-.13-.031-.204-.054a4.25 4.25 0 0 1-.992-.552 4.431 4.431 0 0 1-.701-.672 4.27 4.27 0 0 1-.865-2.165c-.458-4.137-.635-7.072-.669-8.094-.063-1.865-.267-3.145-.547-4.036-.425-1.66-1.077-1.91-1.738-1.963a2.145 2.145 0 0 0-.214-.007l-.031-.002c-.654-.023-1.322.143-1.93 1.685-.39.853-.75 2.116-1.035 3.998-.153 1.011-.67 3.905-1.604 7.961a4.242 4.242 0 0 1-1.254 2.184 4.393 4.393 0 0 1-1.107.708c-.04.017-.084.04-.123.055a2.567 2.567 0 0 1-.259.084c-.041.012-.085.028-.122.038-.11.026-.205.04-.277.04-.054 0-.133-.016-.209-.03a4.267 4.267 0 0 1-1.05-.434 4.467 4.467 0 0 1-.72-.539 4.256 4.256 0 0 1-1.16-2.096c-.934-4.056-1.451-6.95-1.604-7.961-.287-1.894-.649-3.161-1.042-4.014-.608-1.536-1.274-1.702-1.928-1.679-.07.003-.141.009-.213.018l-.027.001c-.643.052-1.278.286-1.704 1.827-.3.894-.52 2.21-.586 4.163-.035 1.022-.212 3.957-.669 8.094a4.236 4.236 0 0 1-1.036 2.366 4.37 4.37 0 0 1-.972.781c-.038.021-.078.049-.114.068-.09.048-.17.081-.249.115-.038.017-.08.037-.116.051a1.346 1.346 0 0 1-.271.072c-.056.006-.137 0-.218-.006a4.002 4.002 0 0 1-.914-.232l-.03-.01c-.029-.011-.061-.029-.09-.041a4.516 4.516 0 0 1-.83-.478 4.265 4.265 0 0 1-1.395-1.947c-1.398-3.92-2.247-6.735-2.516-7.721-.504-1.849-1.011-3.065-1.5-3.867-.782-1.455-1.463-1.543-2.109-1.444a2.665 2.665 0 0 0-.209.042.251.251 0 0 1-.027.004c-.633.126-1.236.432-1.48 2.011-.194.923-.26 2.256-.099 4.204.084 1.019.248 3.955.274 8.117a4.243 4.243 0 0 1-.754 2.47 4.441 4.441 0 0 1-.873.888c-.036.026-.073.059-.108.082a2.61 2.61 0 0 1-.233.142c-.037.021-.076.047-.11.065a1.29 1.29 0 0 1-.26.102c-.054.013-.136.016-.217.02a3.983 3.983 0 0 1-.936-.125l-.029-.006c-.031-.008-.064-.022-.095-.03a4.46 4.46 0 0 1-.88-.379 4.257 4.257 0 0 1-1.611-1.772c-1.844-3.731-3.013-6.429-3.395-7.377-.715-1.777-1.36-2.927-1.939-3.666-.945-1.355-1.632-1.363-2.263-1.19a2.394 2.394 0 0 0-.203.066l-.026.007c-.614.199-1.177.573-1.237 2.169-.086.939.003 2.271.389 4.187.202 1.002.706 3.899 1.214 8.03a4.238 4.238 0 0 1-.463 2.541c-.236.407-.507.74-.766.984-.032.029-.065.065-.096.092-.076.067-.146.118-.215.169-.034.025-.07.055-.102.077a1.272 1.272 0 0 1-.247.132c-.053.019-.134.032-.214.045-.241.029-.57.031-.943-.015l-.031-.003c-.031-.004-.066-.014-.097-.019a4.463 4.463 0 0 1-.918-.274 4.254 4.254 0 0 1-1.806-1.574c-2.264-3.492-3.739-6.036-4.228-6.934-.917-1.682-1.69-2.749-2.351-3.417-1.096-1.236-1.779-1.164-2.385-.919a2.37 2.37 0 0 0-.193.089l-.026.011c-.587.269-1.103.706-.977 2.299.024.943.267 2.255.872 4.112.317.972 1.153 3.791 2.137 7.835a4.236 4.236 0 0 1-.165 2.577 4.379 4.379 0 0 1-.646 1.066c-.028.033-.057.074-.085.104-.068.075-.13.133-.193.191-.031.029-.064.064-.093.089a1.28 1.28 0 0 1-.23.16c-.05.025-.129.047-.207.069a4.015 4.015 0 0 1-.94.094l-.029.001c-.032 0-.068-.007-.1-.008a4.534 4.534 0 0 1-.942-.165 4.252 4.252 0 0 1-1.977-1.354c-2.654-3.206-4.414-5.562-5.004-6.396-1.106-1.565-1.998-2.535-2.731-3.121-1.232-1.1-1.902-.95-2.476-.636a2.333 2.333 0 0 0-.182.111l-.024.013c-.552.335-1.014.829-.704 2.396.133.934.527 2.209 1.343 3.984.427.929 1.585 3.632 3.031 7.534a4.24 4.24 0 0 1 .135 2.58 4.38 4.38 0 0 1-.518 1.133c-.024.036-.048.079-.072.113-.058.082-.114.147-.17.212-.028.033-.056.07-.082.099a1.27 1.27 0 0 1-.21.185 1.286 1.286 0 0 1-.198.093 4.015 4.015 0 0 1-.92.202l-.033.005c-.031.003-.066.001-.097.004a4.507 4.507 0 0 1-.958-.055 4.263 4.263 0 0 1-2.12-1.115c-3.008-2.877-5.029-5.012-5.712-5.773-1.28-1.426-2.279-2.286-3.075-2.784-1.351-.95-1.999-.723-2.532-.344-.057.04-.113.084-.168.132l-.022.016c-.509.397-.911.941-.421 2.462.24.912.779 2.133 1.796 3.801.532.873 1.996 3.423 3.885 7.132.471.925.536 1.808.434 2.546a4.439 4.439 0 0 1-.383 1.187c-.02.038-.038.084-.058.12a2.75 2.75 0 0 1-.146.234c-.023.034-.046.074-.068.104-.068.09-.132.163-.187.209-.043.036-.115.076-.185.115-.217.11-.525.224-.891.308l-.031.008c-.03.007-.066.009-.097.015-.289.051-.613.07-.956.056a4.253 4.253 0 0 1-2.236-.862c-3.321-2.508-5.576-4.395-6.343-5.071-1.437-1.268-2.528-2.006-3.378-2.408-1.452-.787-2.07-.486-2.555-.048a2.134 2.134 0 0 0-.151.15.36.36 0 0 0-.021.019c-.46.453-.796 1.04-.132 2.494.344.878 1.022 2.028 2.225 3.567.63.805 2.379 3.169 4.686 6.633.576.864.742 1.735.726 2.48a4.427 4.427 0 0 1-.242 1.22c-.015.041-.029.089-.045.128a2.87 2.87 0 0 1-.116.246c-.019.038-.038.081-.057.116a1.338 1.338 0 0 1-.161.229c-.038.041-.105.088-.171.136a4.033 4.033 0 0 1-.851.41c-.01.003-.018.008-.029.011-.03.01-.065.017-.096.027a4.518 4.518 0 0 1-.943.167 4.25 4.25 0 0 1-2.32-.597c-3.59-2.106-6.049-3.718-6.888-4.301-1.574-1.093-2.744-1.699-3.633-2-1.534-.613-2.112-.243-2.544.248-.046.052-.09.108-.133.167l-.018.021c-.404.503-.67 1.125.158 2.492.444.832 1.25 1.896 2.624 3.285.719.727 2.731 2.871 5.424 6.045a4.244 4.244 0 0 1 1.009 2.378c.026.469-.017.896-.099 1.241-.01.042-.018.091-.029.131-.027.098-.058.18-.088.26-.014.039-.028.083-.042.119a1.28 1.28 0 0 1-.134.246c-.033.045-.094.1-.154.155-.186.157-.46.34-.798.506l-.026.014c-.029.014-.064.025-.093.038a4.526 4.526 0 0 1-.916.275 4.263 4.263 0 0 1-2.375-.323c-3.81-1.675-6.439-2.992-7.341-3.473-1.69-.903-2.922-1.37-3.841-1.565-1.595-.431-2.126.004-2.498.542a2.31 2.31 0 0 0-.113.181l-.015.022c-.343.547-.535 1.196.446 2.458.537.775 1.461 1.738 2.987 2.958.798.638 3.045 2.535 6.088 5.375a4.244 4.244 0 0 1 1.278 2.244c.08.463.087.891.046 1.244-.006.044-.008.094-.014.136-.015.1-.036.184-.057.267-.01.041-.018.087-.029.124a1.366 1.366 0 0 1-.104.26c-.028.048-.082.11-.135.172a3.99 3.99 0 0 1-.732.593l-.027.018c-.026.017-.059.031-.086.047a4.516 4.516 0 0 1-.88.38 4.248 4.248 0 0 1-2.396-.046c-3.979-1.222-6.743-2.224-7.694-2.598-1.783-.7-3.061-1.021-3.996-1.109-1.635-.243-2.112.25-2.419.828a2.144 2.144 0 0 0-.091.193l-.013.024c-.277.583-.392 1.249.728 2.389.624.707 1.653 1.557 3.31 2.592.867.542 3.319 2.165 6.67 4.632a4.249 4.249 0 0 1 1.53 2.082c.133.45.189.874.189 1.228-.001.044.003.095.002.137-.004.1-.014.185-.025.269-.005.043-.008.09-.014.129-.02.111-.045.204-.073.27a1.303 1.303 0 0 1-.114.186 4.06 4.06 0 0 1-.658.675l-.024.021c-.024.02-.055.038-.08.057a4.47 4.47 0 0 1-.829.479c-.65.26-1.453.404-2.385.233-4.094-.752-6.955-1.427-7.944-1.688-1.852-.489-3.159-.659-4.098-.638-1.652-.052-2.069.494-2.307 1.103a2.519 2.519 0 0 0-.068.202l-.01.025c-.208.611-.245 1.286 1 2.288.701.63 1.823 1.354 3.589 2.19.924.437 3.547 1.765 7.163 3.827a4.24 4.24 0 0 1 1.76 1.89c.185.432.29.849.331 1.202.005.043.014.092.017.133.008.102.007.189.006.275 0 .042.002.088.001.126a1.278 1.278 0 0 1-.042.277c-.016.054-.054.126-.092.198a4.006 4.006 0 0 1-.576.746c-.008.008-.013.016-.022.024-.022.022-.05.044-.073.066a4.538 4.538 0 0 1-.769.573 4.26 4.26 0 0 1-2.341.507c-4.153-.272-7.074-.611-8.086-.755-1.897-.271-3.214-.288-4.145-.158-1.646.14-1.997.73-2.163 1.363a2.204 2.204 0 0 0-.044.209l-.007.026c-.135.631-.094 1.306 1.259 2.157.77.545 1.967 1.134 3.818 1.759.969.327 3.728 1.342 7.558 2.971a4.228 4.228 0 0 1 1.968 1.674c.233.407.386.807.467 1.152.01.043.025.091.033.133.02.099.029.184.038.268.005.043.013.089.016.128.006.112.003.209-.009.28-.01.055-.039.132-.068.207-.096.223-.259.51-.486.809l-.018.025c-.019.025-.045.05-.065.075a4.513 4.513 0 0 1-.697.657 4.25 4.25 0 0 1-2.267.775c-4.157.211-7.097.214-8.119.188-1.915-.049-3.226.086-4.135.324-1.619.33-1.898.957-1.99 1.604-.01.069-.016.14-.02.213l-.004.027c-.061.642.058 1.308 1.5 1.996.828.452 2.086.898 3.998 1.305 1 .213 3.859.9 7.852 2.074a4.242 4.242 0 0 1 2.149 1.434c.279.378.477.758.598 1.091.015.041.035.087.048.127.031.097.05.181.069.264.01.041.023.086.03.124.019.111.027.208.023.279-.003.056-.024.135-.044.214a4.04 4.04 0 0 1-.388.86l-.015.027c-.016.027-.039.055-.056.082-.161.245-.37.494-.616.734a4.253 4.253 0 0 1-2.161 1.033c-4.104.692-7.024 1.036-8.042 1.128-1.908.174-3.195.46-4.07.802-1.569.516-1.774 1.171-1.79 1.824-.002.07 0 .141.005.213v.027c.014.645.21 1.293 1.722 1.809.875.353 2.176.65 4.121.832 1.018.095 3.937.446 8.039 1.149a4.236 4.236 0 0 1 2.3 1.175c.321.343.562.698.721 1.015.019.039.045.082.062.12.042.092.071.174.099.255.014.04.033.083.044.12.032.108.051.203.055.274.003.056-.008.137-.019.218-.042.24-.134.556-.286.9l-.011.028c-.013.029-.033.059-.047.088-.132.262-.31.534-.527.8a4.247 4.247 0 0 1-2.027 1.276c-3.996 1.163-6.857 1.843-7.857 2.053-1.875.394-3.12.828-3.949 1.268-1.499.694-1.627 1.369-1.566 2.02.006.069.017.14.03.211l.003.027c.088.639.358 1.26 1.921 1.597.909.249 2.236.393 4.189.348 1.022-.023 3.962-.013 8.118.209a4.246 4.246 0 0 1 2.421.899c.359.304.64.628.835.925.023.036.054.076.075.111.053.087.091.166.129.243.019.037.041.077.057.112.044.104.075.196.087.266.01.055.008.137.007.218a4.02 4.02 0 0 1-.18.925l-.009.031c-.009.03-.025.062-.036.092a4.541 4.541 0 0 1-.43.856 4.26 4.26 0 0 1-1.865 1.504c-3.834 1.619-6.597 2.626-7.566 2.951-1.817.609-3.003 1.184-3.776 1.718-1.408.863-1.457 1.548-1.321 2.188.014.068.033.137.054.207l.006.027c.162.625.502 1.209 2.092 1.363.932.142 2.267.131 4.202-.14 1.013-.142 3.934-.473 8.088-.734a4.238 4.238 0 0 1 2.509.613c.392.26.708.55.936.822.027.034.062.069.087.101.062.08.109.153.156.225.023.035.051.073.071.106.056.098.097.186.117.254.016.054.024.135.032.216.015.242-.003.57-.071.938-.003.012-.003.022-.005.034-.006.03-.018.063-.024.094a4.471 4.471 0 0 1-.329.902 4.249 4.249 0 0 1-1.678 1.709c-3.621 2.053-6.247 3.374-7.173 3.809-1.734.815-2.845 1.524-3.551 2.144-1.298 1.021-1.267 1.707-1.059 2.326.022.066.048.132.078.199l.009.026c.233.602.639 1.143 2.237 1.111.942.032 2.267-.133 4.157-.626.989-.258 3.853-.926 7.948-1.668a4.233 4.233 0 0 1 2.563.318 4.42 4.42 0 0 1 1.025.707c.032.031.07.062.1.092.071.072.125.138.18.205.027.033.059.067.083.098.067.091.118.173.146.239.022.051.04.132.057.211.043.239.064.568.038.943l-.001.031c-.002.031-.01.066-.013.098a4.565 4.565 0 0 1-.221.932 4.257 4.257 0 0 1-1.469 1.893c-3.358 2.459-5.814 4.076-6.682 4.615-1.628 1.011-2.649 1.844-3.278 2.542-1.171 1.164-1.061 1.842-.782 2.433.03.063.063.126.1.188l.012.025c.301.57.767 1.061 2.35.845.94-.077 2.236-.395 4.057-1.104.953-.371 3.719-1.367 7.701-2.578a4.241 4.241 0 0 1 2.584.019c.44.162.814.371 1.098.583.035.027.077.053.11.08.079.063.14.122.202.182.031.029.067.06.095.088.077.082.137.158.172.22.028.048.055.126.081.203.07.232.129.556.147.931l.002.032c.001.031-.003.066-.002.098a4.545 4.545 0 0 1-.112.952 4.256 4.256 0 0 1-1.239 2.051c-3.05 2.832-5.302 4.723-6.102 5.359-1.5 1.193-2.417 2.139-2.961 2.905-1.028 1.292-.84 1.953-.494 2.507.037.059.078.118.121.176l.015.023c.366.532.885.965 2.432.566.925-.185 2.176-.651 3.902-1.568.903-.479 3.536-1.789 7.35-3.454a4.248 4.248 0 0 1 2.567-.282c.457.11.853.274 1.161.452.038.022.082.044.117.066.086.054.154.106.222.158.034.026.074.052.104.076.086.073.154.141.197.199.033.045.069.119.104.192.097.223.192.537.254.908.002.011.005.02.006.032.005.03.005.066.009.098.034.291.034.617 0 .959a4.253 4.253 0 0 1-.993 2.18c-2.701 3.167-4.718 5.306-5.439 6.031-1.351 1.359-2.153 2.405-2.604 3.228-.872 1.403-.608 2.037-.2 2.548.043.054.091.108.141.16l.017.021c.425.486.991.856 2.482.28.897-.292 2.085-.899 3.692-2.009.841-.581 3.304-2.187 6.9-4.284a4.25 4.25 0 0 1 2.516-.578c.467.056.879.173 1.206.314.04.018.088.034.126.053.091.043.165.087.238.131.037.021.079.043.112.064.094.062.17.122.219.175.038.041.082.11.125.179.122.21.253.511.357.87l.01.033c.008.029.013.064.02.094.067.286.106.61.111.954-.02.7-.206 1.493-.733 2.28-2.315 3.458-4.071 5.817-4.703 6.621-1.184 1.506-1.859 2.638-2.212 3.508-.703 1.495-.368 2.095.097 2.555.049.049.103.097.159.143l.02.019c.478.433 1.083.735 2.497-.009.857-.393 1.967-1.135 3.435-2.425.768-.675 3.028-2.555 6.356-5.055a4.247 4.247 0 0 1 2.433-.866c.47.002.894.07 1.234.173.041.013.09.024.129.037.096.033.174.068.253.102.039.017.083.033.118.05.1.051.183.102.237.148.043.036.094.1.145.163.145.194.311.478.456.823l.014.031c.012.028.02.063.031.092.1.276.176.593.221.935a4.254 4.254 0 0 1-.464 2.35c-1.899 3.704-3.369 6.25-3.903 7.122-1.001 1.633-1.541 2.835-1.79 3.741-.525 1.567-.123 2.123.392 2.526.055.043.113.084.174.123l.022.017c.525.375 1.162.605 2.479-.299.805-.49 1.822-1.356 3.131-2.806.685-.759 2.711-2.889 5.727-5.758a4.24 4.24 0 0 1 2.318-1.142 4.418 4.418 0 0 1 1.243.029c.043.008.093.013.134.022.098.021.18.047.261.072.041.012.087.024.125.037.105.039.193.08.253.12.047.031.105.088.163.145.167.176.364.439.549.765l.017.028c.015.027.027.06.042.088.131.263.243.568.327.902a4.26 4.26 0 0 1-.188 2.388c-1.456 3.899-2.621 6.599-3.051 7.526-.805 1.738-1.201 2.995-1.344 3.923-.34 1.617.125 2.123.683 2.464.059.036.122.07.187.103l.023.014c.565.311 1.224.466 2.428-.585.743-.58 1.652-1.558 2.784-3.151.592-.833 2.358-3.184 5.02-6.384a4.235 4.235 0 0 1 2.169-1.403 4.432 4.432 0 0 1 1.241-.116c.043.003.093.002.134.006.101.01.185.026.27.042.042.007.088.013.126.022.109.027.201.057.265.089.05.025.115.075.179.125.186.156.414.395.636.698l.019.024c.018.025.035.058.053.084.16.245.307.535.429.856.221.664.317 1.474.09 2.394-.994 4.042-1.838 6.858-2.157 7.829-.598 1.82-.846 3.115-.88 4.053-.15 1.645.37 2.094.964 2.367.063.029.13.056.198.08l.025.011c.597.244 1.269.321 2.343-.862.671-.663 1.461-1.739 2.4-3.453.491-.896 1.973-3.436 4.246-6.923a4.239 4.239 0 0 1 1.991-1.645 4.407 4.407 0 0 1 1.22-.259c.043-.002.092-.009.133-.009.101-.002.187.004.273.01.042.003.089.003.128.007.112.014.206.033.274.058.052.019.123.062.192.104.203.133.457.344.713.62.007.008.014.013.02.021.021.023.042.054.063.078.188.225.366.496.525.8.296.634.485 1.427.367 2.367-.519 4.13-1.03 7.025-1.234 8.027-.383 1.877-.479 3.191-.404 4.127.042 1.652.61 2.037 1.232 2.24.066.022.135.04.206.057l.026.008c.622.173 1.298.171 2.228-1.128.589-.736 1.249-1.897 1.983-3.708.384-.947 1.561-3.642 3.414-7.369a4.236 4.236 0 0 1 1.787-1.865c.42-.209.829-.337 1.179-.398.044-.007.093-.02.134-.025.1-.014.186-.018.271-.022.043-.002.09-.008.128-.008.113.001.209.009.279.026.054.013.129.047.203.081.217.109.493.289.779.533l.024.019c.024.021.047.048.071.07.213.202.422.45.615.734.368.596.648 1.361.64 2.309-.036 4.162-.208 7.097-.295 8.116-.163 1.909-.105 3.225.078 4.147.233 1.636.843 1.952 1.483 2.082.068.014.139.024.211.032l.027.005c.638.099 1.309.02 2.082-1.379.5-.799 1.02-2.029 1.54-3.912.272-.986 1.128-3.798 2.536-7.715.152-.424.36-.772.586-1.085l-.267 1.121c.666-1.866 2.507-2.563 3.401-2.685.225.084.51.225.812.429.009.007.018.011.027.017.026.017.052.042.078.06.737.551 1.537 1.505 1.69 2.909.451 4.138.623 7.073.656 8.095.173 5.369 1.164 5.89 2.175 5.974.135.011.278.011.425-.007.136.031.271.045.399.05 1.014.034 2.059-.367 2.858-5.679.152-1.011.666-3.906 1.597-7.963.368-1.603 1.533-2.495 2.395-2.883.062-.027.128-.061.187-.084.068-.026.125-.042.187-.061.065-.021.13-.043.188-.058.863.212 2.646 1.121 3.094 3.073l-.138-1.178c.191.34.359.716.463 1.16.942 4.054 1.463 6.948 1.618 7.958.282 1.844.636 3.092 1.018 3.943.618 1.599 1.294 1.77 1.957 1.745.07-.003.141-.009.213-.018l.031-.001c.652-.054 1.295-.298 1.718-1.9.287-.893.496-2.189.557-4.093.033-1.022.205-3.957.655-8.095a4.243 4.243 0 0 1 .988-2.317c.32-.349.658-.617.968-.804.059-.034.121-.076.176-.105.064-.034.12-.056.179-.083.061-.028.124-.058.179-.079.103-.037.195-.062.264-.07.054-.006.134 0 .211.005.281.031.672.132 1.093.307.273.121.557.283.837.491a4.269 4.269 0 0 1 1.344 1.905c1.406 3.917 2.26 6.731 2.53 7.717.495 1.8.99 2.998 1.469 3.8.799 1.515 1.49 1.607 2.146 1.505.069-.011.139-.025.209-.043l.031-.005c.642-.129 1.252-.446 1.486-2.087.181-.92.238-2.232.078-4.129-.086-1.019-.255-3.954-.288-8.116a4.242 4.242 0 0 1 .712-2.415c.277-.385.582-.691.87-.912.054-.041.111-.089.163-.125.06-.041.112-.069.167-.102.058-.035.117-.072.17-.1a1.31 1.31 0 0 1 .254-.1c.053-.013.133-.016.211-.019.282-.002.683.054 1.121.178.285.089.586.217.889.39a4.27 4.27 0 0 1 1.556 1.736c1.851 3.728 3.025 6.423 3.409 7.371.7 1.73 1.332 2.862 1.9 3.603.969 1.413 1.667 1.423 2.306 1.246a2.55 2.55 0 0 0 .204-.067l.029-.008c.623-.203 1.192-.589 1.234-2.246.073-.935-.023-2.244-.402-4.11-.204-1.002-.713-3.898-1.228-8.028a4.237 4.237 0 0 1 .428-2.482c.231-.414.498-.753.758-1.006.049-.047.099-.101.147-.143.055-.048.104-.082.155-.122.053-.042.108-.085.157-.119.091-.059.175-.105.241-.129.051-.019.13-.031.207-.044.28-.035.685-.026 1.135.047.294.055.607.147.928.284a4.269 4.269 0 0 1 1.747 1.544c2.271 3.488 3.75 6.029 4.241 6.926.896 1.637 1.655 2.688 2.305 3.358 1.127 1.291 1.821 1.22 2.435.97.065-.026.129-.057.194-.09a.858.858 0 0 1 .029-.012c.595-.274 1.116-.723.965-2.374-.036-.937-.283-2.226-.876-4.035-.318-.971-1.16-3.789-2.151-7.831a4.245 4.245 0 0 1 .136-2.514c.181-.438.407-.805.635-1.087.044-.052.088-.113.13-.16.048-.053.093-.093.139-.138.049-.048.098-.098.143-.137a1.23 1.23 0 0 1 .224-.156c.048-.024.126-.046.2-.067a4.277 4.277 0 0 1 1.132-.086c.299.021.622.076.957.175a4.265 4.265 0 0 1 1.913 1.331c2.66 3.201 4.424 5.553 5.016 6.387 1.08 1.522 1.955 2.478 2.679 3.068 1.269 1.151 1.95 1.001 2.532.681.061-.034.122-.071.182-.112l.027-.015c.559-.341 1.024-.847.683-2.469-.144-.927-.539-2.179-1.338-3.908-.429-.928-1.592-3.629-3.045-7.529a4.234 4.234 0 0 1-.156-2.513 4.39 4.39 0 0 1 .506-1.154c.037-.057.073-.121.11-.172.042-.059.081-.103.122-.153.043-.053.086-.108.126-.153.075-.079.146-.143.204-.181.045-.03.119-.06.191-.09.265-.098.66-.183 1.116-.216a4.43 4.43 0 0 1 .968.063 4.266 4.266 0 0 1 2.056 1.1c3.014 2.871 5.039 5.002 5.723 5.762 1.249 1.386 2.23 2.235 3.017 2.737 1.394.996 2.053.768 2.593.383.057-.04.113-.085.168-.132l.025-.018c.516-.403.919-.961.391-2.533-.251-.904-.789-2.101-1.782-3.724-.534-.872-2.002-3.419-3.898-7.124a4.239 4.239 0 0 1-.447-2.478c.075-.468.211-.878.368-1.205.03-.06.059-.129.089-.184.035-.064.069-.113.104-.167.036-.057.072-.117.107-.165a1.3 1.3 0 0 1 .182-.204c.041-.035.112-.074.18-.112a4.253 4.253 0 0 1 1.083-.344c.295-.048.621-.069.968-.05.68.068 1.438.303 2.17.854 3.326 2.502 5.585 4.384 6.353 5.059 1.402 1.232 2.474 1.961 3.314 2.368 1.5.828 2.128.524 2.62.079.052-.047.103-.098.152-.151l.023-.021c.465-.46.801-1.061.095-2.561-.354-.869-1.027-1.996-2.203-3.493-.631-.804-2.385-3.164-4.699-6.624a4.234 4.234 0 0 1-.731-2.41c.021-.473.107-.896.226-1.238.023-.064.044-.136.068-.195.027-.067.055-.119.083-.177.029-.061.058-.125.087-.177.055-.094.109-.172.157-.223.037-.039.102-.086.165-.132a4.247 4.247 0 0 1 1.036-.468c.287-.082.608-.141.956-.162a4.265 4.265 0 0 1 2.254.596c3.594 2.099 6.056 3.706 6.897 4.288 1.535 1.061 2.685 1.661 3.567 1.967 1.586.648 2.175.274 2.612-.225.046-.052.09-.109.133-.168l.02-.023c.409-.511.673-1.146-.202-2.554-.452-.822-1.252-1.864-2.594-3.215-.72-.725-2.736-2.866-5.435-6.034a4.243 4.243 0 0 1-1.006-2.31 4.41 4.41 0 0 1 .081-1.254c.016-.067.028-.141.045-.202.019-.069.041-.124.062-.185.022-.065.044-.132.066-.187.044-.1.088-.184.13-.24.032-.043.091-.097.148-.15.216-.183.558-.398.975-.585.276-.115.588-.21.931-.272a4.267 4.267 0 0 1 2.307.331c3.813 1.668 6.445 2.978 7.348 3.458 1.648.876 2.86 1.338 3.771 1.54 1.65.459 2.192.019 2.568-.527.039-.057.077-.118.113-.182l.017-.026c.347-.555.535-1.217-.498-2.514-.545-.764-1.459-1.705-2.949-2.891-.8-.637-3.05-2.529-6.099-5.363a4.246 4.246 0 0 1-1.267-2.176 4.43 4.43 0 0 1-.066-1.257c.008-.067.011-.142.021-.204.011-.071.026-.129.04-.192.014-.066.028-.135.044-.192.032-.104.066-.193.101-.254.027-.047.08-.107.131-.167.193-.206.507-.459.899-.693.26-.146.56-.277.893-.378a4.274 4.274 0 0 1 2.332.06c3.981 1.214 6.747 2.211 7.7 2.582 1.738.679 2.995.997 3.924 1.092 1.693.265 2.18-.235 2.49-.821.033-.062.063-.127.091-.194l.014-.027c.28-.592.39-1.271-.786-2.439-.63-.695-1.647-1.524-3.264-2.53-.868-.54-3.323-2.158-6.68-4.619a4.239 4.239 0 0 1-1.511-2.015 4.436 4.436 0 0 1-.211-1.241c0-.068-.005-.143-.003-.206.003-.071.011-.129.018-.192.007-.069.012-.14.022-.199.02-.107.044-.199.071-.263.021-.05.067-.116.11-.18.167-.227.451-.515.813-.793.242-.176.525-.341.846-.48a4.267 4.267 0 0 1 2.32-.209c4.095.744 6.958 1.413 7.947 1.672 1.805.472 3.09.643 4.024.63 1.712.067 2.138-.486 2.378-1.104.025-.065.048-.133.068-.203l.011-.029c.209-.62.24-1.307-1.063-2.331-.706-.618-1.813-1.323-3.536-2.135-.925-.435-3.551-1.758-7.171-3.812a4.24 4.24 0 0 1-1.734-1.826 4.416 4.416 0 0 1-.354-1.209c-.008-.067-.022-.141-.027-.203-.006-.073-.004-.133-.005-.197-.001-.068-.004-.137-.002-.196.007-.109.02-.203.04-.27.015-.052.053-.123.089-.192.14-.246.388-.565.716-.882.22-.203.481-.4.783-.575a4.268 4.268 0 0 1 2.281-.477c4.154.264 7.075.596 8.088.738 1.848.26 3.145.28 4.07.159 1.708-.132 2.066-.731 2.233-1.373.018-.067.032-.138.044-.209a.333.333 0 0 1 .008-.03c.136-.64.087-1.327-1.327-2.192-.773-.531-1.954-1.104-3.76-1.709-.969-.325-3.731-1.334-7.565-2.955a4.242 4.242 0 0 1-1.935-1.613 4.406 4.406 0 0 1-.491-1.159c-.016-.066-.038-.137-.05-.199-.014-.071-.019-.13-.028-.194-.009-.067-.02-.136-.024-.196a1.214 1.214 0 0 1 .009-.273c.009-.053.038-.128.066-.201.11-.26.32-.605.608-.959.195-.227.432-.453.711-.662a4.267 4.267 0 0 1 2.211-.739c4.156-.22 7.096-.229 8.119-.205 1.866.044 3.156-.087 4.061-.315 1.681-.33 1.968-.966 2.059-1.623.01-.069.016-.14.019-.213l.004-.031c.061-.652-.067-1.328-1.572-2.023-.829-.438-2.069-.87-3.933-1.262-1-.211-3.861-.892-7.856-2.057a4.243 4.243 0 0 1-2.108-1.377 4.384 4.384 0 0 1-.623-1.095c-.023-.064-.054-.132-.073-.192-.022-.068-.034-.127-.05-.189-.017-.066-.036-.134-.047-.192a1.31 1.31 0 0 1-.023-.272c.003-.054.023-.132.042-.207a4.28 4.28 0 0 1 .493-1.023c.167-.248.376-.5.63-.74a4.274 4.274 0 0 1 2.11-.991c4.103-.701 7.022-1.051 8.04-1.146 1.859-.173 3.125-.453 3.998-.784 1.631-.522 1.842-1.187 1.856-1.85a2.21 2.21 0 0 0-.006-.214v-.031c-.015-.655-.221-1.311-1.797-1.827-.875-.339-2.156-.624-4.052-.797-1.018-.093-3.938-.438-8.042-1.132a4.241 4.241 0 0 1-2.254-1.123 4.427 4.427 0 0 1-.745-1.014c-.031-.061-.069-.126-.095-.183-.03-.066-.049-.123-.072-.183-.024-.063-.051-.128-.069-.184a1.274 1.274 0 0 1-.055-.268c-.003-.054.008-.133.018-.211.048-.279.172-.664.371-1.074a4.5 4.5 0 0 1 .539-.807 4.27 4.27 0 0 1 1.981-1.229c3.994-1.172 6.853-1.859 7.853-2.071 1.826-.388 3.051-.812 3.879-1.242 1.56-.708 1.692-1.393 1.629-2.053a2.635 2.635 0 0 0-.03-.212l-.003-.03c-.091-.648-.372-1.276-1.996-1.607-.908-.235-2.214-.369-4.117-.321-1.022.026-3.962.022-8.119-.191a4.241 4.241 0 0 1-2.37-.854 4.407 4.407 0 0 1-.858-.921c-.037-.057-.083-.116-.115-.17-.037-.062-.063-.116-.092-.173-.032-.06-.065-.121-.09-.176a1.325 1.325 0 0 1-.085-.259 1.364 1.364 0 0 1-.007-.211c.015-.282.094-.678.244-1.109.106-.28.251-.573.442-.865a4.268 4.268 0 0 1 1.825-1.451c3.831-1.628 6.591-2.641 7.559-2.968 1.768-.597 2.936-1.16 3.709-1.684 1.468-.884 1.519-1.58 1.38-2.229a2.447 2.447 0 0 0-.055-.207l-.007-.03c-.166-.633-.517-1.225-2.169-1.364-.929-.128-2.242-.11-4.127.159-1.012.144-3.933.481-8.086.752a4.237 4.237 0 0 1-2.453-.574 4.389 4.389 0 0 1-.958-.814c-.044-.052-.096-.107-.135-.157-.043-.056-.074-.106-.11-.158-.039-.057-.08-.115-.111-.166a1.295 1.295 0 0 1-.115-.248c-.016-.052-.023-.132-.031-.209a4.246 4.246 0 0 1 .113-1.129c.072-.291.183-.599.339-.912a4.272 4.272 0 0 1 1.644-1.652c3.616-2.061 6.24-3.388 7.164-3.825 1.687-.798 2.781-1.493 3.488-2.103 1.355-1.049 1.326-1.746 1.113-2.374a2.338 2.338 0 0 0-.078-.199l-.01-.029c-.238-.61-.656-1.156-2.312-1.103-.938-.02-2.24.151-4.081.636-.989.261-3.851.935-7.944 1.686a4.237 4.237 0 0 1-2.502-.285 4.439 4.439 0 0 1-1.047-.698c-.049-.046-.107-.094-.151-.139-.051-.052-.088-.099-.13-.148-.044-.051-.091-.102-.127-.149a1.3 1.3 0 0 1-.143-.233c-.021-.05-.038-.128-.055-.204a4.28 4.28 0 0 1-.018-1.137c.038-.296.112-.614.231-.941a4.275 4.275 0 0 1 1.442-1.833c3.352-2.467 5.804-4.089 6.672-4.63 1.583-.988 2.589-1.806 3.221-2.493 1.224-1.199 1.114-1.888.83-2.487a2.48 2.48 0 0 0-.101-.189l-.013-.028c-.307-.578-.786-1.072-2.425-.827-.934.089-2.207.41-3.979 1.106-.952.374-3.716 1.375-7.695 2.596-.962.295-1.82.22-2.518.008a4.424 4.424 0 0 1-1.121-.572c-.055-.041-.118-.081-.167-.121-.056-.045-.097-.086-.144-.129-.051-.046-.104-.093-.146-.136a1.348 1.348 0 0 1-.169-.214c-.027-.047-.053-.122-.079-.196a4.268 4.268 0 0 1-.15-1.126c.004-.299.04-.624.12-.963a4.265 4.265 0 0 1 1.219-1.987c3.044-2.839 5.291-4.735 6.089-5.373 1.458-1.165 2.362-2.094 2.91-2.85 1.077-1.333.888-2.005.535-2.567a2.419 2.419 0 0 0-.122-.176l-.017-.026c-.372-.539-.905-.974-2.505-.54-.917.197-2.144.663-3.824 1.56-.902.481-3.531 1.797-7.342 3.471a4.247 4.247 0 0 1-2.5.3 4.446 4.446 0 0 1-1.182-.439c-.058-.033-.125-.066-.177-.099-.062-.039-.109-.076-.162-.115-.055-.039-.112-.078-.158-.115a1.338 1.338 0 0 1-.193-.194c-.032-.043-.067-.116-.101-.186a4.301 4.301 0 0 1-.28-1.1 4.474 4.474 0 0 1 .007-.973c.1-.67.38-1.411.972-2.109zm-145.613 148.21c-2.044 3.444-13.124 11.356-26.419-3.029-6.154-6.658-12.506-13.907-16.774-21.698-6.504-11.874-10.247-29.897-9.748-48.971-.381-19.077 3.474-37.077 10.051-48.91 4.316-7.764 10.713-14.974 16.908-21.594 13.384-14.302 24.415-6.321 26.438-2.865.726 1.241 22.801 38.597 34.937 59.713 5.617 9.774 6.022 17.743-.086 27.859-12.589 20.849-34.573 58.258-35.307 59.495zm149.918-41.792c-2.699 8.655-5.812 17.777-10.434 25.363-7.044 11.561-20.796 23.799-37.575 32.884-16.342 9.85-33.865 15.491-47.401 15.695-8.882.134-18.322-1.812-27.15-3.878-19.073-4.463-17.661-18.005-15.674-21.482.713-1.248 22.071-39.019 34.315-60.072 5.668-9.745 12.371-14.072 24.186-13.826 24.349.506 67.738.891 69.176.91 4.003.052 16.389 5.706 10.557 24.406zm-105.138-31.592a5.722 5.722 0 1 1 11.444 0 5.722 5.722 0 0 1-11.444 0zm105.295-31.063c5.731 18.731-6.685 24.318-10.689 24.349-1.438.011-44.825.538-69.18.538-11.273 0-18.384-3.619-24.111-13.956-11.804-21.303-33.285-59.003-33.991-60.256-1.968-3.488-3.306-17.037 15.79-21.397 8.839-2.018 18.289-3.913 27.17-3.732 13.536.277 31.027 6.012 47.316 15.949 16.73 9.175 30.416 21.486 37.398 33.085 4.581 7.612 7.645 16.75 10.297 25.42z" fill="url(#c)"/><linearGradient id="d" gradientUnits="userSpaceOnUse" x1="167.92" x2="167.92" y2="335.836"><stop offset="0" stop-color="#dbdcdd"/><stop offset="1" stop-color="#8a8d92"/></linearGradient><path d="M0 0v335.836h335.84V0H0zm167.92 314.205c-80.792 0-146.287-65.495-146.287-146.287S87.128 21.631 167.92 21.631s146.287 65.495 146.287 146.287-65.495 146.287-146.287 146.287z" fill="url(#d)"/></g></svg>