<svg xmlns="http://www.w3.org/2000/svg" xmlns:xlink="http://www.w3.org/1999/xlink" viewBox="0 0 335.84 335.836"><defs><path id="a" d="M260.615 335.836H75.225c-41.25 0-75-33.75-75-75V75c0-41.25 33.75-75 75-75h185.39c41.25 0 75 33.75 75 75v185.836c0 41.25-33.75 75-75 75z"/></defs><clipPath id="b"><use xlink:href="#a" overflow="visible"/></clipPath><path clip-path="url(#b)" d="M0 0h335.84v335.836H0z"/><g clip-path="url(#b)"><linearGradient id="c" gradientUnits="userSpaceOnUse" x1="167.92" y1="106.499" x2="167.92" y2="336.086"><stop offset="0" stop-color="#fff" stop-opacity=".3"/><stop offset="1" stop-color="#fff" stop-opacity="0"/></linearGradient><path fill="url(#c)" d="M-.25 336.086V194.314l22.055 4.22 20.106 8.41 19.419-5.496 22.583-27.813 19.504 13.838 22.392-44.441 19.557 52.909 22.431 14.065 22.532-36.585 19.688-5.708 22.18-61.214 19.831 50.24 19.426-16.713 22.522 41.904 22.334-47.364 19.78-16.639v218.159z"/><path d="M232.206 107.204l19.718 49.953 19.456-16.739 22.61 42.066 22.523-47.762 19.327-16.259v217.372H0V194.617l21.758 4.162 20.137 8.429 19.579-5.542 22.485-27.692 19.55 13.87 22.265-44.187 19.386 52.451 22.717 14.243 22.613-36.718 19.718-5.716 21.998-60.713m-.02-1.412l-.45 1.242-21.911 60.474-19.473 5.645-.185.054-.101.164-22.349 36.289-22.146-13.885-19.327-52.291-.398-1.078-.517 1.026-22.005 43.668-19.076-13.533-.382-.271-.295.364-22.385 27.569-19.259 5.451-19.975-8.362-.048-.02-.051-.01-21.758-4.162-.594-.114V336.336H336.34V117.39l-.822.691-19.327 16.259-.084.07-.047.099-22.1 46.865-22.141-41.192-.295-.548-.472.406-18.923 16.28-19.46-49.299-.483-1.229z" fill="#fff"/></g><path d="M243.401 104.466c0-6.586-5.063-11.982-11.509-12.527V0h-2.146v91.939c-6.445.546-11.509 5.941-11.509 12.527 0 6.586 5.063 11.982 11.509 12.527v218.842h2.146V116.994c6.446-.546 11.509-5.941 11.509-12.528z" clip-path="url(#b)" fill="#37adff"/><g clip-path="url(#b)" fill="#666"><path d="M294.438 0h2.146v335.836h-2.146zM168.544 0h2.146v335.836h-2.146zM104.098 0h2.146v335.836h-2.146zM39.451 0h2.146v335.836h-2.146z"/></g></svg>