<svg xmlns="http://www.w3.org/2000/svg" xmlns:xlink="http://www.w3.org/1999/xlink" viewBox="0 0 335.84 335.836"><defs><path id="a" d="M260.615 335.836H75.225c-41.25 0-75-33.75-75-75V75c0-41.25 33.75-75 75-75h185.39c41.25 0 75 33.75 75 75v185.836c0 41.25-33.75 75-75 75z"/></defs><clipPath id="b"><use xlink:href="#a" overflow="visible"/></clipPath><path clip-path="url(#b)" d="M0 0h335.84v335.836H0z"/><g clip-path="url(#b)"><linearGradient id="c" gradientUnits="userSpaceOnUse" x1="167.92" y1="101.867" x2="167.92" y2="337.586"><stop offset="0" stop-color="#fff" stop-opacity=".3"/><stop offset="1" stop-color="#fff" stop-opacity="0"/></linearGradient><path d="M-1.75 337.586l.043-145.917 23.187 4.408.491.144 19.997 7.921 20.793-5.037 20-26.782a2.186 2.186 0 0 1 3.076-.436l19.143 14.562 19.625-44.473 2.341.058.5 1.094 19.133 49.715 21.554 13.613 20.741-35.731a2.438 2.438 0 0 1 1.437-1.124l19.074-5.78 20.544-61.953 21.293 51.378a.482.482 0 0 0 .739.2l19.468-15.019.651-.019c.702 0 1.353.409 1.657 1.042l19.968 40.963 21.157-46.285c.13-.285.312-.542.538-.762l22.191-21.584v225.805H-1.75z" fill="url(#c)"/><path d="M230.11 106.877l19.494 47.037a2.23 2.23 0 0 0 3.408.93l19.012-14.667a.087.087 0 0 1 .054-.019.09.09 0 0 1 .081.05l21.596 44.304 22.698-49.656a.76.76 0 0 1 .166-.235l19.222-18.696v219.911H0l.042-142.052 21.029 3.998.333.097 20.436 8.096 21.474-5.202c.304-.074.574-.251.761-.502l20.088-26.9a.432.432 0 0 1 .614-.089l20.909 15.905 20.047-45.43.08.002 19.241 49.997a.845.845 0 0 0 .336.41l23.344 14.743 21.653-37.303a.706.706 0 0 1 .413-.323l19.544-5.922a.835.835 0 0 0 .551-.537l19.215-57.947m-.365-10.021l-2.958 8.919-18.78 56.633-18.223 5.522a4.155 4.155 0 0 0-2.425 1.915l-19.83 34.161-19.527-12.333-18.925-49.175-.842-2.188-2.343-.054h-.001l-.075-.002-2.342-.058-.946 2.144-18.256 41.372-17.378-13.22a3.953 3.953 0 0 0-2.382-.803 3.946 3.946 0 0 0-3.18 1.617l-19.599 26.246-19.64 4.758-19.403-7.687-.154-.061-.159-.046-.331-.096-.16-.046-.163-.031-21.029-3.998-4.152-.79-.001 4.227-.041 142.053-.001 3.501H339.34V107.638l-5.94 5.778-19.222 18.696a4.28 4.28 0 0 0-.909 1.29l-19.616 42.914-18.348-37.641a3.612 3.612 0 0 0-3.227-2.017c-.789 0-1.567.265-2.192.747l-17.683 13.641-18.861-45.51-3.597-8.68z" fill="#fff"/></g><path clip-path="url(#b)" fill="#1eb0fc" d="M229.689 0h3.121v335.836h-3.121z"/><g clip-path="url(#b)"><path d="M231.25 91.537c7.527 0 13.629 6.102 13.629 13.629s-6.102 13.629-13.629 13.629c-7.527 0-13.629-6.102-13.629-13.629s6.102-13.629 13.629-13.629m0-4c-9.721 0-17.629 7.908-17.629 17.629s7.908 17.629 17.629 17.629 17.629-7.908 17.629-17.629-7.908-17.629-17.629-17.629z"/></g><circle cx="231.25" cy="105.166" r="13.629" clip-path="url(#b)" fill="#1eb0fc"/><g clip-path="url(#b)" fill="#666"><path d="M292.66 0h2.146v335.836h-2.146zM166.932-.001h2.146v335.836h-2.146zM104.098 0h2.146v335.836h-2.146zM40.617 0h2.146v335.836h-2.146z"/></g></svg>