<svg xmlns="http://www.w3.org/2000/svg" xmlns:xlink="http://www.w3.org/1999/xlink" viewBox="0 0 300 300"><defs><path id="a" d="M233 300H67c-36.85 0-67-30.15-67-67V67C0 30.15 30.15 0 67 0h166c36.85 0 67 30.15 67 67v166c0 36.85-30.15 67-67 67z"/></defs><clipPath id="b"><use xlink:href="#a" overflow="visible"/></clipPath><path clip-path="url(#b)" d="M.024.026h299.952v299.948H.024z"/><g clip-path="url(#b)"><linearGradient id="c" gradientUnits="userSpaceOnUse" x1="150" y1="90.472" x2="150" y2="301.724"><stop offset="0" stop-color="#fff" stop-opacity=".3"/><stop offset="1" stop-color="#fff" stop-opacity="0"/></linearGradient><path d="M-1.727 301.724l.039-130.736 20.944 3.981.456.134 17.809 7.055 18.448-4.469 17.823-23.867a2.138 2.138 0 0 1 3.005-.429l16.914 12.867 17.484-39.623 2.341.065.49 1.09 17.066 44.345 19.034 12.022 18.428-31.747c.31-.533.807-.921 1.399-1.091l16.934-5.132 18.477-55.718 19.209 46.352a.246.246 0 0 0 .376.102l17.436-13.452.646-.017c.701 0 1.33.391 1.641 1.019l17.669 36.247 18.731-40.979c.129-.279.302-.525.518-.735l20.14-19.589v202.305H-1.727z" fill="url(#c)"/><path d="M205.544 95.482l17.411 42.011a1.993 1.993 0 0 0 3.044.83l16.98-13.1a.08.08 0 0 1 .121.028l19.288 39.569 20.273-44.35a.702.702 0 0 1 .148-.21l17.168-16.698v196.411H.024L.062 173.1l18.781 3.571.297.086 18.252 7.231 19.18-4.646c.272-.066.512-.225.68-.449l17.941-24.026a.388.388 0 0 1 .549-.08l18.674 14.206 17.904-40.576.072.002 17.185 44.654a.755.755 0 0 0 .301.366l20.849 13.168 19.34-33.317a.626.626 0 0 1 .369-.288l17.456-5.289a.745.745 0 0 0 .492-.48l17.16-51.751m-.364-10.021l-2.958 8.919-16.712 50.397-16.09 4.876a4.083 4.083 0 0 0-2.381 1.881l-17.516 30.174-17.007-10.742-16.858-43.804-.841-2.187-2.342-.055-2.34-.055-1.017 2.14-16.114 36.517-15.144-11.52a3.91 3.91 0 0 0-2.354-.794 3.899 3.899 0 0 0-3.142 1.598l-17.422 23.33-17.295 4.19-17.219-6.822-.155-.061-.16-.046-.279-.081-.159-.046-.18-.036-18.781-3.571-4.153-.79-.001 4.227-.038 126.873-.001 3.501h306.953V95.276l-5.94 5.778-17.168 16.698a4.19 4.19 0 0 0-.891 1.263l-17.191 37.609-16.04-32.906a3.6 3.6 0 0 0-3.218-2.011c-.788 0-1.566.266-2.19.748l-15.403 11.883-16.658-40.195-3.595-8.682z" fill="#fff"/></g><path clip-path="url(#b)" fill="#1eb0fc" d="M205.169.026h2.788v299.948h-2.788z"/><g clip-path="url(#b)"><path d="M206.562 81.781c6.723 0 12.173 5.45 12.173 12.173s-5.45 12.173-12.173 12.173-12.173-5.45-12.173-12.173 5.451-12.173 12.173-12.173m0-4c-8.918 0-16.173 7.255-16.173 16.173s7.255 16.173 16.173 16.173 16.173-7.255 16.173-16.173-7.255-16.173-16.173-16.173z"/></g><circle cx="206.562" cy="93.954" r="12.173" clip-path="url(#b)" fill="#1eb0fc"/><g clip-path="url(#b)" fill="#666"><path d="M261.41.026h1.917v299.948h-1.917zM149.118.025h1.917v299.948h-1.917zM92.998.026h1.917v299.948h-1.917zM36.301.026h1.917v299.948h-1.917z"/></g></svg>