<svg xmlns="http://www.w3.org/2000/svg" xmlns:xlink="http://www.w3.org/1999/xlink" viewBox="0 0 300 300"><defs><path id="a" d="M233 300H67c-36.85 0-67-30.15-67-67V67C0 30.15 30.15 0 67 0h166c36.85 0 67 30.15 67 67v166c0 36.85-30.15 67-67 67z"/></defs><clipPath id="b"><use xlink:href="#a" overflow="visible"/></clipPath><linearGradient id="c" gradientUnits="userSpaceOnUse" x1="150" y1=".026" x2="150" y2="299.974"><stop offset="0" stop-color="#ffa900"/><stop offset="1" stop-color="#ffcb02"/></linearGradient><path clip-path="url(#b)" fill="url(#c)" d="M.024.026h299.952v299.948H.024z"/><g clip-path="url(#b)" fill="#fff"><path d="M169.3 228.391h-38.685c-2.27 0-4.128 1.858-4.128 4.128s1.858 4.128 4.128 4.128H169.3c2.27 0 4.128-1.858 4.128-4.128s-1.858-4.128-4.128-4.128zM167.237 241.978h-34.558a4.14 4.14 0 0 0-4.128 4.128 4.14 4.14 0 0 0 4.128 4.128h34.558a4.14 4.14 0 0 0 4.128-4.128 4.14 4.14 0 0 0-4.128-4.128zM160.636 255.566h-21.357a4.14 4.14 0 0 0-4.128 4.128 4.14 4.14 0 0 0 4.128 4.128h21.357a4.14 4.14 0 0 0 4.128-4.128 4.139 4.139 0 0 0-4.128-4.128z"/></g><path d="M149.958 40.136c-35.167 0-72.355 26.956-72.355 76.439 0 30.206 33.911 58.205 38.386 64.509 4.475 6.305 8.742 15.964 9.249 19.989.816 6.478-.029 9.856 3.048 16.701 1.492 3.319 5.105 4.978 21.672 4.978s20.18-1.659 21.672-4.978c3.077-6.845 2.232-10.222 3.048-16.701.507-4.025 4.774-13.684 9.249-19.989 4.475-6.305 38.386-34.304 38.386-64.509 0-49.482-37.188-76.439-72.355-76.439zm33.175 91.145c-.604 1.85-2.432 3.025-4.378 3.025h-22.803c-.821 0-1.486.665-1.486 1.486v67.71a4.525 4.525 0 0 1-5.99 4.267c-1.85-.604-3.025-2.432-3.025-4.378v-67.599c0-.821-.666-1.486-1.486-1.486H121.05a4.525 4.525 0 0 1-4.267-5.99c.604-1.85 2.432-3.025 4.378-3.025h57.705a4.525 4.525 0 0 1 4.267 5.99z" clip-path="url(#b)" fill="#fff"/></svg>