<svg xmlns="http://www.w3.org/2000/svg" xmlns:xlink="http://www.w3.org/1999/xlink" viewBox="0 0 300 300"><defs><path id="a" d="M233 300H67c-36.85 0-67-30.15-67-67V67C0 30.15 30.15 0 67 0h166c36.85 0 67 30.15 67 67v166c0 36.85-30.15 67-67 67z"/></defs><clipPath id="b"><use xlink:href="#a" overflow="visible"/></clipPath><linearGradient id="c" gradientUnits="userSpaceOnUse" x1="150" y1=".026" x2="150" y2="299.974"><stop offset="0" stop-color="#1e1e20"/><stop offset="1" stop-color="#1d1e20"/></linearGradient><path clip-path="url(#b)" fill="url(#c)" d="M.024.026h299.952v299.948H.024z"/><path d="M248.007 74.222H51.909c-4.4 0-8 3.6-8 8v115.271c0 4.4 3.6 8 8 8h196.098c4.4 0 8-3.6 8-8V82.222c0-4.399-3.6-8-8-8z" clip-path="url(#b)" fill="#fff"/><linearGradient id="d" gradientUnits="userSpaceOnUse" x1="102.296" y1="57.306" x2="197.619" y2="222.411"><stop offset="0" stop-color="#3eccbe"/><stop offset=".152" stop-color="#4ce8c0"/><stop offset=".238" stop-color="#51f4bb"/><stop offset=".41" stop-color="#54eec6"/><stop offset=".557" stop-color="#54dad9"/><stop offset="1" stop-color="#36a0d0"/></linearGradient><path d="M243.972 195.341H55.943c-1.1 0-2-.9-2-2V86.375c0-1.1.9-2 2-2h188.029c1.1 0 2 .9 2 2v106.966c0 1.1-.9 2-2 2z" clip-path="url(#b)" fill="url(#d)"/><path d="M208.159 229.202H90.75c-1.1 0-2-.9-2-2v-9.125c0-1.1.9-2 2-2h117.41c1.1 0 2 .9 2 2v9.125c-.001 1.1-.901 2-2.001 2z" clip-path="url(#b)" fill="#fff"/></svg>