<svg xmlns="http://www.w3.org/2000/svg" xmlns:xlink="http://www.w3.org/1999/xlink" viewBox="0 0 335.84 335.836"><defs><path id="a" d="M260.615 335.836H75.225c-41.25 0-75-33.75-75-75V75c0-41.25 33.75-75 75-75h185.39c41.25 0 75 33.75 75 75v185.836c0 41.25-33.75 75-75 75z"/></defs><clipPath id="b"><use xlink:href="#a" overflow="visible"/></clipPath><linearGradient id="c" gradientUnits="userSpaceOnUse" x1="167.92" x2="167.92" y2="335.836"><stop offset=".35" stop-color="#51edc7"/><stop offset="1" stop-color="#5ac7fb"/></linearGradient><path clip-path="url(#b)" fill="url(#c)" d="M0 0h335.84v335.836H0z"/><linearGradient id="d" gradientUnits="userSpaceOnUse" x1="168.03" y1="103.261" x2="168.03" y2="121.885"><stop offset="0" stop-opacity=".7"/><stop offset=".123" stop-opacity=".5"/><stop offset=".231" stop-opacity=".2"/><stop offset=".373" stop-opacity="0"/></linearGradient><path clip-path="url(#b)" fill="url(#d)" d="M.446 103.261h335.169v18.624H.446z"/><path clip-path="url(#b)" fill="#181818" d="M353.348 0h-56.177l52.058 51.499-52.058 51.762h56.177l52.057-51.762z"/><path clip-path="url(#b)" fill="#fff" d="M297.171 0h-61.818l52.058 51.499-52.058 51.762h61.818l52.058-51.762z"/><path clip-path="url(#b)" fill="#181818" d="M235.353 0h-56.177l52.058 51.499-52.058 51.762h56.177l52.058-51.762z"/><path clip-path="url(#b)" fill="#fff" d="M179.176 0h-61.46l52.057 51.499-52.057 51.762h61.46l52.058-51.762z"/><path clip-path="url(#b)" fill="#181818" d="M117.716 0H61.539l52.058 51.499-52.058 51.762h56.177l52.057-51.762z"/><path clip-path="url(#b)" fill="#fff" d="M61.554 0H.446l52.058 51.499L.446 103.261h61.108l52.058-51.762z"/><path clip-path="url(#b)" fill="#181818" d="M.446 0H-55.73l52.057 51.499-52.057 51.762H.446l52.058-51.762z"/><path clip-path="url(#b)" fill="#181818" d="M0 49.775h335.615v3.457H0z"/></svg>