<svg xmlns="http://www.w3.org/2000/svg" xmlns:xlink="http://www.w3.org/1999/xlink" viewBox="0 0 300 300"><defs><path id="a" d="M233 300H67c-36.85 0-67-30.15-67-67V67C0 30.15 30.15 0 67 0h166c36.85 0 67 30.15 67 67v166c0 36.85-30.15 67-67 67z"/></defs><clipPath id="b"><use xlink:href="#a" overflow="visible"/></clipPath><linearGradient id="c" gradientUnits="userSpaceOnUse" x1="150" x2="150" y2="300"><stop offset=".35" stop-color="#51edc7"/><stop offset="1" stop-color="#5ac7fb"/></linearGradient><path clip-path="url(#b)" fill="url(#c)" d="M-.002 0h300.004v300H-.002z"/><linearGradient id="d" gradientUnits="userSpaceOnUse" x1="150.099" y1="92.242" x2="150.099" y2="108.879"><stop offset="0" stop-opacity=".7"/><stop offset=".123" stop-opacity=".5"/><stop offset=".231" stop-opacity=".2"/><stop offset=".373" stop-opacity="0"/></linearGradient><path clip-path="url(#b)" fill="url(#d)" d="M.396 92.242h299.405v16.637H.396z"/><path clip-path="url(#b)" fill="#181818" d="M315.641 0h-50.182l46.503 46.004-46.503 46.238h50.182l46.503-46.238z"/><path clip-path="url(#b)" fill="#fff" d="M265.459 0h-55.222l46.503 46.004-46.503 46.238h55.222l46.503-46.238z"/><path clip-path="url(#b)" fill="#181818" d="M210.237 0h-50.182l46.503 46.004-46.503 46.238h50.182l46.503-46.238z"/><path clip-path="url(#b)" fill="#fff" d="M160.055 0h-54.902l46.503 46.004-46.503 46.238h54.902l46.503-46.238z"/><path clip-path="url(#b)" fill="#181818" d="M105.153 0H54.971l46.502 46.004-46.502 46.238h50.182l46.503-46.238z"/><path clip-path="url(#b)" fill="#fff" d="M54.984 0H.396l46.503 46.004L.396 92.242h54.588l46.503-46.238z"/><path clip-path="url(#b)" fill="#181818" d="M.396 0h-50.182l46.503 46.004-46.503 46.238H.396l46.503-46.238z"/><path clip-path="url(#b)" fill="#181818" d="M-.002 44.464h299.803v3.088H-.002z"/></svg>