<svg xmlns="http://www.w3.org/2000/svg" xmlns:xlink="http://www.w3.org/1999/xlink" viewBox="0 0 300 300"><defs><path id="a" d="M233 300H67c-36.85 0-67-30.15-67-67V67C0 30.15 30.15 0 67 0h166c36.85 0 67 30.15 67 67v166c0 36.85-30.15 67-67 67z"/></defs><clipPath id="b"><use xlink:href="#a" overflow="visible"/></clipPath><path clip-path="url(#b)" fill="#fff" d="M.024.026h299.952v299.948H.024z"/><path clip-path="url(#b)" fill="none" stroke="#030303" stroke-width=".5" stroke-miterlimit="10" d="M0 150.4h300"/><g clip-path="url(#b)" fill="#010101"><path d="M244.783 147.758h-.557c-.984 0-1.789.805-1.789 1.789v1.506c0 .984.805 1.789 1.789 1.789h.557c.984 0 1.789-.805 1.789-1.789v-1.506a1.795 1.795 0 0 0-1.789-1.789zM237.67 147.492h-.557c-.984 0-1.789.805-1.789 1.789v2.038c0 .984.805 1.789 1.789 1.789h.557c.984 0 1.789-.805 1.789-1.789v-2.038c0-.984-.805-1.789-1.789-1.789zM230.558 143.37h-.557c-.984 0-1.789.805-1.789 1.789v10.283c0 .984.805 1.789 1.789 1.789h.557c.984 0 1.789-.805 1.789-1.789v-10.283c0-.984-.805-1.789-1.789-1.789zM223.446 146.428h-.557c-.984 0-1.789.805-1.789 1.789v4.165c0 .984.805 1.789 1.789 1.789h.557c.984 0 1.789-.805 1.789-1.789v-4.165c0-.984-.805-1.789-1.789-1.789zM216.334 144.19h-.557c-.984 0-1.789.805-1.789 1.789v8.641c0 .984.805 1.789 1.789 1.789h.557c.984 0 1.789-.805 1.789-1.789v-8.641c0-.983-.805-1.789-1.789-1.789zM209.222 144.982h-.557c-.984 0-1.789.805-1.789 1.789v7.057c0 .984.805 1.789 1.789 1.789h.557c.984 0 1.789-.805 1.789-1.789v-7.057a1.795 1.795 0 0 0-1.789-1.789zM202.109 143.533h-.557c-.984 0-1.789.805-1.789 1.789v9.955c0 .984.805 1.789 1.789 1.789h.557c.984 0 1.789-.805 1.789-1.789v-9.955c0-.984-.805-1.789-1.789-1.789zM194.997 139.815h-.557c-.984 0-1.789.805-1.789 1.789v17.391c0 .984.805 1.789 1.789 1.789h.557c.984 0 1.789-.805 1.789-1.789v-17.391c0-.984-.805-1.789-1.789-1.789zM187.885 142.488h-.557c-.984 0-1.789.805-1.789 1.789v12.045c0 .984.805 1.789 1.789 1.789h.557c.984 0 1.789-.805 1.789-1.789v-12.045c0-.984-.805-1.789-1.789-1.789zM180.773 138.259h-.557c-.984 0-1.789.805-1.789 1.789v20.504c0 .984.805 1.789 1.789 1.789h.557c.984 0 1.789-.805 1.789-1.789v-20.504c0-.984-.805-1.789-1.789-1.789zM173.661 130.078h-.557c-.984 0-1.789.805-1.789 1.789v36.866c0 .984.805 1.789 1.789 1.789h.557c.984 0 1.789-.805 1.789-1.789v-36.866c0-.984-.805-1.789-1.789-1.789zM166.548 132.65h-.557c-.984 0-1.789.805-1.789 1.789v31.722c0 .984.805 1.789 1.789 1.789h.557c.984 0 1.789-.805 1.789-1.789v-31.722c0-.984-.805-1.789-1.789-1.789zM159.436 133.816h-.557c-.984 0-1.789.805-1.789 1.789v29.391c0 .984.805 1.789 1.789 1.789h.557c.984 0 1.789-.805 1.789-1.789v-29.391c0-.984-.805-1.789-1.789-1.789zM152.324 107.42h-.557c-.984 0-1.789.805-1.789 1.789v82.182c0 .984.805 1.789 1.789 1.789h.557c.984 0 1.789-.805 1.789-1.789v-82.182c0-.984-.805-1.789-1.789-1.789zM145.212 121.246h-.557c-.984 0-1.789.805-1.789 1.789v54.531c0 .984.805 1.789 1.789 1.789h.557c.984 0 1.789-.805 1.789-1.789v-54.531c0-.984-.805-1.789-1.789-1.789zM138.1 112.409h-.557c-.984 0-1.789.805-1.789 1.789v72.204c0 .984.805 1.789 1.789 1.789h.557c.984 0 1.789-.805 1.789-1.789v-72.204c0-.984-.805-1.789-1.789-1.789zM130.987 133.058h-.557c-.984 0-1.789.805-1.789 1.789v30.907c0 .984.805 1.789 1.789 1.789h.557c.984 0 1.789-.805 1.789-1.789v-30.907c0-.984-.805-1.789-1.789-1.789zM123.875 114.487h-.557c-.984 0-1.789.805-1.789 1.789v68.048c0 .984.805 1.789 1.789 1.789h.557c.984 0 1.789-.805 1.789-1.789v-68.048c0-.984-.805-1.789-1.789-1.789zM116.763 94.653h-.557c-.984 0-1.789.805-1.789 1.789v107.716c0 .984.805 1.789 1.789 1.789h.557c.984 0 1.789-.805 1.789-1.789V96.442c0-.984-.805-1.789-1.789-1.789zM109.651 54.996h-.557c-.984 0-1.789.805-1.789 1.789v187.03c0 .984.805 1.789 1.789 1.789h.557c.984 0 1.789-.805 1.789-1.789V56.785c0-.984-.805-1.789-1.789-1.789zM102.539 58.248h-.557c-.984 0-1.789.805-1.789 1.789v180.525c0 .984.805 1.789 1.789 1.789h.557c.984 0 1.789-.805 1.789-1.789V60.037c0-.984-.805-1.789-1.789-1.789zM95.427 16.56h-.557c-.984 0-1.789.805-1.789 1.789v260.838c0 .984.805 1.789 1.789 1.789h.557c.984 0 1.789-.805 1.789-1.789V18.349a1.795 1.795 0 0 0-1.789-1.789zM88.314 94.869h-.557c-.984 0-1.789.805-1.789 1.789v107.284c0 .984.805 1.789 1.789 1.789h.557c.984 0 1.789-.805 1.789-1.789V96.658c0-.984-.805-1.789-1.789-1.789zM81.202 86.689h-.557c-.984 0-1.789.805-1.789 1.789v123.643c0 .984.805 1.789 1.789 1.789h.557c.984 0 1.789-.805 1.789-1.789V88.478c0-.983-.805-1.789-1.789-1.789zM74.09 116.861h-.557c-.984 0-1.789.805-1.789 1.789v63.301c0 .984.805 1.789 1.789 1.789h.557c.984 0 1.789-.805 1.789-1.789V118.65c0-.984-.805-1.789-1.789-1.789zM66.978 105.258h-.557c-.984 0-1.789.805-1.789 1.789v86.507c0 .984.805 1.789 1.789 1.789h.557c.984 0 1.789-.805 1.789-1.789v-86.507c0-.984-.805-1.789-1.789-1.789zM59.866 140.498h-.557c-.984 0-1.789.805-1.789 1.789v16.025c0 .984.805 1.789 1.789 1.789h.557c.984 0 1.789-.805 1.789-1.789v-16.025c0-.984-.806-1.789-1.789-1.789zM52.753 146.15h-.557c-.984 0-1.789.805-1.789 1.789v4.723c0 .984.805 1.789 1.789 1.789h.557c.984 0 1.789-.805 1.789-1.789v-4.723c0-.984-.805-1.789-1.789-1.789zM45.641 147.518h-.557c-.984 0-1.789.805-1.789 1.789v1.986c0 .984.805 1.789 1.789 1.789h.557c.984 0 1.789-.805 1.789-1.789v-1.986c0-.984-.805-1.789-1.789-1.789zM38.529 146.366h-.557c-.984 0-1.789.805-1.789 1.789v4.29c0 .984.805 1.789 1.789 1.789h.557c.984 0 1.789-.805 1.789-1.789v-4.29c0-.984-.805-1.789-1.789-1.789zM31.417 146.366h-.557c-.984 0-1.789.805-1.789 1.789v4.29c0 .984.805 1.789 1.789 1.789h.557c.984 0 1.789-.805 1.789-1.789v-4.29c0-.984-.805-1.789-1.789-1.789zM24.305 145.902h-.557c-.984 0-1.789.805-1.789 1.789v5.218c0 .984.805 1.789 1.789 1.789h.557c.984 0 1.789-.805 1.789-1.789v-5.218c0-.984-.805-1.789-1.789-1.789zM17.192 146.975h-.557c-.984 0-1.789.805-1.789 1.789v3.072c0 .984.805 1.789 1.789 1.789h.557c.984 0 1.789-.805 1.789-1.789v-3.072c0-.984-.805-1.789-1.789-1.789zM10.08 146.366h-.557c-.984 0-1.789.805-1.789 1.789v4.29c0 .984.805 1.789 1.789 1.789h.557c.984 0 1.789-.805 1.789-1.789v-4.29c0-.984-.805-1.789-1.789-1.789zM2.968 147.317h-.557c-.984 0-1.789.805-1.789 1.789v2.387c0 .984.805 1.789 1.789 1.789h.557c.984 0 1.789-.805 1.789-1.789v-2.387c0-.984-.805-1.789-1.789-1.789zM251.895 145.802h-.557c-.984 0-1.789.805-1.789 1.789v5.418c0 .984.805 1.789 1.789 1.789h.557c.984 0 1.789-.805 1.789-1.789v-5.418c0-.984-.805-1.789-1.789-1.789z"/></g></svg>