<svg xmlns="http://www.w3.org/2000/svg" xmlns:xlink="http://www.w3.org/1999/xlink" viewBox="0 0 335.84 335.836" enable-background="new 0 0 335.84 335.836"><filter id="c"><feOffset dy="-2"/><feGaussianBlur result="offset-blur" stdDeviation="3"/><feComposite in2="offset-blur" operator="out" result="inverse" in="SourceGraphic"/><feFlood flood-opacity=".5" flood-color="#000" result="color"/><feComposite in2="inverse" operator="in" result="shadow" in="color"/><feComposite in2="SourceGraphic" in="shadow"/></filter><defs><path id="a" d="M260.615 335.836H75.225c-41.25 0-75-33.75-75-75V75c0-41.25 33.75-75 75-75h185.39c41.25 0 75 33.75 75 75v185.836c0 41.25-33.75 75-75 75z"/></defs><clipPath id="b"><use xlink:href="#a" overflow="visible"/></clipPath><path clip-path="url(#b)" fill="#1e1e1f" d="M0 0h335.84v335.836H0z"/><g clip-path="url(#b)" filter="url(#c)"><path d="M277.157 73.269H58.599c-11.046 0-20 8.954-20 20v70.204h258.558V93.269c0-11.045-8.955-20-20-20z" fill="#d9d6cc"/></g><path d="M38.599 242.631c0 11.046 8.954 20 20 20h218.558c11.046 0 20-8.954 20-20v-79.28H38.599v79.28z" clip-path="url(#b)" fill="#d9d6cc"/><g clip-path="url(#b)" filter="url(#c)"><path d="M269.092 83.249H66.854c-9.941 0-18 8.059-18 18v17.646H49c1.081-8.908 8.655-15.814 17.854-15.814h202.238c9.2 0 16.774 6.906 17.854 15.814h.146v-17.646c0-9.941-8.059-18-18-18z" fill="#3b99c9"/></g><g clip-path="url(#b)" filter="url(#c)"><path d="M269.092 103.081H66.854c-9.941 0-18 8.059-18 18v17.646H49c1.081-8.908 8.655-15.814 17.854-15.814h202.238c9.2 0 16.773 6.906 17.854 15.814h.146v-17.646c0-9.941-8.059-18-18-18z" fill="#f9a900"/></g><g clip-path="url(#b)" filter="url(#c)"><path d="M269.092 122.913H66.854c-9.941 0-18 8.059-18 18v17.646H49c1.081-8.908 8.655-15.814 17.854-15.814h202.238c9.2 0 16.774 6.906 17.854 15.814h.146v-17.646c0-9.941-8.059-18-18-18z" fill="#4dbc3b"/></g><g clip-path="url(#b)" filter="url(#c)"><path d="M109.479 163.356l8.059.087c2.779 0 7.737 2.334 10.776 3.616 10.03 4.23 12.18 13.984 19.762 20.316 4.913 4.103 15.824 5.78 19.801 5.78s14.889-1.677 19.801-5.78c7.582-6.333 9.732-16.087 19.762-20.316 3.039-1.282 7.997-3.616 10.776-3.616l8.059-.087h60.816v-2.61c0-9.941-8.059-18-18-18H66.854c-9.941 0-18 8.059-18 18v2.61h60.625z" fill="#f06b5d"/></g></svg>