<svg xmlns="http://www.w3.org/2000/svg" xmlns:xlink="http://www.w3.org/1999/xlink" viewBox="0 0 300 300" enable-background="new 0 0 300 300"><filter id="c"><feOffset dy="-2"/><feGaussianBlur result="offset-blur" stdDeviation="3"/><feComposite in2="offset-blur" operator="out" result="inverse" in="SourceGraphic"/><feFlood flood-color="#000" result="color" flood-opacity=".5"/><feComposite in2="inverse" operator="in" result="shadow" in="color"/><feComposite in2="SourceGraphic" in="shadow"/></filter><defs><path id="a" d="M233 300H67c-36.85 0-67-30.15-67-67V67C0 30.15 30.15 0 67 0h166c36.85 0 67 30.15 67 67v166c0 36.85-30.15 67-67 67z"/></defs><clipPath id="b"><use xlink:href="#a" overflow="visible"/></clipPath><path clip-path="url(#b)" fill="#1e1e1f" d="M-.002 0h300.004v300H-.002z"/><g clip-path="url(#b)" filter="url(#c)"><path d="M245.446 65.451H54.478c-11.046 0-20 8.954-20 20v60.579h230.968V85.451c0-11.046-8.954-20-20-20z" fill="#d9d6cc"/></g><path d="M34.478 216.741c0 9.867 7.999 17.866 17.866 17.866h195.237c9.867 0 17.866-7.999 17.866-17.866v-70.82H34.478v70.82z" clip-path="url(#b)" fill="#d9d6cc"/><g clip-path="url(#b)" filter="url(#c)"><path d="M240.376 74.366H59.718c-8.88 0-16.079 7.199-16.079 16.079v15.763h.13c.965-7.957 7.731-14.126 15.949-14.126h180.658c8.218 0 14.984 6.169 15.949 14.126h.13V90.445c.001-8.88-7.198-16.079-16.079-16.079z" fill="#3b99c9"/></g><g clip-path="url(#b)" filter="url(#c)"><path d="M240.376 92.082H59.718c-8.88 0-16.079 7.199-16.079 16.079v15.763h.13c.965-7.957 7.731-14.126 15.949-14.126h180.658c8.218 0 14.984 6.169 15.949 14.126h.13v-15.763c.001-8.88-7.198-16.079-16.079-16.079z" fill="#f9a900"/></g><g clip-path="url(#b)" filter="url(#c)"><path d="M240.376 109.798H59.718c-8.88 0-16.079 7.199-16.079 16.079v15.763h.13c.965-7.957 7.731-14.126 15.949-14.126h180.658c8.218 0 14.984 6.169 15.949 14.126h.13v-15.763c.001-8.88-7.198-16.079-16.079-16.079z" fill="#4dbc3b"/></g><g clip-path="url(#b)" filter="url(#c)"><path d="M97.795 145.925l7.199.078c2.482 0 6.911 2.085 9.626 3.23 8.959 3.779 10.88 12.492 17.653 18.149 4.388 3.665 14.136 5.163 17.689 5.163 3.553 0 13.3-1.498 17.689-5.163 6.773-5.657 8.694-14.37 17.653-18.149 2.715-1.145 7.143-3.23 9.626-3.23l7.199-.078h54.326v-2.332c0-8.88-7.199-16.079-16.079-16.079H59.718c-8.88 0-16.079 7.199-16.079 16.079v2.332h54.156z" fill="#f06b5d"/></g></svg>