<svg xmlns="http://www.w3.org/2000/svg" xmlns:xlink="http://www.w3.org/1999/xlink" viewBox="0 0 335.84 335.836"><defs><path id="a" d="M260.615 335.836H75.225c-41.25 0-75-33.75-75-75V75c0-41.25 33.75-75 75-75h185.39c41.25 0 75 33.75 75 75v185.836c0 41.25-33.75 75-75 75z"/></defs><clipPath id="b"><use xlink:href="#a" overflow="visible"/></clipPath><linearGradient id="c" gradientUnits="userSpaceOnUse" x1="167.92" x2="167.92" y2="335.836"><stop offset="0" stop-color="#1a1a1a"/><stop offset=".999" stop-color="#1a1a1a"/></linearGradient><path clip-path="url(#b)" fill="url(#c)" d="M0 0h335.84v335.836H0z"/><g clip-path="url(#b)" fill="#aaa9af"><path d="M255.946 193.971l3.125 1.078 1.428-6.732-3.175-.425z"/><ellipse transform="rotate(-73.058 266.36 193.044)" cx="266.351" cy="193.044" rx="6.85" ry="4.487"/></g><g clip-path="url(#b)" fill="#fff"><path d="M248.211 132.752c.994-1.094 2.147-6.45 1.804-11.996-2.185-12.46-22.676-34.481-33.779-40.96-2.261-1.319-4.293-1.7-5.79.036-1.284 1.49-.281 4.151 1.68 5.23 11.891 6.541 30.763 27.976 32.974 43.455.321 2.237 2.279 5.151 3.111 4.235zM266.257 142.251c-3.008-6.445-5.947-9.976-6.687-8.665-.436.773-.617 5.579-.446 10.245.007.198.037.393.087.584 1.842 7.088 2.4 14.81 2.4 23.503 0 26.816-9.523 51.084-24.388 69.462-16.701 20.647-40.003 33.115-66.631 33.115-32.756 0-55.735-15.713-69.175-36.39-.201-.31-2.849-5.046-3.452-6.25-1.386-2.773-3.025-4.334-5.846-4.334-3.148 0-5.872 2.707-5.872 5.855 0 2.031 2.697 6.129 4.025 7.961 19.21 26.495 43.298 42.142 80.319 42.142 29.271 0 54.513-13.745 72.843-36.144 16.344-19.972 26.456-46.193 26.456-75.416.001-9.299-.275-18.474-3.633-25.668z"/><path d="M91.909 114.026c2.28 0 4.259-1.33 5.326-3.183 1.492-2.591 2.119-4.018 2.587-4.955 11.16-22.349 39.766-40.427 71.719-40.427 13.725 0 30.357 1.497 45.678 12.549 18.083 13.044 25.954 23.345 33.509 38.646 3.402 6.89-1.735 15.779-1.298 22.128.457 6.632 3.072 17.016 3.072 29.134 0 15.26-2.467 24.801-6.278 36.345-1.107 3.354.309 4.984 1.722 5.489 1.674.598 4.044-.521 4.941-3.356 4.57-14.449 6.919-21.553 6.923-38.478.003-12.443-2.427-22.226-2.799-28.451s4.57-16.27 1.707-23.289c-7.36-18.045-18.676-31.701-38.519-45.868-14.209-10.144-33.05-13.654-48.626-13.654-36.621 0-68.464 21.847-82.138 44.373-1.026 1.69-3.226 4.65-3.226 7.296a5.7 5.7 0 0 0 5.7 5.701z"/></g><path d="M102.467 104.494c-.239.173-.724 2.323-3.191 6.34-1.854 3.019-5.28 7.003-11.098 4.003-4.463-2.302-4.438-7.845-3.136-10.22 1.479-2.698 3.465-4.99 3.323-5.355-.143-.366-2.57-.201-3.752.101-6.599 1.682-11.785 7.799-14.463 15.146l-.1 108.67c1.926 6.322 8.479 12.998 14.122 14.692 1.571.471 3.667.517 3.836.01.169-.507-.871-2.057-2.153-3.819-2.849-3.915-1.874-8.899 1.675-11.056 3.549-2.156 7.718-1.707 11.726 3.729 1.793 2.432 2.806 6.075 3.127 6.235.321.16 1.076-.349 1.608-.891 2.804-2.848 3.825-6.138 4.411-9.509V114.423c-.827-2.935-1.828-5.078-4.262-8.518-.811-1.146-1.333-1.657-1.673-1.411z" clip-path="url(#b)" fill="#b0b1b5"/><path d="M75.197 105.628c-2.123 2.517-3.842 5.571-5.047 8.879l-.1 108.67c.897 2.944 2.803 5.959 5.147 8.517V105.628z" clip-path="url(#b)" fill="#737373"/><g clip-path="url(#b)"><circle cx="87.724" cy="142.621" r="10.003"/><path d="M87.724 127.693c-8.231 0-14.927 6.696-14.927 14.927s6.696 14.927 14.927 14.927 14.927-6.696 14.927-14.927-6.696-14.927-14.927-14.927zm0 27.755c-7.084 0-12.827-5.743-12.827-12.827s5.743-12.827 12.827-12.827 12.827 5.743 12.827 12.827c.001 7.084-5.742 12.827-12.827 12.827z" fill="#fff"/></g><path d="M89.368 168.883c-4.598 0-8.359 3.762-8.359 8.359v24.933c0 4.598 3.762 8.359 8.359 8.359s8.359-3.762 8.359-8.359v-24.933c0-4.598-3.761-8.359-8.359-8.359zm6.259 33.293c0 3.451-2.808 6.26-6.26 6.26s-6.259-2.808-6.259-6.26v-24.933a6.266 6.266 0 0 1 6.259-6.259 6.267 6.267 0 0 1 6.26 6.259v24.933z" clip-path="url(#b)" fill="#fff"/></svg>