<svg xmlns="http://www.w3.org/2000/svg" xmlns:xlink="http://www.w3.org/1999/xlink" viewBox="0 0 300 300"><defs><path id="a" d="M233 300H67c-36.85 0-67-30.15-67-67V67C0 30.15 30.15 0 67 0h166c36.85 0 67 30.15 67 67v166c0 36.85-30.15 67-67 67z"/></defs><clipPath id="b"><use xlink:href="#a" overflow="visible"/></clipPath><linearGradient id="c" gradientUnits="userSpaceOnUse" x1="150" y1=".026" x2="150" y2="299.974"><stop offset="0" stop-color="#1a1a1a"/><stop offset=".999" stop-color="#1a1a1a"/></linearGradient><path clip-path="url(#b)" fill="url(#c)" d="M.024.026h299.952v299.948H.024z"/><g clip-path="url(#b)" fill="#aaa9af"><path d="M228.62 173.269l2.79.963 1.276-6.013-2.836-.379z"/><ellipse transform="rotate(-73.058 237.92 172.442)" cx="237.913" cy="172.441" rx="6.118" ry="4.008"/></g><g clip-path="url(#b)" fill="#fff"><path d="M221.711 118.592c.888-.977 1.917-5.76 1.611-10.714-1.951-11.128-20.253-30.796-30.169-36.583-2.019-1.178-3.834-1.519-5.171.033-1.147 1.331-.251 3.708 1.5 4.671 10.62 5.842 27.476 24.986 29.451 38.811.286 1.997 2.035 4.6 2.778 3.782zM237.829 127.076c-2.686-5.756-5.312-8.91-5.972-7.739-.389.691-.552 4.983-.398 9.15.006.177.033.351.078.522 1.646 6.331 2.143 13.227 2.143 20.991 0 23.951-8.505 45.625-21.782 62.039-14.916 18.441-35.728 29.576-59.511 29.576-29.256 0-49.779-14.034-61.782-32.502-.18-.277-2.423-4.577-3.083-5.583-1.486-2.262-3.091-3.854-5.611-3.854-2.812 0-4.855 2.4-4.855 5.212 0 1.814 2.408 5.474 3.595 7.11 17.157 23.664 38.671 37.639 71.736 37.639 26.144 0 48.688-12.276 65.059-32.281 14.597-17.838 23.629-41.257 23.629-67.357-.001-8.304-.247-16.498-3.246-22.923z"/><path d="M82.112 101.867c2.036 0 3.804-1.188 4.756-2.843 1.333-2.314 1.893-3.589 2.311-4.425 9.967-19.961 35.517-36.107 64.055-36.107 12.259 0 27.113 1.337 40.796 11.208 16.151 11.65 23.181 20.85 29.928 34.517 3.038 6.154-1.549 14.093-1.159 19.763.408 5.924 2.743 15.198 2.743 26.02 0 13.629-2.203 22.15-5.607 32.461-.989 2.996.276 4.452 1.538 4.903 1.495.534 3.612-.466 4.413-2.997 4.082-12.905 6.179-19.249 6.183-34.367.003-11.113-2.167-19.851-2.5-25.41-.332-5.56 4.082-14.531 1.525-20.8-6.574-16.117-16.68-28.314-34.403-40.967-12.69-9.06-29.518-12.195-43.43-12.195-32.708 0-61.148 19.512-73.36 39.631-.916 1.51-2.881 4.153-2.881 6.516a5.093 5.093 0 0 0 5.092 5.092z"/></g><path d="M91.541 93.354c-.214.154-.647 2.075-2.85 5.662-1.656 2.696-4.716 6.255-9.912 3.575-3.986-2.056-3.964-7.007-2.801-9.128 1.321-2.41 3.095-4.456 2.968-4.783s-2.295-.179-3.351.09c-5.893 1.502-10.526 6.966-12.917 13.527l-.089 97.057c1.72 5.646 7.573 11.609 12.613 13.122 1.403.421 3.275.462 3.426.009.151-.453-.778-1.837-1.923-3.411-2.545-3.497-1.674-7.948 1.496-9.874 3.17-1.926 6.881-1.71 9.848 2.123 1.652 2.134 3.256 6.602 3.543 6.745.287.143.835-.281 1.311-.764 2.505-2.543 3.416-5.482 3.939-8.493v-96.59c-.739-2.622-1.633-4.535-3.806-7.608-.725-1.023-1.191-1.479-1.495-1.259z" clip-path="url(#b)" fill="#b0b1b5"/><path d="M67.185 94.367c-1.896 2.248-3.431 4.976-4.508 7.93l-.089 97.057c.801 2.629 2.503 5.322 4.597 7.607V94.367z" clip-path="url(#b)" fill="#737373"/><g clip-path="url(#b)"><circle cx="78.374" cy="127.406" r="8.934"/><path d="M78.374 114.074c-7.351 0-13.332 5.981-13.332 13.332 0 7.351 5.981 13.332 13.332 13.332 7.351 0 13.332-5.981 13.332-13.332 0-7.351-5.98-13.332-13.332-13.332zm0 24.789c-6.327 0-11.457-5.129-11.457-11.457 0-6.327 5.129-11.457 11.457-11.457 6.327 0 11.457 5.129 11.457 11.457 0 6.327-5.13 11.457-11.457 11.457z" fill="#fff"/></g><path d="M79.842 150.862c-4.106 0-7.466 3.36-7.466 7.466v22.269c0 4.106 3.36 7.466 7.466 7.466s7.466-3.36 7.466-7.466v-22.269c0-4.107-3.36-7.466-7.466-7.466zm5.591 29.735c0 3.083-2.508 5.591-5.591 5.591s-5.591-2.508-5.591-5.591v-22.269a5.597 5.597 0 0 1 5.591-5.591 5.597 5.597 0 0 1 5.591 5.591v22.269z" clip-path="url(#b)" fill="#fff"/></svg>