<svg xmlns="http://www.w3.org/2000/svg" xmlns:xlink="http://www.w3.org/1999/xlink" viewBox="0 0 335.84 335.836"><defs><path id="a" d="M260.615 335.836H75.225c-41.25 0-75-33.75-75-75V75c0-41.25 33.75-75 75-75h185.39c41.25 0 75 33.75 75 75v185.836c0 41.25-33.75 75-75 75z"/></defs><clipPath id="b"><use xlink:href="#a" overflow="visible"/></clipPath><linearGradient id="c" gradientUnits="userSpaceOnUse" x1="167.92" x2="167.92" y2="335.836"><stop offset="0" stop-color="#2468ec"/><stop offset=".5" stop-color="#29a3f4"/><stop offset="1" stop-color="#2ed4fb"/></linearGradient><path clip-path="url(#b)" fill="url(#c)" d="M0 0h335.84v335.836H0z"/><linearGradient id="d" gradientUnits="userSpaceOnUse" x1="109.389" y1="71.498" x2="109.389" y2="196.594"><stop offset="0" stop-color="#ffc100"/><stop offset="1" stop-color="#ffe200"/></linearGradient><ellipse cx="109.389" cy="134.046" rx="63.486" ry="62.548" clip-path="url(#b)" fill="url(#d)"/><path d="M233.742 244.693v-.02c26.445-.423 47.764-23.301 47.764-51.479 0-28.442-21.717-51.499-48.507-51.499a46.21 46.21 0 0 0-4.846.257c-8.713-23.375-31.7-40.073-58.69-40.073-34.479 0-62.43 27.246-62.43 60.856 0 3.49.318 6.905.896 10.234-18.94 2.32-33.573 17.603-33.573 36.124 0 17.456 14.055 33.392 31.814 35.6h127.572z" opacity=".9" clip-path="url(#b)" fill="#fff"/></svg>