<svg xmlns="http://www.w3.org/2000/svg" xmlns:xlink="http://www.w3.org/1999/xlink" viewBox="0 0 300 300"><defs><path id="a" d="M233 300H67c-36.85 0-67-30.15-67-67V67C0 30.15 30.15 0 67 0h166c36.85 0 67 30.15 67 67v166c0 36.85-30.15 67-67 67z"/></defs><clipPath id="b"><use xlink:href="#a" overflow="visible"/></clipPath><linearGradient id="c" gradientUnits="userSpaceOnUse" x1="150" y1=".026" x2="150" y2="299.974"><stop offset="0" stop-color="#2468ec"/><stop offset=".5" stop-color="#29a3f4"/><stop offset="1" stop-color="#2ed4fb"/></linearGradient><path clip-path="url(#b)" fill="url(#c)" d="M.024.026h299.952v299.948H.024z"/><linearGradient id="d" gradientUnits="userSpaceOnUse" x1="97.723" y1="63.884" x2="97.723" y2="175.612"><stop offset="0" stop-color="#ffc100"/><stop offset="1" stop-color="#ffe200"/></linearGradient><ellipse cx="97.723" cy="119.748" rx="56.702" ry="55.864" clip-path="url(#b)" fill="url(#d)"/><path d="M208.788 218.571v-.018c23.619-.378 42.66-20.811 42.66-45.978 0-25.403-19.396-45.996-43.323-45.996-1.461 0-2.905.079-4.328.229-7.782-20.877-28.312-35.791-52.419-35.791-30.794 0-55.758 24.335-55.758 54.353 0 3.117.284 6.167.801 9.141-16.916 2.072-29.985 15.722-29.985 32.264 0 15.591 12.553 29.824 28.415 31.796h113.937z" opacity=".9" clip-path="url(#b)" fill="#fff"/></svg>